#VRML V2.0 utf8
# 3D model generated by easyeda2kicad.py (https://github.com/uPesy/easyeda2kicad.py)

Shape{
    appearance Appearance {
        material  Material 	{
            diffuseColor 0.20784313725490197 0.20784313725490197 0.20784313725490197
            specularColor 0.01568627450980392 0.01568627450980392 0.01568627450980392
            ambientIntensity 0.2
            transparency 0
            shininess 0.5
        }
    }
    geometry IndexedFaceSet {
        ccw TRUE
        solid FALSE
        coord DEF co Coordinate {
            point [
                0.0674 0.0339 -0.1772, 0.0752 0.0331 -0.1772, 0.0504 -0.0252 -0.1772, 0.1546 -0.0371 -0.1772, 0.0753 -0.0376 -0.1772, 0.1143 -0.0371 -0.1772, 0.0803 -0.0371 -0.1772, 0.088 -0.0344 -0.1772, 0.1034 0.0209 -0.1772, 0.0988 0.0283 -0.1772, 0.144 0.0416 -0.1772, 0.0578 0.0327 -0.1772, 0.049 -0.0244 -0.1772, 0.049 0.0289 -0.1772, 0.0413 0.2404 -0.1772, 0.049 0.0395 -0.1772, 0.0811 0.0309 -0.1772, 0.0865 0.0273 -0.1772, 0.0913 0.022 -0.1772, 0.097 0.0014 -0.1772, 0.0962 -0.0071 -0.1772, 0.094 -0.0139 -0.1772, 0.0765 -0.0286 -0.1772, 0.0692 -0.0294 -0.1772, 0.0823 -0.0265 -0.1772, 0.0871 -0.0232 -0.1772, 0.0908 -0.0193 -0.1772, 0.0587 -0.0283 -0.1772, 0.0945 0.016 -0.1772, 0.0966 0.0075 -0.1772, 0.0943 -0.0304 -0.1772, 0.1002 -0.0242 -0.1772, 0.1143 -0.0285 -0.1772, 0.1044 -0.0167 -0.1772, 0.144 -0.0285 -0.1772, 0.0917 0.0351 -0.1772, 0.0842 0.0394 -0.1772, 0.0754 0.0419 -0.1772, 0.1068 -0.0084 -0.1772, 0.1075 0.0008 -0.1772, 0.1064 0.012 -0.1772, 0.0675 0.0426 -0.1772, 0.0581 0.0419 -0.1772, 0.049 -0.033 -0.1772, 0.0574 -0.0365 -0.1772, 0.0413 -0.0376 -0.1772, 0.0653 -0.0376 -0.1772, 0.0413 -0.2404 -0.1772, 0.0685 -0.038 -0.1772, 0.0706 -0.0381 -0.1772, 0.1546 0.0416 -0.1772, 0.3191 0.2404 -0.1772, 0.3191 -0.0376 -0.1772, 0.3191 -0.2404 -0.1772, -0.024 -0.0371 -0.1772, -0.0086 -0.0285 -0.1772, -0.0086 -0.0371 -0.1772, 0.0336 -0.0371 -0.1772, 0.0336 0.0416 -0.1772, -0.0067 0.0416 -0.1772, -0.3191 0.2404 -0.1772, -0.0931 -0.0371 -0.1772, -0.0835 -0.0155 -0.1772, -0.0789 -0.0226 -0.1772, -0.1642 -0.0371 -0.1772, -0.3191 -0.0376 -0.1772, -0.1335 0.0416 -0.1772, -0.1229 0.0416 -0.1772, 0.023 0.033 -0.1772, 0.023 0.007 -0.1772, -0.0067 0.033 -0.1772, -0.0048 0.007 -0.1772, -0.0048 -0.0016 -0.1772, 0.023 -0.0016 -0.1772, 0.023 -0.0285 -0.1772, -0.0725 -0.0288 -0.1772, -0.0642 -0.0336 -0.1772, -0.0552 -0.0363 -0.1772, -0.024 0.0416 -0.1772, -0.0576 0.0404 -0.1772, -0.0668 0.0372 -0.1772, -0.0754 0.0314 -0.1772, -0.0462 0.0416 -0.1772, -0.0755 0.0314 -0.1772, -0.081 0.0252 -0.1772, -0.0847 0.0184 -0.1772, -0.0868 0.0106 -0.1772, -0.0874 0.0032 -0.1772, -0.0863 -0.0073 -0.1772, -0.0454 -0.0371 -0.1772, -0.1447 -0.015 -0.1772, -0.1122 -0.015 -0.1772, -0.1527 -0.0371 -0.1772, -0.1047 -0.0371 -0.1772, -0.3191 -0.2404 -0.1772, -0.3191 0.2404 0.1772, -0.3191 -0.2404 0.1772, 0.2483 0.2404 0.1772, 0.2483 -0.2404 0.1772, 0.3191 -0.2404 0.1772, 0.3191 0.2404 0.1772, 0.2798 -0.2404 0.1772, 0.2798 0.2404 0.1772, 0.3346 -0.2559 0.0, 0.3346 -0.0591 0.0, 0.3346 0.0591 0.0, 0.3346 0.2559 0.0, -0.3346 -0.2559 0.0, -0.3346 0.2559 0.0, -0.3346 0.0591 0.0, -0.3346 -0.0591 0.0, 0.3312 0.0591 0.0394, 0.3312 -0.0591 0.0394, -0.3312 -0.0591 0.0394, -0.3312 0.0591 0.0394, -0.3312 0.0591 0.0394
            ]
        }
        coordIndex [
            0,1,2,-1,3,4,5,-1,5,4,6,-1,5,6,7,-1,8,9,10,-1,0,2,11,-1,11,2,12,-1,11,12,13,-1,13,12,14,-1,13,14,15,-1,1,16,2,-1,2,16,17,-1,2,17,18,-1,19,20,2,-1,2,20,21,-1,22,23,24,-1,24,23,25,-1,21,26,2,-1,2,26,25,-1,2,25,27,-1,27,25,23,-1,18,28,2,-1,2,28,29,-1,2,29,19,-1,7,30,5,-1,5,30,31,-1,5,31,32,-1,32,31,33,-1,32,33,34,-1,35,36,14,-1,14,36,37,-1,33,38,34,-1,34,38,39,-1,34,39,10,-1,10,39,40,-1,10,40,8,-1,37,41,14,-1,14,41,42,-1,14,42,15,-1,43,44,45,-1,45,44,46,-1,45,46,47,-1,46,48,47,-1,47,48,49,-1,47,49,4,-1,9,35,10,-1,10,35,14,-1,10,14,50,-1,50,14,51,-1,50,51,3,-1,3,51,52,-1,3,52,4,-1,4,52,53,-1,4,53,47,-1,54,55,56,-1,45,57,58,-1,59,60,58,-1,58,60,14,-1,58,14,45,-1,45,14,12,-1,45,12,43,-1,61,62,63,-1,64,65,66,-1,66,65,60,-1,66,60,67,-1,68,69,70,-1,70,69,71,-1,72,73,74,-1,63,75,61,-1,61,75,76,-1,61,76,77,-1,74,55,72,-1,72,55,54,-1,72,54,71,-1,71,54,78,-1,71,78,70,-1,79,80,67,-1,67,80,81,-1,79,67,82,-1,82,67,60,-1,82,60,78,-1,78,60,59,-1,78,59,70,-1,81,83,67,-1,67,83,84,-1,67,84,85,-1,85,86,67,-1,67,86,87,-1,67,87,61,-1,61,87,88,-1,61,88,62,-1,89,54,45,-1,45,54,56,-1,45,56,57,-1,90,91,92,-1,92,91,93,-1,92,93,45,-1,45,93,61,-1,45,61,89,-1,89,61,77,-1,64,92,65,-1,65,92,45,-1,65,45,94,-1,94,45,47,-1,95,96,97,-1,97,96,98,-1,99,100,101,-1,101,100,102,-1,103,53,104,-1,104,53,52,-1,104,52,105,-1,105,52,51,-1,105,51,106,-1,107,94,103,-1,103,94,47,-1,103,47,53,-1,65,94,107,-1,108,60,109,-1,109,60,65,-1,109,65,110,-1,110,65,107,-1,60,108,14,-1,14,108,106,-1,14,106,51,-1,105,106,111,-1,111,106,100,-1,111,100,112,-1,112,100,99,-1,112,99,104,-1,104,99,103,-1,106,108,95,-1,95,97,106,-1,106,97,102,-1,106,102,100,-1,110,107,113,-1,113,107,96,-1,113,96,114,-1,114,96,95,-1,114,95,109,-1,109,95,108,-1,96,107,98,-1,98,107,103,-1,98,103,101,-1,101,103,99,-1,
        ]
    }
}
Shape{
    appearance Appearance {
        material  Material 	{
            diffuseColor 0.34901960784313724 0.34901960784313724 0.34901960784313724
            specularColor 0.023529411764705882 0.023529411764705882 0.023529411764705882
            ambientIntensity 0.2
            transparency 0
            shininess 0.5
        }
    }
    geometry IndexedFaceSet {
        ccw TRUE
        solid FALSE
        coord DEF co Coordinate {
            point [
                0.2483 -0.2404 0.1772, 0.2798 -0.2404 0.1772, 0.2483 0.2404 0.1772, 0.2798 0.2404 0.1772, 0.2798 0.2404 0.1772
            ]
        }
        coordIndex [
            0,1,2,-1,2,1,3,-1,
        ]
    }
}
Shape{
    appearance Appearance {
        material  Material 	{
            diffuseColor 0.6666666666666666 0.6666666666666666 0.6666666666666666
            specularColor 0.4666666666666667 0.4666666666666667 0.4666666666666667
            ambientIntensity 0.2
            transparency 0
            shininess 0.5
        }
    }
    geometry IndexedFaceSet {
        ccw TRUE
        solid FALSE
        coord DEF co Coordinate {
            point [
                -0.3878 0.0591 0.0394, -0.3878 -0.0591 0.0394, -0.3312 0.0591 0.0394, -0.3312 -0.0591 0.0394, -0.3346 -0.0591 0.0, -0.3878 -0.0591 0.0, -0.3346 0.0591 0.0, -0.3878 0.0591 0.0, -0.4 0.0591 0.0378, -0.3895 0.0591 -0.0002, -0.4114 0.0591 0.033, -0.3912 0.0591 -0.0008, -0.4212 0.0591 0.0255, -0.3927 0.0591 -0.0017, -0.394 0.0591 -0.003, -0.4287 0.0591 0.0157, -0.3949 0.0591 -0.0045, -0.4334 0.0591 0.0044, -0.3955 0.0591 -0.0061, -0.435 0.0591 -0.0079, -0.3957 0.0591 -0.0079, -0.435 0.0591 -0.1535, -0.3957 0.0591 -0.1535, -0.4352 0.0591 -0.1553, -0.3969 0.0591 -0.1641, -0.4358 0.0591 -0.157, -0.4003 0.0591 -0.174, -0.4368 0.0591 -0.1585, -0.406 0.0591 -0.183, -0.438 0.0591 -0.1597, -0.4135 0.0591 -0.1905, -0.4395 0.0591 -0.1606, -0.4224 0.0591 -0.1961, -0.4412 0.0591 -0.1612, -0.4324 0.0591 -0.1996, -0.4429 0.0591 -0.1614, -0.4429 0.0591 -0.2008, -0.5217 0.0591 -0.1614, -0.5217 0.0591 -0.2008, -0.5217 -0.0591 -0.1614, -0.5217 -0.0591 -0.2008, -0.4429 -0.0591 -0.1614, -0.4429 -0.0591 -0.2008, -0.4412 -0.0591 -0.1612, -0.4324 -0.0591 -0.1996, -0.4395 -0.0591 -0.1606, -0.4224 -0.0591 -0.1961, -0.438 -0.0591 -0.1597, -0.4135 -0.0591 -0.1905, -0.4368 -0.0591 -0.1585, -0.406 -0.0591 -0.183, -0.4358 -0.0591 -0.157, -0.4003 -0.0591 -0.174, -0.4352 -0.0591 -0.1553, -0.3969 -0.0591 -0.1641, -0.435 -0.0591 -0.1535, -0.3957 -0.0591 -0.1535, -0.435 -0.0591 -0.0079, -0.3957 -0.0591 -0.0079, -0.4334 -0.0591 0.0044, -0.3955 -0.0591 -0.0061, -0.4287 -0.0591 0.0157, -0.3949 -0.0591 -0.0045, -0.4212 -0.0591 0.0255, -0.3895 -0.0591 -0.0002, -0.4 -0.0591 0.0378, -0.3912 -0.0591 -0.0008, -0.4114 -0.0591 0.033, -0.3927 -0.0591 -0.0017, -0.394 -0.0591 -0.003, 0.3878 0.0591 0.0, 0.3878 -0.0591 0.0, 0.3346 0.0591 0.0, 0.3346 -0.0591 0.0, 0.3312 -0.0591 0.0394, 0.3878 -0.0591 0.0394, 0.3312 0.0591 0.0394, 0.3878 0.0591 0.0394, 0.5217 0.0591 -0.1614, 0.5217 0.0591 -0.2008, 0.4429 0.0591 -0.1614, 0.4429 0.0591 -0.2008, 0.4412 0.0591 -0.1612, 0.4324 0.0591 -0.1996, 0.4395 0.0591 -0.1606, 0.4224 0.0591 -0.1961, 0.438 0.0591 -0.1597, 0.4135 0.0591 -0.1905, 0.4368 0.0591 -0.1585, 0.406 0.0591 -0.183, 0.4358 0.0591 -0.157, 0.4003 0.0591 -0.174, 0.4352 0.0591 -0.1553, 0.3969 0.0591 -0.1641, 0.435 0.0591 -0.1535, 0.3957 0.0591 -0.1535, 0.435 0.0591 -0.0079, 0.3957 0.0591 -0.0079, 0.4334 0.0591 0.0044, 0.3955 0.0591 -0.0061, 0.4287 0.0591 0.0157, 0.3949 0.0591 -0.0045, 0.4212 0.0591 0.0255, 0.3895 0.0591 -0.0002, 0.4 0.0591 0.0378, 0.3912 0.0591 -0.0008, 0.4114 0.0591 0.033, 0.3927 0.0591 -0.0017, 0.394 0.0591 -0.003, 0.4212 -0.0591 0.0255, 0.394 -0.0591 -0.003, 0.4287 -0.0591 0.0157, 0.3949 -0.0591 -0.0045, 0.4334 -0.0591 0.0044, 0.3955 -0.0591 -0.0061, 0.435 -0.0591 -0.0079, 0.3957 -0.0591 -0.0079, 0.435 -0.0591 -0.1535, 0.3957 -0.0591 -0.1535, 0.4352 -0.0591 -0.1553, 0.3969 -0.0591 -0.1641, 0.4358 -0.0591 -0.157, 0.4003 -0.0591 -0.174, 0.4368 -0.0591 -0.1585, 0.406 -0.0591 -0.183, 0.438 -0.0591 -0.1597, 0.4135 -0.0591 -0.1905, 0.4395 -0.0591 -0.1606, 0.4224 -0.0591 -0.1961, 0.4412 -0.0591 -0.1612, 0.4324 -0.0591 -0.1996, 0.4429 -0.0591 -0.1614, 0.4429 -0.0591 -0.2008, 0.5217 -0.0591 -0.1614, 0.5217 -0.0591 -0.2008, 0.4 -0.0591 0.0378, 0.3895 -0.0591 -0.0002, 0.4114 -0.0591 0.033, 0.3912 -0.0591 -0.0008, 0.3927 -0.0591 -0.0017, 0.3927 -0.0591 -0.0017
            ]
        }
        coordIndex [
            0,1,2,-1,2,1,3,-1,4,5,6,-1,6,5,7,-1,2,6,0,-1,0,6,7,-1,0,7,8,-1,8,7,9,-1,8,9,10,-1,10,9,11,-1,10,11,12,-1,11,13,12,-1,12,13,14,-1,12,14,15,-1,15,14,16,-1,15,16,17,-1,17,16,18,-1,17,18,19,-1,19,18,20,-1,19,20,21,-1,21,20,22,-1,21,22,23,-1,23,22,24,-1,23,24,25,-1,25,24,26,-1,25,26,27,-1,27,26,28,-1,27,28,29,-1,29,28,30,-1,29,30,31,-1,31,30,32,-1,31,32,33,-1,33,32,34,-1,33,34,35,-1,35,34,36,-1,35,36,37,-1,37,36,38,-1,39,40,41,-1,41,40,42,-1,41,42,43,-1,43,42,44,-1,43,44,45,-1,45,44,46,-1,45,46,47,-1,47,46,48,-1,47,48,49,-1,49,48,50,-1,49,50,51,-1,51,50,52,-1,51,52,53,-1,53,52,54,-1,53,54,55,-1,55,54,56,-1,55,56,57,-1,57,56,58,-1,57,58,59,-1,59,58,60,-1,59,60,61,-1,61,60,62,-1,61,62,63,-1,4,3,5,-1,5,3,1,-1,5,1,64,-1,64,1,65,-1,64,65,66,-1,66,65,67,-1,66,67,68,-1,68,67,63,-1,68,63,69,-1,69,63,62,-1,38,36,40,-1,40,36,42,-1,37,38,39,-1,39,38,40,-1,35,37,41,-1,41,37,39,-1,35,41,33,-1,33,41,43,-1,33,43,31,-1,31,43,45,-1,31,45,29,-1,29,45,47,-1,29,47,27,-1,27,47,49,-1,27,49,25,-1,25,49,51,-1,25,51,23,-1,23,51,53,-1,23,53,21,-1,21,53,55,-1,19,21,57,-1,57,21,55,-1,19,57,59,-1,19,59,17,-1,17,59,61,-1,17,61,15,-1,15,61,63,-1,15,63,12,-1,12,63,67,-1,12,67,10,-1,10,67,65,-1,10,65,8,-1,8,65,1,-1,8,1,0,-1,7,5,9,-1,9,5,64,-1,9,64,11,-1,11,64,66,-1,11,66,13,-1,13,66,68,-1,13,68,14,-1,14,68,69,-1,14,69,16,-1,16,69,62,-1,16,62,18,-1,18,62,60,-1,18,60,20,-1,20,60,58,-1,22,20,56,-1,56,20,58,-1,22,56,54,-1,22,54,24,-1,24,54,52,-1,24,52,26,-1,26,52,50,-1,26,50,28,-1,28,50,48,-1,28,48,30,-1,30,48,46,-1,30,46,32,-1,32,46,44,-1,32,44,34,-1,34,44,42,-1,34,42,36,-1,70,71,72,-1,72,71,73,-1,74,75,76,-1,76,75,77,-1,78,79,80,-1,80,79,81,-1,80,81,82,-1,82,81,83,-1,82,83,84,-1,84,83,85,-1,84,85,86,-1,86,85,87,-1,86,87,88,-1,88,87,89,-1,88,89,90,-1,90,89,91,-1,90,91,92,-1,92,91,93,-1,92,93,94,-1,94,93,95,-1,94,95,96,-1,96,95,97,-1,96,97,98,-1,98,97,99,-1,98,99,100,-1,100,99,101,-1,100,101,102,-1,72,76,70,-1,70,76,77,-1,70,77,103,-1,103,77,104,-1,103,104,105,-1,105,104,106,-1,105,106,107,-1,107,106,102,-1,107,102,108,-1,108,102,101,-1,109,110,111,-1,111,110,112,-1,111,112,113,-1,113,112,114,-1,113,114,115,-1,115,114,116,-1,115,116,117,-1,117,116,118,-1,117,118,119,-1,119,118,120,-1,119,120,121,-1,121,120,122,-1,121,122,123,-1,123,122,124,-1,123,124,125,-1,125,124,126,-1,125,126,127,-1,127,126,128,-1,127,128,129,-1,129,128,130,-1,129,130,131,-1,131,130,132,-1,131,132,133,-1,133,132,134,-1,74,73,75,-1,75,73,71,-1,75,71,135,-1,135,71,136,-1,135,136,137,-1,137,136,138,-1,137,138,109,-1,109,138,139,-1,109,139,110,-1,81,79,132,-1,132,79,134,-1,81,132,130,-1,81,130,83,-1,83,130,128,-1,83,128,85,-1,85,128,126,-1,85,126,87,-1,87,126,124,-1,87,124,89,-1,89,124,122,-1,89,122,91,-1,91,122,120,-1,91,120,93,-1,93,120,118,-1,93,118,95,-1,97,95,116,-1,116,95,118,-1,97,116,99,-1,99,116,114,-1,99,114,101,-1,101,114,112,-1,101,112,108,-1,108,112,110,-1,108,110,107,-1,107,110,139,-1,107,139,105,-1,105,139,138,-1,105,138,103,-1,103,138,136,-1,103,136,70,-1,70,136,71,-1,77,75,135,-1,77,135,104,-1,104,135,137,-1,104,137,106,-1,106,137,109,-1,106,109,102,-1,102,109,111,-1,102,111,100,-1,100,111,113,-1,100,113,98,-1,98,113,115,-1,98,115,96,-1,94,96,117,-1,117,96,115,-1,94,117,92,-1,92,117,119,-1,92,119,90,-1,90,119,121,-1,90,121,88,-1,88,121,123,-1,88,123,86,-1,86,123,125,-1,86,125,84,-1,84,125,127,-1,84,127,82,-1,82,127,129,-1,82,129,80,-1,80,129,131,-1,78,80,133,-1,133,80,131,-1,79,78,134,-1,134,78,133,-1,
        ]
    }
}
Shape{
    appearance Appearance {
        material  Material 	{
            diffuseColor 1.0 1.0 1.0
            specularColor 0.8784313725490196 0.8784313725490196 0.8784313725490196
            ambientIntensity 0.2
            transparency 0
            shininess 0.5
        }
    }
    geometry IndexedFaceSet {
        ccw TRUE
        solid FALSE
        coord DEF co Coordinate {
            point [
                -0.1335 0.0416 -0.1693, -0.1642 -0.0371 -0.1693, -0.1335 0.0416 -0.1772, -0.1642 -0.0371 -0.1772, -0.1527 -0.0371 -0.1693, -0.1527 -0.0371 -0.1772, -0.1447 -0.015 -0.1693, -0.1447 -0.015 -0.1772, -0.1122 -0.015 -0.1693, -0.1122 -0.015 -0.1772, -0.1047 -0.0371 -0.1693, -0.1047 -0.0371 -0.1772, -0.0931 -0.0371 -0.1693, -0.0931 -0.0371 -0.1772, -0.1229 0.0416 -0.1693, -0.1229 0.0416 -0.1772, -0.1148 -0.0064 -0.1693, -0.1412 -0.0064 -0.1693, -0.1266 0.0265 -0.1693, -0.1273 0.0292 -0.1693, -0.1278 0.032 -0.1693, -0.1281 0.032 -0.1693, -0.1286 0.0292 -0.1693, -0.1293 0.0265 -0.1693, -0.1148 -0.0064 -0.1772, -0.1412 -0.0064 -0.1772, -0.1266 0.0265 -0.1772, -0.1273 0.0292 -0.1772, -0.1278 0.032 -0.1772, -0.1281 0.032 -0.1772, -0.1286 0.0292 -0.1772, -0.1293 0.0265 -0.1772, -0.0454 -0.0371 -0.1693, -0.024 -0.0371 -0.1693, -0.0454 -0.0371 -0.1772, -0.024 -0.0371 -0.1772, -0.024 0.0416 -0.1693, -0.024 0.0416 -0.1772, -0.0462 0.0416 -0.1693, -0.0462 0.0416 -0.1772, -0.0874 0.0032 -0.1693, -0.0874 0.0032 -0.1772, -0.0868 0.0106 -0.1772, -0.0868 0.0106 -0.1693, -0.0847 0.0184 -0.1772, -0.0847 0.0184 -0.1693, -0.081 0.0252 -0.1772, -0.081 0.0252 -0.1693, -0.0755 0.0314 -0.1772, -0.0755 0.0314 -0.1693, -0.0754 0.0314 -0.1772, -0.0754 0.0314 -0.1693, -0.0668 0.0372 -0.1772, -0.0668 0.0372 -0.1693, -0.0576 0.0404 -0.1772, -0.0576 0.0404 -0.1693, -0.0552 -0.0363 -0.1772, -0.0552 -0.0363 -0.1693, -0.0642 -0.0336 -0.1772, -0.0642 -0.0336 -0.1693, -0.0725 -0.0288 -0.1772, -0.0725 -0.0288 -0.1693, -0.0789 -0.0226 -0.1772, -0.0789 -0.0226 -0.1693, -0.0835 -0.0155 -0.1772, -0.0835 -0.0155 -0.1693, -0.0863 -0.0073 -0.1772, -0.0863 -0.0073 -0.1693, -0.0716 0.0219 -0.1693, -0.0678 0.026 -0.1693, -0.062 0.0297 -0.1693, -0.0555 0.032 -0.1693, -0.0462 0.033 -0.1693, -0.0346 0.033 -0.1693, -0.0346 -0.0285 -0.1693, -0.0457 -0.0285 -0.1693, -0.0541 -0.0277 -0.1693, -0.0607 -0.0256 -0.1693, -0.066 -0.0224 -0.1693, -0.0705 -0.0181 -0.1693, -0.0738 -0.0127 -0.1693, -0.0761 -0.0053 -0.1693, -0.0768 0.003 -0.1693, -0.0762 0.0108 -0.1693, -0.0743 0.0171 -0.1693, -0.0462 0.033 -0.1772, -0.0346 0.033 -0.1772, -0.0555 0.032 -0.1772, -0.062 0.0297 -0.1772, -0.0678 0.026 -0.1772, -0.0716 0.0219 -0.1772, -0.0743 0.0171 -0.1772, -0.0762 0.0108 -0.1772, -0.0768 0.003 -0.1772, -0.0761 -0.0053 -0.1772, -0.0738 -0.0127 -0.1772, -0.0705 -0.0181 -0.1772, -0.066 -0.0224 -0.1772, -0.0607 -0.0256 -0.1772, -0.0541 -0.0277 -0.1772, -0.0457 -0.0285 -0.1772, -0.0346 -0.0285 -0.1772, -0.0086 -0.0285 -0.1693, -0.0086 -0.0371 -0.1693, -0.0086 -0.0285 -0.1772, -0.0086 -0.0371 -0.1772, 0.0336 -0.0371 -0.1693, 0.0336 -0.0371 -0.1772, 0.0336 0.0416 -0.1693, 0.0336 0.0416 -0.1772, -0.0067 0.0416 -0.1693, -0.0067 0.0416 -0.1772, -0.0067 0.033 -0.1693, -0.0067 0.033 -0.1772, 0.023 0.033 -0.1693, 0.023 0.033 -0.1772, 0.023 0.007 -0.1693, 0.023 0.007 -0.1772, -0.0048 0.007 -0.1693, -0.0048 0.007 -0.1772, -0.0048 -0.0016 -0.1693, -0.0048 -0.0016 -0.1772, 0.023 -0.0016 -0.1693, 0.023 -0.0016 -0.1772, 0.023 -0.0285 -0.1693, 0.023 -0.0285 -0.1772, 0.049 -0.0244 -0.1693, 0.049 -0.033 -0.1693, 0.049 -0.0244 -0.1772, 0.049 -0.033 -0.1772, 0.0574 -0.0365 -0.1693, 0.0706 -0.0381 -0.1693, 0.0706 -0.0381 -0.1772, 0.0685 -0.038 -0.1772, 0.0685 -0.038 -0.1693, 0.0653 -0.0376 -0.1772, 0.0574 -0.0365 -0.1772, 0.1075 0.0008 -0.1693, 0.1075 0.0008 -0.1772, 0.1068 -0.0084 -0.1772, 0.1068 -0.0084 -0.1693, 0.1044 -0.0167 -0.1772, 0.1044 -0.0167 -0.1693, 0.1002 -0.0242 -0.1772, 0.1002 -0.0242 -0.1693, 0.0943 -0.0304 -0.1772, 0.0943 -0.0304 -0.1693, 0.088 -0.0344 -0.1772, 0.088 -0.0344 -0.1693, 0.0803 -0.0371 -0.1772, 0.0803 -0.0371 -0.1693, 0.0753 -0.0376 -0.1772, 0.0675 0.0426 -0.1693, 0.0675 0.0426 -0.1772, 0.0754 0.0419 -0.1772, 0.0754 0.0419 -0.1693, 0.0842 0.0394 -0.1772, 0.0842 0.0394 -0.1693, 0.0917 0.0351 -0.1772, 0.0917 0.0351 -0.1693, 0.0988 0.0283 -0.1772, 0.0988 0.0283 -0.1693, 0.1034 0.0209 -0.1772, 0.1034 0.0209 -0.1693, 0.1064 0.012 -0.1772, 0.1064 0.012 -0.1693, 0.049 0.0395 -0.1693, 0.049 0.0395 -0.1772, 0.0581 0.0419 -0.1772, 0.0581 0.0419 -0.1693, 0.049 0.0289 -0.1693, 0.049 0.0289 -0.1772, 0.0674 0.0339 -0.1693, 0.0674 0.0339 -0.1772, 0.0578 0.0327 -0.1772, 0.0578 0.0327 -0.1693, 0.097 0.0014 -0.1693, 0.097 0.0014 -0.1772, 0.0966 0.0075 -0.1772, 0.0966 0.0075 -0.1693, 0.0945 0.016 -0.1772, 0.0945 0.016 -0.1693, 0.0913 0.022 -0.1772, 0.0913 0.022 -0.1693, 0.0865 0.0273 -0.1772, 0.0865 0.0273 -0.1693, 0.0811 0.0309 -0.1772, 0.0811 0.0309 -0.1693, 0.0752 0.0331 -0.1772, 0.0752 0.0331 -0.1693, 0.0692 -0.0294 -0.1693, 0.0692 -0.0294 -0.1772, 0.0765 -0.0286 -0.1772, 0.0765 -0.0286 -0.1693, 0.0823 -0.0265 -0.1772, 0.0823 -0.0265 -0.1693, 0.0871 -0.0232 -0.1772, 0.0871 -0.0232 -0.1693, 0.0908 -0.0193 -0.1772, 0.0908 -0.0193 -0.1693, 0.094 -0.0139 -0.1772, 0.094 -0.0139 -0.1693, 0.0962 -0.0071 -0.1772, 0.0962 -0.0071 -0.1693, 0.0504 -0.0252 -0.1772, 0.0504 -0.0252 -0.1693, 0.0587 -0.0283 -0.1772, 0.0587 -0.0283 -0.1693, 0.1143 -0.0285 -0.1693, 0.1143 -0.0371 -0.1693, 0.1143 -0.0285 -0.1772, 0.1143 -0.0371 -0.1772, 0.1546 -0.0371 -0.1693, 0.1546 -0.0371 -0.1772, 0.1546 0.0416 -0.1693, 0.1546 0.0416 -0.1772, 0.144 0.0416 -0.1693, 0.144 0.0416 -0.1772, 0.144 -0.0285 -0.1693, 0.144 -0.0285 -0.1772, 0.144 -0.0285 -0.1772
            ]
        }
        coordIndex [
            0,1,2,-1,2,1,3,-1,1,4,3,-1,3,4,5,-1,4,6,5,-1,5,6,7,-1,6,8,7,-1,7,8,9,-1,8,10,9,-1,9,10,11,-1,10,12,11,-1,11,12,13,-1,12,14,13,-1,13,14,15,-1,14,0,15,-1,15,0,2,-1,16,8,17,-1,17,8,6,-1,18,14,16,-1,16,14,12,-1,16,12,8,-1,8,12,10,-1,18,19,14,-1,14,19,20,-1,14,20,0,-1,0,20,21,-1,0,21,22,-1,22,23,0,-1,0,23,17,-1,0,17,1,-1,1,17,6,-1,1,6,4,-1,16,17,24,-1,24,17,25,-1,18,16,26,-1,26,16,24,-1,18,26,27,-1,18,27,19,-1,19,27,28,-1,19,28,20,-1,21,20,29,-1,29,20,28,-1,21,29,30,-1,21,30,22,-1,22,30,31,-1,22,31,23,-1,17,23,25,-1,25,23,31,-1,32,33,34,-1,34,33,35,-1,33,36,35,-1,35,36,37,-1,36,38,37,-1,37,38,39,-1,40,41,42,-1,40,42,43,-1,43,42,44,-1,43,44,45,-1,45,44,46,-1,45,46,47,-1,47,46,48,-1,47,48,49,-1,49,48,50,-1,49,50,51,-1,51,50,52,-1,51,52,53,-1,53,52,54,-1,53,54,55,-1,55,54,39,-1,55,39,38,-1,32,34,56,-1,32,56,57,-1,57,56,58,-1,57,58,59,-1,59,58,60,-1,59,60,61,-1,61,60,62,-1,61,62,63,-1,63,62,64,-1,63,64,65,-1,65,64,66,-1,65,66,67,-1,67,66,41,-1,67,41,40,-1,45,47,68,-1,68,47,49,-1,68,49,69,-1,69,49,51,-1,69,51,70,-1,70,51,53,-1,70,53,71,-1,71,53,55,-1,71,55,72,-1,72,55,38,-1,72,38,73,-1,73,38,36,-1,73,36,74,-1,74,36,33,-1,74,33,75,-1,75,33,32,-1,75,32,76,-1,76,32,57,-1,76,57,77,-1,77,57,59,-1,77,59,78,-1,78,59,61,-1,78,61,79,-1,79,61,63,-1,79,63,80,-1,80,63,65,-1,80,65,81,-1,81,65,67,-1,81,67,82,-1,82,67,40,-1,82,40,83,-1,83,40,43,-1,83,43,84,-1,84,43,45,-1,84,45,68,-1,72,73,85,-1,85,73,86,-1,72,85,87,-1,72,87,71,-1,71,87,88,-1,71,88,70,-1,70,88,89,-1,70,89,69,-1,69,89,90,-1,69,90,68,-1,68,90,91,-1,68,91,84,-1,84,91,92,-1,84,92,83,-1,83,92,93,-1,83,93,82,-1,82,93,94,-1,82,94,81,-1,81,94,95,-1,81,95,80,-1,80,95,96,-1,80,96,79,-1,79,96,97,-1,79,97,78,-1,78,97,98,-1,78,98,77,-1,77,98,99,-1,77,99,76,-1,76,99,100,-1,76,100,75,-1,74,75,101,-1,101,75,100,-1,73,74,86,-1,86,74,101,-1,102,103,104,-1,104,103,105,-1,103,106,105,-1,105,106,107,-1,106,108,107,-1,107,108,109,-1,108,110,109,-1,109,110,111,-1,110,112,111,-1,111,112,113,-1,112,114,113,-1,113,114,115,-1,114,116,115,-1,115,116,117,-1,116,118,117,-1,117,118,119,-1,118,120,119,-1,119,120,121,-1,120,122,121,-1,121,122,123,-1,122,124,123,-1,123,124,125,-1,124,102,125,-1,125,102,104,-1,106,103,102,-1,102,124,106,-1,106,124,122,-1,106,122,108,-1,112,110,114,-1,114,110,108,-1,114,108,116,-1,116,108,122,-1,116,122,118,-1,118,122,120,-1,126,127,128,-1,128,127,129,-1,129,127,130,-1,131,132,133,-1,131,133,134,-1,134,133,135,-1,134,135,130,-1,130,135,136,-1,130,136,129,-1,137,138,139,-1,137,139,140,-1,140,139,141,-1,140,141,142,-1,142,141,143,-1,142,143,144,-1,144,143,145,-1,144,145,146,-1,146,145,147,-1,146,147,148,-1,148,147,149,-1,148,149,150,-1,150,149,131,-1,131,149,151,-1,131,151,132,-1,152,153,154,-1,152,154,155,-1,155,154,156,-1,155,156,157,-1,157,156,158,-1,157,158,159,-1,159,158,160,-1,159,160,161,-1,161,160,162,-1,161,162,163,-1,163,162,164,-1,163,164,165,-1,165,164,138,-1,165,138,137,-1,166,167,168,-1,166,168,169,-1,169,168,153,-1,169,153,152,-1,166,170,167,-1,167,170,171,-1,172,173,174,-1,172,174,175,-1,175,174,171,-1,175,171,170,-1,176,177,178,-1,176,178,179,-1,179,178,180,-1,179,180,181,-1,181,180,182,-1,181,182,183,-1,183,182,184,-1,183,184,185,-1,185,184,186,-1,185,186,187,-1,187,186,188,-1,187,188,189,-1,189,188,173,-1,189,173,172,-1,190,191,192,-1,190,192,193,-1,193,192,194,-1,193,194,195,-1,195,194,196,-1,195,196,197,-1,197,196,198,-1,197,198,199,-1,199,198,200,-1,199,200,201,-1,201,200,202,-1,201,202,203,-1,203,202,177,-1,203,177,176,-1,126,128,204,-1,126,204,205,-1,205,204,206,-1,205,206,207,-1,207,206,191,-1,207,191,190,-1,193,131,190,-1,190,131,134,-1,190,134,207,-1,207,134,130,-1,207,130,205,-1,205,130,127,-1,205,127,126,-1,170,166,175,-1,175,166,169,-1,175,169,172,-1,172,169,152,-1,172,152,189,-1,189,152,155,-1,189,155,187,-1,187,155,157,-1,187,157,185,-1,185,157,159,-1,185,159,183,-1,183,159,161,-1,183,161,181,-1,181,161,163,-1,181,163,179,-1,179,163,165,-1,179,165,176,-1,176,165,137,-1,176,137,203,-1,203,137,140,-1,203,140,201,-1,201,140,142,-1,201,142,199,-1,199,142,144,-1,199,144,197,-1,197,144,146,-1,197,146,195,-1,195,146,148,-1,195,148,193,-1,193,148,150,-1,193,150,131,-1,208,209,210,-1,210,209,211,-1,209,212,211,-1,211,212,213,-1,212,214,213,-1,213,214,215,-1,214,216,215,-1,215,216,217,-1,216,218,217,-1,217,218,219,-1,218,208,219,-1,219,208,210,-1,216,214,218,-1,218,214,212,-1,218,212,208,-1,208,212,209,-1,
        ]
    }
}
Shape{
    appearance Appearance {
        material  Material 	{
            diffuseColor 0.20784313725490197 0.20784313725490197 0.20784313725490197
            specularColor 0.01568627450980392 0.01568627450980392 0.01568627450980392
            ambientIntensity 0.2
            transparency 0
            shininess 0.5
        }
    }
    geometry IndexedFaceSet {
        ccw TRUE
        solid FALSE
        coord DEF co Coordinate {
            point [
                -0.1148 -0.0064 -0.1772, -0.1412 -0.0064 -0.1772, -0.1266 0.0265 -0.1772, -0.1293 0.0265 -0.1772, -0.1273 0.0292 -0.1772, -0.1286 0.0292 -0.1772, -0.1278 0.032 -0.1772, -0.1281 0.032 -0.1772, -0.0346 0.033 -0.1772, -0.0346 -0.0285 -0.1772, -0.0462 0.033 -0.1772, -0.0457 -0.0285 -0.1772, -0.0541 -0.0277 -0.1772, -0.0768 0.003 -0.1772, -0.0762 0.0108 -0.1772, -0.0743 0.0171 -0.1772, -0.0555 0.032 -0.1772, -0.0607 -0.0256 -0.1772, -0.066 -0.0224 -0.1772, -0.0705 -0.0181 -0.1772, -0.0738 -0.0127 -0.1772, -0.0761 -0.0053 -0.1772, -0.0716 0.0219 -0.1772, -0.0678 0.026 -0.1772, -0.062 0.0297 -0.1772, -0.062 0.0297 -0.1772
            ]
        }
        coordIndex [
            0,1,2,-1,2,1,3,-1,2,3,4,-1,4,3,5,-1,4,5,6,-1,6,5,7,-1,8,9,10,-1,10,9,11,-1,10,11,12,-1,13,14,10,-1,10,14,15,-1,10,15,16,-1,12,17,10,-1,10,17,18,-1,10,18,19,-1,19,20,10,-1,10,20,21,-1,10,21,13,-1,22,23,15,-1,15,23,24,-1,15,24,16,-1,
        ]
    }
}