M48
; DRILL file {KiCad 8.0.7} date 2025-10-19T18:35:44+0200
; FORMAT={-:-/ absolute / inch / decimal}
; #@! TF.CreationDate,2025-10-19T18:35:44+02:00
; #@! TF.GenerationSoftware,Kicad,Pcbnew,8.0.7
; #@! TF.FileFunction,Plated,1,4,PTH
FMAT,2
INCH
; #@! TA.AperFunction,Plated,PTH,ViaDrill
T1C0.0118
; #@! TA.AperFunction,Plated,PTH,ComponentDrill
T2C0.0256
; #@! TA.AperFunction,Plated,PTH,ComponentDrill
T3C0.0276
; #@! TA.AperFunction,Plated,PTH,ComponentDrill
T4C0.0394
%
G90
G05
T1
X5.3157Y-3.3295
X5.6457Y-3.7539
X5.648Y-3.3996
X5.6482Y-4.5482
X5.6555Y-3.5177
X5.6555Y-4.0512
X5.6555Y-4.1378
X5.6681Y-4.4555
X5.7185Y-3.4882
X5.726Y-3.3996
X5.752Y-3.4882
X5.7791Y-4.5307
X5.8303Y-3.4539
X5.8311Y-3.6126
X5.8591Y-3.4378
X5.8593Y-3.4045
X5.8642Y-3.613
X5.874Y-3.8524
X5.8816Y-4.0318
X5.8821Y-3.5039
X5.8972Y-4.0803
X5.9429Y-4.5059
X5.9811Y-3.4811
X6.0031Y-3.4181
X6.0138Y-4.0394
X6.0138Y-4.0906
X6.0224Y-3.5531
X6.0276Y-4.5059
X6.0714Y-3.5164
X6.0902Y-3.7197
X6.0943Y-3.4941
X6.1291Y-3.8157
X6.1362Y-3.4283
X6.1543Y-3.7224
X6.158Y-3.4966
X6.2008Y-3.9311
X6.2665Y-3.5165
X6.2807Y-4.4126
X6.3013Y-3.5591
X6.3276Y-4.2909
X6.3622Y-3.7795
X6.3984Y-4.4114
X6.5079Y-3.5
X6.5079Y-3.7087
X6.5169Y-4.4114
X6.5547Y-3.9972
X6.5555Y-4.1579
X6.5929Y-3.5382
X6.6354Y-4.4134
X6.75Y-3.3957
X6.8394Y-4.5992
X6.861Y-3.6272
X6.861Y-4.5343
X6.8618Y-4.0827
X6.9035Y-3.5256
X6.9035Y-3.9803
X6.9035Y-4.4291
T2
X4.8955Y-4.5374
X5.123Y-4.5374
T3
X6.9814Y-3.4961
X6.9814Y-3.563
X6.9814Y-3.9469
X6.9814Y-4.0138
X6.9814Y-4.3976
X6.9814Y-4.4646
T4
X6.7504Y-3.2128
X6.7504Y-3.3128
X6.8504Y-3.2128
X6.8504Y-3.3128
X6.9504Y-3.2128
X6.9504Y-3.3128
M30
