%TF.GenerationSoftware,KiCad,Pcbnew,8.0.7*%
%TF.CreationDate,2025-10-19T18:35:44+02:00*%
%TF.ProjectId,ctc_2025,6374635f-3230-4323-952e-6b696361645f,rev?*%
%TF.SameCoordinates,Original*%
%TF.FileFunction,Copper,L2,Inr*%
%TF.FilePolarity,Positive*%
%FSLAX46Y46*%
G04 Gerber Fmt 4.6, Leading zero omitted, Abs format (unit mm)*
G04 Created by KiCad (PCBNEW 8.0.7) date 2025-10-19 18:35:44*
%MOMM*%
%LPD*%
G01*
G04 APERTURE LIST*
%TA.AperFunction,ComponentPad*%
%ADD10R,1.700000X1.600000*%
%TD*%
%TA.AperFunction,ComponentPad*%
%ADD11C,1.600000*%
%TD*%
%TA.AperFunction,ComponentPad*%
%ADD12C,0.700000*%
%TD*%
%TA.AperFunction,ComponentPad*%
%ADD13C,0.650000*%
%TD*%
%TA.AperFunction,ViaPad*%
%ADD14C,0.600000*%
%TD*%
%TA.AperFunction,Conductor*%
%ADD15C,0.200000*%
%TD*%
G04 APERTURE END LIST*
D10*
%TO.N,GND*%
%TO.C,H1*%
X171460000Y-84145000D03*
D11*
%TO.N,+3.3V*%
X171460000Y-81605000D03*
%TO.N,/I2C_SCL*%
X174000000Y-84145000D03*
%TO.N,/I2C_SDA*%
X174000000Y-81605000D03*
%TO.N,/SAO_IO2*%
X176540000Y-84145000D03*
%TO.N,/SAO_IO1*%
X176540000Y-81605000D03*
%TD*%
D12*
%TO.N,*%
%TO.C,SW5*%
X177327500Y-111700000D03*
X177327500Y-113400000D03*
%TD*%
%TO.N,*%
%TO.C,SW3*%
X177327500Y-88800000D03*
X177327500Y-90500000D03*
%TD*%
%TO.N,*%
%TO.C,SW4*%
X177327500Y-100250000D03*
X177327500Y-101950000D03*
%TD*%
D13*
%TO.N,*%
%TO.C,J1*%
X130125000Y-115250000D03*
X124345000Y-115250000D03*
%TD*%
D14*
%TO.N,GND*%
X155680000Y-96920000D03*
X143650000Y-102900000D03*
X152970000Y-90250000D03*
X143650000Y-105100000D03*
X143460000Y-86350000D03*
X162520000Y-112050000D03*
X149790000Y-103640000D03*
X149404999Y-89000000D03*
X160720000Y-108990000D03*
X150950000Y-114450000D03*
X175350000Y-101100000D03*
X171450000Y-86250000D03*
X149200000Y-97850000D03*
X165530000Y-112050000D03*
X175350000Y-89550000D03*
X157500000Y-99850000D03*
X156320000Y-94550000D03*
X166490000Y-101530000D03*
X153100000Y-114450000D03*
X143970000Y-113170000D03*
X152750000Y-103900000D03*
X154690000Y-94480000D03*
X175350000Y-112500000D03*
X167460000Y-89870000D03*
X145440000Y-86350000D03*
%TO.N,+5V*%
X143465000Y-115525000D03*
X173720000Y-116820000D03*
%TO.N,+3.3V*%
X161600000Y-96000000D03*
X149392206Y-102407794D03*
X135020000Y-84570000D03*
X155860000Y-87080000D03*
X165300000Y-88900000D03*
X174290000Y-103700000D03*
X143400000Y-95350000D03*
X174270000Y-115170000D03*
X174270000Y-92130000D03*
X148090000Y-87730000D03*
X166510000Y-105610000D03*
X146790000Y-115080000D03*
X152750000Y-102600000D03*
X165300000Y-94200000D03*
%TO.N,/I2C_SDA*%
X146100000Y-88600000D03*
X154794294Y-88749998D03*
X159169703Y-89320000D03*
%TO.N,/I2C_SCL*%
X145250000Y-88600000D03*
X160052794Y-90400000D03*
X154213750Y-89316250D03*
%TO.N,Net-(U3-EN{slash}CHIP_PU)*%
X148821780Y-87320477D03*
X152478528Y-86820000D03*
%TO.N,/IO2{slash}INT*%
X148824954Y-86475564D03*
X156413750Y-88813747D03*
%TO.N,/IC_RX*%
X159530000Y-112080000D03*
X148110000Y-91760000D03*
%TO.N,/IC_TX*%
X168540000Y-112100000D03*
X148950000Y-91770000D03*
%TO.N,/IO9{slash}BOOT*%
X143650000Y-89349998D03*
X151920000Y-88420000D03*
%TD*%
D15*
%TO.N,+5V*%
X144760000Y-116820000D02*
X173720000Y-116820000D01*
X143465000Y-115525000D02*
X144760000Y-116820000D01*
%TO.N,/I2C_SDA*%
X154794294Y-88749998D02*
X153464296Y-87420000D01*
X158219796Y-89320000D02*
X159169703Y-89320000D01*
X148190786Y-88800000D02*
X146300000Y-88800000D01*
X149570786Y-87420000D02*
X149320786Y-87670000D01*
X154794294Y-88749998D02*
X155564296Y-89520000D01*
X146300000Y-88800000D02*
X146100000Y-88600000D01*
X155564296Y-89520000D02*
X158019796Y-89520000D01*
X153464296Y-87420000D02*
X149570786Y-87420000D01*
X149320786Y-87670000D02*
X148405000Y-88585785D01*
X158019796Y-89520000D02*
X158219796Y-89320000D01*
X148405000Y-88585786D02*
X148190786Y-88800000D01*
X148405000Y-88585785D02*
X148405000Y-88585786D01*
%TO.N,/I2C_SCL*%
X154213750Y-89316250D02*
X152717500Y-87820000D01*
X145850000Y-89200000D02*
X145250000Y-88600000D01*
X154817500Y-89920000D02*
X159572794Y-89920000D01*
X148805000Y-88755000D02*
X148360000Y-89200000D01*
X152717500Y-87820000D02*
X149736471Y-87820000D01*
X159572794Y-89920000D02*
X160052794Y-90400000D01*
X149736471Y-87820000D02*
X148805000Y-88751471D01*
X148360000Y-89200000D02*
X145850000Y-89200000D01*
X148805000Y-88751471D02*
X148805000Y-88755000D01*
X154213750Y-89316250D02*
X154817500Y-89920000D01*
%TO.N,Net-(U3-EN{slash}CHIP_PU)*%
X152278528Y-87020000D02*
X149122257Y-87020000D01*
X152478528Y-86820000D02*
X152278528Y-87020000D01*
X149122257Y-87020000D02*
X148821780Y-87320477D01*
%TO.N,/IO2{slash}INT*%
X154907108Y-87157108D02*
X154907108Y-87857108D01*
X154907108Y-87857108D02*
X155863747Y-88813747D01*
X151830000Y-86620000D02*
X152700000Y-85750000D01*
X155863747Y-88813747D02*
X156413750Y-88813747D01*
X148969390Y-86620000D02*
X151830000Y-86620000D01*
X148824954Y-86475564D02*
X148969390Y-86620000D01*
X152700000Y-85750000D02*
X153500000Y-85750000D01*
X153500000Y-85750000D02*
X154907108Y-87157108D01*
%TO.N,/IC_RX*%
X148110000Y-92235686D02*
X159530000Y-103655686D01*
X159530000Y-103655686D02*
X159530000Y-112080000D01*
X148110000Y-91760000D02*
X148110000Y-92235686D01*
%TO.N,/IC_TX*%
X148950000Y-91770000D02*
X148950000Y-92510000D01*
X148950000Y-92510000D02*
X168540000Y-112100000D01*
%TO.N,/IO9{slash}BOOT*%
X151920000Y-88420000D02*
X150740000Y-89600000D01*
X150740000Y-89600000D02*
X143900002Y-89600000D01*
X143900002Y-89600000D02*
X143650000Y-89349998D01*
%TD*%
%TA.AperFunction,Conductor*%
%TO.N,+3.3V*%
G36*
X117183437Y-71302108D02*
G01*
X117186411Y-71302158D01*
X117270303Y-71304582D01*
X117273357Y-71304707D01*
X117357147Y-71309205D01*
X117360180Y-71309406D01*
X117443752Y-71315997D01*
X117446766Y-71316274D01*
X117530104Y-71324982D01*
X117533198Y-71325346D01*
X117616240Y-71336189D01*
X117619308Y-71336630D01*
X117702194Y-71349654D01*
X117705271Y-71350178D01*
X117787734Y-71365370D01*
X117790944Y-71366006D01*
X117873086Y-71383410D01*
X117876247Y-71384124D01*
X117958071Y-71403770D01*
X117961326Y-71404598D01*
X117981921Y-71410137D01*
X118042770Y-71426502D01*
X118045998Y-71427417D01*
X118127206Y-71451655D01*
X118130415Y-71452662D01*
X118211162Y-71479204D01*
X118214368Y-71480306D01*
X118287178Y-71506493D01*
X118294821Y-71509242D01*
X118298053Y-71510456D01*
X118378129Y-71541800D01*
X118381335Y-71543107D01*
X118392380Y-71547790D01*
X118413326Y-71559159D01*
X118417978Y-71562297D01*
X118459798Y-71576699D01*
X118467818Y-71579777D01*
X118508533Y-71597041D01*
X118513374Y-71597719D01*
X118514098Y-71597821D01*
X118537265Y-71603379D01*
X118579144Y-71617801D01*
X118785094Y-71688730D01*
X118794983Y-71692618D01*
X118846065Y-71715279D01*
X118847967Y-71716142D01*
X118899563Y-71740079D01*
X118902336Y-71741407D01*
X119009266Y-71794276D01*
X119012746Y-71796066D01*
X119113977Y-71850236D01*
X119117244Y-71852049D01*
X119216252Y-71908954D01*
X119219219Y-71910715D01*
X119317173Y-71970700D01*
X119319770Y-71972334D01*
X119348861Y-71991154D01*
X119397552Y-72022654D01*
X119417652Y-72035657D01*
X119419850Y-72037113D01*
X119518678Y-72104071D01*
X119520456Y-72105298D01*
X119523869Y-72107698D01*
X119565022Y-72136639D01*
X119565952Y-72137383D01*
X119575220Y-72143814D01*
X119575853Y-72144256D01*
X119580377Y-72147437D01*
X119596735Y-72161191D01*
X119605146Y-72169602D01*
X119638047Y-72188597D01*
X119647373Y-72194552D01*
X119671732Y-72211682D01*
X119678177Y-72216742D01*
X119729587Y-72250945D01*
X119731589Y-72252305D01*
X119784892Y-72289288D01*
X119789390Y-72292156D01*
X119789392Y-72292158D01*
X119818841Y-72310935D01*
X119839811Y-72324306D01*
X119841830Y-72325621D01*
X119853753Y-72333553D01*
X119891659Y-72358773D01*
X119891662Y-72358774D01*
X119895752Y-72361495D01*
X119900266Y-72364252D01*
X119900269Y-72364255D01*
X119951455Y-72395518D01*
X119953392Y-72396727D01*
X120003861Y-72428908D01*
X120007928Y-72431501D01*
X120012443Y-72434141D01*
X120012447Y-72434145D01*
X120064181Y-72464396D01*
X120066183Y-72465593D01*
X120121280Y-72499245D01*
X120125922Y-72501842D01*
X120125923Y-72501843D01*
X120176842Y-72530333D01*
X120178217Y-72531102D01*
X120180263Y-72532273D01*
X120236042Y-72564889D01*
X120240716Y-72567390D01*
X120240717Y-72567391D01*
X120260401Y-72577924D01*
X120293627Y-72595704D01*
X120295669Y-72596821D01*
X120352053Y-72628369D01*
X120410341Y-72658182D01*
X120412313Y-72659213D01*
X120465375Y-72687607D01*
X120465377Y-72687607D01*
X120468321Y-72688717D01*
X120481065Y-72694356D01*
X120524091Y-72716363D01*
X120524547Y-72716597D01*
X120576851Y-72743638D01*
X120591418Y-72751169D01*
X120594235Y-72752672D01*
X120653194Y-72785104D01*
X120655719Y-72786531D01*
X120713905Y-72820334D01*
X120716116Y-72821650D01*
X120773833Y-72856802D01*
X120775660Y-72857937D01*
X120828512Y-72891429D01*
X120833379Y-72894513D01*
X120834860Y-72895466D01*
X120848038Y-72904087D01*
X120891909Y-72932786D01*
X120893423Y-72933792D01*
X120954559Y-72975077D01*
X120965230Y-72983155D01*
X120969854Y-72987065D01*
X120969857Y-72987066D01*
X120969858Y-72987068D01*
X121019327Y-73018852D01*
X121021657Y-73020387D01*
X121023448Y-73021597D01*
X121070347Y-73053268D01*
X121075749Y-73055965D01*
X121087393Y-73062586D01*
X121336650Y-73222736D01*
X121339034Y-73224494D01*
X121344382Y-73227910D01*
X121344383Y-73227911D01*
X121399267Y-73262969D01*
X121454228Y-73298282D01*
X121454230Y-73298282D01*
X121459571Y-73301714D01*
X121462164Y-73303145D01*
X121768727Y-73498966D01*
X121770976Y-73500437D01*
X121822751Y-73535143D01*
X121822753Y-73535143D01*
X121823901Y-73535913D01*
X121834178Y-73541792D01*
X121897452Y-73583204D01*
X121898276Y-73583748D01*
X121990386Y-73645127D01*
X122020385Y-73665117D01*
X122021195Y-73665662D01*
X122142930Y-73748173D01*
X122143596Y-73748628D01*
X122207882Y-73792911D01*
X122210281Y-73794797D01*
X122215272Y-73798197D01*
X122215273Y-73798199D01*
X122219655Y-73801185D01*
X122237504Y-73815971D01*
X122243231Y-73821698D01*
X122278775Y-73842219D01*
X122287098Y-73847477D01*
X122297164Y-73854411D01*
X122307713Y-73861677D01*
X122313640Y-73866273D01*
X122315974Y-73867819D01*
X122315975Y-73867820D01*
X122346521Y-73888054D01*
X122367478Y-73901936D01*
X122368806Y-73902828D01*
X122410915Y-73931525D01*
X122415189Y-73934769D01*
X122468913Y-73969149D01*
X122470554Y-73970217D01*
X122523770Y-74005468D01*
X122528351Y-74008000D01*
X122559288Y-74027211D01*
X122568135Y-74033475D01*
X122569777Y-74034472D01*
X122569779Y-74034474D01*
X122592241Y-74048112D01*
X122594726Y-74049662D01*
X122623678Y-74068190D01*
X122623957Y-74068368D01*
X122636674Y-74075267D01*
X122677802Y-74100806D01*
X122677805Y-74100806D01*
X122679670Y-74101965D01*
X122688960Y-74106874D01*
X122781843Y-74163483D01*
X122783538Y-74164534D01*
X122863802Y-74215251D01*
X122886674Y-74229703D01*
X122888708Y-74231017D01*
X122981358Y-74292130D01*
X122989524Y-74297516D01*
X122991854Y-74299090D01*
X123079812Y-74360031D01*
X123090362Y-74367340D01*
X123092977Y-74369203D01*
X123189162Y-74439598D01*
X123192010Y-74441746D01*
X123285888Y-74514691D01*
X123288929Y-74517132D01*
X123382773Y-74594903D01*
X123385140Y-74596915D01*
X123428222Y-74634478D01*
X123429839Y-74635912D01*
X123450820Y-74654859D01*
X123461214Y-74665442D01*
X123479910Y-74686906D01*
X123479913Y-74686908D01*
X123497699Y-74698878D01*
X123511570Y-74709721D01*
X123527481Y-74724090D01*
X123527483Y-74724091D01*
X123527486Y-74724094D01*
X123552844Y-74737061D01*
X123565600Y-74744577D01*
X123621839Y-74782428D01*
X123622774Y-74783065D01*
X123713095Y-74845266D01*
X123713540Y-74845572D01*
X123713830Y-74845773D01*
X123849508Y-74939779D01*
X123857065Y-74945727D01*
X123911343Y-74982626D01*
X123912248Y-74983247D01*
X123956346Y-75013800D01*
X123961790Y-75018023D01*
X123964025Y-75019497D01*
X123964028Y-75019500D01*
X124015444Y-75053408D01*
X124016777Y-75054300D01*
X124062909Y-75085663D01*
X124069764Y-75090819D01*
X124120858Y-75122964D01*
X124123093Y-75124404D01*
X124171640Y-75156420D01*
X124178807Y-75161561D01*
X124208801Y-75179157D01*
X124227530Y-75190145D01*
X124230759Y-75192107D01*
X124264550Y-75213366D01*
X124282498Y-75224658D01*
X124283336Y-75225226D01*
X124284307Y-75225796D01*
X124285267Y-75226400D01*
X124285206Y-75226495D01*
X124286268Y-75227215D01*
X124334783Y-75253179D01*
X124339001Y-75255543D01*
X124374598Y-75276428D01*
X124408050Y-75296241D01*
X124463449Y-75329054D01*
X124465298Y-75330171D01*
X124518305Y-75362827D01*
X124589650Y-75406781D01*
X124591396Y-75407878D01*
X124713749Y-75486252D01*
X124715512Y-75487403D01*
X124769813Y-75523543D01*
X124836080Y-75567648D01*
X124837867Y-75568860D01*
X124957151Y-75651283D01*
X124958811Y-75652452D01*
X124993947Y-75677632D01*
X125076988Y-75737143D01*
X125078606Y-75738323D01*
X125196277Y-75825678D01*
X125197792Y-75826823D01*
X125248543Y-75865799D01*
X125267975Y-75880723D01*
X125269581Y-75881956D01*
X125287493Y-75898782D01*
X125289941Y-75901588D01*
X125328209Y-75927297D01*
X125334585Y-75931879D01*
X125371147Y-75959959D01*
X125374593Y-75961388D01*
X125396235Y-75972997D01*
X125442398Y-76004009D01*
X125447942Y-76008257D01*
X125504549Y-76045766D01*
X125505145Y-76046163D01*
X125558277Y-76081857D01*
X125558279Y-76081857D01*
X125561638Y-76084114D01*
X125567673Y-76087593D01*
X125603879Y-76111583D01*
X125604239Y-76111857D01*
X125665316Y-76152294D01*
X125671163Y-76156412D01*
X125706438Y-76182816D01*
X125779043Y-76237161D01*
X125789502Y-76247037D01*
X125789859Y-76246647D01*
X125795857Y-76252127D01*
X125841396Y-76283916D01*
X125844722Y-76286320D01*
X125889210Y-76319620D01*
X125889214Y-76319621D01*
X125896219Y-76323555D01*
X125904915Y-76328921D01*
X125933483Y-76348217D01*
X125935055Y-76349297D01*
X125963990Y-76369496D01*
X125967827Y-76372476D01*
X125970378Y-76374150D01*
X125970381Y-76374153D01*
X125973580Y-76376252D01*
X125976496Y-76378226D01*
X125986639Y-76385306D01*
X125993513Y-76389330D01*
X126021936Y-76407977D01*
X126023326Y-76408902D01*
X126051987Y-76428262D01*
X126055434Y-76430865D01*
X126058431Y-76432782D01*
X126058434Y-76432786D01*
X126061960Y-76435042D01*
X126064483Y-76436702D01*
X126076398Y-76444751D01*
X126082900Y-76448440D01*
X126110958Y-76466392D01*
X126112151Y-76467165D01*
X126140586Y-76485821D01*
X126146391Y-76490087D01*
X126148452Y-76491367D01*
X126158231Y-76497442D01*
X126160770Y-76499063D01*
X126164221Y-76501327D01*
X126164223Y-76501327D01*
X126167269Y-76503326D01*
X126171022Y-76505388D01*
X126200923Y-76523965D01*
X126202265Y-76524811D01*
X126254307Y-76558109D01*
X126254310Y-76558110D01*
X126254476Y-76558216D01*
X126266914Y-76564964D01*
X126315274Y-76595008D01*
X126325131Y-76601984D01*
X126326211Y-76602638D01*
X126326212Y-76602639D01*
X126379680Y-76635030D01*
X126380652Y-76635627D01*
X126433743Y-76668611D01*
X126433745Y-76668611D01*
X126434808Y-76669272D01*
X126445506Y-76674908D01*
X126530655Y-76726491D01*
X126542408Y-76734570D01*
X126567586Y-76754102D01*
X126567587Y-76754102D01*
X126567588Y-76754103D01*
X126568623Y-76754708D01*
X126569925Y-76755573D01*
X126574833Y-76758340D01*
X126574836Y-76758342D01*
X126574838Y-76758343D01*
X126578074Y-76760167D01*
X126578746Y-76760597D01*
X126579686Y-76761103D01*
X126579795Y-76761163D01*
X126579817Y-76761173D01*
X126586042Y-76764524D01*
X126586830Y-76765007D01*
X126588454Y-76765845D01*
X126588844Y-76766050D01*
X126588911Y-76766080D01*
X126597260Y-76770385D01*
X126597598Y-76770583D01*
X126608304Y-76775797D01*
X126610774Y-76777167D01*
X126619698Y-76781851D01*
X126621213Y-76782755D01*
X126623117Y-76783915D01*
X126665819Y-76810494D01*
X126665822Y-76810494D01*
X126666904Y-76810986D01*
X126679572Y-76817638D01*
X126731242Y-76848698D01*
X126731238Y-76848704D01*
X126732451Y-76849334D01*
X126761959Y-76867322D01*
X126764080Y-76868647D01*
X126802489Y-76893225D01*
X126804883Y-76894799D01*
X126818054Y-76903682D01*
X126820113Y-76905101D01*
X126833306Y-76914396D01*
X126835616Y-76916064D01*
X126839474Y-76918920D01*
X126855191Y-76934438D01*
X126855743Y-76933892D01*
X126861462Y-76939662D01*
X126861466Y-76939667D01*
X126896821Y-76967049D01*
X126903281Y-76972411D01*
X126936704Y-77002129D01*
X126941283Y-77004426D01*
X126961606Y-77017224D01*
X127433057Y-77382355D01*
X128397823Y-78129551D01*
X128402817Y-78133944D01*
X128456919Y-78175324D01*
X128457512Y-78175780D01*
X128511542Y-78217625D01*
X128517055Y-78221319D01*
X130952492Y-80084089D01*
X130964857Y-80094919D01*
X130982095Y-80112168D01*
X130982096Y-80112169D01*
X131004224Y-80124954D01*
X131017515Y-80133822D01*
X131037812Y-80149347D01*
X131060340Y-80158637D01*
X131075083Y-80165896D01*
X131096201Y-80178098D01*
X131096203Y-80178098D01*
X131096204Y-80178099D01*
X131120876Y-80184718D01*
X131136025Y-80189850D01*
X131159640Y-80199589D01*
X131159641Y-80199589D01*
X131159643Y-80199590D01*
X131183812Y-80202733D01*
X131199941Y-80205931D01*
X131223484Y-80212248D01*
X131249040Y-80212256D01*
X131264982Y-80213291D01*
X131290326Y-80216588D01*
X131314490Y-80213367D01*
X131330885Y-80212282D01*
X170783199Y-80225406D01*
X170850231Y-80245113D01*
X170895968Y-80297932D01*
X170905889Y-80367094D01*
X170876843Y-80430640D01*
X170835564Y-80461787D01*
X170807518Y-80474865D01*
X170807512Y-80474868D01*
X170734526Y-80525973D01*
X170734526Y-80525974D01*
X171330591Y-81122038D01*
X171267008Y-81139076D01*
X171152994Y-81204902D01*
X171059902Y-81297994D01*
X170994076Y-81412008D01*
X170977038Y-81475591D01*
X170380974Y-80879526D01*
X170380973Y-80879526D01*
X170329868Y-80952512D01*
X170329866Y-80952516D01*
X170233734Y-81158673D01*
X170233730Y-81158682D01*
X170174860Y-81378389D01*
X170174858Y-81378400D01*
X170155034Y-81604997D01*
X170155034Y-81605002D01*
X170174858Y-81831599D01*
X170174860Y-81831610D01*
X170233730Y-82051317D01*
X170233735Y-82051331D01*
X170329863Y-82257478D01*
X170380974Y-82330472D01*
X170977038Y-81734408D01*
X170994076Y-81797992D01*
X171059902Y-81912006D01*
X171152994Y-82005098D01*
X171267008Y-82070924D01*
X171330591Y-82087961D01*
X170734526Y-82684025D01*
X170736772Y-82709694D01*
X170723005Y-82778194D01*
X170674389Y-82828376D01*
X170613246Y-82844500D01*
X170562130Y-82844500D01*
X170562123Y-82844501D01*
X170502516Y-82850908D01*
X170367671Y-82901202D01*
X170367664Y-82901206D01*
X170252455Y-82987452D01*
X170252452Y-82987455D01*
X170166206Y-83102664D01*
X170166202Y-83102671D01*
X170115908Y-83237517D01*
X170109501Y-83297116D01*
X170109500Y-83297135D01*
X170109500Y-84992870D01*
X170109501Y-84992876D01*
X170115908Y-85052483D01*
X170166202Y-85187328D01*
X170166206Y-85187335D01*
X170252452Y-85302544D01*
X170252455Y-85302547D01*
X170367664Y-85388793D01*
X170367671Y-85388797D01*
X170502517Y-85439091D01*
X170502516Y-85439091D01*
X170509444Y-85439835D01*
X170562127Y-85445500D01*
X170823062Y-85445499D01*
X170890099Y-85465183D01*
X170935854Y-85517987D01*
X170945798Y-85587146D01*
X170916773Y-85650701D01*
X170910742Y-85657180D01*
X170820183Y-85747739D01*
X170724211Y-85900476D01*
X170664631Y-86070745D01*
X170664630Y-86070750D01*
X170644435Y-86249996D01*
X170644435Y-86250003D01*
X170664630Y-86429249D01*
X170664631Y-86429254D01*
X170724211Y-86599523D01*
X170820184Y-86752262D01*
X170947738Y-86879816D01*
X171027747Y-86930089D01*
X171092784Y-86970955D01*
X171100478Y-86975789D01*
X171251506Y-87028636D01*
X171270745Y-87035368D01*
X171270750Y-87035369D01*
X171449996Y-87055565D01*
X171450000Y-87055565D01*
X171450004Y-87055565D01*
X171629249Y-87035369D01*
X171629252Y-87035368D01*
X171629255Y-87035368D01*
X171799522Y-86975789D01*
X171952262Y-86879816D01*
X172079816Y-86752262D01*
X172175789Y-86599522D01*
X172235368Y-86429255D01*
X172235369Y-86429249D01*
X172255565Y-86250003D01*
X172255565Y-86249996D01*
X172235369Y-86070750D01*
X172235368Y-86070745D01*
X172223281Y-86036202D01*
X172175789Y-85900478D01*
X172166214Y-85885240D01*
X172136582Y-85838080D01*
X172079816Y-85747738D01*
X171989258Y-85657180D01*
X171955773Y-85595857D01*
X171960757Y-85526165D01*
X172002629Y-85470232D01*
X172068093Y-85445815D01*
X172076939Y-85445499D01*
X172357871Y-85445499D01*
X172357872Y-85445499D01*
X172417483Y-85439091D01*
X172552331Y-85388796D01*
X172667546Y-85302546D01*
X172753796Y-85187331D01*
X172794102Y-85079264D01*
X172806802Y-85045215D01*
X172808720Y-85045930D01*
X172838016Y-84994464D01*
X172899921Y-84962069D01*
X172969514Y-84968285D01*
X173011814Y-84996001D01*
X173160858Y-85145045D01*
X173191028Y-85166170D01*
X173347266Y-85275568D01*
X173553504Y-85371739D01*
X173553509Y-85371740D01*
X173553511Y-85371741D01*
X173589134Y-85381286D01*
X173773308Y-85430635D01*
X173933637Y-85444662D01*
X173999998Y-85450468D01*
X174000000Y-85450468D01*
X174000002Y-85450468D01*
X174056807Y-85445498D01*
X174226692Y-85430635D01*
X174446496Y-85371739D01*
X174652734Y-85275568D01*
X174839139Y-85145047D01*
X175000047Y-84984139D01*
X175130568Y-84797734D01*
X175157618Y-84739724D01*
X175203790Y-84687285D01*
X175270983Y-84668133D01*
X175337865Y-84688348D01*
X175382381Y-84739724D01*
X175385856Y-84747176D01*
X175409429Y-84797728D01*
X175409432Y-84797734D01*
X175539954Y-84984141D01*
X175700858Y-85145045D01*
X175731028Y-85166170D01*
X175887266Y-85275568D01*
X176093504Y-85371739D01*
X176093509Y-85371740D01*
X176093511Y-85371741D01*
X176129134Y-85381286D01*
X176313308Y-85430635D01*
X176473637Y-85444662D01*
X176539998Y-85450468D01*
X176540000Y-85450468D01*
X176540002Y-85450468D01*
X176596807Y-85445498D01*
X176766692Y-85430635D01*
X176986496Y-85371739D01*
X177192734Y-85275568D01*
X177379139Y-85145047D01*
X177540047Y-84984139D01*
X177670568Y-84797734D01*
X177766739Y-84591496D01*
X177825635Y-84371692D01*
X177845468Y-84145000D01*
X177844547Y-84134477D01*
X177838650Y-84067074D01*
X177825635Y-83918308D01*
X177766739Y-83698504D01*
X177670568Y-83492266D01*
X177540047Y-83305861D01*
X177540045Y-83305858D01*
X177379141Y-83144954D01*
X177192734Y-83014432D01*
X177192728Y-83014429D01*
X177134882Y-82987455D01*
X177134724Y-82987381D01*
X177082285Y-82941210D01*
X177063133Y-82874017D01*
X177083348Y-82807135D01*
X177134725Y-82762618D01*
X177150961Y-82755047D01*
X177192734Y-82735568D01*
X177379139Y-82605047D01*
X177540047Y-82444139D01*
X177670568Y-82257734D01*
X177766739Y-82051496D01*
X177825635Y-81831692D01*
X177845468Y-81605000D01*
X177825635Y-81378308D01*
X177766739Y-81158504D01*
X177670568Y-80952266D01*
X177540047Y-80765861D01*
X177540045Y-80765858D01*
X177379141Y-80604954D01*
X177192734Y-80474432D01*
X177192732Y-80474431D01*
X177187967Y-80472209D01*
X177170211Y-80463929D01*
X177117773Y-80417757D01*
X177098621Y-80350564D01*
X177118837Y-80283683D01*
X177172002Y-80238348D01*
X177222656Y-80227548D01*
X177379258Y-80227600D01*
X177382505Y-80227644D01*
X177427245Y-80228854D01*
X177433464Y-80229181D01*
X177469922Y-80232024D01*
X177476106Y-80232664D01*
X177511792Y-80237274D01*
X177517898Y-80238219D01*
X177552985Y-80244565D01*
X177558996Y-80245809D01*
X177593334Y-80253819D01*
X177599311Y-80255372D01*
X177632948Y-80265010D01*
X177638799Y-80266844D01*
X177671789Y-80278096D01*
X177677456Y-80280186D01*
X177709771Y-80293019D01*
X177715317Y-80295381D01*
X177733136Y-80303489D01*
X177746862Y-80309735D01*
X177752295Y-80312369D01*
X177783057Y-80328218D01*
X177788324Y-80331095D01*
X177818268Y-80348405D01*
X177823365Y-80351518D01*
X177852472Y-80370270D01*
X177857363Y-80373588D01*
X177885568Y-80393736D01*
X177890293Y-80397285D01*
X177917491Y-80418746D01*
X177922025Y-80422502D01*
X177948208Y-80445266D01*
X177952538Y-80449215D01*
X177977645Y-80473233D01*
X177981763Y-80477365D01*
X177983656Y-80479356D01*
X178005688Y-80502535D01*
X178009639Y-80506895D01*
X178032322Y-80533148D01*
X178036057Y-80537684D01*
X178048690Y-80553795D01*
X178057489Y-80565018D01*
X178061023Y-80569754D01*
X178081101Y-80598041D01*
X178084419Y-80602961D01*
X178103142Y-80632209D01*
X178106229Y-80637296D01*
X178118186Y-80658113D01*
X178123518Y-80667397D01*
X178126373Y-80672657D01*
X178142198Y-80703574D01*
X178144809Y-80708997D01*
X178159141Y-80740703D01*
X178161499Y-80746278D01*
X178174287Y-80778697D01*
X178176383Y-80784420D01*
X178187607Y-80817559D01*
X178189429Y-80823409D01*
X178199048Y-80857223D01*
X178200585Y-80863186D01*
X178208567Y-80897667D01*
X178209814Y-80903741D01*
X178216118Y-80938888D01*
X178217064Y-80945048D01*
X178221646Y-80980875D01*
X178222282Y-80987089D01*
X178225093Y-81023607D01*
X178225416Y-81029877D01*
X178226596Y-81074926D01*
X178226639Y-81078111D01*
X178230216Y-88208422D01*
X178210565Y-88275471D01*
X178157784Y-88321253D01*
X178088631Y-88331231D01*
X178025060Y-88302238D01*
X178014068Y-88291458D01*
X178006570Y-88283131D01*
X177995615Y-88269047D01*
X177988129Y-88257843D01*
X177988126Y-88257838D01*
X177946941Y-88216653D01*
X177942474Y-88211946D01*
X177899734Y-88164477D01*
X177899730Y-88164474D01*
X177889452Y-88157006D01*
X177874661Y-88144372D01*
X177869665Y-88139376D01*
X177869661Y-88139373D01*
X177815942Y-88103479D01*
X177811948Y-88100695D01*
X177755094Y-88059388D01*
X177755093Y-88059387D01*
X177749355Y-88056833D01*
X177730897Y-88046654D01*
X177730366Y-88046299D01*
X177730365Y-88046298D01*
X177730363Y-88046297D01*
X177664741Y-88019115D01*
X177661789Y-88017846D01*
X177591770Y-87986672D01*
X177590816Y-87986362D01*
X177581547Y-87983492D01*
X177581408Y-87983952D01*
X177575585Y-87982185D01*
X177575582Y-87982184D01*
X177575578Y-87982183D01*
X177575571Y-87982181D01*
X177499672Y-87967084D01*
X177498120Y-87966765D01*
X177416891Y-87949500D01*
X177238109Y-87949500D01*
X177174101Y-87963104D01*
X177156928Y-87966755D01*
X177155341Y-87967081D01*
X177079421Y-87982183D01*
X177073590Y-87983952D01*
X177073449Y-87983490D01*
X177064151Y-87986372D01*
X177063231Y-87986671D01*
X176993221Y-88017840D01*
X176990245Y-88019119D01*
X176924639Y-88046295D01*
X176924632Y-88046299D01*
X176924081Y-88046668D01*
X176905657Y-88056827D01*
X176899913Y-88059384D01*
X176899906Y-88059389D01*
X176843080Y-88100675D01*
X176839090Y-88103456D01*
X176785341Y-88139371D01*
X176785334Y-88139377D01*
X176780330Y-88144381D01*
X176765550Y-88157003D01*
X176755277Y-88164467D01*
X176755267Y-88164476D01*
X176712522Y-88211948D01*
X176708057Y-88216653D01*
X176666877Y-88257834D01*
X176666869Y-88257843D01*
X176659377Y-88269056D01*
X176648432Y-88283128D01*
X176635642Y-88297333D01*
X176635638Y-88297338D01*
X176606892Y-88347127D01*
X176602609Y-88354014D01*
X176573802Y-88397126D01*
X176573796Y-88397137D01*
X176566183Y-88415517D01*
X176559013Y-88430055D01*
X176546252Y-88452158D01*
X176530459Y-88500761D01*
X176527092Y-88509887D01*
X176509683Y-88551919D01*
X176509683Y-88551921D01*
X176504552Y-88577714D01*
X176500867Y-88591834D01*
X176491004Y-88622192D01*
X176491002Y-88622202D01*
X176486328Y-88666664D01*
X176484626Y-88677885D01*
X176477000Y-88716228D01*
X176477000Y-88748924D01*
X176476321Y-88761885D01*
X176472315Y-88800000D01*
X176476321Y-88838114D01*
X176477000Y-88851075D01*
X176477000Y-88883770D01*
X176484626Y-88922114D01*
X176486328Y-88933336D01*
X176491002Y-88977797D01*
X176491003Y-88977804D01*
X176500866Y-89008160D01*
X176504551Y-89022281D01*
X176509683Y-89048079D01*
X176509684Y-89048084D01*
X176527086Y-89090095D01*
X176530455Y-89099226D01*
X176546250Y-89147836D01*
X176559008Y-89169933D01*
X176566182Y-89184479D01*
X176573796Y-89202862D01*
X176602610Y-89245984D01*
X176606889Y-89252865D01*
X176618263Y-89272565D01*
X176635642Y-89302667D01*
X176635643Y-89302668D01*
X176648428Y-89316867D01*
X176659378Y-89330945D01*
X176666872Y-89342160D01*
X176708054Y-89383342D01*
X176712524Y-89388052D01*
X176755270Y-89435526D01*
X176755272Y-89435528D01*
X176765539Y-89442987D01*
X176780337Y-89455626D01*
X176785334Y-89460623D01*
X176785342Y-89460629D01*
X176839056Y-89496520D01*
X176843051Y-89499304D01*
X176872192Y-89520476D01*
X176899907Y-89540612D01*
X176899908Y-89540612D01*
X176899909Y-89540613D01*
X176903374Y-89542614D01*
X176904977Y-89544295D01*
X176905165Y-89544432D01*
X176905140Y-89544466D01*
X176951589Y-89593181D01*
X176964811Y-89661789D01*
X176938843Y-89726653D01*
X176903378Y-89757384D01*
X176899909Y-89759386D01*
X176843080Y-89800675D01*
X176839090Y-89803456D01*
X176785341Y-89839371D01*
X176785334Y-89839377D01*
X176780330Y-89844381D01*
X176765550Y-89857003D01*
X176755277Y-89864467D01*
X176755267Y-89864476D01*
X176712522Y-89911948D01*
X176708057Y-89916653D01*
X176666877Y-89957834D01*
X176666869Y-89957843D01*
X176659377Y-89969056D01*
X176648432Y-89983128D01*
X176635642Y-89997333D01*
X176635638Y-89997338D01*
X176606892Y-90047127D01*
X176602609Y-90054014D01*
X176573802Y-90097126D01*
X176573796Y-90097137D01*
X176566183Y-90115517D01*
X176559013Y-90130055D01*
X176546252Y-90152158D01*
X176530459Y-90200761D01*
X176527092Y-90209887D01*
X176509683Y-90251919D01*
X176509683Y-90251921D01*
X176504552Y-90277714D01*
X176500867Y-90291834D01*
X176491004Y-90322192D01*
X176491002Y-90322202D01*
X176486328Y-90366664D01*
X176484626Y-90377885D01*
X176477000Y-90416228D01*
X176477000Y-90448924D01*
X176476321Y-90461885D01*
X176472315Y-90500000D01*
X176476321Y-90538114D01*
X176477000Y-90551075D01*
X176477000Y-90583770D01*
X176484626Y-90622114D01*
X176486328Y-90633336D01*
X176491002Y-90677797D01*
X176491003Y-90677804D01*
X176500866Y-90708160D01*
X176504551Y-90722281D01*
X176509683Y-90748079D01*
X176509684Y-90748084D01*
X176527086Y-90790095D01*
X176530455Y-90799226D01*
X176546250Y-90847836D01*
X176559008Y-90869933D01*
X176566182Y-90884479D01*
X176573796Y-90902862D01*
X176602610Y-90945984D01*
X176606896Y-90952876D01*
X176635642Y-91002667D01*
X176635643Y-91002668D01*
X176648428Y-91016867D01*
X176659378Y-91030945D01*
X176666872Y-91042160D01*
X176708054Y-91083342D01*
X176712524Y-91088052D01*
X176755270Y-91135526D01*
X176755272Y-91135528D01*
X176765539Y-91142987D01*
X176780337Y-91155626D01*
X176785334Y-91160623D01*
X176785342Y-91160629D01*
X176839056Y-91196520D01*
X176843051Y-91199304D01*
X176899905Y-91240611D01*
X176899906Y-91240611D01*
X176899907Y-91240612D01*
X176905636Y-91243162D01*
X176924106Y-91253348D01*
X176924637Y-91253703D01*
X176990229Y-91280872D01*
X176993196Y-91282147D01*
X177063224Y-91313326D01*
X177064462Y-91313728D01*
X177073440Y-91316520D01*
X177073585Y-91316046D01*
X177079412Y-91317814D01*
X177079414Y-91317814D01*
X177079418Y-91317816D01*
X177155428Y-91332934D01*
X177156893Y-91333236D01*
X177238109Y-91350500D01*
X177238110Y-91350500D01*
X177416889Y-91350500D01*
X177416891Y-91350500D01*
X177498163Y-91333224D01*
X177499568Y-91332935D01*
X177575582Y-91317816D01*
X177575587Y-91317813D01*
X177581413Y-91316046D01*
X177581557Y-91316521D01*
X177590588Y-91313711D01*
X177591751Y-91313332D01*
X177591767Y-91313329D01*
X177661829Y-91282134D01*
X177664712Y-91280895D01*
X177730363Y-91253703D01*
X177730890Y-91253350D01*
X177749365Y-91243162D01*
X177750184Y-91242796D01*
X177755093Y-91240612D01*
X177812005Y-91199261D01*
X177815888Y-91196555D01*
X177869662Y-91160626D01*
X177874664Y-91155622D01*
X177889460Y-91142987D01*
X177899730Y-91135526D01*
X177942494Y-91088030D01*
X177946928Y-91083358D01*
X177988126Y-91042162D01*
X177995620Y-91030945D01*
X178006565Y-91016872D01*
X178015515Y-91006932D01*
X178075001Y-90970287D01*
X178144858Y-90971618D01*
X178202906Y-91010506D01*
X178230714Y-91074604D01*
X178231662Y-91089846D01*
X178235963Y-99664805D01*
X178216312Y-99731854D01*
X178163531Y-99777636D01*
X178094378Y-99787614D01*
X178030807Y-99758621D01*
X178019813Y-99747839D01*
X178006568Y-99733129D01*
X177995615Y-99719047D01*
X177988129Y-99707843D01*
X177988126Y-99707838D01*
X177946941Y-99666653D01*
X177942474Y-99661946D01*
X177899734Y-99614477D01*
X177899730Y-99614474D01*
X177889452Y-99607006D01*
X177874661Y-99594372D01*
X177869665Y-99589376D01*
X177869661Y-99589373D01*
X177815942Y-99553479D01*
X177811948Y-99550695D01*
X177755094Y-99509388D01*
X177755093Y-99509387D01*
X177749355Y-99506833D01*
X177730897Y-99496654D01*
X177730366Y-99496299D01*
X177730365Y-99496298D01*
X177730363Y-99496297D01*
X177664741Y-99469115D01*
X177661789Y-99467846D01*
X177591770Y-99436672D01*
X177590816Y-99436362D01*
X177581547Y-99433492D01*
X177581408Y-99433952D01*
X177575585Y-99432185D01*
X177575582Y-99432184D01*
X177575578Y-99432183D01*
X177575571Y-99432181D01*
X177499672Y-99417084D01*
X177498120Y-99416765D01*
X177416891Y-99399500D01*
X177238109Y-99399500D01*
X177174101Y-99413104D01*
X177156928Y-99416755D01*
X177155341Y-99417081D01*
X177079421Y-99432183D01*
X177073590Y-99433952D01*
X177073449Y-99433490D01*
X177064151Y-99436372D01*
X177063231Y-99436671D01*
X176993221Y-99467840D01*
X176990245Y-99469119D01*
X176924639Y-99496295D01*
X176924632Y-99496299D01*
X176924081Y-99496668D01*
X176905657Y-99506827D01*
X176899913Y-99509384D01*
X176899906Y-99509389D01*
X176843080Y-99550675D01*
X176839090Y-99553456D01*
X176785341Y-99589371D01*
X176785334Y-99589377D01*
X176780330Y-99594381D01*
X176765550Y-99607003D01*
X176755277Y-99614467D01*
X176755267Y-99614476D01*
X176712522Y-99661948D01*
X176708057Y-99666653D01*
X176666877Y-99707834D01*
X176666869Y-99707843D01*
X176659377Y-99719056D01*
X176648432Y-99733128D01*
X176635642Y-99747333D01*
X176635638Y-99747338D01*
X176606892Y-99797127D01*
X176602609Y-99804014D01*
X176573802Y-99847126D01*
X176573796Y-99847137D01*
X176566183Y-99865517D01*
X176559013Y-99880055D01*
X176546252Y-99902158D01*
X176530459Y-99950761D01*
X176527092Y-99959887D01*
X176509683Y-100001919D01*
X176509683Y-100001921D01*
X176504552Y-100027714D01*
X176500867Y-100041834D01*
X176491004Y-100072192D01*
X176491002Y-100072202D01*
X176486328Y-100116664D01*
X176484626Y-100127885D01*
X176477000Y-100166228D01*
X176477000Y-100198924D01*
X176476321Y-100211885D01*
X176472315Y-100250000D01*
X176476321Y-100288114D01*
X176477000Y-100301075D01*
X176477000Y-100333770D01*
X176484626Y-100372114D01*
X176486328Y-100383336D01*
X176491002Y-100427797D01*
X176491003Y-100427804D01*
X176500866Y-100458160D01*
X176504551Y-100472281D01*
X176509683Y-100498079D01*
X176509684Y-100498084D01*
X176527086Y-100540095D01*
X176530455Y-100549226D01*
X176546250Y-100597836D01*
X176559008Y-100619933D01*
X176566182Y-100634479D01*
X176573796Y-100652862D01*
X176602610Y-100695984D01*
X176606889Y-100702865D01*
X176614582Y-100716189D01*
X176635642Y-100752667D01*
X176635643Y-100752668D01*
X176648428Y-100766867D01*
X176659378Y-100780945D01*
X176666872Y-100792160D01*
X176708054Y-100833342D01*
X176712524Y-100838052D01*
X176755270Y-100885526D01*
X176755272Y-100885528D01*
X176765539Y-100892987D01*
X176780337Y-100905626D01*
X176785334Y-100910623D01*
X176785342Y-100910629D01*
X176839056Y-100946520D01*
X176843051Y-100949304D01*
X176879024Y-100975440D01*
X176899907Y-100990612D01*
X176899908Y-100990612D01*
X176899909Y-100990613D01*
X176903374Y-100992614D01*
X176904977Y-100994295D01*
X176905165Y-100994432D01*
X176905140Y-100994466D01*
X176951589Y-101043181D01*
X176964811Y-101111789D01*
X176938843Y-101176653D01*
X176903378Y-101207384D01*
X176899909Y-101209386D01*
X176843080Y-101250675D01*
X176839090Y-101253456D01*
X176785341Y-101289371D01*
X176785334Y-101289377D01*
X176780330Y-101294381D01*
X176765550Y-101307003D01*
X176755277Y-101314467D01*
X176755267Y-101314476D01*
X176712522Y-101361948D01*
X176708057Y-101366653D01*
X176666877Y-101407834D01*
X176666869Y-101407843D01*
X176659377Y-101419056D01*
X176648432Y-101433128D01*
X176635642Y-101447333D01*
X176635638Y-101447338D01*
X176606892Y-101497127D01*
X176602609Y-101504014D01*
X176573802Y-101547126D01*
X176573796Y-101547137D01*
X176566183Y-101565517D01*
X176559013Y-101580055D01*
X176546252Y-101602158D01*
X176530459Y-101650761D01*
X176527092Y-101659887D01*
X176509683Y-101701919D01*
X176509683Y-101701921D01*
X176504552Y-101727714D01*
X176500867Y-101741834D01*
X176491004Y-101772192D01*
X176491002Y-101772202D01*
X176486328Y-101816664D01*
X176484626Y-101827885D01*
X176477000Y-101866228D01*
X176477000Y-101898924D01*
X176476321Y-101911885D01*
X176472315Y-101950000D01*
X176476321Y-101988114D01*
X176477000Y-102001075D01*
X176477000Y-102033770D01*
X176484626Y-102072114D01*
X176486328Y-102083336D01*
X176491002Y-102127797D01*
X176491003Y-102127804D01*
X176500866Y-102158160D01*
X176504551Y-102172281D01*
X176509683Y-102198079D01*
X176509684Y-102198084D01*
X176527086Y-102240095D01*
X176530455Y-102249226D01*
X176546250Y-102297836D01*
X176559008Y-102319933D01*
X176566182Y-102334479D01*
X176573796Y-102352862D01*
X176602610Y-102395984D01*
X176606896Y-102402876D01*
X176635642Y-102452667D01*
X176635643Y-102452668D01*
X176648428Y-102466867D01*
X176659378Y-102480945D01*
X176666872Y-102492160D01*
X176708054Y-102533342D01*
X176712524Y-102538052D01*
X176755270Y-102585526D01*
X176755272Y-102585528D01*
X176765539Y-102592987D01*
X176780337Y-102605626D01*
X176785334Y-102610623D01*
X176785342Y-102610629D01*
X176839056Y-102646520D01*
X176843051Y-102649304D01*
X176899905Y-102690611D01*
X176899906Y-102690611D01*
X176899907Y-102690612D01*
X176905636Y-102693162D01*
X176924106Y-102703348D01*
X176924637Y-102703703D01*
X176990229Y-102730872D01*
X176993196Y-102732147D01*
X177063224Y-102763326D01*
X177064462Y-102763728D01*
X177073440Y-102766520D01*
X177073585Y-102766046D01*
X177079412Y-102767814D01*
X177079414Y-102767814D01*
X177079418Y-102767816D01*
X177155428Y-102782934D01*
X177156893Y-102783236D01*
X177238109Y-102800500D01*
X177238110Y-102800500D01*
X177416889Y-102800500D01*
X177416891Y-102800500D01*
X177498163Y-102783224D01*
X177499568Y-102782935D01*
X177575582Y-102767816D01*
X177575587Y-102767813D01*
X177581413Y-102766046D01*
X177581557Y-102766521D01*
X177590588Y-102763711D01*
X177591751Y-102763332D01*
X177591767Y-102763329D01*
X177661829Y-102732134D01*
X177664712Y-102730895D01*
X177730363Y-102703703D01*
X177730890Y-102703350D01*
X177749365Y-102693162D01*
X177750184Y-102692796D01*
X177755093Y-102690612D01*
X177812005Y-102649261D01*
X177815888Y-102646555D01*
X177869662Y-102610626D01*
X177874664Y-102605622D01*
X177889460Y-102592987D01*
X177899730Y-102585526D01*
X177942494Y-102538030D01*
X177946928Y-102533358D01*
X177988126Y-102492162D01*
X177995620Y-102480945D01*
X178006563Y-102466874D01*
X178019359Y-102452665D01*
X178019361Y-102452660D01*
X178021253Y-102450560D01*
X178080740Y-102413912D01*
X178150597Y-102415243D01*
X178208645Y-102454130D01*
X178236454Y-102518227D01*
X178237402Y-102533471D01*
X178241711Y-111121681D01*
X178222060Y-111188730D01*
X178169279Y-111234512D01*
X178100126Y-111244490D01*
X178036555Y-111215497D01*
X178024039Y-111201867D01*
X178023709Y-111202165D01*
X178006570Y-111183131D01*
X177995615Y-111169047D01*
X177993980Y-111166600D01*
X177988126Y-111157838D01*
X177946941Y-111116653D01*
X177942474Y-111111946D01*
X177899734Y-111064477D01*
X177899730Y-111064474D01*
X177889452Y-111057006D01*
X177874661Y-111044372D01*
X177869665Y-111039376D01*
X177869661Y-111039373D01*
X177815942Y-111003479D01*
X177811948Y-111000695D01*
X177755094Y-110959388D01*
X177755093Y-110959387D01*
X177749355Y-110956833D01*
X177730897Y-110946654D01*
X177730366Y-110946299D01*
X177730365Y-110946298D01*
X177730363Y-110946297D01*
X177664741Y-110919115D01*
X177661789Y-110917846D01*
X177591770Y-110886672D01*
X177590816Y-110886362D01*
X177581547Y-110883492D01*
X177581408Y-110883952D01*
X177575585Y-110882185D01*
X177575582Y-110882184D01*
X177575578Y-110882183D01*
X177575571Y-110882181D01*
X177499672Y-110867084D01*
X177498120Y-110866765D01*
X177416891Y-110849500D01*
X177238109Y-110849500D01*
X177174101Y-110863104D01*
X177156928Y-110866755D01*
X177155341Y-110867081D01*
X177079421Y-110882183D01*
X177073590Y-110883952D01*
X177073449Y-110883490D01*
X177064151Y-110886372D01*
X177063231Y-110886671D01*
X176993221Y-110917840D01*
X176990245Y-110919119D01*
X176924639Y-110946295D01*
X176924632Y-110946299D01*
X176924081Y-110946668D01*
X176905657Y-110956827D01*
X176899913Y-110959384D01*
X176899906Y-110959389D01*
X176843080Y-111000675D01*
X176839090Y-111003456D01*
X176785341Y-111039371D01*
X176785334Y-111039377D01*
X176780330Y-111044381D01*
X176765550Y-111057003D01*
X176755277Y-111064467D01*
X176755267Y-111064476D01*
X176712522Y-111111948D01*
X176708057Y-111116653D01*
X176666877Y-111157834D01*
X176666869Y-111157843D01*
X176659377Y-111169056D01*
X176648432Y-111183128D01*
X176635642Y-111197333D01*
X176635638Y-111197338D01*
X176606892Y-111247127D01*
X176602609Y-111254014D01*
X176573802Y-111297126D01*
X176573796Y-111297137D01*
X176566183Y-111315517D01*
X176559013Y-111330055D01*
X176546252Y-111352158D01*
X176530459Y-111400761D01*
X176527092Y-111409887D01*
X176509683Y-111451919D01*
X176509683Y-111451921D01*
X176504552Y-111477714D01*
X176500867Y-111491834D01*
X176491004Y-111522192D01*
X176491002Y-111522202D01*
X176486328Y-111566664D01*
X176484626Y-111577885D01*
X176477000Y-111616228D01*
X176477000Y-111648924D01*
X176476321Y-111661885D01*
X176472315Y-111700000D01*
X176476321Y-111738114D01*
X176477000Y-111751075D01*
X176477000Y-111783770D01*
X176484626Y-111822114D01*
X176486328Y-111833336D01*
X176491002Y-111877797D01*
X176491003Y-111877804D01*
X176500866Y-111908160D01*
X176504551Y-111922281D01*
X176509683Y-111948079D01*
X176509684Y-111948084D01*
X176527086Y-111990095D01*
X176530455Y-111999226D01*
X176546250Y-112047836D01*
X176559008Y-112069933D01*
X176566182Y-112084479D01*
X176573796Y-112102862D01*
X176602610Y-112145984D01*
X176606889Y-112152865D01*
X176612110Y-112161907D01*
X176635642Y-112202667D01*
X176635643Y-112202668D01*
X176648428Y-112216867D01*
X176659378Y-112230945D01*
X176666872Y-112242160D01*
X176708054Y-112283342D01*
X176712524Y-112288052D01*
X176755270Y-112335526D01*
X176755272Y-112335528D01*
X176765539Y-112342987D01*
X176780337Y-112355626D01*
X176785334Y-112360623D01*
X176785342Y-112360629D01*
X176839056Y-112396520D01*
X176843051Y-112399304D01*
X176879024Y-112425440D01*
X176899907Y-112440612D01*
X176899908Y-112440612D01*
X176899909Y-112440613D01*
X176903374Y-112442614D01*
X176904977Y-112444295D01*
X176905165Y-112444432D01*
X176905140Y-112444466D01*
X176951589Y-112493181D01*
X176964811Y-112561789D01*
X176938843Y-112626653D01*
X176903378Y-112657384D01*
X176899909Y-112659386D01*
X176843080Y-112700675D01*
X176839090Y-112703456D01*
X176785341Y-112739371D01*
X176785334Y-112739377D01*
X176780330Y-112744381D01*
X176765550Y-112757003D01*
X176755277Y-112764467D01*
X176755267Y-112764476D01*
X176712522Y-112811948D01*
X176708057Y-112816653D01*
X176666877Y-112857834D01*
X176666869Y-112857843D01*
X176659377Y-112869056D01*
X176648432Y-112883128D01*
X176635642Y-112897333D01*
X176635638Y-112897338D01*
X176606892Y-112947127D01*
X176602609Y-112954014D01*
X176573802Y-112997126D01*
X176573796Y-112997137D01*
X176566183Y-113015517D01*
X176559013Y-113030055D01*
X176546252Y-113052158D01*
X176530459Y-113100761D01*
X176527092Y-113109887D01*
X176509683Y-113151919D01*
X176509683Y-113151921D01*
X176504552Y-113177714D01*
X176500867Y-113191834D01*
X176491004Y-113222192D01*
X176491002Y-113222202D01*
X176486328Y-113266664D01*
X176484626Y-113277885D01*
X176477000Y-113316228D01*
X176477000Y-113348924D01*
X176476321Y-113361885D01*
X176472315Y-113400000D01*
X176476321Y-113438114D01*
X176477000Y-113451075D01*
X176477000Y-113483770D01*
X176484626Y-113522114D01*
X176486328Y-113533336D01*
X176491002Y-113577797D01*
X176491003Y-113577804D01*
X176500866Y-113608160D01*
X176504551Y-113622281D01*
X176509683Y-113648079D01*
X176509684Y-113648084D01*
X176527086Y-113690095D01*
X176530455Y-113699226D01*
X176546250Y-113747836D01*
X176559008Y-113769933D01*
X176566182Y-113784479D01*
X176573796Y-113802862D01*
X176602610Y-113845984D01*
X176606889Y-113852865D01*
X176611433Y-113860735D01*
X176635642Y-113902667D01*
X176635643Y-113902668D01*
X176648428Y-113916867D01*
X176659378Y-113930945D01*
X176666872Y-113942160D01*
X176708054Y-113983342D01*
X176712524Y-113988052D01*
X176755270Y-114035526D01*
X176755272Y-114035528D01*
X176765539Y-114042987D01*
X176780337Y-114055626D01*
X176785334Y-114060623D01*
X176785342Y-114060629D01*
X176839056Y-114096520D01*
X176843051Y-114099304D01*
X176899905Y-114140611D01*
X176899906Y-114140611D01*
X176899907Y-114140612D01*
X176905636Y-114143162D01*
X176924106Y-114153348D01*
X176924637Y-114153703D01*
X176990229Y-114180872D01*
X176993196Y-114182147D01*
X177063224Y-114213326D01*
X177064462Y-114213728D01*
X177073440Y-114216520D01*
X177073585Y-114216046D01*
X177079412Y-114217814D01*
X177079414Y-114217814D01*
X177079418Y-114217816D01*
X177155428Y-114232934D01*
X177156893Y-114233236D01*
X177238109Y-114250500D01*
X177238110Y-114250500D01*
X177416889Y-114250500D01*
X177416891Y-114250500D01*
X177498163Y-114233224D01*
X177499568Y-114232935D01*
X177575582Y-114217816D01*
X177575587Y-114217813D01*
X177581413Y-114216046D01*
X177581557Y-114216521D01*
X177590588Y-114213711D01*
X177591751Y-114213332D01*
X177591767Y-114213329D01*
X177661829Y-114182134D01*
X177664712Y-114180895D01*
X177730363Y-114153703D01*
X177730890Y-114153350D01*
X177749365Y-114143162D01*
X177750184Y-114142796D01*
X177755093Y-114140612D01*
X177812005Y-114099261D01*
X177815888Y-114096555D01*
X177869662Y-114060626D01*
X177874664Y-114055622D01*
X177889460Y-114042987D01*
X177899730Y-114035526D01*
X177942494Y-113988030D01*
X177946928Y-113983358D01*
X177988126Y-113942162D01*
X177995620Y-113930945D01*
X178006571Y-113916866D01*
X178023709Y-113897834D01*
X178024785Y-113898803D01*
X178074149Y-113860735D01*
X178143762Y-113854753D01*
X178205559Y-113887356D01*
X178239919Y-113948193D01*
X178243143Y-113976222D01*
X178246254Y-120177547D01*
X178246208Y-120180974D01*
X178245005Y-120225288D01*
X178244673Y-120231594D01*
X178241835Y-120267871D01*
X178241186Y-120274130D01*
X178236577Y-120309710D01*
X178235613Y-120315912D01*
X178229293Y-120350753D01*
X178228024Y-120356867D01*
X178220013Y-120391111D01*
X178218450Y-120397110D01*
X178208815Y-120430641D01*
X178206965Y-120436525D01*
X178195718Y-120469408D01*
X178193591Y-120475158D01*
X178180781Y-120507323D01*
X178178392Y-120512919D01*
X178164043Y-120544366D01*
X178161399Y-120549805D01*
X178145528Y-120580526D01*
X178142640Y-120585800D01*
X178125304Y-120615706D01*
X178122182Y-120620804D01*
X178103415Y-120649855D01*
X178100065Y-120654777D01*
X178079927Y-120682891D01*
X178076361Y-120687626D01*
X178054856Y-120714804D01*
X178051082Y-120719347D01*
X178028285Y-120745496D01*
X178024306Y-120749847D01*
X178000302Y-120774872D01*
X177996121Y-120779028D01*
X177970909Y-120802927D01*
X177966541Y-120806875D01*
X177940240Y-120829536D01*
X177935682Y-120833278D01*
X177908324Y-120854670D01*
X177903580Y-120858200D01*
X177875197Y-120878289D01*
X177870280Y-120881596D01*
X177840989Y-120900294D01*
X177835893Y-120903377D01*
X177810634Y-120917843D01*
X177805725Y-120920654D01*
X177800463Y-120923501D01*
X177769490Y-120939306D01*
X177764071Y-120941908D01*
X177732298Y-120956225D01*
X177726723Y-120958575D01*
X177694234Y-120971347D01*
X177688521Y-120973433D01*
X177655328Y-120984636D01*
X177649477Y-120986451D01*
X177615602Y-120996049D01*
X177609651Y-120997576D01*
X177575117Y-121005531D01*
X177569060Y-121006768D01*
X177533850Y-121013047D01*
X177527693Y-121013986D01*
X177491874Y-121018532D01*
X177485653Y-121019163D01*
X177449090Y-121021940D01*
X177442833Y-121022256D01*
X177399843Y-121023342D01*
X177397654Y-121023398D01*
X177394524Y-121023438D01*
X115036889Y-121024267D01*
X114765587Y-121024267D01*
X114127489Y-121024199D01*
X114126961Y-121024198D01*
X113871401Y-121023082D01*
X113869780Y-121023064D01*
X113653328Y-121019289D01*
X113650298Y-121019199D01*
X113465972Y-121011475D01*
X113462571Y-121011286D01*
X113387036Y-121006039D01*
X113384123Y-121005802D01*
X113313700Y-120999239D01*
X113310268Y-120998871D01*
X113246884Y-120991179D01*
X113242941Y-120990636D01*
X113185820Y-120981836D01*
X113181421Y-120981077D01*
X113129549Y-120971162D01*
X113124787Y-120970154D01*
X113077722Y-120959221D01*
X113072455Y-120957876D01*
X113063268Y-120955312D01*
X113057934Y-120953693D01*
X113047882Y-120950394D01*
X113042813Y-120948608D01*
X113031575Y-120944372D01*
X113026672Y-120942403D01*
X113014602Y-120937256D01*
X113009847Y-120935109D01*
X112997545Y-120929238D01*
X112992849Y-120926874D01*
X112980707Y-120920434D01*
X112976066Y-120917843D01*
X112964437Y-120911021D01*
X112959791Y-120908157D01*
X112949022Y-120901185D01*
X112944378Y-120898027D01*
X112934780Y-120891173D01*
X112930105Y-120887665D01*
X112929395Y-120887106D01*
X112922015Y-120881289D01*
X112917250Y-120877336D01*
X112910867Y-120871766D01*
X112906078Y-120867361D01*
X112901571Y-120862991D01*
X112896715Y-120858010D01*
X112894299Y-120855389D01*
X112876644Y-120830778D01*
X112874469Y-120826796D01*
X112872577Y-120823190D01*
X112868477Y-120815050D01*
X112866706Y-120811384D01*
X112863392Y-120804216D01*
X112861752Y-120800503D01*
X112859110Y-120794243D01*
X112857591Y-120790469D01*
X112855415Y-120784794D01*
X112854022Y-120780974D01*
X112852158Y-120775591D01*
X112850934Y-120771865D01*
X112849259Y-120766483D01*
X112848206Y-120762913D01*
X112846594Y-120757118D01*
X112845709Y-120753750D01*
X112844132Y-120747389D01*
X112843403Y-120744276D01*
X112841777Y-120736902D01*
X112841193Y-120734092D01*
X112840121Y-120728620D01*
X112839483Y-120725363D01*
X112839050Y-120723030D01*
X112837611Y-120714790D01*
X112837149Y-120711936D01*
X112835970Y-120704084D01*
X112834818Y-120678242D01*
X112835070Y-120674049D01*
X112826351Y-120631447D01*
X112824887Y-120622708D01*
X112819244Y-120579569D01*
X112816810Y-120573681D01*
X112809925Y-120551175D01*
X112808650Y-120544940D01*
X112801415Y-120530469D01*
X112795848Y-120519335D01*
X112791253Y-120510145D01*
X112789842Y-120507323D01*
X112789206Y-120506052D01*
X112785521Y-120497970D01*
X112768910Y-120457776D01*
X112768904Y-120457768D01*
X112765034Y-120452715D01*
X112752571Y-120432780D01*
X112749188Y-120426016D01*
X112738608Y-120395404D01*
X112738079Y-120392819D01*
X112737570Y-120390177D01*
X112733353Y-120366839D01*
X112732869Y-120363960D01*
X112729314Y-120341188D01*
X112728878Y-120338146D01*
X112725991Y-120316077D01*
X112725621Y-120312943D01*
X112723374Y-120291462D01*
X112723077Y-120288205D01*
X112721476Y-120267538D01*
X112721261Y-120264162D01*
X112720279Y-120244268D01*
X112720157Y-120240775D01*
X112719772Y-120221770D01*
X112719754Y-120218009D01*
X112719937Y-120199934D01*
X112720039Y-120196042D01*
X112720751Y-120178980D01*
X112720988Y-120174912D01*
X112722188Y-120158849D01*
X112722569Y-120154691D01*
X112724230Y-120139479D01*
X112724772Y-120135222D01*
X112726823Y-120121100D01*
X112727562Y-120116595D01*
X112729956Y-120103518D01*
X112730890Y-120098908D01*
X112733597Y-120086760D01*
X112734751Y-120082027D01*
X112738101Y-120069367D01*
X112739300Y-120065139D01*
X112743182Y-120052342D01*
X112744317Y-120048798D01*
X112748946Y-120035086D01*
X112750194Y-120031569D01*
X112755202Y-120018097D01*
X112756491Y-120014776D01*
X112761992Y-120001209D01*
X112763315Y-119998075D01*
X112769309Y-119984407D01*
X112770689Y-119981372D01*
X112777282Y-119967374D01*
X112778638Y-119964586D01*
X112781514Y-119958856D01*
X112785897Y-119950124D01*
X112787172Y-119947655D01*
X112795254Y-119932458D01*
X112796482Y-119930208D01*
X112805302Y-119914450D01*
X112806468Y-119912416D01*
X112814934Y-119897962D01*
X112816509Y-119895346D01*
X112840260Y-119857036D01*
X112841945Y-119854396D01*
X112863683Y-119821288D01*
X112881065Y-119800282D01*
X112882092Y-119799288D01*
X112906625Y-119758320D01*
X112910486Y-119752276D01*
X112937359Y-119712804D01*
X112938044Y-119710840D01*
X112948724Y-119688016D01*
X112994828Y-119611030D01*
X113010313Y-119590398D01*
X113067306Y-119528993D01*
X113067875Y-119528386D01*
X113112423Y-119481307D01*
X156449499Y-119481307D01*
X156481222Y-119640783D01*
X156481225Y-119640793D01*
X156543450Y-119791019D01*
X156543452Y-119791023D01*
X156633788Y-119926220D01*
X156633794Y-119926228D01*
X156748771Y-120041205D01*
X156748779Y-120041211D01*
X156883976Y-120131547D01*
X156883980Y-120131549D01*
X156999895Y-120179562D01*
X157034211Y-120193776D01*
X157034215Y-120193776D01*
X157034216Y-120193777D01*
X157193692Y-120225500D01*
X157193695Y-120225500D01*
X157356307Y-120225500D01*
X157463598Y-120204157D01*
X157515789Y-120193776D01*
X157646676Y-120139561D01*
X157666019Y-120131549D01*
X157666023Y-120131547D01*
X157761903Y-120067482D01*
X157801225Y-120041208D01*
X157916208Y-119926225D01*
X157991270Y-119813886D01*
X158006547Y-119791023D01*
X158006549Y-119791019D01*
X158044458Y-119699497D01*
X158068776Y-119640789D01*
X158082873Y-119569918D01*
X158100500Y-119481307D01*
X158100500Y-119318692D01*
X158097561Y-119303917D01*
X169799500Y-119303917D01*
X169799500Y-119496082D01*
X169836986Y-119684535D01*
X169836989Y-119684547D01*
X169910520Y-119862068D01*
X169910521Y-119862070D01*
X170017279Y-120021844D01*
X170017282Y-120021848D01*
X170153151Y-120157717D01*
X170153155Y-120157720D01*
X170312927Y-120264477D01*
X170312928Y-120264477D01*
X170312929Y-120264478D01*
X170312931Y-120264479D01*
X170444398Y-120318934D01*
X170490457Y-120338012D01*
X170649155Y-120369579D01*
X170678917Y-120375499D01*
X170678920Y-120375500D01*
X170678922Y-120375500D01*
X170871080Y-120375500D01*
X170871081Y-120375499D01*
X171059543Y-120338012D01*
X171237073Y-120264477D01*
X171396845Y-120157720D01*
X171532720Y-120021845D01*
X171639477Y-119862073D01*
X171713012Y-119684543D01*
X171750500Y-119496078D01*
X171750500Y-119303922D01*
X171750500Y-119303919D01*
X171750499Y-119303917D01*
X171739953Y-119250900D01*
X171713012Y-119115457D01*
X171682097Y-119040822D01*
X171639479Y-118937931D01*
X171639478Y-118937929D01*
X171618206Y-118906094D01*
X171532720Y-118778155D01*
X171532717Y-118778151D01*
X171396848Y-118642282D01*
X171396844Y-118642279D01*
X171237070Y-118535521D01*
X171237068Y-118535520D01*
X171059547Y-118461989D01*
X171059535Y-118461986D01*
X170871081Y-118424500D01*
X170871078Y-118424500D01*
X170678922Y-118424500D01*
X170678919Y-118424500D01*
X170490464Y-118461986D01*
X170490452Y-118461989D01*
X170312931Y-118535520D01*
X170312929Y-118535521D01*
X170153155Y-118642279D01*
X170153151Y-118642282D01*
X170017282Y-118778151D01*
X170017279Y-118778155D01*
X169910521Y-118937929D01*
X169910520Y-118937931D01*
X169836989Y-119115452D01*
X169836986Y-119115464D01*
X169799500Y-119303917D01*
X158097561Y-119303917D01*
X158068777Y-119159216D01*
X158068776Y-119159215D01*
X158068776Y-119159211D01*
X158061545Y-119141753D01*
X158006549Y-119008980D01*
X158006547Y-119008976D01*
X157916211Y-118873779D01*
X157916205Y-118873771D01*
X157801228Y-118758794D01*
X157801220Y-118758788D01*
X157666023Y-118668452D01*
X157666019Y-118668450D01*
X157515793Y-118606225D01*
X157515783Y-118606222D01*
X157356307Y-118574500D01*
X157356305Y-118574500D01*
X157193695Y-118574500D01*
X157193693Y-118574500D01*
X157034216Y-118606222D01*
X157034206Y-118606225D01*
X156883980Y-118668450D01*
X156883976Y-118668452D01*
X156748779Y-118758788D01*
X156748771Y-118758794D01*
X156633794Y-118873771D01*
X156633788Y-118873779D01*
X156543452Y-119008976D01*
X156543450Y-119008980D01*
X156481225Y-119159206D01*
X156481222Y-119159216D01*
X156449500Y-119318692D01*
X156449500Y-119318695D01*
X156449500Y-119481305D01*
X156449500Y-119481307D01*
X156449499Y-119481307D01*
X113112423Y-119481307D01*
X113135194Y-119457243D01*
X113143186Y-119449521D01*
X113167225Y-119428301D01*
X113168653Y-119427061D01*
X113184303Y-119413674D01*
X113195632Y-119406074D01*
X113195230Y-119405493D01*
X113201905Y-119400867D01*
X113201915Y-119400863D01*
X113223978Y-119380846D01*
X113234677Y-119372173D01*
X113237945Y-119369810D01*
X113237961Y-119369802D01*
X113258499Y-119350407D01*
X113262989Y-119346373D01*
X113264864Y-119344769D01*
X113270087Y-119340543D01*
X113276474Y-119335655D01*
X113276482Y-119335651D01*
X113278878Y-119333261D01*
X113285842Y-119326826D01*
X113289826Y-119323420D01*
X113289828Y-119323416D01*
X113289830Y-119323415D01*
X113295263Y-119317373D01*
X113295541Y-119317623D01*
X113300331Y-119311863D01*
X113301439Y-119310758D01*
X113305640Y-119306763D01*
X113327350Y-119287070D01*
X113327352Y-119287066D01*
X113329402Y-119285207D01*
X113342726Y-119272124D01*
X113343065Y-119271845D01*
X113343073Y-119271841D01*
X113351391Y-119262999D01*
X113356590Y-119257791D01*
X113357265Y-119257153D01*
X113361223Y-119253417D01*
X113361228Y-119253407D01*
X113363641Y-119250444D01*
X113369496Y-119243753D01*
X113381470Y-119231026D01*
X113384110Y-119228308D01*
X113397991Y-119214465D01*
X113404613Y-119208327D01*
X113406408Y-119206778D01*
X113406419Y-119206772D01*
X113409811Y-119202970D01*
X113414760Y-119197741D01*
X113423780Y-119188746D01*
X113423782Y-119188741D01*
X113428744Y-119182294D01*
X113429220Y-119182660D01*
X113434572Y-119175233D01*
X113444923Y-119163639D01*
X113446990Y-119161383D01*
X113459687Y-119147887D01*
X113467153Y-119140596D01*
X113467158Y-119140589D01*
X113467161Y-119140588D01*
X113471471Y-119135555D01*
X113475286Y-119131307D01*
X113486613Y-119119269D01*
X113486615Y-119119263D01*
X113489792Y-119114852D01*
X113496256Y-119106626D01*
X113505922Y-119095345D01*
X113507534Y-119093501D01*
X113519473Y-119080128D01*
X113525154Y-119074348D01*
X113526035Y-119073287D01*
X113526039Y-119073285D01*
X113530829Y-119067521D01*
X113533632Y-119064267D01*
X113547204Y-119049066D01*
X113547205Y-119049063D01*
X113548527Y-119047123D01*
X113555656Y-119037658D01*
X113565344Y-119026006D01*
X113566262Y-119024917D01*
X113578138Y-119011056D01*
X113583264Y-119005670D01*
X113584646Y-119003966D01*
X113584648Y-119003965D01*
X113591328Y-118995729D01*
X113593458Y-118993176D01*
X113595716Y-118990540D01*
X113606246Y-118978251D01*
X113606246Y-118978249D01*
X113606655Y-118977773D01*
X113613315Y-118968630D01*
X113623821Y-118955680D01*
X113624700Y-118954609D01*
X113664482Y-118906759D01*
X113664483Y-118906756D01*
X113665034Y-118906094D01*
X113672510Y-118895666D01*
X113721995Y-118834672D01*
X113751470Y-118808343D01*
X113758346Y-118803945D01*
X113761312Y-118802109D01*
X113772593Y-118795340D01*
X113776721Y-118792969D01*
X113782807Y-118789628D01*
X113837381Y-118774431D01*
X113841818Y-118774248D01*
X113854041Y-118773745D01*
X113855629Y-118773248D01*
X113856226Y-118773062D01*
X113867033Y-118770210D01*
X113867986Y-118770004D01*
X113878039Y-118768393D01*
X113879318Y-118768085D01*
X113879322Y-118768085D01*
X113879325Y-118768083D01*
X113887222Y-118766185D01*
X113887349Y-118766713D01*
X113901233Y-118763132D01*
X113901674Y-118763071D01*
X113934529Y-118749191D01*
X113945761Y-118745074D01*
X113979823Y-118734428D01*
X113991595Y-118726968D01*
X113998769Y-118722754D01*
X113999233Y-118722502D01*
X114010167Y-118717240D01*
X114023070Y-118711790D01*
X114023070Y-118711789D01*
X114023072Y-118711789D01*
X114051223Y-118689872D01*
X114061013Y-118682985D01*
X114091143Y-118663895D01*
X114100790Y-118653418D01*
X114115824Y-118639579D01*
X114127059Y-118630834D01*
X114132974Y-118623011D01*
X114155291Y-118600283D01*
X114175573Y-118584357D01*
X114175577Y-118584352D01*
X114181059Y-118578746D01*
X114186310Y-118573033D01*
X114186310Y-118573031D01*
X114186313Y-118573030D01*
X114191465Y-118565695D01*
X114229134Y-118530640D01*
X114286243Y-118496374D01*
X114288009Y-118495336D01*
X114299778Y-118488540D01*
X114340538Y-118465009D01*
X114340547Y-118464999D01*
X114342137Y-118463781D01*
X114342551Y-118463499D01*
X114343067Y-118463090D01*
X114344733Y-118461789D01*
X114345285Y-118461365D01*
X114345664Y-118461027D01*
X114347227Y-118459784D01*
X114347235Y-118459780D01*
X114389394Y-118416176D01*
X114390800Y-118414745D01*
X114522726Y-118282820D01*
X114530885Y-118275360D01*
X114603062Y-118215065D01*
X114623365Y-118201272D01*
X114626686Y-118199468D01*
X114660079Y-118167760D01*
X114665957Y-118162524D01*
X114667547Y-118161196D01*
X114701292Y-118133007D01*
X114701370Y-118132895D01*
X114714329Y-118117339D01*
X114728661Y-118102745D01*
X114731703Y-118099754D01*
X114737687Y-118094072D01*
X114744266Y-118088980D01*
X114743925Y-118088570D01*
X114750180Y-118083364D01*
X114750179Y-118083364D01*
X114750185Y-118083361D01*
X114756123Y-118076932D01*
X114761817Y-118071161D01*
X114771593Y-118061880D01*
X114771596Y-118061874D01*
X114776708Y-118055560D01*
X114776985Y-118055784D01*
X114782949Y-118047896D01*
X114788478Y-118041911D01*
X114790993Y-118039270D01*
X114796271Y-118033896D01*
X114803011Y-118027530D01*
X114807335Y-118023739D01*
X114807344Y-118023734D01*
X114814237Y-118015878D01*
X114818936Y-118010816D01*
X114830551Y-117998990D01*
X114830552Y-117998987D01*
X114835438Y-117992499D01*
X114835858Y-117992815D01*
X114841695Y-117984591D01*
X114845582Y-117980162D01*
X114847640Y-117977875D01*
X114852696Y-117972403D01*
X114860166Y-117964978D01*
X114862129Y-117963184D01*
X114862135Y-117963181D01*
X114869747Y-117954140D01*
X114873507Y-117949879D01*
X114886963Y-117935315D01*
X114891002Y-117929596D01*
X114897421Y-117921276D01*
X114900531Y-117917583D01*
X114902029Y-117915840D01*
X114907222Y-117909924D01*
X114915122Y-117901744D01*
X114923279Y-117891748D01*
X114926119Y-117888390D01*
X114941381Y-117871002D01*
X114941385Y-117870992D01*
X114943399Y-117867983D01*
X114950406Y-117858509D01*
X114953915Y-117854210D01*
X114954967Y-117852941D01*
X114960548Y-117846313D01*
X114967921Y-117838412D01*
X114968355Y-117837864D01*
X114968359Y-117837862D01*
X114978621Y-117824930D01*
X114980831Y-117822226D01*
X114994402Y-117806112D01*
X114994406Y-117806102D01*
X114994510Y-117805942D01*
X115001829Y-117795684D01*
X115006743Y-117789492D01*
X115007642Y-117788375D01*
X115046693Y-117740529D01*
X115046695Y-117740523D01*
X115055051Y-117728620D01*
X115105539Y-117665001D01*
X115115067Y-117654325D01*
X115306342Y-117463461D01*
X115323775Y-117448990D01*
X115330858Y-117444132D01*
X115357697Y-117412757D01*
X115364300Y-117405627D01*
X115393542Y-117376450D01*
X115397843Y-117369017D01*
X115410937Y-117350524D01*
X115480025Y-117269765D01*
X115483110Y-117266296D01*
X115522808Y-117223309D01*
X115522811Y-117223302D01*
X115524439Y-117221540D01*
X115533948Y-117209656D01*
X115542952Y-117199800D01*
X115560257Y-117180859D01*
X115561474Y-117179548D01*
X115587842Y-117151588D01*
X115589526Y-117149839D01*
X115612310Y-117126698D01*
X115614269Y-117124756D01*
X115637043Y-117102716D01*
X115638877Y-117100979D01*
X115665724Y-117076130D01*
X115667250Y-117074743D01*
X115672962Y-117069633D01*
X115692009Y-117052592D01*
X115702854Y-117044071D01*
X115703584Y-117043413D01*
X115703589Y-117043411D01*
X115749418Y-117002140D01*
X115750611Y-117001081D01*
X115778568Y-116976597D01*
X115787298Y-116969622D01*
X115790501Y-116967290D01*
X115790508Y-116967287D01*
X115832172Y-116927682D01*
X115834610Y-116925427D01*
X115867569Y-116895747D01*
X115870149Y-116893610D01*
X115873990Y-116889966D01*
X115877328Y-116886961D01*
X115877329Y-116886958D01*
X115877400Y-116886895D01*
X115883988Y-116879782D01*
X115900213Y-116863629D01*
X115910780Y-116854247D01*
X115912400Y-116852964D01*
X115912408Y-116852960D01*
X115930174Y-116834662D01*
X115933614Y-116831259D01*
X115957589Y-116808471D01*
X115957595Y-116808459D01*
X115958495Y-116807349D01*
X115964433Y-116800527D01*
X115974542Y-116789733D01*
X115977510Y-116786673D01*
X115985266Y-116778952D01*
X115992277Y-116772490D01*
X115992325Y-116772448D01*
X115992338Y-116772440D01*
X115994732Y-116769783D01*
X115999364Y-116764917D01*
X115999858Y-116764425D01*
X116003511Y-116760043D01*
X116013390Y-116749084D01*
X116016457Y-116745805D01*
X116024354Y-116737673D01*
X116030963Y-116731354D01*
X116031232Y-116731113D01*
X116031241Y-116731108D01*
X116033111Y-116728946D01*
X116037926Y-116723698D01*
X116038091Y-116723528D01*
X116041773Y-116718940D01*
X116051487Y-116707719D01*
X116054695Y-116704157D01*
X116062742Y-116695566D01*
X116068960Y-116689383D01*
X116069395Y-116688978D01*
X116069403Y-116688973D01*
X116070757Y-116687339D01*
X116075488Y-116681975D01*
X116079210Y-116677150D01*
X116088858Y-116665520D01*
X116092180Y-116661681D01*
X116100407Y-116652555D01*
X116106272Y-116646478D01*
X116106771Y-116645993D01*
X116106780Y-116645987D01*
X116107659Y-116644878D01*
X116112060Y-116639677D01*
X116115814Y-116634599D01*
X116125425Y-116622484D01*
X116128752Y-116618470D01*
X116137357Y-116608532D01*
X116142856Y-116602587D01*
X116143341Y-116602094D01*
X116143346Y-116602091D01*
X116143740Y-116601569D01*
X116147830Y-116596521D01*
X116151587Y-116591205D01*
X116161182Y-116578534D01*
X116164546Y-116574290D01*
X116173492Y-116563507D01*
X116178676Y-116557648D01*
X116179042Y-116557258D01*
X116179050Y-116557252D01*
X116179055Y-116557243D01*
X116179067Y-116557232D01*
X116182802Y-116552407D01*
X116186506Y-116546912D01*
X116188436Y-116544236D01*
X116196052Y-116533676D01*
X116199447Y-116529189D01*
X116208776Y-116517431D01*
X116213675Y-116511633D01*
X116213830Y-116511459D01*
X116213838Y-116511453D01*
X116213843Y-116511445D01*
X116214030Y-116511237D01*
X116216897Y-116507355D01*
X116220494Y-116501743D01*
X116230063Y-116487791D01*
X116233428Y-116483122D01*
X116243125Y-116470316D01*
X116247784Y-116464533D01*
X116248032Y-116464242D01*
X116250119Y-116461272D01*
X116253564Y-116455614D01*
X116263138Y-116440902D01*
X116266472Y-116436039D01*
X116268096Y-116433787D01*
X116276496Y-116422139D01*
X116280921Y-116416371D01*
X116281059Y-116416200D01*
X116282397Y-116414197D01*
X116285680Y-116408504D01*
X116295222Y-116393027D01*
X116298510Y-116387975D01*
X116314169Y-116365140D01*
X116317322Y-116358935D01*
X116323932Y-116347482D01*
X116332495Y-116334323D01*
X116353313Y-116309937D01*
X116498087Y-116179214D01*
X116640629Y-116051517D01*
X116651733Y-116042664D01*
X116651937Y-116042520D01*
X116676265Y-116025302D01*
X116688950Y-116010027D01*
X116701594Y-115996901D01*
X116716385Y-115983652D01*
X116732821Y-115958481D01*
X116741251Y-115947055D01*
X116806775Y-115868164D01*
X116824774Y-115850508D01*
X116826385Y-115849222D01*
X116854715Y-115810769D01*
X116859135Y-115805121D01*
X116889656Y-115768376D01*
X116890512Y-115766514D01*
X116903339Y-115744778D01*
X116904557Y-115743127D01*
X116921982Y-115698623D01*
X116924783Y-115692042D01*
X116944748Y-115648660D01*
X116945095Y-115646627D01*
X116951854Y-115622335D01*
X116952607Y-115620415D01*
X116957918Y-115572929D01*
X116958919Y-115565848D01*
X116966978Y-115518765D01*
X116966788Y-115516713D01*
X116967030Y-115491488D01*
X116967258Y-115489449D01*
X116967258Y-115489448D01*
X116960102Y-115442226D01*
X116959232Y-115435088D01*
X116954831Y-115387541D01*
X116954118Y-115385612D01*
X116947821Y-115361180D01*
X116947514Y-115359150D01*
X116928379Y-115315386D01*
X116925690Y-115308713D01*
X116919977Y-115293260D01*
X116909136Y-115263933D01*
X116907945Y-115262250D01*
X116901027Y-115250000D01*
X123514953Y-115250000D01*
X123516497Y-115264689D01*
X123518821Y-115286800D01*
X123519500Y-115299761D01*
X123519500Y-115331309D01*
X123526868Y-115368351D01*
X123528571Y-115379576D01*
X123533091Y-115422572D01*
X123533091Y-115422574D01*
X123533092Y-115422576D01*
X123536370Y-115432666D01*
X123542601Y-115451844D01*
X123546285Y-115465963D01*
X123551224Y-115490791D01*
X123568057Y-115531432D01*
X123571425Y-115540562D01*
X123586711Y-115587605D01*
X123586712Y-115587608D01*
X123586714Y-115587611D01*
X123598975Y-115608849D01*
X123598982Y-115608860D01*
X123606154Y-115623404D01*
X123613450Y-115641018D01*
X123613451Y-115641020D01*
X123613452Y-115641021D01*
X123641344Y-115682764D01*
X123645627Y-115689651D01*
X123673476Y-115737886D01*
X123673480Y-115737891D01*
X123685715Y-115751480D01*
X123696666Y-115765560D01*
X123703793Y-115776227D01*
X123703794Y-115776228D01*
X123743697Y-115816130D01*
X123748168Y-115820841D01*
X123789588Y-115866844D01*
X123799325Y-115873918D01*
X123814123Y-115886557D01*
X123818770Y-115891204D01*
X123818773Y-115891206D01*
X123818775Y-115891208D01*
X123870878Y-115926021D01*
X123874843Y-115928784D01*
X123929976Y-115968842D01*
X123935248Y-115971189D01*
X123935259Y-115971194D01*
X123953714Y-115981371D01*
X123953763Y-115981403D01*
X123953979Y-115981548D01*
X124017630Y-116007912D01*
X124020514Y-116009151D01*
X124077743Y-116034632D01*
X124088501Y-116039422D01*
X124092813Y-116040823D01*
X124098225Y-116042520D01*
X124098381Y-116042007D01*
X124104208Y-116043774D01*
X124104211Y-116043776D01*
X124177931Y-116058439D01*
X124179390Y-116058740D01*
X124258236Y-116075500D01*
X124431763Y-116075500D01*
X124431764Y-116075500D01*
X124510626Y-116058736D01*
X124512051Y-116058443D01*
X124585789Y-116043776D01*
X124585794Y-116043773D01*
X124585798Y-116043773D01*
X124591627Y-116042005D01*
X124591782Y-116042516D01*
X124597255Y-116040800D01*
X124601495Y-116039423D01*
X124601495Y-116039422D01*
X124601499Y-116039422D01*
X124669494Y-116009147D01*
X124672358Y-116007917D01*
X124736021Y-115981548D01*
X124736274Y-115981378D01*
X124754742Y-115971193D01*
X124760024Y-115968842D01*
X124815163Y-115928779D01*
X124819127Y-115926018D01*
X124853653Y-115902948D01*
X124871225Y-115891208D01*
X124875870Y-115886562D01*
X124890667Y-115873923D01*
X124900410Y-115866845D01*
X124941852Y-115820817D01*
X124946283Y-115816148D01*
X124986208Y-115776225D01*
X124993340Y-115765549D01*
X125004285Y-115751477D01*
X125016522Y-115737889D01*
X125044373Y-115689647D01*
X125048633Y-115682796D01*
X125076548Y-115641021D01*
X125083846Y-115623402D01*
X125091017Y-115608859D01*
X125103286Y-115587611D01*
X125118577Y-115540548D01*
X125121932Y-115531453D01*
X125138776Y-115490789D01*
X125143715Y-115465957D01*
X125147401Y-115451835D01*
X125150519Y-115442239D01*
X125156908Y-115422576D01*
X125161427Y-115379576D01*
X125163125Y-115368373D01*
X125170500Y-115331305D01*
X125170500Y-115299761D01*
X125171179Y-115286800D01*
X125172837Y-115271024D01*
X125175047Y-115250000D01*
X129294953Y-115250000D01*
X129296497Y-115264689D01*
X129298821Y-115286800D01*
X129299500Y-115299761D01*
X129299500Y-115331309D01*
X129306868Y-115368351D01*
X129308571Y-115379576D01*
X129313091Y-115422572D01*
X129313091Y-115422574D01*
X129313092Y-115422576D01*
X129316370Y-115432666D01*
X129322601Y-115451844D01*
X129326285Y-115465963D01*
X129331224Y-115490791D01*
X129348057Y-115531432D01*
X129351425Y-115540562D01*
X129366711Y-115587605D01*
X129366712Y-115587608D01*
X129366714Y-115587611D01*
X129378975Y-115608849D01*
X129378982Y-115608860D01*
X129386154Y-115623404D01*
X129393450Y-115641018D01*
X129393451Y-115641020D01*
X129393452Y-115641021D01*
X129421344Y-115682764D01*
X129425627Y-115689651D01*
X129453476Y-115737886D01*
X129453480Y-115737891D01*
X129465715Y-115751480D01*
X129476666Y-115765560D01*
X129483793Y-115776227D01*
X129483794Y-115776228D01*
X129523697Y-115816130D01*
X129528168Y-115820841D01*
X129569588Y-115866844D01*
X129579325Y-115873918D01*
X129594123Y-115886557D01*
X129598770Y-115891204D01*
X129598773Y-115891206D01*
X129598775Y-115891208D01*
X129650878Y-115926021D01*
X129654843Y-115928784D01*
X129709976Y-115968842D01*
X129715248Y-115971189D01*
X129715259Y-115971194D01*
X129733714Y-115981371D01*
X129733763Y-115981403D01*
X129733979Y-115981548D01*
X129797630Y-116007912D01*
X129800514Y-116009151D01*
X129857743Y-116034632D01*
X129868501Y-116039422D01*
X129872813Y-116040823D01*
X129878225Y-116042520D01*
X129878381Y-116042007D01*
X129884208Y-116043774D01*
X129884211Y-116043776D01*
X129957931Y-116058439D01*
X129959390Y-116058740D01*
X130038236Y-116075500D01*
X130211763Y-116075500D01*
X130211764Y-116075500D01*
X130290626Y-116058736D01*
X130292051Y-116058443D01*
X130365789Y-116043776D01*
X130365794Y-116043773D01*
X130365798Y-116043773D01*
X130371627Y-116042005D01*
X130371782Y-116042516D01*
X130377255Y-116040800D01*
X130381495Y-116039423D01*
X130381495Y-116039422D01*
X130381499Y-116039422D01*
X130449494Y-116009147D01*
X130452358Y-116007917D01*
X130516021Y-115981548D01*
X130516274Y-115981378D01*
X130534742Y-115971193D01*
X130540024Y-115968842D01*
X130595163Y-115928779D01*
X130599127Y-115926018D01*
X130633653Y-115902948D01*
X130651225Y-115891208D01*
X130655870Y-115886562D01*
X130670667Y-115873923D01*
X130680410Y-115866845D01*
X130721852Y-115820817D01*
X130726283Y-115816148D01*
X130766208Y-115776225D01*
X130773340Y-115765549D01*
X130784285Y-115751477D01*
X130796522Y-115737889D01*
X130824373Y-115689647D01*
X130828633Y-115682796D01*
X130856548Y-115641021D01*
X130863846Y-115623402D01*
X130871017Y-115608859D01*
X130883286Y-115587611D01*
X130898577Y-115540548D01*
X130901932Y-115531453D01*
X130904607Y-115524996D01*
X142659435Y-115524996D01*
X142659435Y-115525003D01*
X142679630Y-115704249D01*
X142679631Y-115704254D01*
X142739211Y-115874523D01*
X142824361Y-116010038D01*
X142835184Y-116027262D01*
X142962738Y-116154816D01*
X143115478Y-116250789D01*
X143285745Y-116310368D01*
X143372669Y-116320161D01*
X143437080Y-116347226D01*
X143446464Y-116355699D01*
X144391284Y-117300520D01*
X144391286Y-117300521D01*
X144391290Y-117300524D01*
X144492859Y-117359164D01*
X144528216Y-117379577D01*
X144680943Y-117420501D01*
X144680945Y-117420501D01*
X144846654Y-117420501D01*
X144846670Y-117420500D01*
X173137588Y-117420500D01*
X173204627Y-117440185D01*
X173214903Y-117447555D01*
X173217736Y-117449814D01*
X173217738Y-117449816D01*
X173331229Y-117521127D01*
X173360338Y-117539418D01*
X173370478Y-117545789D01*
X173492296Y-117588415D01*
X173540745Y-117605368D01*
X173540750Y-117605369D01*
X173719996Y-117625565D01*
X173720000Y-117625565D01*
X173720004Y-117625565D01*
X173899249Y-117605369D01*
X173899252Y-117605368D01*
X173899255Y-117605368D01*
X174069522Y-117545789D01*
X174222262Y-117449816D01*
X174349816Y-117322262D01*
X174445789Y-117169522D01*
X174505368Y-116999255D01*
X174506945Y-116985263D01*
X174525565Y-116820003D01*
X174525565Y-116819996D01*
X174505369Y-116640750D01*
X174505368Y-116640745D01*
X174491663Y-116601579D01*
X174445789Y-116470478D01*
X174445695Y-116470329D01*
X174393949Y-116387975D01*
X174349816Y-116317738D01*
X174222262Y-116190184D01*
X174204803Y-116179214D01*
X174069523Y-116094211D01*
X173899254Y-116034631D01*
X173899249Y-116034630D01*
X173720004Y-116014435D01*
X173719996Y-116014435D01*
X173540750Y-116034630D01*
X173540745Y-116034631D01*
X173370476Y-116094211D01*
X173217736Y-116190185D01*
X173214903Y-116192445D01*
X173212724Y-116193334D01*
X173211842Y-116193889D01*
X173211744Y-116193734D01*
X173150217Y-116218855D01*
X173137588Y-116219500D01*
X145060098Y-116219500D01*
X144993059Y-116199815D01*
X144972417Y-116183181D01*
X144295700Y-115506465D01*
X144262215Y-115445142D01*
X144260163Y-115432686D01*
X144250368Y-115345745D01*
X144190789Y-115175478D01*
X144094816Y-115022738D01*
X143967262Y-114895184D01*
X143958474Y-114889662D01*
X143814523Y-114799211D01*
X143644254Y-114739631D01*
X143644249Y-114739630D01*
X143465004Y-114719435D01*
X143464996Y-114719435D01*
X143285750Y-114739630D01*
X143285745Y-114739631D01*
X143115476Y-114799211D01*
X142962737Y-114895184D01*
X142835184Y-115022737D01*
X142739211Y-115175476D01*
X142679631Y-115345745D01*
X142679630Y-115345750D01*
X142659435Y-115524996D01*
X130904607Y-115524996D01*
X130918776Y-115490789D01*
X130923715Y-115465957D01*
X130927401Y-115451835D01*
X130930519Y-115442239D01*
X130936908Y-115422576D01*
X130941427Y-115379576D01*
X130943125Y-115368373D01*
X130950500Y-115331305D01*
X130950500Y-115299761D01*
X130951179Y-115286800D01*
X130952837Y-115271024D01*
X130955047Y-115250000D01*
X130951179Y-115213198D01*
X130950500Y-115200237D01*
X130950500Y-115168690D01*
X130943130Y-115131647D01*
X130941425Y-115120409D01*
X130936908Y-115077424D01*
X130927396Y-115048151D01*
X130923715Y-115034041D01*
X130918776Y-115009211D01*
X130901933Y-114968549D01*
X130898579Y-114959457D01*
X130883286Y-114912389D01*
X130871018Y-114891140D01*
X130863844Y-114876592D01*
X130856550Y-114858983D01*
X130856549Y-114858982D01*
X130856548Y-114858979D01*
X130828641Y-114817213D01*
X130824367Y-114810340D01*
X130796522Y-114762111D01*
X130784284Y-114748519D01*
X130773337Y-114734445D01*
X130766208Y-114723775D01*
X130726297Y-114683864D01*
X130721831Y-114679158D01*
X130714775Y-114671322D01*
X130680410Y-114633155D01*
X130680402Y-114633149D01*
X130670666Y-114626075D01*
X130655875Y-114613441D01*
X130651227Y-114608793D01*
X130599135Y-114573987D01*
X130595140Y-114571203D01*
X130595133Y-114571198D01*
X130540024Y-114531158D01*
X130540023Y-114531157D01*
X130540021Y-114531156D01*
X130534740Y-114528805D01*
X130516282Y-114518626D01*
X130516025Y-114518454D01*
X130516018Y-114518450D01*
X130452426Y-114492110D01*
X130449444Y-114490829D01*
X130381500Y-114460578D01*
X130378170Y-114459496D01*
X130371766Y-114457502D01*
X130371618Y-114457992D01*
X130365788Y-114456223D01*
X130334484Y-114449996D01*
X150144435Y-114449996D01*
X150144435Y-114450003D01*
X150164630Y-114629249D01*
X150164631Y-114629254D01*
X150224211Y-114799523D01*
X150295130Y-114912389D01*
X150320184Y-114952262D01*
X150447738Y-115079816D01*
X150530228Y-115131648D01*
X150599979Y-115175476D01*
X150600478Y-115175789D01*
X150688928Y-115206739D01*
X150770745Y-115235368D01*
X150770750Y-115235369D01*
X150949996Y-115255565D01*
X150950000Y-115255565D01*
X150950004Y-115255565D01*
X151129249Y-115235369D01*
X151129252Y-115235368D01*
X151129255Y-115235368D01*
X151299522Y-115175789D01*
X151452262Y-115079816D01*
X151579816Y-114952262D01*
X151675789Y-114799522D01*
X151735368Y-114629255D01*
X151735369Y-114629249D01*
X151755565Y-114450003D01*
X151755565Y-114449996D01*
X152294435Y-114449996D01*
X152294435Y-114450003D01*
X152314630Y-114629249D01*
X152314631Y-114629254D01*
X152374211Y-114799523D01*
X152445130Y-114912389D01*
X152470184Y-114952262D01*
X152597738Y-115079816D01*
X152680228Y-115131648D01*
X152749979Y-115175476D01*
X152750478Y-115175789D01*
X152838928Y-115206739D01*
X152920745Y-115235368D01*
X152920750Y-115235369D01*
X153099996Y-115255565D01*
X153100000Y-115255565D01*
X153100004Y-115255565D01*
X153279249Y-115235369D01*
X153279252Y-115235368D01*
X153279255Y-115235368D01*
X153449522Y-115175789D01*
X153602262Y-115079816D01*
X153729816Y-114952262D01*
X153825789Y-114799522D01*
X153885368Y-114629255D01*
X153885369Y-114629249D01*
X153905565Y-114450003D01*
X153905565Y-114449996D01*
X153885369Y-114270750D01*
X153885368Y-114270745D01*
X153865276Y-114213326D01*
X153825789Y-114100478D01*
X153825056Y-114099312D01*
X153754737Y-113987400D01*
X153729816Y-113947738D01*
X153602262Y-113820184D01*
X153545438Y-113784479D01*
X153449523Y-113724211D01*
X153279254Y-113664631D01*
X153279249Y-113664630D01*
X153100004Y-113644435D01*
X153099996Y-113644435D01*
X152920750Y-113664630D01*
X152920745Y-113664631D01*
X152750476Y-113724211D01*
X152597737Y-113820184D01*
X152470184Y-113947737D01*
X152374211Y-114100476D01*
X152314631Y-114270745D01*
X152314630Y-114270750D01*
X152294435Y-114449996D01*
X151755565Y-114449996D01*
X151735369Y-114270750D01*
X151735368Y-114270745D01*
X151715276Y-114213326D01*
X151675789Y-114100478D01*
X151675056Y-114099312D01*
X151604737Y-113987400D01*
X151579816Y-113947738D01*
X151452262Y-113820184D01*
X151395438Y-113784479D01*
X151299523Y-113724211D01*
X151129254Y-113664631D01*
X151129249Y-113664630D01*
X150950004Y-113644435D01*
X150949996Y-113644435D01*
X150770750Y-113664630D01*
X150770745Y-113664631D01*
X150600476Y-113724211D01*
X150447737Y-113820184D01*
X150320184Y-113947737D01*
X150224211Y-114100476D01*
X150164631Y-114270745D01*
X150164630Y-114270750D01*
X150144435Y-114449996D01*
X130334484Y-114449996D01*
X130292155Y-114441576D01*
X130290567Y-114441249D01*
X130211768Y-114424500D01*
X130211764Y-114424500D01*
X130038236Y-114424500D01*
X129959372Y-114441262D01*
X129957786Y-114441588D01*
X129884203Y-114456225D01*
X129878380Y-114457992D01*
X129878237Y-114457523D01*
X129871296Y-114459669D01*
X129868504Y-114460576D01*
X129800571Y-114490821D01*
X129797595Y-114492099D01*
X129733982Y-114518450D01*
X129733975Y-114518454D01*
X129733696Y-114518641D01*
X129715269Y-114528801D01*
X129709983Y-114531154D01*
X129709973Y-114531160D01*
X129654864Y-114571198D01*
X129650875Y-114573978D01*
X129598778Y-114608789D01*
X129598768Y-114608797D01*
X129594122Y-114613444D01*
X129579336Y-114626072D01*
X129569595Y-114633149D01*
X129528167Y-114679159D01*
X129523701Y-114683864D01*
X129483795Y-114723771D01*
X129483790Y-114723776D01*
X129476659Y-114734449D01*
X129465715Y-114748519D01*
X129453479Y-114762108D01*
X129425632Y-114810340D01*
X129421349Y-114817226D01*
X129393454Y-114858974D01*
X129393453Y-114858976D01*
X129386153Y-114876598D01*
X129378986Y-114891130D01*
X129366713Y-114912389D01*
X129362264Y-114926083D01*
X129351712Y-114958560D01*
X129351428Y-114959433D01*
X129348059Y-114968564D01*
X129331223Y-115009211D01*
X129331222Y-115009213D01*
X129326283Y-115034041D01*
X129322600Y-115048156D01*
X129313092Y-115077422D01*
X129308571Y-115120424D01*
X129306869Y-115131648D01*
X129299500Y-115168696D01*
X129299500Y-115200237D01*
X129298821Y-115213198D01*
X129294953Y-115250000D01*
X125175047Y-115250000D01*
X125171179Y-115213198D01*
X125170500Y-115200237D01*
X125170500Y-115168690D01*
X125163130Y-115131647D01*
X125161425Y-115120409D01*
X125156908Y-115077424D01*
X125147396Y-115048151D01*
X125143715Y-115034041D01*
X125138776Y-115009211D01*
X125121933Y-114968549D01*
X125118579Y-114959457D01*
X125103286Y-114912389D01*
X125091018Y-114891140D01*
X125083844Y-114876592D01*
X125076550Y-114858983D01*
X125076549Y-114858982D01*
X125076548Y-114858979D01*
X125048641Y-114817213D01*
X125044367Y-114810340D01*
X125016522Y-114762111D01*
X125004284Y-114748519D01*
X124993337Y-114734445D01*
X124986208Y-114723775D01*
X124946297Y-114683864D01*
X124941831Y-114679158D01*
X124934775Y-114671322D01*
X124900410Y-114633155D01*
X124900402Y-114633149D01*
X124890666Y-114626075D01*
X124875875Y-114613441D01*
X124871227Y-114608793D01*
X124819135Y-114573987D01*
X124815140Y-114571203D01*
X124815133Y-114571198D01*
X124760024Y-114531158D01*
X124760023Y-114531157D01*
X124760021Y-114531156D01*
X124754740Y-114528805D01*
X124736282Y-114518626D01*
X124736025Y-114518454D01*
X124736018Y-114518450D01*
X124672426Y-114492110D01*
X124669444Y-114490829D01*
X124601500Y-114460578D01*
X124598170Y-114459496D01*
X124591766Y-114457502D01*
X124591618Y-114457992D01*
X124585788Y-114456223D01*
X124512155Y-114441576D01*
X124510567Y-114441249D01*
X124431768Y-114424500D01*
X124431764Y-114424500D01*
X124258236Y-114424500D01*
X124179372Y-114441262D01*
X124177786Y-114441588D01*
X124104203Y-114456225D01*
X124098380Y-114457992D01*
X124098237Y-114457523D01*
X124091296Y-114459669D01*
X124088504Y-114460576D01*
X124020571Y-114490821D01*
X124017595Y-114492099D01*
X123953982Y-114518450D01*
X123953975Y-114518454D01*
X123953696Y-114518641D01*
X123935269Y-114528801D01*
X123929983Y-114531154D01*
X123929973Y-114531160D01*
X123874864Y-114571198D01*
X123870875Y-114573978D01*
X123818778Y-114608789D01*
X123818768Y-114608797D01*
X123814122Y-114613444D01*
X123799336Y-114626072D01*
X123789595Y-114633149D01*
X123748167Y-114679159D01*
X123743701Y-114683864D01*
X123703795Y-114723771D01*
X123703790Y-114723776D01*
X123696659Y-114734449D01*
X123685715Y-114748519D01*
X123673479Y-114762108D01*
X123645632Y-114810340D01*
X123641349Y-114817226D01*
X123613454Y-114858974D01*
X123613453Y-114858976D01*
X123606153Y-114876598D01*
X123598986Y-114891130D01*
X123586713Y-114912389D01*
X123582264Y-114926083D01*
X123571712Y-114958560D01*
X123571428Y-114959433D01*
X123568059Y-114968564D01*
X123551223Y-115009211D01*
X123551222Y-115009213D01*
X123546283Y-115034041D01*
X123542600Y-115048156D01*
X123533092Y-115077422D01*
X123528571Y-115120424D01*
X123526869Y-115131648D01*
X123519500Y-115168696D01*
X123519500Y-115200237D01*
X123518821Y-115213198D01*
X123514953Y-115250000D01*
X116901027Y-115250000D01*
X116895546Y-115240293D01*
X116894721Y-115238407D01*
X116894720Y-115238404D01*
X116864915Y-115201090D01*
X116860586Y-115195335D01*
X116833007Y-115156367D01*
X116833005Y-115156366D01*
X116833006Y-115156366D01*
X116833004Y-115156364D01*
X116831410Y-115155040D01*
X116813762Y-115137050D01*
X116812478Y-115135443D01*
X116812476Y-115135441D01*
X116812472Y-115135436D01*
X116811190Y-115134491D01*
X116804725Y-115129727D01*
X116766455Y-115083476D01*
X116746205Y-115041206D01*
X116743001Y-115034518D01*
X116740588Y-115029157D01*
X116713102Y-114963972D01*
X116710969Y-114958560D01*
X116686654Y-114892346D01*
X116684798Y-114886904D01*
X116675991Y-114858983D01*
X116663585Y-114819653D01*
X116662015Y-114814248D01*
X116660973Y-114810331D01*
X116643861Y-114745988D01*
X116642555Y-114740598D01*
X116642344Y-114739631D01*
X116627409Y-114671310D01*
X116626367Y-114665980D01*
X116614219Y-114595761D01*
X116613431Y-114590543D01*
X116604251Y-114519386D01*
X116603700Y-114514267D01*
X116598684Y-114456223D01*
X116597480Y-114442290D01*
X116597146Y-114437195D01*
X116596574Y-114424500D01*
X116593876Y-114364601D01*
X116593752Y-114359623D01*
X116593436Y-114292397D01*
X116593617Y-114285105D01*
X116596445Y-114232922D01*
X116601966Y-114131015D01*
X116602830Y-114121656D01*
X116608179Y-114080739D01*
X116622284Y-113972831D01*
X116623780Y-113963935D01*
X116654395Y-113815298D01*
X116656472Y-113806763D01*
X116657569Y-113802862D01*
X116697872Y-113659519D01*
X116700463Y-113651396D01*
X116752189Y-113506749D01*
X116755291Y-113498928D01*
X116816729Y-113358243D01*
X116820335Y-113350694D01*
X116890834Y-113215167D01*
X116894945Y-113207883D01*
X116918062Y-113169996D01*
X143164435Y-113169996D01*
X143164435Y-113170003D01*
X143184630Y-113349249D01*
X143184631Y-113349254D01*
X143244211Y-113519523D01*
X143280831Y-113577803D01*
X143340184Y-113672262D01*
X143467738Y-113799816D01*
X143620478Y-113895789D01*
X143753016Y-113942166D01*
X143790745Y-113955368D01*
X143790750Y-113955369D01*
X143969996Y-113975565D01*
X143970000Y-113975565D01*
X143970004Y-113975565D01*
X144149249Y-113955369D01*
X144149252Y-113955368D01*
X144149255Y-113955368D01*
X144319522Y-113895789D01*
X144472262Y-113799816D01*
X144599816Y-113672262D01*
X144695789Y-113519522D01*
X144755368Y-113349255D01*
X144755369Y-113349249D01*
X144775565Y-113170003D01*
X144775565Y-113169996D01*
X144755369Y-112990750D01*
X144755368Y-112990745D01*
X144725562Y-112905565D01*
X144695789Y-112820478D01*
X144693387Y-112816656D01*
X144638822Y-112729816D01*
X144599816Y-112667738D01*
X144472262Y-112540184D01*
X144319523Y-112444211D01*
X144149254Y-112384631D01*
X144149249Y-112384630D01*
X143970004Y-112364435D01*
X143969996Y-112364435D01*
X143790750Y-112384630D01*
X143790745Y-112384631D01*
X143620476Y-112444211D01*
X143467737Y-112540184D01*
X143340184Y-112667737D01*
X143244211Y-112820476D01*
X143184631Y-112990745D01*
X143184630Y-112990750D01*
X143164435Y-113169996D01*
X116918062Y-113169996D01*
X116973692Y-113078825D01*
X116978376Y-113071714D01*
X117064507Y-112950304D01*
X117069783Y-112943398D01*
X117176787Y-112813176D01*
X117332142Y-112624530D01*
X117334849Y-112621642D01*
X117338508Y-112617165D01*
X117338511Y-112617164D01*
X117378264Y-112568538D01*
X117382461Y-112563672D01*
X117436732Y-112503964D01*
X117438362Y-112502207D01*
X117497522Y-112439761D01*
X117499267Y-112437958D01*
X117558551Y-112377956D01*
X117560304Y-112376218D01*
X117619966Y-112318343D01*
X117621662Y-112316732D01*
X117681823Y-112260812D01*
X117683581Y-112259212D01*
X117744346Y-112205096D01*
X117746214Y-112203466D01*
X117807664Y-112151026D01*
X117809573Y-112149431D01*
X117871952Y-112098407D01*
X117873782Y-112096940D01*
X117937444Y-112046998D01*
X117939162Y-112045678D01*
X118004033Y-111996839D01*
X118005737Y-111995581D01*
X118072065Y-111947612D01*
X118073815Y-111946370D01*
X118139607Y-111900611D01*
X118142060Y-111898952D01*
X118285618Y-111804520D01*
X118288846Y-111802469D01*
X118297404Y-111797213D01*
X118375075Y-111749517D01*
X118387015Y-111743059D01*
X118389134Y-111742058D01*
X118389138Y-111742057D01*
X118411186Y-111727857D01*
X118423191Y-111721040D01*
X118426592Y-111719350D01*
X118426606Y-111719346D01*
X118443838Y-111707763D01*
X118450881Y-111703366D01*
X118491011Y-111680154D01*
X118491014Y-111680151D01*
X118496255Y-111676122D01*
X118501408Y-111671941D01*
X118501415Y-111671937D01*
X118501420Y-111671931D01*
X118507728Y-111666814D01*
X118508225Y-111667427D01*
X118519321Y-111658216D01*
X118528517Y-111652295D01*
X118528518Y-111652293D01*
X118535360Y-111647888D01*
X118535407Y-111647962D01*
X118537956Y-111646006D01*
X118537959Y-111646005D01*
X118550585Y-111636318D01*
X118556875Y-111631798D01*
X118564143Y-111626915D01*
X118564148Y-111626908D01*
X118566687Y-111624670D01*
X118577598Y-111616083D01*
X118599059Y-111601064D01*
X118599061Y-111601061D01*
X118604364Y-111597350D01*
X118604526Y-111597243D01*
X118605667Y-111596310D01*
X118605670Y-111596309D01*
X118618953Y-111585455D01*
X118624418Y-111581240D01*
X118633280Y-111574796D01*
X118633286Y-111574787D01*
X118637776Y-111570523D01*
X118644728Y-111564396D01*
X118649303Y-111560658D01*
X118652225Y-111558344D01*
X118658308Y-111553678D01*
X118665795Y-111548364D01*
X118670884Y-111545026D01*
X118670896Y-111545021D01*
X118678824Y-111538188D01*
X118684263Y-111533766D01*
X118696950Y-111524035D01*
X118696953Y-111524030D01*
X118702697Y-111518289D01*
X118703067Y-111518659D01*
X118709921Y-111511396D01*
X118714708Y-111507271D01*
X118717077Y-111505284D01*
X118723303Y-111500197D01*
X118731572Y-111493999D01*
X118734170Y-111492214D01*
X118734176Y-111492212D01*
X118742836Y-111484419D01*
X118747316Y-111480579D01*
X118750099Y-111478305D01*
X118761813Y-111468735D01*
X118761819Y-111468725D01*
X118766766Y-111463469D01*
X118774148Y-111456250D01*
X118778205Y-111452600D01*
X118780160Y-111450877D01*
X118786829Y-111445131D01*
X118795895Y-111438027D01*
X118796114Y-111437870D01*
X118796121Y-111437867D01*
X118805170Y-111429446D01*
X118808659Y-111426323D01*
X118825029Y-111412220D01*
X118825032Y-111412214D01*
X118827749Y-111409171D01*
X118835791Y-111400959D01*
X118840621Y-111396466D01*
X118841952Y-111395248D01*
X118849486Y-111388470D01*
X118856325Y-111382924D01*
X118866323Y-111373393D01*
X118868954Y-111370956D01*
X118887189Y-111354552D01*
X118887191Y-111354548D01*
X118887901Y-111353719D01*
X118896600Y-111344534D01*
X118896885Y-111344261D01*
X118902441Y-111338965D01*
X118903371Y-111338089D01*
X118948941Y-111295697D01*
X118948942Y-111295694D01*
X118949514Y-111295163D01*
X118958383Y-111285643D01*
X118959063Y-111284995D01*
X118963878Y-111280645D01*
X119196874Y-111081101D01*
X119198288Y-111079910D01*
X119434471Y-110884263D01*
X119435844Y-110883143D01*
X119675305Y-110691159D01*
X119676646Y-110690101D01*
X119870790Y-110539333D01*
X119890248Y-110527295D01*
X119892544Y-110525793D01*
X119892550Y-110525791D01*
X119930799Y-110492924D01*
X119935545Y-110489047D01*
X119975366Y-110458124D01*
X119975369Y-110458122D01*
X119975372Y-110458117D01*
X119977317Y-110456150D01*
X119992978Y-110439498D01*
X120027935Y-110409460D01*
X120036562Y-110402692D01*
X120067583Y-110380503D01*
X120075055Y-110371412D01*
X120090033Y-110356106D01*
X120098952Y-110348442D01*
X120098951Y-110348442D01*
X120098957Y-110348438D01*
X120120468Y-110316937D01*
X120127056Y-110308156D01*
X120151271Y-110278701D01*
X120156136Y-110267986D01*
X120166638Y-110249328D01*
X120173277Y-110239609D01*
X120185896Y-110203631D01*
X120189993Y-110193426D01*
X120205759Y-110158710D01*
X120207684Y-110147105D01*
X120213001Y-110126358D01*
X120216897Y-110115254D01*
X120219773Y-110077259D01*
X120221092Y-110066317D01*
X120227335Y-110028704D01*
X120226190Y-110016990D01*
X120225958Y-109995565D01*
X120226846Y-109983844D01*
X120219874Y-109946845D01*
X120217977Y-109931712D01*
X120217082Y-109917563D01*
X120216889Y-109913349D01*
X120216755Y-109908716D01*
X120216449Y-109898131D01*
X120216400Y-109893907D01*
X120216481Y-109878901D01*
X120216577Y-109874632D01*
X120216922Y-109865995D01*
X120217164Y-109859908D01*
X120217409Y-109855639D01*
X120217597Y-109853114D01*
X120218480Y-109841283D01*
X120218873Y-109837034D01*
X120220404Y-109823129D01*
X120220946Y-109818893D01*
X120222895Y-109805568D01*
X120223613Y-109801215D01*
X120225927Y-109788596D01*
X120226808Y-109784249D01*
X120229437Y-109772392D01*
X120230505Y-109767971D01*
X120233370Y-109757019D01*
X120234645Y-109752501D01*
X120237681Y-109742488D01*
X120239171Y-109737903D01*
X120242286Y-109728928D01*
X120244014Y-109724255D01*
X120247101Y-109716405D01*
X120249074Y-109711681D01*
X120252088Y-109704868D01*
X120254346Y-109700052D01*
X120254847Y-109699041D01*
X120257458Y-109693769D01*
X120259831Y-109689220D01*
X120266449Y-109677163D01*
X120268843Y-109672999D01*
X120276096Y-109660945D01*
X120278634Y-109656909D01*
X120286312Y-109645200D01*
X120288914Y-109641388D01*
X120297121Y-109629850D01*
X120299728Y-109626323D01*
X120308481Y-109614924D01*
X120311154Y-109611568D01*
X120320510Y-109600237D01*
X120323206Y-109597082D01*
X120333198Y-109585786D01*
X120335848Y-109582886D01*
X120346576Y-109571524D01*
X120349180Y-109568850D01*
X120360663Y-109557419D01*
X120363157Y-109555009D01*
X120375435Y-109543483D01*
X120377879Y-109541251D01*
X120390970Y-109529628D01*
X120393257Y-109527651D01*
X120407117Y-109515975D01*
X120409335Y-109514152D01*
X120423999Y-109502393D01*
X120426134Y-109500720D01*
X120441594Y-109488884D01*
X120443531Y-109487433D01*
X120459827Y-109475483D01*
X120461605Y-109474205D01*
X120476877Y-109463444D01*
X120479240Y-109461820D01*
X120517293Y-109436336D01*
X120520139Y-109434488D01*
X120557376Y-109411057D01*
X120560135Y-109409372D01*
X120568732Y-109404272D01*
X120598326Y-109386715D01*
X120600766Y-109385306D01*
X120639901Y-109363333D01*
X120642080Y-109362139D01*
X120681957Y-109340859D01*
X120683863Y-109339865D01*
X120722478Y-109320193D01*
X120724899Y-109318995D01*
X120809975Y-109278130D01*
X120812410Y-109276994D01*
X120896177Y-109239038D01*
X120897137Y-109238609D01*
X120913492Y-109231399D01*
X120918296Y-109229636D01*
X120922960Y-109227553D01*
X120922966Y-109227553D01*
X120982111Y-109201152D01*
X120995577Y-109195215D01*
X121007340Y-109190730D01*
X121013618Y-109188694D01*
X121013626Y-109188693D01*
X121066237Y-109163639D01*
X121068904Y-109162409D01*
X121100919Y-109148118D01*
X121118338Y-109141857D01*
X121124534Y-109140141D01*
X121157717Y-109120602D01*
X121167299Y-109115513D01*
X121202054Y-109098964D01*
X121203389Y-109097824D01*
X121217964Y-109087125D01*
X121219802Y-109085971D01*
X121219804Y-109085971D01*
X121268177Y-109055623D01*
X121271111Y-109053839D01*
X121306456Y-109033029D01*
X121311245Y-109030453D01*
X121311672Y-109030170D01*
X121317371Y-109026602D01*
X121320361Y-109024843D01*
X121320364Y-109024839D01*
X121328101Y-109019261D01*
X121360433Y-108997794D01*
X121363072Y-108996092D01*
X121396217Y-108975299D01*
X121401042Y-108972541D01*
X121402235Y-108971708D01*
X121402237Y-108971708D01*
X121402383Y-108971605D01*
X121407440Y-108968257D01*
X121412095Y-108965338D01*
X121412099Y-108965334D01*
X121420190Y-108959181D01*
X121450398Y-108938104D01*
X121452707Y-108936531D01*
X121484151Y-108915653D01*
X121488698Y-108912916D01*
X121490221Y-108911806D01*
X121490224Y-108911806D01*
X121490920Y-108911298D01*
X121495326Y-108908235D01*
X121495449Y-108908152D01*
X121501612Y-108904062D01*
X121501613Y-108904060D01*
X121501775Y-108903953D01*
X121509802Y-108897551D01*
X121538524Y-108876641D01*
X121540393Y-108875309D01*
X121570700Y-108854162D01*
X121574703Y-108851642D01*
X121576694Y-108850139D01*
X121576698Y-108850138D01*
X121577709Y-108849374D01*
X121581384Y-108846708D01*
X121589350Y-108841151D01*
X121589351Y-108841149D01*
X121589865Y-108840791D01*
X121597499Y-108834448D01*
X121625131Y-108813609D01*
X121626719Y-108812433D01*
X121656338Y-108790869D01*
X121659581Y-108788750D01*
X121662186Y-108786727D01*
X121662191Y-108786726D01*
X121663166Y-108785968D01*
X121666140Y-108783733D01*
X121675786Y-108776712D01*
X121675788Y-108776708D01*
X121676806Y-108775968D01*
X121683736Y-108770011D01*
X121710976Y-108748880D01*
X121712214Y-108747932D01*
X121741496Y-108725848D01*
X121743865Y-108724256D01*
X121747287Y-108721543D01*
X121747290Y-108721542D01*
X121747750Y-108721176D01*
X121750049Y-108719398D01*
X121761453Y-108710799D01*
X121761455Y-108710795D01*
X121763167Y-108709505D01*
X121769166Y-108704203D01*
X121796574Y-108682483D01*
X121797392Y-108681843D01*
X121827253Y-108658678D01*
X121832259Y-108655213D01*
X121834649Y-108653271D01*
X121834655Y-108653269D01*
X121842748Y-108646694D01*
X121844784Y-108645078D01*
X121846906Y-108643433D01*
X121846908Y-108643429D01*
X121850259Y-108640831D01*
X121852747Y-108638571D01*
X121883072Y-108613939D01*
X121883880Y-108613291D01*
X121887016Y-108610806D01*
X121889448Y-108608928D01*
X122109032Y-108443943D01*
X122112985Y-108441348D01*
X122117218Y-108438138D01*
X122117223Y-108438137D01*
X122168870Y-108398984D01*
X122183439Y-108388036D01*
X122184484Y-108387352D01*
X122193679Y-108380347D01*
X122194348Y-108379841D01*
X122225030Y-108356789D01*
X122228112Y-108354121D01*
X122241853Y-108343657D01*
X122294088Y-108304060D01*
X122294088Y-108304059D01*
X122299607Y-108299876D01*
X122306496Y-108295013D01*
X122342264Y-108271562D01*
X122342267Y-108271557D01*
X122343369Y-108270609D01*
X122344139Y-108270018D01*
X122346014Y-108268350D01*
X122346924Y-108267552D01*
X122347034Y-108267443D01*
X122348511Y-108266127D01*
X122348517Y-108266124D01*
X122348521Y-108266119D01*
X122350047Y-108264761D01*
X122350763Y-108264193D01*
X122352276Y-108262801D01*
X122353038Y-108262111D01*
X122353151Y-108261994D01*
X122355014Y-108260278D01*
X122355024Y-108260272D01*
X122355031Y-108260262D01*
X122358347Y-108257211D01*
X122361666Y-108253684D01*
X122362685Y-108252723D01*
X122372714Y-108244224D01*
X122517831Y-108133961D01*
X122670669Y-108018860D01*
X122671591Y-108018175D01*
X122730151Y-107975211D01*
X122731479Y-107974252D01*
X122781382Y-107938798D01*
X122783501Y-107937328D01*
X122787460Y-107934641D01*
X122824827Y-107909289D01*
X122839314Y-107901995D01*
X122838874Y-107901125D01*
X122846129Y-107897448D01*
X122846132Y-107897448D01*
X122888202Y-107876130D01*
X122894905Y-107872983D01*
X122938173Y-107854234D01*
X122940265Y-107852573D01*
X122961307Y-107839090D01*
X122963687Y-107837885D01*
X122998795Y-107806415D01*
X123004442Y-107801650D01*
X123041408Y-107772321D01*
X123043000Y-107770174D01*
X123059839Y-107751701D01*
X123061821Y-107749925D01*
X123087592Y-107710436D01*
X123091811Y-107704375D01*
X123119924Y-107666481D01*
X123120906Y-107663994D01*
X123132387Y-107641799D01*
X123133846Y-107639565D01*
X123148522Y-107594735D01*
X123151028Y-107587793D01*
X123168371Y-107543924D01*
X123168676Y-107541267D01*
X123174018Y-107516869D01*
X123174852Y-107514323D01*
X123175876Y-107495566D01*
X123177406Y-107481796D01*
X123177992Y-107478303D01*
X123177995Y-107478296D01*
X123178739Y-107457282D01*
X123179454Y-107447684D01*
X123179479Y-107447464D01*
X123180061Y-107443050D01*
X123180382Y-107440905D01*
X123180385Y-107440898D01*
X123180385Y-107440889D01*
X123180776Y-107438285D01*
X123181100Y-107433379D01*
X123183448Y-107413006D01*
X123183055Y-107410360D01*
X123181900Y-107385410D01*
X123183496Y-107356233D01*
X123183494Y-107356224D01*
X123183224Y-107352683D01*
X123182941Y-107338828D01*
X123183055Y-107335616D01*
X123183687Y-107317811D01*
X123183685Y-107317803D01*
X123183465Y-107315497D01*
X123182921Y-107301418D01*
X123184047Y-107239509D01*
X123183687Y-107232417D01*
X123183989Y-107206598D01*
X123184981Y-107192343D01*
X123185135Y-107191130D01*
X123185137Y-107191126D01*
X123185136Y-107191121D01*
X123185867Y-107185403D01*
X123185952Y-107183837D01*
X123186006Y-107183352D01*
X123186010Y-107183338D01*
X123185088Y-107133135D01*
X123185161Y-107126043D01*
X123187362Y-107069469D01*
X123187339Y-107068641D01*
X123190370Y-106989226D01*
X123190498Y-106986617D01*
X123199265Y-106842002D01*
X123199439Y-106839565D01*
X123211191Y-106695979D01*
X123211412Y-106693582D01*
X123213914Y-106668957D01*
X123225954Y-106550455D01*
X123226174Y-106548467D01*
X123243336Y-106405110D01*
X123243585Y-106403168D01*
X123247551Y-106373991D01*
X123263162Y-106259153D01*
X123263366Y-106257728D01*
X123285186Y-106112407D01*
X123285356Y-106111316D01*
X123299269Y-106025551D01*
X123305984Y-106000771D01*
X123306302Y-105999948D01*
X123311500Y-105951302D01*
X123312391Y-105944670D01*
X123320231Y-105896348D01*
X123320201Y-105896061D01*
X123320181Y-105871247D01*
X123321536Y-105857659D01*
X123323000Y-105848627D01*
X123323256Y-105845813D01*
X123323258Y-105845810D01*
X123326001Y-105815730D01*
X123326182Y-105813918D01*
X123328519Y-105792058D01*
X123329301Y-105787180D01*
X123329562Y-105783943D01*
X123329564Y-105783939D01*
X123332348Y-105749454D01*
X123332553Y-105747196D01*
X123333086Y-105741849D01*
X123334663Y-105731327D01*
X123334703Y-105730720D01*
X123334705Y-105730717D01*
X123336678Y-105701374D01*
X123338387Y-105687590D01*
X123338967Y-105684383D01*
X123338973Y-105684367D01*
X123339962Y-105663948D01*
X123340331Y-105658695D01*
X123340411Y-105657822D01*
X123340410Y-105657818D01*
X123340414Y-105657780D01*
X123341921Y-105649797D01*
X123341534Y-105649739D01*
X123342750Y-105641700D01*
X123342750Y-105641697D01*
X123342751Y-105641694D01*
X123343052Y-105626069D01*
X123345057Y-105610888D01*
X123344734Y-105610852D01*
X123345643Y-105602776D01*
X123345642Y-105602774D01*
X123345644Y-105602770D01*
X123345561Y-105598366D01*
X123347037Y-105582120D01*
X123346924Y-105582113D01*
X123347483Y-105574008D01*
X123347485Y-105574000D01*
X123346133Y-105552207D01*
X123346041Y-105538535D01*
X123346351Y-105532140D01*
X123346718Y-105524576D01*
X123346716Y-105524568D01*
X123346048Y-105516476D01*
X123346752Y-105516417D01*
X123345429Y-105502852D01*
X123345677Y-105490032D01*
X123345676Y-105490026D01*
X123344772Y-105481953D01*
X123345094Y-105481916D01*
X123343097Y-105466719D01*
X123343046Y-105463958D01*
X123343044Y-105463951D01*
X123342013Y-105457109D01*
X123341328Y-105449963D01*
X123340125Y-105443051D01*
X123340088Y-105442736D01*
X123339932Y-105441896D01*
X123339857Y-105441597D01*
X123339007Y-105437245D01*
X123339007Y-105437243D01*
X123335246Y-105426034D01*
X123335036Y-105425210D01*
X123334987Y-105425227D01*
X123331251Y-105413854D01*
X123326704Y-105400011D01*
X123323258Y-105387265D01*
X123321779Y-105380358D01*
X123321779Y-105380350D01*
X123319843Y-105374907D01*
X123316064Y-105362155D01*
X123314526Y-105355720D01*
X123314526Y-105355713D01*
X123312026Y-105349181D01*
X123308648Y-105335896D01*
X123307984Y-105336076D01*
X123305860Y-105328225D01*
X123305860Y-105328223D01*
X123302315Y-105319721D01*
X123298134Y-105305305D01*
X123297760Y-105305422D01*
X123295356Y-105297666D01*
X123295355Y-105297659D01*
X123290486Y-105287082D01*
X123285253Y-105271427D01*
X123285187Y-105271451D01*
X123282441Y-105263808D01*
X123282440Y-105263801D01*
X123282436Y-105263793D01*
X123279423Y-105257943D01*
X123272825Y-105242710D01*
X123270287Y-105235574D01*
X123270364Y-105235546D01*
X123269723Y-105233892D01*
X123269519Y-105233978D01*
X123266363Y-105226476D01*
X123264739Y-105223698D01*
X123262715Y-105220100D01*
X123258572Y-105212439D01*
X123259743Y-105211805D01*
X123253934Y-105200386D01*
X123253399Y-105200642D01*
X123249901Y-105193306D01*
X123249899Y-105193300D01*
X123249071Y-105192025D01*
X123242466Y-105178779D01*
X123242083Y-105178979D01*
X123238328Y-105171773D01*
X123238327Y-105171769D01*
X123238324Y-105171765D01*
X123237489Y-105170162D01*
X123232671Y-105162515D01*
X123229461Y-105156274D01*
X123229278Y-105156379D01*
X123225252Y-105149329D01*
X123225250Y-105149324D01*
X123225246Y-105149319D01*
X123223613Y-105146459D01*
X123218349Y-105138112D01*
X123216905Y-105136030D01*
X123213790Y-105131313D01*
X123210427Y-105125961D01*
X123210425Y-105125958D01*
X123207410Y-105122319D01*
X123197672Y-105107590D01*
X123196025Y-105105221D01*
X123194924Y-105103465D01*
X123193153Y-105101038D01*
X123190641Y-105098430D01*
X123189494Y-105097170D01*
X123175266Y-105077754D01*
X123174238Y-105076423D01*
X123174237Y-105076421D01*
X123173132Y-105075323D01*
X123158977Y-105058511D01*
X123157750Y-105056760D01*
X123157685Y-105056817D01*
X123152373Y-105050669D01*
X123152372Y-105050667D01*
X123152369Y-105050665D01*
X123147439Y-105044958D01*
X123147355Y-105045043D01*
X123135917Y-105033495D01*
X123136672Y-105032747D01*
X123133724Y-105029746D01*
X123133173Y-105030283D01*
X123125823Y-105022737D01*
X123124176Y-105021327D01*
X123116900Y-105014575D01*
X123103679Y-105002866D01*
X123100194Y-104999037D01*
X123099779Y-104998566D01*
X123099459Y-104998277D01*
X123095961Y-104995866D01*
X123078939Y-104981737D01*
X123076393Y-104979207D01*
X123076307Y-104979142D01*
X123074490Y-104977536D01*
X123074448Y-104977591D01*
X123067812Y-104972381D01*
X123051028Y-104960116D01*
X123042696Y-104954459D01*
X123043170Y-104953760D01*
X123040370Y-104951866D01*
X123039976Y-104952453D01*
X123026495Y-104943377D01*
X123026615Y-104943198D01*
X123026451Y-104943094D01*
X123026314Y-104943326D01*
X123012351Y-104935016D01*
X123012387Y-104934954D01*
X122997420Y-104926260D01*
X122991569Y-104922944D01*
X122986104Y-104920151D01*
X122986099Y-104920149D01*
X122980973Y-104918326D01*
X122959335Y-104908187D01*
X122946134Y-104900369D01*
X122944015Y-104899085D01*
X122903411Y-104873929D01*
X122902750Y-104873517D01*
X122885866Y-104862909D01*
X122862382Y-104848154D01*
X122861362Y-104847506D01*
X122827057Y-104825440D01*
X122825413Y-104824363D01*
X122796891Y-104805353D01*
X122794625Y-104803806D01*
X122771224Y-104787450D01*
X122768461Y-104785462D01*
X122748722Y-104770843D01*
X122745630Y-104768476D01*
X122736855Y-104761538D01*
X122719499Y-104744830D01*
X122717613Y-104742623D01*
X122715559Y-104740156D01*
X122712019Y-104735789D01*
X122710174Y-104733455D01*
X122709929Y-104733136D01*
X122706625Y-104728635D01*
X122676937Y-104686187D01*
X122676934Y-104686185D01*
X122676934Y-104686184D01*
X122671449Y-104680191D01*
X122671469Y-104680171D01*
X122666888Y-104675389D01*
X122666869Y-104675409D01*
X122661118Y-104669671D01*
X122620024Y-104638211D01*
X122615643Y-104634697D01*
X122587862Y-104611360D01*
X122584101Y-104608069D01*
X122583297Y-104607336D01*
X122580701Y-104605344D01*
X122576031Y-104601422D01*
X122576030Y-104601421D01*
X122576027Y-104601419D01*
X122569178Y-104597050D01*
X122569192Y-104597027D01*
X122563529Y-104593593D01*
X122563516Y-104593617D01*
X122549434Y-104585508D01*
X122550693Y-104583321D01*
X122511072Y-104553104D01*
X122510146Y-104551911D01*
X122507989Y-104549044D01*
X122479094Y-104509462D01*
X122477105Y-104506655D01*
X122455845Y-104475744D01*
X122449685Y-104466789D01*
X122447867Y-104464068D01*
X122421726Y-104423793D01*
X122420069Y-104421167D01*
X122395055Y-104380416D01*
X122393560Y-104377914D01*
X122369469Y-104336515D01*
X122368169Y-104334225D01*
X122344846Y-104292077D01*
X122343746Y-104290046D01*
X122322086Y-104249041D01*
X122320745Y-104246426D01*
X122275214Y-104154860D01*
X122273907Y-104152148D01*
X122230557Y-104059345D01*
X122229817Y-104057731D01*
X122214724Y-104024176D01*
X122183962Y-103955783D01*
X122171156Y-103927311D01*
X122169276Y-103922311D01*
X122140531Y-103859220D01*
X122140284Y-103858675D01*
X122122553Y-103819255D01*
X122113863Y-103799934D01*
X122113860Y-103799931D01*
X122111824Y-103795403D01*
X122109308Y-103790692D01*
X122090144Y-103748630D01*
X122002660Y-103556614D01*
X122000122Y-103550629D01*
X121963727Y-103458119D01*
X121961608Y-103452308D01*
X121925351Y-103344480D01*
X121923866Y-103339747D01*
X121886990Y-103213370D01*
X121885929Y-103209496D01*
X121849066Y-103065864D01*
X121848290Y-103062665D01*
X121811710Y-102902601D01*
X121811170Y-102900120D01*
X121775011Y-102724463D01*
X121774610Y-102722419D01*
X121772028Y-102708645D01*
X121738923Y-102532051D01*
X121738654Y-102530556D01*
X121703485Y-102326740D01*
X121703232Y-102325211D01*
X121669415Y-102111118D01*
X121669141Y-102109283D01*
X121658436Y-102033770D01*
X121637712Y-101887584D01*
X121637456Y-101885671D01*
X121637418Y-101885369D01*
X121608819Y-101657368D01*
X121608581Y-101655337D01*
X121600397Y-101580055D01*
X121583187Y-101421751D01*
X121582987Y-101419751D01*
X121561337Y-101182663D01*
X121561167Y-101180595D01*
X121543712Y-100941461D01*
X121543562Y-100939086D01*
X121542581Y-100920745D01*
X121530766Y-100699770D01*
X121530655Y-100697183D01*
X121528101Y-100618432D01*
X121522920Y-100458671D01*
X121522865Y-100456051D01*
X121520408Y-100220549D01*
X121520413Y-100217518D01*
X121520418Y-100217146D01*
X121523660Y-99987139D01*
X121523760Y-99983643D01*
X121533394Y-99760328D01*
X121533647Y-99756134D01*
X121533712Y-99755291D01*
X121550515Y-99537964D01*
X121550835Y-99534479D01*
X121561611Y-99433432D01*
X121561918Y-99430824D01*
X121574920Y-99329521D01*
X121575299Y-99326815D01*
X121590263Y-99228267D01*
X121590757Y-99225269D01*
X121607681Y-99129831D01*
X121608302Y-99126582D01*
X121621001Y-99064630D01*
X121627223Y-99034278D01*
X121627982Y-99030826D01*
X121633995Y-99005246D01*
X121648908Y-98941790D01*
X121649833Y-98938114D01*
X121672735Y-98852577D01*
X121673829Y-98848743D01*
X121699564Y-98763928D01*
X121700507Y-98760960D01*
X121712860Y-98723768D01*
X121713533Y-98721804D01*
X121727123Y-98683296D01*
X121727917Y-98681115D01*
X121741857Y-98644012D01*
X121742774Y-98641649D01*
X121757085Y-98605927D01*
X121758125Y-98603419D01*
X121772746Y-98569246D01*
X121773976Y-98566470D01*
X121788919Y-98533813D01*
X121790289Y-98530917D01*
X121805645Y-98499571D01*
X121807145Y-98496615D01*
X121822821Y-98466763D01*
X121824550Y-98463587D01*
X121840580Y-98435134D01*
X121842494Y-98431856D01*
X121858850Y-98404824D01*
X121860973Y-98401439D01*
X121877740Y-98375661D01*
X121880072Y-98372207D01*
X121897218Y-98347708D01*
X121899765Y-98344200D01*
X121917377Y-98320834D01*
X121920128Y-98317320D01*
X121938261Y-98295006D01*
X121941230Y-98291490D01*
X121959898Y-98270204D01*
X121963112Y-98266679D01*
X121982749Y-98245955D01*
X121986034Y-98242619D01*
X121995866Y-98233004D01*
X121999152Y-98229905D01*
X122005649Y-98223999D01*
X122009975Y-98220065D01*
X122013247Y-98217196D01*
X122024944Y-98207305D01*
X122028219Y-98204633D01*
X122040696Y-98194815D01*
X122044007Y-98192301D01*
X122057230Y-98182619D01*
X122060615Y-98180230D01*
X122074451Y-98170809D01*
X122077888Y-98168552D01*
X122092421Y-98159360D01*
X122095883Y-98157251D01*
X122111034Y-98148363D01*
X122114555Y-98146375D01*
X122130204Y-98137881D01*
X122133759Y-98136026D01*
X122149967Y-98127909D01*
X122153504Y-98126209D01*
X122170191Y-98118525D01*
X122173736Y-98116962D01*
X122190843Y-98109754D01*
X122194477Y-98108293D01*
X122211807Y-98101648D01*
X122215572Y-98100275D01*
X122233113Y-98094201D01*
X122236947Y-98092944D01*
X122254727Y-98087433D01*
X122258596Y-98086302D01*
X122271443Y-98082780D01*
X122277420Y-98081302D01*
X122326484Y-98070464D01*
X122326494Y-98070458D01*
X122328318Y-98069797D01*
X122348290Y-98061973D01*
X122350050Y-98061232D01*
X122350050Y-98061231D01*
X122350053Y-98061231D01*
X122393419Y-98035858D01*
X122398826Y-98032873D01*
X122443424Y-98009701D01*
X122443428Y-98009696D01*
X122444954Y-98008630D01*
X122462316Y-97995833D01*
X122463795Y-97994685D01*
X122463797Y-97994682D01*
X122463800Y-97994681D01*
X122499146Y-97958922D01*
X122503554Y-97954681D01*
X122540651Y-97920741D01*
X122540656Y-97920732D01*
X122541890Y-97919265D01*
X122555292Y-97902481D01*
X122556442Y-97900964D01*
X122556441Y-97900964D01*
X122556446Y-97900960D01*
X122556948Y-97900078D01*
X122557854Y-97899101D01*
X122561355Y-97894485D01*
X122561814Y-97894833D01*
X122595448Y-97858587D01*
X122597649Y-97857105D01*
X122601306Y-97854644D01*
X122601345Y-97854617D01*
X122608205Y-97850003D01*
X122628706Y-97836215D01*
X122629472Y-97835705D01*
X122650655Y-97821755D01*
X122652429Y-97820609D01*
X122664502Y-97812966D01*
X122712916Y-97795041D01*
X122717481Y-97794375D01*
X122734630Y-97786986D01*
X122752303Y-97780908D01*
X122770365Y-97776186D01*
X122797526Y-97760721D01*
X122809803Y-97754605D01*
X122838514Y-97742239D01*
X122853162Y-97730667D01*
X122868669Y-97720217D01*
X122884889Y-97710983D01*
X122907125Y-97689012D01*
X122917400Y-97679928D01*
X123011931Y-97605259D01*
X123017830Y-97600879D01*
X123046348Y-97580987D01*
X123065563Y-97567584D01*
X123065563Y-97567583D01*
X123069624Y-97564751D01*
X123073839Y-97561363D01*
X123075208Y-97560397D01*
X123080012Y-97556494D01*
X123190937Y-97477371D01*
X123191550Y-97476938D01*
X123258913Y-97429844D01*
X123260058Y-97429056D01*
X123283676Y-97413043D01*
X123288452Y-97410235D01*
X123297148Y-97404305D01*
X123303815Y-97400338D01*
X123306775Y-97398287D01*
X123306780Y-97398286D01*
X123318426Y-97390220D01*
X123340941Y-97377865D01*
X123341755Y-97377523D01*
X123371119Y-97354731D01*
X123378356Y-97349523D01*
X123386155Y-97344328D01*
X123386156Y-97344326D01*
X123390393Y-97341504D01*
X123394465Y-97338371D01*
X123399173Y-97335204D01*
X123399174Y-97335201D01*
X123402627Y-97332879D01*
X123407973Y-97328720D01*
X123412460Y-97325661D01*
X123412463Y-97325656D01*
X123415434Y-97323631D01*
X123421532Y-97318823D01*
X123426042Y-97315701D01*
X123426609Y-97315031D01*
X123445171Y-97297258D01*
X123445862Y-97296722D01*
X123475427Y-97257748D01*
X123479633Y-97252505D01*
X123511277Y-97215192D01*
X123511652Y-97214398D01*
X123524986Y-97192419D01*
X123525509Y-97191730D01*
X123543970Y-97146454D01*
X123546676Y-97140298D01*
X123567594Y-97096048D01*
X123567754Y-97095163D01*
X123574936Y-97070514D01*
X123575268Y-97069701D01*
X123579087Y-97039406D01*
X123581387Y-97021161D01*
X123582411Y-97014500D01*
X123591154Y-96966386D01*
X123591082Y-96965511D01*
X123591639Y-96939825D01*
X123591662Y-96939635D01*
X123591749Y-96938951D01*
X123585096Y-96890489D01*
X123584361Y-96883785D01*
X123580354Y-96835047D01*
X123580354Y-96835046D01*
X123580055Y-96834213D01*
X123573946Y-96809262D01*
X123573827Y-96808391D01*
X123554860Y-96763306D01*
X123552419Y-96757033D01*
X123535927Y-96710975D01*
X123535424Y-96710249D01*
X123523067Y-96687734D01*
X123522724Y-96686918D01*
X123492722Y-96648261D01*
X123488748Y-96642843D01*
X123460903Y-96602632D01*
X123460902Y-96602631D01*
X123460222Y-96602054D01*
X123442473Y-96583518D01*
X123441923Y-96582810D01*
X123402941Y-96553239D01*
X123397694Y-96549029D01*
X123360394Y-96517397D01*
X123360392Y-96517396D01*
X123360393Y-96517396D01*
X123359588Y-96517016D01*
X123337640Y-96503702D01*
X123336929Y-96503162D01*
X123291634Y-96484693D01*
X123285463Y-96481979D01*
X123241250Y-96461080D01*
X123240733Y-96460986D01*
X123240366Y-96460919D01*
X123215727Y-96453740D01*
X123142019Y-96423685D01*
X123140172Y-96422915D01*
X123128037Y-96417737D01*
X123011930Y-96368193D01*
X123010066Y-96367379D01*
X122882243Y-96310340D01*
X122880383Y-96309492D01*
X122813286Y-96278215D01*
X122801160Y-96270766D01*
X122800873Y-96271253D01*
X122793879Y-96267110D01*
X122742545Y-96245168D01*
X122738893Y-96243537D01*
X122688325Y-96219965D01*
X122688322Y-96219964D01*
X122688319Y-96219963D01*
X122680575Y-96217522D01*
X122680744Y-96216985D01*
X122667101Y-96212924D01*
X122509143Y-96145412D01*
X122476090Y-96124593D01*
X122422021Y-96077145D01*
X122418675Y-96074097D01*
X122350723Y-96009886D01*
X122347276Y-96006499D01*
X122284805Y-95942680D01*
X122281337Y-95938989D01*
X122223945Y-95875356D01*
X122220499Y-95871369D01*
X122173712Y-95814839D01*
X122167669Y-95807537D01*
X122164343Y-95803335D01*
X122115667Y-95738992D01*
X122112456Y-95734544D01*
X122067495Y-95669267D01*
X122064458Y-95664640D01*
X122022770Y-95597898D01*
X122019998Y-95593232D01*
X121981222Y-95524509D01*
X121978677Y-95519756D01*
X121942575Y-95448648D01*
X121940278Y-95443873D01*
X121919273Y-95397715D01*
X121906557Y-95369772D01*
X121904551Y-95365111D01*
X121873001Y-95287458D01*
X121871262Y-95282925D01*
X121841771Y-95201314D01*
X121840315Y-95197041D01*
X121812759Y-95110967D01*
X121811531Y-95106887D01*
X121785868Y-95016061D01*
X121784854Y-95012241D01*
X121768195Y-94945183D01*
X121766945Y-94937850D01*
X121765532Y-94931677D01*
X121764443Y-94926922D01*
X121762082Y-94913018D01*
X121761824Y-94910709D01*
X121760928Y-94907085D01*
X121758288Y-94892915D01*
X121758213Y-94892328D01*
X121758212Y-94892327D01*
X121758213Y-94892326D01*
X121757464Y-94889476D01*
X121755475Y-94879466D01*
X121754877Y-94877274D01*
X121754877Y-94877272D01*
X121754310Y-94875194D01*
X121754228Y-94874786D01*
X121752112Y-94867045D01*
X121752112Y-94867042D01*
X121750551Y-94861331D01*
X121748423Y-94852192D01*
X121744815Y-94833496D01*
X121744813Y-94833493D01*
X121744813Y-94833490D01*
X121744217Y-94831701D01*
X121740514Y-94818031D01*
X121740251Y-94816781D01*
X121738194Y-94803432D01*
X121737830Y-94799739D01*
X121730396Y-94780002D01*
X121729202Y-94776156D01*
X121727237Y-94771136D01*
X121722768Y-94757425D01*
X121721435Y-94752352D01*
X121718158Y-94742690D01*
X121715377Y-94732499D01*
X121715229Y-94732070D01*
X121711652Y-94718978D01*
X121711648Y-94718969D01*
X121704997Y-94707579D01*
X121696031Y-94688748D01*
X121693195Y-94681218D01*
X121691385Y-94676410D01*
X121670001Y-94646581D01*
X121663707Y-94636875D01*
X121645195Y-94605174D01*
X121635818Y-94595889D01*
X121622287Y-94580024D01*
X121614604Y-94569307D01*
X121614600Y-94569303D01*
X121586225Y-94546025D01*
X121577628Y-94538273D01*
X121551550Y-94512453D01*
X121551549Y-94512452D01*
X121540092Y-94505912D01*
X121522914Y-94494089D01*
X121512715Y-94485722D01*
X121501929Y-94480837D01*
X121459668Y-94449427D01*
X121412409Y-94395289D01*
X121410979Y-94393620D01*
X121399673Y-94380176D01*
X121356228Y-94328516D01*
X121355039Y-94327079D01*
X121301120Y-94260831D01*
X121300107Y-94259568D01*
X121246780Y-94192208D01*
X121245954Y-94191154D01*
X121210055Y-94144788D01*
X121193220Y-94123044D01*
X121192453Y-94122042D01*
X121173681Y-94097266D01*
X121106678Y-94008833D01*
X121098232Y-93996129D01*
X121087574Y-93977737D01*
X121084508Y-93972445D01*
X121084507Y-93972444D01*
X121084506Y-93972443D01*
X121084505Y-93972441D01*
X121068532Y-93956519D01*
X121057250Y-93943595D01*
X121043634Y-93925624D01*
X121022004Y-93908816D01*
X121010561Y-93898734D01*
X120893498Y-93782047D01*
X120876544Y-93760985D01*
X120851828Y-93722299D01*
X120849223Y-93718035D01*
X120841191Y-93704270D01*
X120816157Y-93661370D01*
X120813557Y-93656682D01*
X120779623Y-93592260D01*
X120777701Y-93588455D01*
X120774897Y-93582657D01*
X139504000Y-93582657D01*
X139504000Y-93614108D01*
X139504000Y-109554108D01*
X139504000Y-109620000D01*
X139504000Y-109717343D01*
X139539774Y-109908714D01*
X139552270Y-109940970D01*
X139610100Y-110090248D01*
X139610104Y-110090257D01*
X139712590Y-110255778D01*
X139712592Y-110255780D01*
X139843748Y-110399652D01*
X139896505Y-110439492D01*
X139999114Y-110516979D01*
X140044989Y-110539822D01*
X140173379Y-110603753D01*
X140173383Y-110603754D01*
X140173390Y-110603758D01*
X140360644Y-110657037D01*
X140554499Y-110675000D01*
X140554500Y-110675000D01*
X140554501Y-110675000D01*
X140651428Y-110666018D01*
X140748356Y-110657037D01*
X140935610Y-110603758D01*
X141109886Y-110516979D01*
X141265249Y-110399654D01*
X141396408Y-110255780D01*
X141498897Y-110090254D01*
X141569226Y-109908714D01*
X141605000Y-109717343D01*
X141605000Y-109620000D01*
X141605000Y-109554108D01*
X141605000Y-105099996D01*
X142844435Y-105099996D01*
X142844435Y-105100003D01*
X142864630Y-105279249D01*
X142864631Y-105279254D01*
X142924211Y-105449523D01*
X143007528Y-105582120D01*
X143020184Y-105602262D01*
X143147738Y-105729816D01*
X143300478Y-105825789D01*
X143380166Y-105853673D01*
X143470745Y-105885368D01*
X143470750Y-105885369D01*
X143649996Y-105905565D01*
X143650000Y-105905565D01*
X143650004Y-105905565D01*
X143829249Y-105885369D01*
X143829252Y-105885368D01*
X143829255Y-105885368D01*
X143999522Y-105825789D01*
X144152262Y-105729816D01*
X144279816Y-105602262D01*
X144375789Y-105449522D01*
X144435368Y-105279255D01*
X144435369Y-105279249D01*
X144455565Y-105100003D01*
X144455565Y-105099996D01*
X144435369Y-104920750D01*
X144435368Y-104920745D01*
X144428965Y-104902445D01*
X144375789Y-104750478D01*
X144370853Y-104742623D01*
X144328607Y-104675389D01*
X144279816Y-104597738D01*
X144152262Y-104470184D01*
X144113081Y-104445565D01*
X143999523Y-104374211D01*
X143829254Y-104314631D01*
X143829249Y-104314630D01*
X143650004Y-104294435D01*
X143649996Y-104294435D01*
X143470750Y-104314630D01*
X143470745Y-104314631D01*
X143300476Y-104374211D01*
X143147737Y-104470184D01*
X143020184Y-104597737D01*
X142924211Y-104750476D01*
X142864631Y-104920745D01*
X142864630Y-104920750D01*
X142844435Y-105099996D01*
X141605000Y-105099996D01*
X141605000Y-102899996D01*
X142844435Y-102899996D01*
X142844435Y-102900003D01*
X142864630Y-103079249D01*
X142864631Y-103079254D01*
X142924211Y-103249523D01*
X142949944Y-103290476D01*
X143020184Y-103402262D01*
X143147738Y-103529816D01*
X143300478Y-103625789D01*
X143470745Y-103685368D01*
X143470750Y-103685369D01*
X143649996Y-103705565D01*
X143650000Y-103705565D01*
X143650004Y-103705565D01*
X143829249Y-103685369D01*
X143829252Y-103685368D01*
X143829255Y-103685368D01*
X143958921Y-103639996D01*
X148984435Y-103639996D01*
X148984435Y-103640003D01*
X149004630Y-103819249D01*
X149004631Y-103819254D01*
X149064211Y-103989523D01*
X149120590Y-104079249D01*
X149160184Y-104142262D01*
X149287738Y-104269816D01*
X149440478Y-104365789D01*
X149482280Y-104380416D01*
X149610745Y-104425368D01*
X149610750Y-104425369D01*
X149789996Y-104445565D01*
X149790000Y-104445565D01*
X149790004Y-104445565D01*
X149969249Y-104425369D01*
X149969252Y-104425368D01*
X149969255Y-104425368D01*
X150139522Y-104365789D01*
X150292262Y-104269816D01*
X150419816Y-104142262D01*
X150515789Y-103989522D01*
X150547116Y-103899996D01*
X151944435Y-103899996D01*
X151944435Y-103900003D01*
X151964630Y-104079249D01*
X151964631Y-104079254D01*
X152024211Y-104249523D01*
X152078174Y-104335404D01*
X152120184Y-104402262D01*
X152247738Y-104529816D01*
X152280687Y-104550519D01*
X152374953Y-104609751D01*
X152400478Y-104625789D01*
X152525883Y-104669670D01*
X152570745Y-104685368D01*
X152570750Y-104685369D01*
X152749996Y-104705565D01*
X152750000Y-104705565D01*
X152750004Y-104705565D01*
X152929249Y-104685369D01*
X152929252Y-104685368D01*
X152929255Y-104685368D01*
X153099522Y-104625789D01*
X153252262Y-104529816D01*
X153379816Y-104402262D01*
X153475789Y-104249522D01*
X153535368Y-104079255D01*
X153535369Y-104079249D01*
X153555565Y-103900003D01*
X153555565Y-103899996D01*
X153535369Y-103720750D01*
X153535368Y-103720745D01*
X153502141Y-103625788D01*
X153475789Y-103550478D01*
X153468758Y-103539289D01*
X153417781Y-103458159D01*
X153379816Y-103397738D01*
X153252262Y-103270184D01*
X153161899Y-103213405D01*
X153099523Y-103174211D01*
X152929254Y-103114631D01*
X152929249Y-103114630D01*
X152750004Y-103094435D01*
X152749996Y-103094435D01*
X152570750Y-103114630D01*
X152570745Y-103114631D01*
X152400476Y-103174211D01*
X152247737Y-103270184D01*
X152120184Y-103397737D01*
X152024211Y-103550476D01*
X151964631Y-103720745D01*
X151964630Y-103720750D01*
X151944435Y-103899996D01*
X150547116Y-103899996D01*
X150575368Y-103819255D01*
X150577545Y-103799934D01*
X150595565Y-103640003D01*
X150595565Y-103639996D01*
X150575369Y-103460750D01*
X150575368Y-103460745D01*
X150553321Y-103397738D01*
X150515789Y-103290478D01*
X150503037Y-103270184D01*
X150464905Y-103209496D01*
X150419816Y-103137738D01*
X150292262Y-103010184D01*
X150139523Y-102914211D01*
X149969254Y-102854631D01*
X149969249Y-102854630D01*
X149790004Y-102834435D01*
X149789996Y-102834435D01*
X149610750Y-102854630D01*
X149610745Y-102854631D01*
X149440476Y-102914211D01*
X149287737Y-103010184D01*
X149160184Y-103137737D01*
X149064211Y-103290476D01*
X149004631Y-103460745D01*
X149004630Y-103460750D01*
X148984435Y-103639996D01*
X143958921Y-103639996D01*
X143999522Y-103625789D01*
X144152262Y-103529816D01*
X144279816Y-103402262D01*
X144375789Y-103249522D01*
X144435368Y-103079255D01*
X144437059Y-103064248D01*
X144455565Y-102900003D01*
X144455565Y-102899996D01*
X144435369Y-102720750D01*
X144435368Y-102720745D01*
X144424824Y-102690611D01*
X144375789Y-102550478D01*
X144364300Y-102532194D01*
X144283044Y-102402876D01*
X144279816Y-102397738D01*
X144152262Y-102270184D01*
X144037516Y-102198084D01*
X143999523Y-102174211D01*
X143829254Y-102114631D01*
X143829249Y-102114630D01*
X143650004Y-102094435D01*
X143649996Y-102094435D01*
X143470750Y-102114630D01*
X143470745Y-102114631D01*
X143300476Y-102174211D01*
X143147737Y-102270184D01*
X143020184Y-102397737D01*
X142924211Y-102550476D01*
X142864631Y-102720745D01*
X142864630Y-102720750D01*
X142844435Y-102899996D01*
X141605000Y-102899996D01*
X141605000Y-97849996D01*
X148394435Y-97849996D01*
X148394435Y-97850003D01*
X148414630Y-98029249D01*
X148414631Y-98029254D01*
X148474211Y-98199523D01*
X148548214Y-98317297D01*
X148570184Y-98352262D01*
X148697738Y-98479816D01*
X148729291Y-98499642D01*
X148840128Y-98569286D01*
X148850478Y-98575789D01*
X149008079Y-98630936D01*
X149020745Y-98635368D01*
X149020750Y-98635369D01*
X149199996Y-98655565D01*
X149200000Y-98655565D01*
X149200004Y-98655565D01*
X149379249Y-98635369D01*
X149379252Y-98635368D01*
X149379255Y-98635368D01*
X149549522Y-98575789D01*
X149702262Y-98479816D01*
X149829816Y-98352262D01*
X149925789Y-98199522D01*
X149985368Y-98029255D01*
X149985369Y-98029249D01*
X150005565Y-97850003D01*
X150005565Y-97849996D01*
X149985369Y-97670750D01*
X149985368Y-97670745D01*
X149977185Y-97647360D01*
X149925789Y-97500478D01*
X149915350Y-97483865D01*
X149870530Y-97412534D01*
X149829816Y-97347738D01*
X149702262Y-97220184D01*
X149549523Y-97124211D01*
X149379254Y-97064631D01*
X149379249Y-97064630D01*
X149200004Y-97044435D01*
X149199996Y-97044435D01*
X149020750Y-97064630D01*
X149020745Y-97064631D01*
X148850476Y-97124211D01*
X148697737Y-97220184D01*
X148570184Y-97347737D01*
X148474211Y-97500476D01*
X148414631Y-97670745D01*
X148414630Y-97670750D01*
X148394435Y-97849996D01*
X141605000Y-97849996D01*
X141605000Y-93614108D01*
X141605000Y-93582657D01*
X141569226Y-93391286D01*
X141498897Y-93209746D01*
X141494227Y-93202204D01*
X141396409Y-93044221D01*
X141396407Y-93044219D01*
X141265251Y-92900347D01*
X141109886Y-92783021D01*
X140935620Y-92696246D01*
X140935607Y-92696241D01*
X140748354Y-92642962D01*
X140748355Y-92642962D01*
X140554501Y-92625000D01*
X140554499Y-92625000D01*
X140360644Y-92642962D01*
X140173392Y-92696241D01*
X140173379Y-92696246D01*
X139999113Y-92783021D01*
X139843748Y-92900347D01*
X139712592Y-93044219D01*
X139712590Y-93044221D01*
X139610104Y-93209742D01*
X139610100Y-93209751D01*
X139547155Y-93372233D01*
X139539774Y-93391286D01*
X139504000Y-93582657D01*
X120774897Y-93582657D01*
X120763734Y-93559573D01*
X120762487Y-93556913D01*
X120747472Y-93523841D01*
X120746260Y-93521078D01*
X120731880Y-93487170D01*
X120730664Y-93484197D01*
X120716968Y-93449422D01*
X120715801Y-93446340D01*
X120702850Y-93410677D01*
X120701739Y-93407477D01*
X120689646Y-93371060D01*
X120688598Y-93367751D01*
X120677386Y-93330444D01*
X120676405Y-93326995D01*
X120666194Y-93288990D01*
X120665279Y-93285367D01*
X120656108Y-93246557D01*
X120655303Y-93242893D01*
X120647013Y-93202168D01*
X120646378Y-93198809D01*
X120639336Y-93158401D01*
X120638626Y-93153810D01*
X120633349Y-93114786D01*
X120632785Y-93109871D01*
X120631862Y-93100071D01*
X120631551Y-93096072D01*
X120630846Y-93084553D01*
X120630654Y-93080064D01*
X120630421Y-93070416D01*
X120630403Y-93065441D01*
X120630536Y-93057360D01*
X120630744Y-93051968D01*
X120631159Y-93045146D01*
X120631645Y-93039398D01*
X120632274Y-93033577D01*
X120633084Y-93027495D01*
X120633939Y-93022101D01*
X120635096Y-93015861D01*
X120635512Y-93013893D01*
X120636229Y-93010511D01*
X120637747Y-93004179D01*
X120639300Y-92998378D01*
X120641176Y-92992054D01*
X120642767Y-92987177D01*
X120670395Y-92940615D01*
X120678446Y-92932070D01*
X120681885Y-92928564D01*
X120720006Y-92891240D01*
X120720009Y-92891234D01*
X120725020Y-92884846D01*
X120725202Y-92884989D01*
X120727657Y-92881725D01*
X120727469Y-92881590D01*
X120732220Y-92875000D01*
X120732224Y-92874997D01*
X120757511Y-92828023D01*
X120759930Y-92823738D01*
X120787096Y-92777812D01*
X120787097Y-92777807D01*
X120790286Y-92770333D01*
X120790501Y-92770424D01*
X120792025Y-92766642D01*
X120791807Y-92766560D01*
X120794690Y-92758966D01*
X120794694Y-92758960D01*
X120806957Y-92707063D01*
X120808202Y-92702234D01*
X120809874Y-92696246D01*
X120822543Y-92650885D01*
X120822543Y-92650883D01*
X120823688Y-92642840D01*
X120823919Y-92642872D01*
X120824413Y-92638820D01*
X120824182Y-92638797D01*
X120825003Y-92630710D01*
X120823417Y-92577405D01*
X120823369Y-92572409D01*
X120823931Y-92519110D01*
X120822955Y-92511040D01*
X120823185Y-92511012D01*
X120822613Y-92506969D01*
X120822385Y-92507007D01*
X120821085Y-92498990D01*
X120821085Y-92498983D01*
X120805751Y-92447886D01*
X120804421Y-92443102D01*
X120804002Y-92441469D01*
X120801772Y-92432782D01*
X120799947Y-92424506D01*
X120799643Y-92422867D01*
X120799643Y-92422859D01*
X120798837Y-92420378D01*
X120796676Y-92412932D01*
X120791165Y-92391459D01*
X120788137Y-92383925D01*
X120788285Y-92383865D01*
X120783304Y-92372511D01*
X120781442Y-92366773D01*
X120780624Y-92364152D01*
X120780561Y-92363942D01*
X120778565Y-92353326D01*
X120778025Y-92353443D01*
X120776317Y-92345497D01*
X120776317Y-92345494D01*
X120769239Y-92325653D01*
X120767268Y-92319645D01*
X120763685Y-92307705D01*
X120761603Y-92303073D01*
X120757915Y-92293910D01*
X120757289Y-92292154D01*
X120754453Y-92279419D01*
X120753565Y-92279635D01*
X120751652Y-92271747D01*
X120751652Y-92271740D01*
X120746335Y-92257981D01*
X120744055Y-92251562D01*
X120742639Y-92247200D01*
X120738496Y-92234431D01*
X120738494Y-92234428D01*
X120738461Y-92234326D01*
X120738189Y-92233401D01*
X120737790Y-92232499D01*
X120737756Y-92232416D01*
X120737756Y-92232414D01*
X120728872Y-92210721D01*
X120724442Y-92197957D01*
X120722961Y-92192800D01*
X120722961Y-92192796D01*
X120718465Y-92182468D01*
X120715365Y-92174630D01*
X120712791Y-92167413D01*
X120710312Y-92160462D01*
X120710310Y-92160459D01*
X120709135Y-92157165D01*
X120700335Y-92138200D01*
X120697156Y-92130716D01*
X120692719Y-92119233D01*
X120692717Y-92119231D01*
X120691233Y-92115389D01*
X120690390Y-92113073D01*
X120688629Y-92109523D01*
X120683753Y-92099696D01*
X120680085Y-92091581D01*
X120672874Y-92073969D01*
X120672897Y-92073959D01*
X120672047Y-92072360D01*
X120665991Y-92060973D01*
X120661791Y-92052269D01*
X120658034Y-92043638D01*
X120658032Y-92043636D01*
X120655096Y-92036888D01*
X120652936Y-92032583D01*
X120652475Y-92031777D01*
X120652475Y-92031775D01*
X120646975Y-92022152D01*
X120642156Y-92012823D01*
X120638855Y-92005709D01*
X120638853Y-92005707D01*
X120637219Y-92002184D01*
X120632086Y-91992632D01*
X120631393Y-91991085D01*
X120626540Y-91983203D01*
X120621054Y-91973307D01*
X120618284Y-91967723D01*
X120618281Y-91967720D01*
X120617784Y-91966717D01*
X120610478Y-91954065D01*
X120608641Y-91950320D01*
X120608637Y-91950315D01*
X120608637Y-91950313D01*
X120604558Y-91944180D01*
X120598337Y-91933750D01*
X120596207Y-91929745D01*
X120596206Y-91929744D01*
X120596204Y-91929740D01*
X120595538Y-91928807D01*
X120587267Y-91915510D01*
X120584101Y-91909621D01*
X120583328Y-91908548D01*
X120580926Y-91905212D01*
X120573898Y-91894287D01*
X120572497Y-91891836D01*
X120572494Y-91891833D01*
X120567573Y-91885361D01*
X120567610Y-91885332D01*
X120565347Y-91882681D01*
X120563904Y-91880712D01*
X120558332Y-91872429D01*
X120547048Y-91854103D01*
X120547047Y-91854101D01*
X120547044Y-91854098D01*
X120545436Y-91852121D01*
X120543286Y-91847993D01*
X120542787Y-91847183D01*
X120542845Y-91847147D01*
X120522390Y-91807877D01*
X120508742Y-91759996D01*
X147304435Y-91759996D01*
X147304435Y-91760003D01*
X147324630Y-91939249D01*
X147324631Y-91939254D01*
X147384211Y-92109523D01*
X147480184Y-92262262D01*
X147484525Y-92267705D01*
X147482934Y-92268973D01*
X147509618Y-92315189D01*
X147519867Y-92353435D01*
X147550423Y-92467472D01*
X147550424Y-92467473D01*
X147576037Y-92511836D01*
X147629480Y-92604402D01*
X147629482Y-92604404D01*
X147748349Y-92723271D01*
X147748355Y-92723276D01*
X158893181Y-103868102D01*
X158926666Y-103929425D01*
X158929500Y-103955783D01*
X158929500Y-111497587D01*
X158909815Y-111564626D01*
X158902450Y-111574896D01*
X158900186Y-111577734D01*
X158804211Y-111730476D01*
X158744631Y-111900745D01*
X158744630Y-111900750D01*
X158724435Y-112079996D01*
X158724435Y-112080003D01*
X158744630Y-112259249D01*
X158744631Y-112259254D01*
X158804211Y-112429523D01*
X158879912Y-112550000D01*
X158900184Y-112582262D01*
X159027738Y-112709816D01*
X159180478Y-112805789D01*
X159329240Y-112857843D01*
X159350745Y-112865368D01*
X159350750Y-112865369D01*
X159529996Y-112885565D01*
X159530000Y-112885565D01*
X159530004Y-112885565D01*
X159709249Y-112865369D01*
X159709252Y-112865368D01*
X159709255Y-112865368D01*
X159879522Y-112805789D01*
X160032262Y-112709816D01*
X160159816Y-112582262D01*
X160255789Y-112429522D01*
X160315368Y-112259255D01*
X160316482Y-112249369D01*
X160335565Y-112080003D01*
X160335565Y-112079996D01*
X160332185Y-112049996D01*
X161714435Y-112049996D01*
X161714435Y-112050003D01*
X161734630Y-112229249D01*
X161734631Y-112229254D01*
X161794211Y-112399523D01*
X161868540Y-112517816D01*
X161890184Y-112552262D01*
X162017738Y-112679816D01*
X162108080Y-112736582D01*
X162131462Y-112751274D01*
X162170478Y-112775789D01*
X162277324Y-112813176D01*
X162340745Y-112835368D01*
X162340750Y-112835369D01*
X162519996Y-112855565D01*
X162520000Y-112855565D01*
X162520004Y-112855565D01*
X162699249Y-112835369D01*
X162699252Y-112835368D01*
X162699255Y-112835368D01*
X162869522Y-112775789D01*
X163022262Y-112679816D01*
X163149816Y-112552262D01*
X163245789Y-112399522D01*
X163305368Y-112229255D01*
X163305478Y-112228281D01*
X163325565Y-112050003D01*
X163325565Y-112049996D01*
X164724435Y-112049996D01*
X164724435Y-112050003D01*
X164744630Y-112229249D01*
X164744631Y-112229254D01*
X164804211Y-112399523D01*
X164878540Y-112517816D01*
X164900184Y-112552262D01*
X165027738Y-112679816D01*
X165118080Y-112736582D01*
X165141462Y-112751274D01*
X165180478Y-112775789D01*
X165287324Y-112813176D01*
X165350745Y-112835368D01*
X165350750Y-112835369D01*
X165529996Y-112855565D01*
X165530000Y-112855565D01*
X165530004Y-112855565D01*
X165709249Y-112835369D01*
X165709252Y-112835368D01*
X165709255Y-112835368D01*
X165879522Y-112775789D01*
X166032262Y-112679816D01*
X166159816Y-112552262D01*
X166255789Y-112399522D01*
X166315368Y-112229255D01*
X166315478Y-112228281D01*
X166335565Y-112050003D01*
X166335565Y-112049996D01*
X166315369Y-111870750D01*
X166315368Y-111870745D01*
X166298351Y-111822114D01*
X166255789Y-111700478D01*
X166237855Y-111671937D01*
X166210173Y-111627880D01*
X166159816Y-111547738D01*
X166032262Y-111420184D01*
X166019587Y-111412220D01*
X165879523Y-111324211D01*
X165709254Y-111264631D01*
X165709249Y-111264630D01*
X165530004Y-111244435D01*
X165529996Y-111244435D01*
X165350750Y-111264630D01*
X165350745Y-111264631D01*
X165180476Y-111324211D01*
X165027737Y-111420184D01*
X164900184Y-111547737D01*
X164804211Y-111700476D01*
X164744631Y-111870745D01*
X164744630Y-111870750D01*
X164724435Y-112049996D01*
X163325565Y-112049996D01*
X163305369Y-111870750D01*
X163305368Y-111870745D01*
X163288351Y-111822114D01*
X163245789Y-111700478D01*
X163227855Y-111671937D01*
X163200173Y-111627880D01*
X163149816Y-111547738D01*
X163022262Y-111420184D01*
X163009587Y-111412220D01*
X162869523Y-111324211D01*
X162699254Y-111264631D01*
X162699249Y-111264630D01*
X162520004Y-111244435D01*
X162519996Y-111244435D01*
X162340750Y-111264630D01*
X162340745Y-111264631D01*
X162170476Y-111324211D01*
X162017737Y-111420184D01*
X161890184Y-111547737D01*
X161794211Y-111700476D01*
X161734631Y-111870745D01*
X161734630Y-111870750D01*
X161714435Y-112049996D01*
X160332185Y-112049996D01*
X160315369Y-111900750D01*
X160315368Y-111900745D01*
X160304872Y-111870750D01*
X160255789Y-111730478D01*
X160240058Y-111705443D01*
X160212689Y-111661885D01*
X160159816Y-111577738D01*
X160159814Y-111577736D01*
X160159813Y-111577734D01*
X160157550Y-111574896D01*
X160156659Y-111572715D01*
X160156111Y-111571842D01*
X160156264Y-111571745D01*
X160131144Y-111510209D01*
X160130500Y-111497587D01*
X160130500Y-109789362D01*
X160150185Y-109722323D01*
X160202989Y-109676568D01*
X160272147Y-109666624D01*
X160320473Y-109684369D01*
X160370475Y-109715788D01*
X160540745Y-109775368D01*
X160540750Y-109775369D01*
X160719996Y-109795565D01*
X160720000Y-109795565D01*
X160720004Y-109795565D01*
X160899249Y-109775369D01*
X160899252Y-109775368D01*
X160899255Y-109775368D01*
X161069522Y-109715789D01*
X161222262Y-109619816D01*
X161349816Y-109492262D01*
X161445789Y-109339522D01*
X161505368Y-109169255D01*
X161508176Y-109144337D01*
X161525565Y-108990003D01*
X161525565Y-108989996D01*
X161505369Y-108810750D01*
X161505368Y-108810745D01*
X161486439Y-108756649D01*
X161445789Y-108640478D01*
X161428922Y-108613635D01*
X161397138Y-108563050D01*
X161349816Y-108487738D01*
X161222262Y-108360184D01*
X161216859Y-108356789D01*
X161069523Y-108264211D01*
X160899254Y-108204631D01*
X160899249Y-108204630D01*
X160720004Y-108184435D01*
X160719996Y-108184435D01*
X160540750Y-108204630D01*
X160540745Y-108204631D01*
X160370474Y-108264212D01*
X160320471Y-108295631D01*
X160253234Y-108314631D01*
X160186399Y-108294263D01*
X160141186Y-108240994D01*
X160130500Y-108190637D01*
X160130500Y-104839097D01*
X160150185Y-104772058D01*
X160202989Y-104726303D01*
X160272147Y-104716359D01*
X160335703Y-104745384D01*
X160342180Y-104751415D01*
X164026089Y-108435325D01*
X167709298Y-112118534D01*
X167742783Y-112179857D01*
X167744837Y-112192331D01*
X167754630Y-112279249D01*
X167814210Y-112449521D01*
X167910184Y-112602262D01*
X168037738Y-112729816D01*
X168092885Y-112764467D01*
X168185808Y-112822855D01*
X168190478Y-112825789D01*
X168303591Y-112865369D01*
X168360745Y-112885368D01*
X168360750Y-112885369D01*
X168539996Y-112905565D01*
X168540000Y-112905565D01*
X168540004Y-112905565D01*
X168719249Y-112885369D01*
X168719252Y-112885368D01*
X168719255Y-112885368D01*
X168889522Y-112825789D01*
X169042262Y-112729816D01*
X169169816Y-112602262D01*
X169234074Y-112499996D01*
X174544435Y-112499996D01*
X174544435Y-112500003D01*
X174564630Y-112679249D01*
X174564631Y-112679254D01*
X174624211Y-112849523D01*
X174716957Y-112997126D01*
X174720184Y-113002262D01*
X174847738Y-113129816D01*
X175000478Y-113225789D01*
X175117292Y-113266664D01*
X175170745Y-113285368D01*
X175170750Y-113285369D01*
X175349996Y-113305565D01*
X175350000Y-113305565D01*
X175350004Y-113305565D01*
X175529249Y-113285369D01*
X175529252Y-113285368D01*
X175529255Y-113285368D01*
X175699522Y-113225789D01*
X175852262Y-113129816D01*
X175979816Y-113002262D01*
X176075789Y-112849522D01*
X176135368Y-112679255D01*
X176137181Y-112663166D01*
X176155565Y-112500003D01*
X176155565Y-112499996D01*
X176135369Y-112320750D01*
X176135368Y-112320745D01*
X176107872Y-112242166D01*
X176075789Y-112150478D01*
X176075636Y-112150235D01*
X175979815Y-111997737D01*
X175852262Y-111870184D01*
X175699523Y-111774211D01*
X175529254Y-111714631D01*
X175529249Y-111714630D01*
X175350004Y-111694435D01*
X175349996Y-111694435D01*
X175170750Y-111714630D01*
X175170745Y-111714631D01*
X175000476Y-111774211D01*
X174847737Y-111870184D01*
X174720184Y-111997737D01*
X174624211Y-112150476D01*
X174564631Y-112320745D01*
X174564630Y-112320750D01*
X174544435Y-112499996D01*
X169234074Y-112499996D01*
X169265789Y-112449522D01*
X169325368Y-112279255D01*
X169327537Y-112260004D01*
X169345565Y-112100003D01*
X169345565Y-112099996D01*
X169325369Y-111920750D01*
X169325368Y-111920745D01*
X169318028Y-111899768D01*
X169265789Y-111750478D01*
X169261127Y-111743059D01*
X169219068Y-111676122D01*
X169169816Y-111597738D01*
X169042262Y-111470184D01*
X169013197Y-111451921D01*
X168889521Y-111374210D01*
X168719249Y-111314630D01*
X168632331Y-111304837D01*
X168567917Y-111277770D01*
X168558534Y-111269298D01*
X158819232Y-101529996D01*
X165684435Y-101529996D01*
X165684435Y-101530003D01*
X165704630Y-101709249D01*
X165704631Y-101709254D01*
X165764211Y-101879523D01*
X165784546Y-101911885D01*
X165860184Y-102032262D01*
X165987738Y-102159816D01*
X166140478Y-102255789D01*
X166310745Y-102315368D01*
X166310750Y-102315369D01*
X166489996Y-102335565D01*
X166490000Y-102335565D01*
X166490004Y-102335565D01*
X166669249Y-102315369D01*
X166669252Y-102315368D01*
X166669255Y-102315368D01*
X166839522Y-102255789D01*
X166992262Y-102159816D01*
X167119816Y-102032262D01*
X167215789Y-101879522D01*
X167275368Y-101709255D01*
X167275591Y-101707279D01*
X167295565Y-101530003D01*
X167295565Y-101529996D01*
X167275369Y-101350750D01*
X167275368Y-101350745D01*
X167253892Y-101289371D01*
X167215789Y-101180478D01*
X167208263Y-101168501D01*
X167165218Y-101099996D01*
X174544435Y-101099996D01*
X174544435Y-101100003D01*
X174564630Y-101279249D01*
X174564631Y-101279254D01*
X174624211Y-101449523D01*
X174701814Y-101573026D01*
X174720184Y-101602262D01*
X174847738Y-101729816D01*
X174855804Y-101734884D01*
X174994955Y-101822319D01*
X175000478Y-101825789D01*
X175154038Y-101879522D01*
X175170745Y-101885368D01*
X175170750Y-101885369D01*
X175349996Y-101905565D01*
X175350000Y-101905565D01*
X175350004Y-101905565D01*
X175529249Y-101885369D01*
X175529252Y-101885368D01*
X175529255Y-101885368D01*
X175699522Y-101825789D01*
X175852262Y-101729816D01*
X175979816Y-101602262D01*
X176075789Y-101449522D01*
X176135368Y-101279255D01*
X176137138Y-101263547D01*
X176155565Y-101100003D01*
X176155565Y-101099996D01*
X176135369Y-100920750D01*
X176135368Y-100920745D01*
X176105589Y-100835642D01*
X176075789Y-100750478D01*
X176072114Y-100744630D01*
X176002902Y-100634479D01*
X175979816Y-100597738D01*
X175852262Y-100470184D01*
X175784815Y-100427804D01*
X175699523Y-100374211D01*
X175529254Y-100314631D01*
X175529249Y-100314630D01*
X175350004Y-100294435D01*
X175349996Y-100294435D01*
X175170750Y-100314630D01*
X175170745Y-100314631D01*
X175000476Y-100374211D01*
X174847737Y-100470184D01*
X174720184Y-100597737D01*
X174624211Y-100750476D01*
X174564631Y-100920745D01*
X174564630Y-100920750D01*
X174544435Y-101099996D01*
X167165218Y-101099996D01*
X167145812Y-101069111D01*
X167119816Y-101027738D01*
X166992262Y-100900184D01*
X166893380Y-100838052D01*
X166839523Y-100804211D01*
X166669254Y-100744631D01*
X166669249Y-100744630D01*
X166490004Y-100724435D01*
X166489996Y-100724435D01*
X166310750Y-100744630D01*
X166310745Y-100744631D01*
X166140476Y-100804211D01*
X165987737Y-100900184D01*
X165860184Y-101027737D01*
X165764211Y-101180476D01*
X165704631Y-101350745D01*
X165704630Y-101350750D01*
X165684435Y-101529996D01*
X158819232Y-101529996D01*
X157968991Y-100679755D01*
X157935506Y-100618432D01*
X157940490Y-100548740D01*
X157982362Y-100492807D01*
X157990703Y-100487079D01*
X157992376Y-100486027D01*
X158002262Y-100479816D01*
X158129816Y-100352262D01*
X158225789Y-100199522D01*
X158285368Y-100029255D01*
X158294212Y-99950761D01*
X158305565Y-99850003D01*
X158305565Y-99849996D01*
X158285369Y-99670750D01*
X158285368Y-99670745D01*
X158283936Y-99666653D01*
X158225789Y-99500478D01*
X158205698Y-99468504D01*
X158162340Y-99399500D01*
X158129816Y-99347738D01*
X158002262Y-99220184D01*
X157953106Y-99189297D01*
X157849523Y-99124211D01*
X157679254Y-99064631D01*
X157679249Y-99064630D01*
X157500004Y-99044435D01*
X157499996Y-99044435D01*
X157320750Y-99064630D01*
X157320745Y-99064631D01*
X157150476Y-99124211D01*
X156997737Y-99220184D01*
X156870183Y-99347738D01*
X156862918Y-99359301D01*
X156810582Y-99405591D01*
X156741529Y-99416238D01*
X156677681Y-99387862D01*
X156670244Y-99381008D01*
X155044645Y-97755409D01*
X155011160Y-97694086D01*
X155016144Y-97624394D01*
X155058016Y-97568461D01*
X155123480Y-97544044D01*
X155191753Y-97558896D01*
X155198290Y-97562730D01*
X155227346Y-97580987D01*
X155330475Y-97645788D01*
X155500745Y-97705368D01*
X155500750Y-97705369D01*
X155679996Y-97725565D01*
X155680000Y-97725565D01*
X155680004Y-97725565D01*
X155859249Y-97705369D01*
X155859252Y-97705368D01*
X155859255Y-97705368D01*
X156029522Y-97645789D01*
X156182262Y-97549816D01*
X156309816Y-97422262D01*
X156405789Y-97269522D01*
X156465368Y-97099255D01*
X156465382Y-97099130D01*
X156485565Y-96920003D01*
X156485565Y-96919996D01*
X156465369Y-96740750D01*
X156465368Y-96740745D01*
X156432079Y-96645610D01*
X156405789Y-96570478D01*
X156309816Y-96417738D01*
X156182262Y-96290184D01*
X156164923Y-96279289D01*
X156029523Y-96194211D01*
X155859254Y-96134631D01*
X155859249Y-96134630D01*
X155680004Y-96114435D01*
X155679996Y-96114435D01*
X155500750Y-96134630D01*
X155500745Y-96134631D01*
X155330476Y-96194211D01*
X155177737Y-96290184D01*
X155050184Y-96417737D01*
X154954211Y-96570476D01*
X154894631Y-96740745D01*
X154894630Y-96740750D01*
X154874435Y-96919996D01*
X154874435Y-96920003D01*
X154894630Y-97099249D01*
X154894631Y-97099254D01*
X154946119Y-97246397D01*
X154954211Y-97269522D01*
X155036408Y-97400338D01*
X155037265Y-97401701D01*
X155056265Y-97468937D01*
X155035897Y-97535773D01*
X154982630Y-97580987D01*
X154913373Y-97590225D01*
X154850117Y-97560553D01*
X154844590Y-97555354D01*
X151769231Y-94479996D01*
X153884435Y-94479996D01*
X153884435Y-94480003D01*
X153904630Y-94659249D01*
X153904631Y-94659254D01*
X153964211Y-94829523D01*
X154031392Y-94936440D01*
X154060184Y-94982262D01*
X154187738Y-95109816D01*
X154340478Y-95205789D01*
X154510745Y-95265368D01*
X154510750Y-95265369D01*
X154689996Y-95285565D01*
X154690000Y-95285565D01*
X154690004Y-95285565D01*
X154869249Y-95265369D01*
X154869252Y-95265368D01*
X154869255Y-95265368D01*
X155039522Y-95205789D01*
X155192262Y-95109816D01*
X155319816Y-94982262D01*
X155378345Y-94889112D01*
X155430678Y-94842822D01*
X155499731Y-94832173D01*
X155563580Y-94860548D01*
X155589589Y-94894201D01*
X155590506Y-94893626D01*
X155617408Y-94936440D01*
X155690184Y-95052262D01*
X155817738Y-95179816D01*
X155908080Y-95236582D01*
X155962870Y-95271009D01*
X155970478Y-95275789D01*
X156117408Y-95327202D01*
X156140745Y-95335368D01*
X156140750Y-95335369D01*
X156319996Y-95355565D01*
X156320000Y-95355565D01*
X156320004Y-95355565D01*
X156499249Y-95335369D01*
X156499252Y-95335368D01*
X156499255Y-95335368D01*
X156669522Y-95275789D01*
X156822262Y-95179816D01*
X156949816Y-95052262D01*
X157045789Y-94899522D01*
X157105368Y-94729255D01*
X157106526Y-94718978D01*
X157125565Y-94550003D01*
X157125565Y-94549996D01*
X157105369Y-94370750D01*
X157105368Y-94370745D01*
X157087431Y-94319483D01*
X157045789Y-94200478D01*
X157039930Y-94191154D01*
X156996504Y-94122042D01*
X156949816Y-94047738D01*
X156822262Y-93920184D01*
X156788118Y-93898730D01*
X156669523Y-93824211D01*
X156499254Y-93764631D01*
X156499249Y-93764630D01*
X156320004Y-93744435D01*
X156319996Y-93744435D01*
X156140750Y-93764630D01*
X156140745Y-93764631D01*
X155970476Y-93824211D01*
X155817737Y-93920184D01*
X155690184Y-94047737D01*
X155631655Y-94140886D01*
X155579320Y-94187177D01*
X155510266Y-94197825D01*
X155446418Y-94169450D01*
X155420412Y-94135796D01*
X155419494Y-94136374D01*
X155360389Y-94042309D01*
X155319816Y-93977738D01*
X155192262Y-93850184D01*
X155165170Y-93833161D01*
X155039523Y-93754211D01*
X154869254Y-93694631D01*
X154869249Y-93694630D01*
X154690004Y-93674435D01*
X154689996Y-93674435D01*
X154510750Y-93694630D01*
X154510745Y-93694631D01*
X154340476Y-93754211D01*
X154187737Y-93850184D01*
X154060184Y-93977737D01*
X153964211Y-94130476D01*
X153904631Y-94300745D01*
X153904630Y-94300750D01*
X153884435Y-94479996D01*
X151769231Y-94479996D01*
X149642670Y-92353435D01*
X149609185Y-92292112D01*
X149614169Y-92222420D01*
X149625354Y-92199787D01*
X149675789Y-92119522D01*
X149735368Y-91949255D01*
X149736495Y-91939254D01*
X149755565Y-91770003D01*
X149755565Y-91769996D01*
X149735369Y-91590750D01*
X149735368Y-91590745D01*
X149709571Y-91517022D01*
X149675789Y-91420478D01*
X149669504Y-91410476D01*
X149610170Y-91316046D01*
X149579816Y-91267738D01*
X149452262Y-91140184D01*
X149429351Y-91125788D01*
X149299523Y-91044211D01*
X149129254Y-90984631D01*
X149129249Y-90984630D01*
X148950004Y-90964435D01*
X148949996Y-90964435D01*
X148770750Y-90984630D01*
X148770737Y-90984633D01*
X148600478Y-91044210D01*
X148594206Y-91047231D01*
X148593173Y-91045088D01*
X148536659Y-91061041D01*
X148471984Y-91042041D01*
X148459524Y-91034211D01*
X148289254Y-90974631D01*
X148289249Y-90974630D01*
X148110004Y-90954435D01*
X148109996Y-90954435D01*
X147930750Y-90974630D01*
X147930745Y-90974631D01*
X147760476Y-91034211D01*
X147607737Y-91130184D01*
X147480184Y-91257737D01*
X147384211Y-91410476D01*
X147324631Y-91580745D01*
X147324630Y-91580750D01*
X147304435Y-91759996D01*
X120508742Y-91759996D01*
X120479931Y-91658921D01*
X120476862Y-91645278D01*
X120471839Y-91615083D01*
X120471839Y-91615081D01*
X120463853Y-91597512D01*
X120457489Y-91580192D01*
X120452198Y-91561632D01*
X120436469Y-91535363D01*
X120429977Y-91522987D01*
X120395020Y-91446083D01*
X120390534Y-91434768D01*
X120361826Y-91350500D01*
X120336802Y-91277044D01*
X120335421Y-91272729D01*
X120285849Y-91107205D01*
X120284604Y-91102741D01*
X120240839Y-90933724D01*
X120239742Y-90929129D01*
X120226798Y-90869933D01*
X120202162Y-90757265D01*
X120201226Y-90752546D01*
X120170213Y-90578564D01*
X120169448Y-90573713D01*
X120168530Y-90567030D01*
X120145337Y-90398256D01*
X120144751Y-90393223D01*
X120142748Y-90372319D01*
X120127872Y-90217029D01*
X120127483Y-90211791D01*
X120125787Y-90179815D01*
X120118131Y-90035491D01*
X120117964Y-90030084D01*
X120116409Y-89854357D01*
X120116490Y-89848663D01*
X120116649Y-89844381D01*
X120122974Y-89674186D01*
X120123338Y-89668256D01*
X120123452Y-89666925D01*
X120138078Y-89495628D01*
X120138758Y-89489479D01*
X120157765Y-89349994D01*
X142844435Y-89349994D01*
X142844435Y-89350001D01*
X142864630Y-89529247D01*
X142864631Y-89529252D01*
X142924211Y-89699521D01*
X142988677Y-89802117D01*
X143020184Y-89852260D01*
X143147738Y-89979814D01*
X143194176Y-90008993D01*
X143292461Y-90070750D01*
X143300478Y-90075787D01*
X143402283Y-90111410D01*
X143470745Y-90135366D01*
X143470750Y-90135367D01*
X143646351Y-90155152D01*
X143664561Y-90158597D01*
X143668215Y-90159576D01*
X143668217Y-90159577D01*
X143820944Y-90200500D01*
X143820945Y-90200500D01*
X150653331Y-90200500D01*
X150653347Y-90200501D01*
X150660943Y-90200501D01*
X150819054Y-90200501D01*
X150819057Y-90200501D01*
X150971785Y-90159577D01*
X151058108Y-90109738D01*
X151108716Y-90080520D01*
X151220520Y-89968716D01*
X151220520Y-89968714D01*
X151230724Y-89958511D01*
X151230728Y-89958506D01*
X151938535Y-89250698D01*
X151999856Y-89217215D01*
X152012311Y-89215163D01*
X152099255Y-89205368D01*
X152269522Y-89145789D01*
X152422262Y-89049816D01*
X152549816Y-88922262D01*
X152629433Y-88795551D01*
X152681768Y-88749261D01*
X152750821Y-88738613D01*
X152814670Y-88766988D01*
X152822108Y-88773843D01*
X153324474Y-89276209D01*
X153357959Y-89337532D01*
X153352975Y-89407224D01*
X153311103Y-89463157D01*
X153245639Y-89487574D01*
X153195839Y-89480932D01*
X153149257Y-89464632D01*
X153149249Y-89464630D01*
X152970004Y-89444435D01*
X152969996Y-89444435D01*
X152790750Y-89464630D01*
X152790745Y-89464631D01*
X152620476Y-89524211D01*
X152467737Y-89620184D01*
X152340184Y-89747737D01*
X152244211Y-89900476D01*
X152184631Y-90070745D01*
X152184630Y-90070750D01*
X152164435Y-90249996D01*
X152164435Y-90250003D01*
X152184630Y-90429249D01*
X152184631Y-90429254D01*
X152244211Y-90599523D01*
X152291992Y-90675565D01*
X152340184Y-90752262D01*
X152467738Y-90879816D01*
X152553532Y-90933724D01*
X152618636Y-90974632D01*
X152620478Y-90975789D01*
X152790745Y-91035368D01*
X152790750Y-91035369D01*
X152969996Y-91055565D01*
X152970000Y-91055565D01*
X152970004Y-91055565D01*
X153149249Y-91035369D01*
X153149252Y-91035368D01*
X153149255Y-91035368D01*
X153319522Y-90975789D01*
X153472262Y-90879816D01*
X153599816Y-90752262D01*
X153695789Y-90599522D01*
X153755368Y-90429255D01*
X153755369Y-90429249D01*
X153775565Y-90250003D01*
X153775565Y-90249998D01*
X153770017Y-90200761D01*
X153769628Y-90197309D01*
X153781682Y-90128489D01*
X153829030Y-90077109D01*
X153896641Y-90059484D01*
X153933800Y-90066383D01*
X154034495Y-90101618D01*
X154121419Y-90111411D01*
X154185830Y-90138476D01*
X154195215Y-90146950D01*
X154332639Y-90284374D01*
X154332649Y-90284385D01*
X154336979Y-90288715D01*
X154336980Y-90288716D01*
X154448784Y-90400520D01*
X154448786Y-90400521D01*
X154448790Y-90400524D01*
X154527946Y-90446224D01*
X154585716Y-90479577D01*
X154697519Y-90509534D01*
X154738442Y-90520500D01*
X154738443Y-90520500D01*
X159158883Y-90520500D01*
X159225922Y-90540185D01*
X159271677Y-90592989D01*
X159275924Y-90603545D01*
X159327003Y-90749519D01*
X159352499Y-90790095D01*
X159422978Y-90902262D01*
X159550532Y-91029816D01*
X159703272Y-91125789D01*
X159802836Y-91160628D01*
X159873539Y-91185368D01*
X159873544Y-91185369D01*
X160052790Y-91205565D01*
X160052794Y-91205565D01*
X160052798Y-91205565D01*
X160232043Y-91185369D01*
X160232046Y-91185368D01*
X160232049Y-91185368D01*
X160402316Y-91125789D01*
X160555056Y-91029816D01*
X160682610Y-90902262D01*
X160778583Y-90749522D01*
X160838162Y-90579255D01*
X160838439Y-90576796D01*
X160858359Y-90400003D01*
X160858359Y-90399996D01*
X160838163Y-90220750D01*
X160838162Y-90220745D01*
X160834363Y-90209887D01*
X160778583Y-90050478D01*
X160776477Y-90047127D01*
X160720790Y-89958501D01*
X160682610Y-89897738D01*
X160654868Y-89869996D01*
X166654435Y-89869996D01*
X166654435Y-89870003D01*
X166674630Y-90049249D01*
X166674631Y-90049254D01*
X166734211Y-90219523D01*
X166812346Y-90343873D01*
X166830184Y-90372262D01*
X166957738Y-90499816D01*
X167018689Y-90538114D01*
X167106021Y-90592989D01*
X167110478Y-90595789D01*
X167217781Y-90633336D01*
X167280745Y-90655368D01*
X167280750Y-90655369D01*
X167459996Y-90675565D01*
X167460000Y-90675565D01*
X167460004Y-90675565D01*
X167639249Y-90655369D01*
X167639252Y-90655368D01*
X167639255Y-90655368D01*
X167809522Y-90595789D01*
X167962262Y-90499816D01*
X168089816Y-90372262D01*
X168185789Y-90219522D01*
X168245368Y-90049255D01*
X168246915Y-90035524D01*
X168265565Y-89870003D01*
X168265565Y-89869996D01*
X168245369Y-89690750D01*
X168245368Y-89690745D01*
X168240103Y-89675698D01*
X168196118Y-89549996D01*
X174544435Y-89549996D01*
X174544435Y-89550003D01*
X174564630Y-89729249D01*
X174564631Y-89729254D01*
X174624211Y-89899523D01*
X174707565Y-90032179D01*
X174720184Y-90052262D01*
X174847738Y-90179816D01*
X174933484Y-90233694D01*
X174962487Y-90251918D01*
X175000478Y-90275789D01*
X175133119Y-90322202D01*
X175170745Y-90335368D01*
X175170750Y-90335369D01*
X175349996Y-90355565D01*
X175350000Y-90355565D01*
X175350004Y-90355565D01*
X175529249Y-90335369D01*
X175529252Y-90335368D01*
X175529255Y-90335368D01*
X175699522Y-90275789D01*
X175852262Y-90179816D01*
X175979816Y-90052262D01*
X176075789Y-89899522D01*
X176135368Y-89729255D01*
X176135661Y-89726653D01*
X176155565Y-89550003D01*
X176155565Y-89549996D01*
X176135369Y-89370750D01*
X176135368Y-89370745D01*
X176121441Y-89330945D01*
X176075789Y-89200478D01*
X176057108Y-89170748D01*
X176012168Y-89099226D01*
X175979816Y-89047738D01*
X175852262Y-88920184D01*
X175794305Y-88883767D01*
X175699523Y-88824211D01*
X175529254Y-88764631D01*
X175529249Y-88764630D01*
X175350004Y-88744435D01*
X175349996Y-88744435D01*
X175170750Y-88764630D01*
X175170745Y-88764631D01*
X175000476Y-88824211D01*
X174847737Y-88920184D01*
X174720184Y-89047737D01*
X174624211Y-89200476D01*
X174564631Y-89370745D01*
X174564630Y-89370750D01*
X174544435Y-89549996D01*
X168196118Y-89549996D01*
X168185789Y-89520478D01*
X168172484Y-89499304D01*
X168101066Y-89385642D01*
X168089816Y-89367738D01*
X167962262Y-89240184D01*
X167930170Y-89220019D01*
X167809523Y-89144211D01*
X167639254Y-89084631D01*
X167639249Y-89084630D01*
X167460004Y-89064435D01*
X167459996Y-89064435D01*
X167280750Y-89084630D01*
X167280745Y-89084631D01*
X167110476Y-89144211D01*
X166957737Y-89240184D01*
X166830184Y-89367737D01*
X166734211Y-89520476D01*
X166674631Y-89690745D01*
X166674630Y-89690750D01*
X166654435Y-89869996D01*
X160654868Y-89869996D01*
X160555056Y-89770184D01*
X160526963Y-89752532D01*
X160402315Y-89674210D01*
X160232043Y-89614630D01*
X160145126Y-89604837D01*
X160080712Y-89577770D01*
X160071329Y-89569298D01*
X160053317Y-89551286D01*
X160053314Y-89551284D01*
X160001975Y-89499945D01*
X159968490Y-89438622D01*
X159966436Y-89398379D01*
X159967872Y-89385642D01*
X159975268Y-89320000D01*
X159974950Y-89317174D01*
X159955072Y-89140750D01*
X159955071Y-89140745D01*
X159935436Y-89084631D01*
X159895492Y-88970478D01*
X159882324Y-88949522D01*
X159820466Y-88851075D01*
X159799519Y-88817738D01*
X159671965Y-88690184D01*
X159610381Y-88651488D01*
X159519226Y-88594211D01*
X159348957Y-88534631D01*
X159348952Y-88534630D01*
X159169707Y-88514435D01*
X159169699Y-88514435D01*
X158990453Y-88534630D01*
X158990448Y-88534631D01*
X158820179Y-88594211D01*
X158667439Y-88690185D01*
X158664606Y-88692445D01*
X158662427Y-88693334D01*
X158661545Y-88693889D01*
X158661447Y-88693734D01*
X158599920Y-88718855D01*
X158587291Y-88719500D01*
X158306466Y-88719500D01*
X158306450Y-88719499D01*
X158298854Y-88719499D01*
X158140739Y-88719499D01*
X158069406Y-88738613D01*
X157988010Y-88760423D01*
X157988005Y-88760426D01*
X157851086Y-88839475D01*
X157851078Y-88839481D01*
X157807379Y-88883181D01*
X157746056Y-88916666D01*
X157719698Y-88919500D01*
X157342044Y-88919500D01*
X157275005Y-88899815D01*
X157229250Y-88847011D01*
X157218824Y-88809383D01*
X157199119Y-88634497D01*
X157199118Y-88634492D01*
X157181759Y-88584884D01*
X157139539Y-88464225D01*
X157043566Y-88311485D01*
X156916012Y-88183931D01*
X156885050Y-88164476D01*
X156763273Y-88087958D01*
X156593004Y-88028378D01*
X156592999Y-88028377D01*
X156413754Y-88008182D01*
X156413746Y-88008182D01*
X156234500Y-88028377D01*
X156234495Y-88028378D01*
X156080703Y-88082193D01*
X156010924Y-88085754D01*
X155952067Y-88052832D01*
X155543927Y-87644692D01*
X155510442Y-87583369D01*
X155507608Y-87557011D01*
X155507608Y-87078052D01*
X155507607Y-87078048D01*
X155506534Y-87074042D01*
X155501583Y-87055565D01*
X155466685Y-86925323D01*
X155440411Y-86879816D01*
X155436538Y-86873107D01*
X155436538Y-86873106D01*
X155387632Y-86788398D01*
X155387629Y-86788394D01*
X155387628Y-86788392D01*
X155275824Y-86676588D01*
X155275823Y-86676587D01*
X155271493Y-86672257D01*
X155271482Y-86672247D01*
X153987590Y-85388355D01*
X153987588Y-85388352D01*
X153868717Y-85269481D01*
X153868716Y-85269480D01*
X153777474Y-85216802D01*
X153777473Y-85216801D01*
X153744026Y-85197491D01*
X153731785Y-85190423D01*
X153731784Y-85190422D01*
X153731783Y-85190422D01*
X153675881Y-85175443D01*
X153579057Y-85149499D01*
X153420943Y-85149499D01*
X153413347Y-85149499D01*
X153413331Y-85149500D01*
X152786670Y-85149500D01*
X152786654Y-85149499D01*
X152779058Y-85149499D01*
X152620943Y-85149499D01*
X152468215Y-85190423D01*
X152332762Y-85268627D01*
X152331281Y-85269482D01*
X151617584Y-85983181D01*
X151556261Y-86016666D01*
X151529903Y-86019500D01*
X149551327Y-86019500D01*
X149484288Y-85999815D01*
X149460016Y-85977903D01*
X149459694Y-85978226D01*
X149327216Y-85845748D01*
X149174477Y-85749775D01*
X149004208Y-85690195D01*
X149004203Y-85690194D01*
X148824958Y-85669999D01*
X148824950Y-85669999D01*
X148645704Y-85690194D01*
X148645699Y-85690195D01*
X148475430Y-85749775D01*
X148322691Y-85845748D01*
X148195138Y-85973301D01*
X148099165Y-86126040D01*
X148039585Y-86296309D01*
X148039584Y-86296314D01*
X148019389Y-86475560D01*
X148019389Y-86475567D01*
X148039584Y-86654813D01*
X148039587Y-86654826D01*
X148099163Y-86825084D01*
X148101955Y-86829527D01*
X148120951Y-86896764D01*
X148101957Y-86961458D01*
X148095989Y-86970956D01*
X148036413Y-87141214D01*
X148036410Y-87141227D01*
X148016215Y-87320473D01*
X148016215Y-87320480D01*
X148036410Y-87499726D01*
X148036411Y-87499731D01*
X148095991Y-87670000D01*
X148188300Y-87816908D01*
X148207300Y-87884145D01*
X148186932Y-87950980D01*
X148170988Y-87970561D01*
X148036286Y-88105263D01*
X147978368Y-88163181D01*
X147917045Y-88196666D01*
X147890687Y-88199500D01*
X146862290Y-88199500D01*
X146795251Y-88179815D01*
X146757297Y-88141473D01*
X146729817Y-88097739D01*
X146602262Y-87970184D01*
X146449523Y-87874211D01*
X146279254Y-87814631D01*
X146279249Y-87814630D01*
X146100004Y-87794435D01*
X146099996Y-87794435D01*
X145920750Y-87814630D01*
X145920745Y-87814631D01*
X145750474Y-87874212D01*
X145740968Y-87880185D01*
X145673731Y-87899183D01*
X145609032Y-87880185D01*
X145599525Y-87874212D01*
X145429254Y-87814631D01*
X145429249Y-87814630D01*
X145250004Y-87794435D01*
X145249996Y-87794435D01*
X145070750Y-87814630D01*
X145070745Y-87814631D01*
X144900476Y-87874211D01*
X144747737Y-87970184D01*
X144620184Y-88097737D01*
X144524211Y-88250476D01*
X144464631Y-88420745D01*
X144464630Y-88420750D01*
X144444435Y-88599996D01*
X144444435Y-88600003D01*
X144457118Y-88712573D01*
X144445063Y-88781395D01*
X144397714Y-88832774D01*
X144330104Y-88850398D01*
X144263698Y-88828671D01*
X144246217Y-88814137D01*
X144152262Y-88720182D01*
X143999523Y-88624209D01*
X143829254Y-88564629D01*
X143829249Y-88564628D01*
X143650004Y-88544433D01*
X143649996Y-88544433D01*
X143470750Y-88564628D01*
X143470745Y-88564629D01*
X143300476Y-88624209D01*
X143147737Y-88720182D01*
X143020184Y-88847735D01*
X142924211Y-89000474D01*
X142864631Y-89170743D01*
X142864630Y-89170748D01*
X142844435Y-89349994D01*
X120157765Y-89349994D01*
X120161966Y-89319163D01*
X120163015Y-89312739D01*
X120170658Y-89272565D01*
X120194843Y-89145443D01*
X120196292Y-89138820D01*
X120236945Y-88974838D01*
X120238842Y-88968034D01*
X120288458Y-88807926D01*
X120290851Y-88800952D01*
X120321351Y-88720034D01*
X120328149Y-88706716D01*
X120327842Y-88706567D01*
X120331396Y-88699250D01*
X120331397Y-88699249D01*
X120347300Y-88651461D01*
X120348899Y-88646952D01*
X120356096Y-88627859D01*
X120379244Y-88567239D01*
X120379244Y-88567235D01*
X120379250Y-88567221D01*
X120379403Y-88566569D01*
X120379507Y-88566129D01*
X120379735Y-88565169D01*
X120379737Y-88565142D01*
X120379739Y-88565139D01*
X120379944Y-88563061D01*
X120385686Y-88536120D01*
X120386182Y-88534632D01*
X120456588Y-88323074D01*
X120461913Y-88309716D01*
X120599130Y-88016235D01*
X120711615Y-87779392D01*
X120717855Y-87767870D01*
X120721838Y-87761359D01*
X120721845Y-87761351D01*
X120745439Y-87708261D01*
X120746715Y-87705487D01*
X120771613Y-87653065D01*
X120771614Y-87653057D01*
X120773959Y-87645800D01*
X120778637Y-87633564D01*
X120884203Y-87396039D01*
X120894839Y-87376880D01*
X120963653Y-87275283D01*
X120963808Y-87275057D01*
X121042192Y-87160907D01*
X121042521Y-87160429D01*
X121121609Y-87046871D01*
X121121774Y-87046635D01*
X121161841Y-86989932D01*
X121171051Y-86979686D01*
X121170518Y-86979220D01*
X121175859Y-86973102D01*
X121175864Y-86973098D01*
X121202518Y-86933019D01*
X121206575Y-86927280D01*
X121226919Y-86900168D01*
X121235482Y-86888757D01*
X121235484Y-86888750D01*
X121236856Y-86886314D01*
X121239191Y-86881265D01*
X121240825Y-86878159D01*
X121240828Y-86878155D01*
X121240829Y-86878150D01*
X121244617Y-86870952D01*
X121245371Y-86871349D01*
X121251149Y-86859896D01*
X121341629Y-86723850D01*
X121361681Y-86700573D01*
X121411008Y-86655938D01*
X121411889Y-86655150D01*
X121478875Y-86596012D01*
X121479553Y-86595420D01*
X121547610Y-86536623D01*
X121548228Y-86536094D01*
X121565223Y-86521682D01*
X121577752Y-86513277D01*
X121577538Y-86512971D01*
X121584199Y-86508322D01*
X121584201Y-86508319D01*
X121584205Y-86508318D01*
X121624410Y-86471593D01*
X121627755Y-86468649D01*
X121669289Y-86433427D01*
X121669295Y-86433418D01*
X121674750Y-86427403D01*
X121675028Y-86427655D01*
X121684952Y-86416294D01*
X121757537Y-86349996D01*
X142654435Y-86349996D01*
X142654435Y-86350003D01*
X142674630Y-86529249D01*
X142674631Y-86529254D01*
X142734211Y-86699523D01*
X142815899Y-86829527D01*
X142830184Y-86852262D01*
X142957738Y-86979816D01*
X143035435Y-87028636D01*
X143107697Y-87074042D01*
X143110478Y-87075789D01*
X143280745Y-87135368D01*
X143280750Y-87135369D01*
X143459996Y-87155565D01*
X143460000Y-87155565D01*
X143460004Y-87155565D01*
X143639249Y-87135369D01*
X143639252Y-87135368D01*
X143639255Y-87135368D01*
X143809522Y-87075789D01*
X143962262Y-86979816D01*
X144089816Y-86852262D01*
X144185789Y-86699522D01*
X144245368Y-86529255D01*
X144245928Y-86524284D01*
X144265565Y-86350003D01*
X144265565Y-86349996D01*
X144634435Y-86349996D01*
X144634435Y-86350003D01*
X144654630Y-86529249D01*
X144654631Y-86529254D01*
X144714211Y-86699523D01*
X144795899Y-86829527D01*
X144810184Y-86852262D01*
X144937738Y-86979816D01*
X145015435Y-87028636D01*
X145087697Y-87074042D01*
X145090478Y-87075789D01*
X145260745Y-87135368D01*
X145260750Y-87135369D01*
X145439996Y-87155565D01*
X145440000Y-87155565D01*
X145440004Y-87155565D01*
X145619249Y-87135369D01*
X145619252Y-87135368D01*
X145619255Y-87135368D01*
X145789522Y-87075789D01*
X145942262Y-86979816D01*
X146069816Y-86852262D01*
X146165789Y-86699522D01*
X146225368Y-86529255D01*
X146225928Y-86524284D01*
X146245565Y-86350003D01*
X146245565Y-86349996D01*
X146225369Y-86170750D01*
X146225368Y-86170745D01*
X146165789Y-86000478D01*
X146165372Y-85999815D01*
X146125502Y-85936361D01*
X146069816Y-85847738D01*
X145942262Y-85720184D01*
X145939709Y-85718580D01*
X145789523Y-85624211D01*
X145619254Y-85564631D01*
X145619249Y-85564630D01*
X145440004Y-85544435D01*
X145439996Y-85544435D01*
X145260750Y-85564630D01*
X145260745Y-85564631D01*
X145090476Y-85624211D01*
X144937737Y-85720184D01*
X144810184Y-85847737D01*
X144714211Y-86000476D01*
X144654631Y-86170745D01*
X144654630Y-86170750D01*
X144634435Y-86349996D01*
X144265565Y-86349996D01*
X144245369Y-86170750D01*
X144245368Y-86170745D01*
X144185789Y-86000478D01*
X144185372Y-85999815D01*
X144145502Y-85936361D01*
X144089816Y-85847738D01*
X143962262Y-85720184D01*
X143959709Y-85718580D01*
X143809523Y-85624211D01*
X143639254Y-85564631D01*
X143639249Y-85564630D01*
X143460004Y-85544435D01*
X143459996Y-85544435D01*
X143280750Y-85564630D01*
X143280745Y-85564631D01*
X143110476Y-85624211D01*
X142957737Y-85720184D01*
X142830184Y-85847737D01*
X142734211Y-86000476D01*
X142674631Y-86170745D01*
X142674630Y-86170750D01*
X142654435Y-86349996D01*
X121757537Y-86349996D01*
X121760186Y-86347576D01*
X121765130Y-86343295D01*
X121880552Y-86248549D01*
X121882931Y-86246646D01*
X122002284Y-86153629D01*
X122004603Y-86151866D01*
X122126162Y-86061788D01*
X122128447Y-86060136D01*
X122252185Y-85972814D01*
X122254347Y-85971324D01*
X122380133Y-85886649D01*
X122382276Y-85885240D01*
X122440575Y-85847738D01*
X122510144Y-85802986D01*
X122512142Y-85801728D01*
X122642047Y-85721728D01*
X122643884Y-85720620D01*
X122709878Y-85681635D01*
X122720589Y-85676116D01*
X122721436Y-85675597D01*
X122721442Y-85675596D01*
X122758079Y-85653177D01*
X122759619Y-85652252D01*
X122773278Y-85644183D01*
X122775984Y-85642633D01*
X122826402Y-85614623D01*
X122826410Y-85614614D01*
X122831797Y-85610621D01*
X122837023Y-85606527D01*
X122837028Y-85606525D01*
X122837031Y-85606521D01*
X122841026Y-85603393D01*
X122852751Y-85595252D01*
X122940392Y-85541627D01*
X122952258Y-85535229D01*
X122955341Y-85533776D01*
X122955346Y-85533776D01*
X122959490Y-85531824D01*
X122972784Y-85527349D01*
X122972580Y-85526773D01*
X122980237Y-85524058D01*
X122980245Y-85524057D01*
X122988523Y-85519836D01*
X123009325Y-85511886D01*
X123012372Y-85510634D01*
X123012382Y-85510632D01*
X123027626Y-85501891D01*
X123048213Y-85492471D01*
X123056376Y-85489605D01*
X123064218Y-85484244D01*
X123081363Y-85474431D01*
X123084509Y-85472950D01*
X123084514Y-85472946D01*
X123088107Y-85470638D01*
X123103181Y-85462388D01*
X123103297Y-85462315D01*
X123103308Y-85462310D01*
X123103317Y-85462302D01*
X123104248Y-85461717D01*
X123104637Y-85461423D01*
X123105733Y-85460437D01*
X123109513Y-85457167D01*
X123109885Y-85456858D01*
X123127441Y-85444669D01*
X123134446Y-85440654D01*
X123134450Y-85440649D01*
X123134675Y-85440521D01*
X123137375Y-85438733D01*
X123142516Y-85434828D01*
X123142515Y-85434828D01*
X123142518Y-85434827D01*
X123142584Y-85434762D01*
X123152059Y-85426292D01*
X123157526Y-85421887D01*
X123157529Y-85421886D01*
X123157531Y-85421883D01*
X123163874Y-85416774D01*
X123164228Y-85417214D01*
X123168801Y-85413328D01*
X123174200Y-85408492D01*
X123190991Y-85392818D01*
X123191214Y-85392652D01*
X123191216Y-85392648D01*
X123191219Y-85392647D01*
X123194934Y-85389033D01*
X123202431Y-85381356D01*
X123207281Y-85376127D01*
X123207282Y-85376124D01*
X123207287Y-85376121D01*
X123214011Y-85366638D01*
X123227895Y-85350274D01*
X123238222Y-85340049D01*
X123238225Y-85340043D01*
X123243209Y-85333614D01*
X123243695Y-85333991D01*
X123244133Y-85333409D01*
X123243684Y-85333081D01*
X123248476Y-85326519D01*
X123248475Y-85326519D01*
X123248479Y-85326516D01*
X123252968Y-85318295D01*
X123257983Y-85309917D01*
X123261761Y-85304135D01*
X123262406Y-85304556D01*
X123268289Y-85295027D01*
X123274459Y-85287214D01*
X123275836Y-85284014D01*
X123280085Y-85275135D01*
X123283520Y-85268632D01*
X123283524Y-85268627D01*
X123285210Y-85264077D01*
X123294580Y-85244342D01*
X123306735Y-85223668D01*
X123306736Y-85223661D01*
X123309871Y-85216260D01*
X123312713Y-85208903D01*
X123312717Y-85208897D01*
X123312718Y-85208889D01*
X123312760Y-85208783D01*
X123313118Y-85207310D01*
X123313121Y-85207306D01*
X123314449Y-85201848D01*
X123321594Y-85181750D01*
X123322588Y-85178679D01*
X123322592Y-85178673D01*
X123322593Y-85178665D01*
X123325084Y-85170979D01*
X123325585Y-85169648D01*
X123326567Y-85166174D01*
X123326566Y-85166174D01*
X123326569Y-85166170D01*
X123329539Y-85145789D01*
X123332260Y-85134918D01*
X123331960Y-85134853D01*
X123333693Y-85126892D01*
X123333696Y-85126886D01*
X123333696Y-85126879D01*
X123333753Y-85126620D01*
X123335388Y-85119994D01*
X123342371Y-85094732D01*
X123342371Y-85094728D01*
X123343446Y-85087032D01*
X123344287Y-85079264D01*
X123344288Y-85079261D01*
X123344210Y-85075904D01*
X123346238Y-85050537D01*
X123346508Y-85049078D01*
X123346508Y-85049073D01*
X123346561Y-85048041D01*
X123346286Y-85037128D01*
X123346324Y-85035774D01*
X123346326Y-85035767D01*
X123344750Y-85020398D01*
X123344539Y-84997400D01*
X123344591Y-84996774D01*
X123344693Y-84995562D01*
X123344691Y-84995553D01*
X123344316Y-84987627D01*
X123343305Y-84975779D01*
X123343406Y-84962951D01*
X123343404Y-84962943D01*
X123342408Y-84954884D01*
X123343032Y-84954806D01*
X123342866Y-84953619D01*
X123342458Y-84953683D01*
X123341211Y-84945651D01*
X123341211Y-84945645D01*
X123340792Y-84944216D01*
X123336185Y-84919181D01*
X123336068Y-84917710D01*
X123335184Y-84913568D01*
X123334281Y-84910509D01*
X123332896Y-84904672D01*
X123328314Y-84892642D01*
X123322157Y-84870487D01*
X123321324Y-84865862D01*
X123319310Y-84861585D01*
X123311471Y-84839908D01*
X123310300Y-84835396D01*
X123307700Y-84828979D01*
X123304679Y-84820298D01*
X123304161Y-84819124D01*
X123296966Y-84803696D01*
X123296911Y-84803724D01*
X123295399Y-84800650D01*
X123294021Y-84797384D01*
X123292656Y-84794456D01*
X123292484Y-84793948D01*
X123291338Y-84791703D01*
X123291337Y-84791700D01*
X123291334Y-84791696D01*
X123288712Y-84786559D01*
X123285989Y-84781512D01*
X123284619Y-84779616D01*
X123280463Y-84773865D01*
X123268659Y-84753796D01*
X123265562Y-84747176D01*
X123265561Y-84747175D01*
X123265540Y-84747129D01*
X123265082Y-84746419D01*
X123265081Y-84746415D01*
X123259946Y-84740341D01*
X123246641Y-84721213D01*
X123243118Y-84714968D01*
X123238237Y-84708475D01*
X123238279Y-84708443D01*
X123234658Y-84703828D01*
X123234520Y-84703942D01*
X123224224Y-84691369D01*
X123224264Y-84691335D01*
X123217282Y-84683357D01*
X123213358Y-84679471D01*
X123212060Y-84678023D01*
X123210411Y-84675976D01*
X123205289Y-84670552D01*
X123197876Y-84663672D01*
X123194168Y-84659813D01*
X123188963Y-84655112D01*
X123186301Y-84652400D01*
X123180284Y-84645780D01*
X123180162Y-84645668D01*
X123180160Y-84645666D01*
X123180157Y-84645664D01*
X123180155Y-84645662D01*
X123173817Y-84641236D01*
X123156269Y-84626381D01*
X123150065Y-84620053D01*
X123150064Y-84620052D01*
X123150063Y-84620051D01*
X123150060Y-84620049D01*
X123143661Y-84615037D01*
X123143770Y-84614896D01*
X123138856Y-84611209D01*
X123138838Y-84611235D01*
X123137788Y-84610480D01*
X123136947Y-84609777D01*
X123130978Y-84605299D01*
X123127582Y-84602111D01*
X123126175Y-84601068D01*
X123126173Y-84601066D01*
X123125836Y-84600879D01*
X123118279Y-84595616D01*
X123117988Y-84596064D01*
X123108764Y-84590046D01*
X123103477Y-84586155D01*
X123099323Y-84583552D01*
X123093927Y-84579723D01*
X123092626Y-84578937D01*
X123087605Y-84575475D01*
X123086721Y-84574954D01*
X123081795Y-84571628D01*
X123078067Y-84569473D01*
X123050132Y-84557886D01*
X123037412Y-84551738D01*
X123015711Y-84539679D01*
X123010982Y-84537051D01*
X123010977Y-84537049D01*
X123010971Y-84537047D01*
X122991883Y-84532265D01*
X122974517Y-84526524D01*
X122956342Y-84518986D01*
X122956330Y-84518983D01*
X122926360Y-84515023D01*
X122912483Y-84512377D01*
X122883153Y-84505031D01*
X122883142Y-84505030D01*
X122878470Y-84505107D01*
X122811118Y-84486520D01*
X122795671Y-84475207D01*
X122675093Y-84371686D01*
X122650123Y-84350248D01*
X122648754Y-84349055D01*
X122602829Y-84308433D01*
X122602227Y-84308027D01*
X122601749Y-84307662D01*
X122600505Y-84306850D01*
X122598983Y-84305839D01*
X122597738Y-84304999D01*
X122597207Y-84304695D01*
X122596606Y-84304303D01*
X122541381Y-84277787D01*
X122539734Y-84276981D01*
X122406383Y-84210511D01*
X122372001Y-84185149D01*
X122364660Y-84177458D01*
X122327755Y-84138792D01*
X122323849Y-84134502D01*
X122265466Y-84067263D01*
X122261728Y-84062745D01*
X122208016Y-83994605D01*
X122204482Y-83989895D01*
X122155170Y-83920790D01*
X122151860Y-83915908D01*
X122131870Y-83884850D01*
X122106814Y-83845922D01*
X122103747Y-83840897D01*
X122062761Y-83769982D01*
X122059934Y-83764809D01*
X122022870Y-83692978D01*
X122020302Y-83687698D01*
X121987024Y-83614947D01*
X121984726Y-83609595D01*
X121955121Y-83535908D01*
X121953108Y-83530537D01*
X121927062Y-83455862D01*
X121925327Y-83450498D01*
X121902776Y-83374874D01*
X121901302Y-83369490D01*
X121882180Y-83292911D01*
X121880974Y-83287578D01*
X121879562Y-83280627D01*
X121865246Y-83210135D01*
X121864291Y-83204844D01*
X121861726Y-83188624D01*
X121852922Y-83132958D01*
X121851946Y-83125194D01*
X121836433Y-82959412D01*
X121835904Y-82949318D01*
X121834053Y-82787693D01*
X121834322Y-82778011D01*
X121845284Y-82614575D01*
X121846253Y-82605335D01*
X121869779Y-82441007D01*
X121871365Y-82432217D01*
X121907116Y-82268150D01*
X121909253Y-82259762D01*
X121956816Y-82097095D01*
X121959440Y-82089136D01*
X122018319Y-81929055D01*
X122021402Y-81921462D01*
X122090971Y-81765270D01*
X122094510Y-81757981D01*
X122175751Y-81603732D01*
X122179000Y-81597950D01*
X122244624Y-81488171D01*
X122247363Y-81483801D01*
X122319910Y-81373320D01*
X122322806Y-81369105D01*
X122400206Y-81261386D01*
X122403290Y-81257278D01*
X122485320Y-81152672D01*
X122488598Y-81148669D01*
X122574990Y-81047564D01*
X122578468Y-81043666D01*
X122668957Y-80946415D01*
X122672647Y-80942615D01*
X122673305Y-80941966D01*
X122767009Y-80849512D01*
X122770886Y-80845848D01*
X122868867Y-80757205D01*
X122872949Y-80753671D01*
X122974306Y-80669769D01*
X122978566Y-80666400D01*
X123082979Y-80587574D01*
X123087532Y-80584298D01*
X123194680Y-80510849D01*
X123199502Y-80507707D01*
X123309150Y-80439863D01*
X123314233Y-80436884D01*
X123426149Y-80374861D01*
X123431549Y-80372041D01*
X123438181Y-80368782D01*
X123545439Y-80316074D01*
X123551063Y-80313484D01*
X123666757Y-80263739D01*
X123672731Y-80261354D01*
X123789699Y-80218130D01*
X123796070Y-80215970D01*
X123842818Y-80201528D01*
X123843553Y-80201065D01*
X123866603Y-80189711D01*
X123867418Y-80189410D01*
X123907381Y-80161132D01*
X123912947Y-80157417D01*
X123954371Y-80131364D01*
X123954956Y-80130732D01*
X123974293Y-80113789D01*
X123974997Y-80113292D01*
X124006273Y-80075643D01*
X124010685Y-80070616D01*
X124043964Y-80034719D01*
X124044369Y-80033950D01*
X124058655Y-80012591D01*
X124059209Y-80011925D01*
X124079679Y-79967455D01*
X124082650Y-79961439D01*
X124085306Y-79956410D01*
X124105490Y-79918179D01*
X124105682Y-79917334D01*
X124113955Y-79892997D01*
X124114316Y-79892215D01*
X124122581Y-79843954D01*
X124123883Y-79837421D01*
X124134757Y-79789686D01*
X124134724Y-79788816D01*
X124136415Y-79763183D01*
X124136563Y-79762323D01*
X124132057Y-79713590D01*
X124131621Y-79706884D01*
X124131000Y-79690481D01*
X124129771Y-79657997D01*
X124129511Y-79657156D01*
X124124511Y-79631960D01*
X124124432Y-79631098D01*
X124107469Y-79585197D01*
X124105324Y-79578871D01*
X124090870Y-79532084D01*
X124090404Y-79531343D01*
X124079055Y-79508304D01*
X124078752Y-79507484D01*
X124050488Y-79467538D01*
X124046746Y-79461933D01*
X124043441Y-79456678D01*
X124020706Y-79420531D01*
X124020064Y-79419935D01*
X124003133Y-79400610D01*
X124002634Y-79399905D01*
X124002633Y-79399904D01*
X123964997Y-79368637D01*
X123959936Y-79364195D01*
X123924063Y-79330940D01*
X123924058Y-79330936D01*
X123923286Y-79330529D01*
X123901936Y-79316249D01*
X123901265Y-79315691D01*
X123856814Y-79295228D01*
X123850781Y-79292250D01*
X123837731Y-79285361D01*
X123826227Y-79279287D01*
X123816800Y-79273558D01*
X123759413Y-79244006D01*
X123758371Y-79243463D01*
X123702871Y-79214163D01*
X123702869Y-79214162D01*
X123699184Y-79212217D01*
X123695208Y-79210482D01*
X123648453Y-79186862D01*
X123647600Y-79186427D01*
X123586910Y-79155176D01*
X123583358Y-79153659D01*
X123536113Y-79130110D01*
X123535518Y-79129812D01*
X123474131Y-79098801D01*
X123468643Y-79096483D01*
X123466538Y-79095434D01*
X123457215Y-79090786D01*
X123428913Y-79076680D01*
X123419956Y-79071744D01*
X123237168Y-78960955D01*
X123235892Y-78960172D01*
X123049032Y-78843807D01*
X123047954Y-78843127D01*
X122731455Y-78641487D01*
X122721595Y-78633460D01*
X122721110Y-78634076D01*
X122717465Y-78631203D01*
X122713285Y-78627488D01*
X122710059Y-78625013D01*
X122710056Y-78625010D01*
X122686926Y-78611656D01*
X122664780Y-78598869D01*
X122660158Y-78596063D01*
X122616101Y-78567995D01*
X122608735Y-78564560D01*
X122608966Y-78564062D01*
X122599262Y-78559837D01*
X122595287Y-78557586D01*
X122582011Y-78550069D01*
X122579787Y-78548778D01*
X122565459Y-78540255D01*
X122556554Y-78534426D01*
X122553971Y-78532572D01*
X122553969Y-78532570D01*
X122553965Y-78532568D01*
X122553964Y-78532567D01*
X122542046Y-78526183D01*
X122537212Y-78523452D01*
X122528891Y-78518503D01*
X122527792Y-78518031D01*
X122518209Y-78513415D01*
X122502377Y-78504936D01*
X122499818Y-78503527D01*
X122487096Y-78496323D01*
X122478378Y-78490898D01*
X122475063Y-78488639D01*
X122468514Y-78485336D01*
X122463648Y-78482882D01*
X122458401Y-78480075D01*
X122448846Y-78474664D01*
X122446076Y-78473544D01*
X122436746Y-78469314D01*
X122432431Y-78467138D01*
X122423062Y-78462413D01*
X122420385Y-78461021D01*
X122408350Y-78454575D01*
X122399621Y-78449430D01*
X122396223Y-78447235D01*
X122385279Y-78442048D01*
X122379850Y-78439310D01*
X122373982Y-78436167D01*
X122369076Y-78433540D01*
X122369069Y-78433538D01*
X122365214Y-78432083D01*
X122355900Y-78428125D01*
X122343611Y-78422301D01*
X122340877Y-78420964D01*
X122328544Y-78414744D01*
X122319535Y-78409720D01*
X122316892Y-78408098D01*
X122306438Y-78403437D01*
X122301101Y-78400903D01*
X122288891Y-78394745D01*
X122284736Y-78393293D01*
X122275160Y-78389492D01*
X122263299Y-78384204D01*
X122260686Y-78383003D01*
X122247198Y-78376610D01*
X122237684Y-78371584D01*
X122236389Y-78370826D01*
X122226352Y-78366599D01*
X122221375Y-78364373D01*
X122207702Y-78357892D01*
X122204227Y-78356773D01*
X122194129Y-78353027D01*
X122181609Y-78347754D01*
X122179244Y-78346729D01*
X122163692Y-78339795D01*
X122154227Y-78335039D01*
X122144609Y-78331186D01*
X122140239Y-78329338D01*
X122132111Y-78325714D01*
X122125019Y-78322553D01*
X122125018Y-78322552D01*
X122125014Y-78322551D01*
X122122932Y-78321933D01*
X122112112Y-78318169D01*
X122097853Y-78312457D01*
X122095835Y-78311627D01*
X122032728Y-78285049D01*
X122033088Y-78284194D01*
X122004108Y-78270418D01*
X121924388Y-78213549D01*
X121913971Y-78204135D01*
X121913571Y-78204593D01*
X121907460Y-78199242D01*
X121871608Y-78175324D01*
X121860787Y-78168104D01*
X121857616Y-78165917D01*
X121840179Y-78153478D01*
X121833147Y-78148071D01*
X121830734Y-78146074D01*
X121826083Y-78143156D01*
X121819987Y-78139074D01*
X121815953Y-78136197D01*
X121811902Y-78133307D01*
X121811899Y-78133305D01*
X121805867Y-78130098D01*
X121798184Y-78125652D01*
X121782309Y-78115691D01*
X121779400Y-78113809D01*
X121763990Y-78103528D01*
X121756263Y-78097932D01*
X121753775Y-78095980D01*
X121753771Y-78095976D01*
X121746834Y-78091869D01*
X121741234Y-78088347D01*
X121731866Y-78082098D01*
X121731859Y-78082095D01*
X121727020Y-78079713D01*
X121718624Y-78075170D01*
X121703993Y-78066508D01*
X121701291Y-78064861D01*
X121686522Y-78055594D01*
X121678149Y-78049849D01*
X121676503Y-78048617D01*
X121668722Y-78044251D01*
X121663513Y-78041158D01*
X121652294Y-78034120D01*
X121648057Y-78032180D01*
X121639019Y-78027585D01*
X121625295Y-78019884D01*
X121622840Y-78018468D01*
X121608444Y-78009946D01*
X121599345Y-78004007D01*
X121598787Y-78003606D01*
X121590228Y-77999028D01*
X121585558Y-77996398D01*
X121572378Y-77988596D01*
X121569179Y-77987230D01*
X121559397Y-77982535D01*
X121555769Y-77980594D01*
X121546232Y-77975492D01*
X121544069Y-77974307D01*
X121529598Y-77966187D01*
X121520920Y-77960767D01*
X121511358Y-77955856D01*
X121507329Y-77953692D01*
X121492051Y-77945120D01*
X121490222Y-77944388D01*
X121479638Y-77939566D01*
X121466515Y-77932827D01*
X121464667Y-77931858D01*
X121449842Y-77923927D01*
X121442701Y-77919632D01*
X121431914Y-77914273D01*
X121428594Y-77912561D01*
X121411190Y-77903250D01*
X121410954Y-77903162D01*
X121399526Y-77898185D01*
X121386036Y-77891484D01*
X121384555Y-77890736D01*
X121368893Y-77882693D01*
X121363517Y-77879557D01*
X121351924Y-77873942D01*
X121349331Y-77872648D01*
X121328707Y-77862056D01*
X121318771Y-77857887D01*
X121317139Y-77857096D01*
X121304417Y-77850935D01*
X121303348Y-77850411D01*
X121245364Y-77821608D01*
X121235344Y-77817483D01*
X121224326Y-77812146D01*
X121223593Y-77811788D01*
X121123692Y-77762583D01*
X121121356Y-77761402D01*
X121027507Y-77712690D01*
X121025162Y-77711441D01*
X120933065Y-77661105D01*
X120930736Y-77659799D01*
X120840069Y-77607678D01*
X120837779Y-77606329D01*
X120748091Y-77552181D01*
X120745860Y-77550802D01*
X120656782Y-77494418D01*
X120654626Y-77493021D01*
X120565902Y-77434252D01*
X120563838Y-77432855D01*
X120503195Y-77390908D01*
X120490664Y-77380988D01*
X120471691Y-77363868D01*
X120449989Y-77352780D01*
X120435879Y-77344347D01*
X120415833Y-77330482D01*
X120415830Y-77330481D01*
X120415829Y-77330480D01*
X120398589Y-77324317D01*
X120391865Y-77321913D01*
X120374812Y-77313257D01*
X120374601Y-77313678D01*
X120367334Y-77310031D01*
X120351080Y-77301875D01*
X120310405Y-77281463D01*
X120309605Y-77281058D01*
X120268975Y-77260300D01*
X120267820Y-77259626D01*
X120263097Y-77257286D01*
X120261735Y-77256601D01*
X120248577Y-77249879D01*
X120245335Y-77248507D01*
X120205305Y-77228722D01*
X120204634Y-77228388D01*
X120142726Y-77197323D01*
X120139785Y-77196099D01*
X120100069Y-77176708D01*
X120099730Y-77176542D01*
X120037515Y-77145792D01*
X120032544Y-77143742D01*
X120006370Y-77130963D01*
X120001457Y-77128427D01*
X119949986Y-77100378D01*
X119949812Y-77100313D01*
X119935997Y-77094098D01*
X119645374Y-76941370D01*
X119643920Y-76940593D01*
X119472327Y-76847486D01*
X119471279Y-76846911D01*
X119299506Y-76751551D01*
X119298404Y-76750932D01*
X119127725Y-76653891D01*
X119126570Y-76653226D01*
X118956905Y-76554333D01*
X118955700Y-76553622D01*
X118787044Y-76452750D01*
X118785795Y-76451993D01*
X118675507Y-76384255D01*
X118661185Y-76375459D01*
X118643888Y-76362640D01*
X118635310Y-76355045D01*
X118635308Y-76355044D01*
X118635306Y-76355042D01*
X118600919Y-76337881D01*
X118591393Y-76332592D01*
X118558659Y-76312487D01*
X118558650Y-76312483D01*
X118547669Y-76309217D01*
X118527648Y-76301314D01*
X118316040Y-76195710D01*
X118296943Y-76183908D01*
X118222438Y-76127949D01*
X118210198Y-76117444D01*
X118204206Y-76111583D01*
X118192192Y-76099831D01*
X118170637Y-76087702D01*
X118156982Y-76078786D01*
X118137212Y-76063937D01*
X118137210Y-76063935D01*
X118115406Y-76055166D01*
X118101380Y-76048475D01*
X118060590Y-76025774D01*
X118060081Y-76025489D01*
X118049010Y-76019259D01*
X118044530Y-76016371D01*
X118018651Y-76002168D01*
X118017505Y-76001531D01*
X117999469Y-75991382D01*
X117996058Y-75989768D01*
X117984592Y-75983476D01*
X117983947Y-75983119D01*
X117924178Y-75949856D01*
X117918285Y-75947085D01*
X117910851Y-75943005D01*
X117868899Y-75919981D01*
X117855691Y-75911607D01*
X117837691Y-75898533D01*
X117837592Y-75898455D01*
X117833579Y-75895546D01*
X117830064Y-75893640D01*
X117829477Y-75893278D01*
X117828790Y-75892923D01*
X117828583Y-75892813D01*
X117828554Y-75892800D01*
X117818388Y-75887540D01*
X117812627Y-75884741D01*
X117811896Y-75884332D01*
X117809650Y-75883280D01*
X117808061Y-75882523D01*
X117807485Y-75882243D01*
X117807131Y-75882102D01*
X117806412Y-75881765D01*
X117806410Y-75881764D01*
X117806406Y-75881763D01*
X117799061Y-75878324D01*
X117799063Y-75878317D01*
X117791907Y-75875235D01*
X117791905Y-75875234D01*
X117791902Y-75875233D01*
X117784441Y-75872020D01*
X117784472Y-75871946D01*
X117771575Y-75865799D01*
X117604580Y-75772598D01*
X117603417Y-75771940D01*
X117376935Y-75642079D01*
X117375987Y-75641528D01*
X117150946Y-75509395D01*
X117149987Y-75508827D01*
X116946491Y-75386872D01*
X116926942Y-75375156D01*
X116925822Y-75374477D01*
X116921453Y-75371794D01*
X116478921Y-75100020D01*
X116477871Y-75099368D01*
X116094612Y-74858705D01*
X116091547Y-74856496D01*
X116054159Y-74833196D01*
X116031302Y-74818951D01*
X116031060Y-74818799D01*
X115971342Y-74781299D01*
X115968008Y-74779505D01*
X115884670Y-74727569D01*
X115873894Y-74719930D01*
X115820255Y-74687415D01*
X115819012Y-74686651D01*
X115766309Y-74653806D01*
X115766308Y-74653805D01*
X115765739Y-74653451D01*
X115754054Y-74647283D01*
X115670957Y-74596908D01*
X115659673Y-74589122D01*
X115605959Y-74557495D01*
X115604595Y-74556680D01*
X115554844Y-74526521D01*
X115551700Y-74524615D01*
X115551699Y-74524614D01*
X115551350Y-74524403D01*
X115539141Y-74518152D01*
X115456177Y-74469302D01*
X115444426Y-74461419D01*
X115390630Y-74430696D01*
X115389267Y-74429906D01*
X115336005Y-74398546D01*
X115336003Y-74398545D01*
X115335843Y-74398451D01*
X115323158Y-74392164D01*
X115240028Y-74344691D01*
X115227854Y-74336758D01*
X115227846Y-74336752D01*
X115173881Y-74306903D01*
X115172498Y-74306126D01*
X115118924Y-74275531D01*
X115118917Y-74275527D01*
X115118899Y-74275520D01*
X115105809Y-74269250D01*
X115022190Y-74223000D01*
X115009932Y-74215251D01*
X115009759Y-74215126D01*
X114955505Y-74186100D01*
X114953985Y-74185274D01*
X114925151Y-74169326D01*
X114900147Y-74155496D01*
X114900144Y-74155495D01*
X114900142Y-74155494D01*
X114899929Y-74155410D01*
X114886796Y-74149342D01*
X114802342Y-74104159D01*
X114790019Y-74096611D01*
X114789712Y-74096397D01*
X114735136Y-74068190D01*
X114733577Y-74067370D01*
X114679371Y-74038370D01*
X114679013Y-74038236D01*
X114665809Y-74032360D01*
X114661645Y-74030208D01*
X114580216Y-73988122D01*
X114567810Y-73980766D01*
X114567386Y-73980480D01*
X114512426Y-73953072D01*
X114510832Y-73952263D01*
X114492820Y-73942954D01*
X114456325Y-73924092D01*
X114456324Y-73924091D01*
X114456319Y-73924089D01*
X114455833Y-73923914D01*
X114442578Y-73918241D01*
X114301294Y-73847787D01*
X114299665Y-73846960D01*
X114299476Y-73846862D01*
X114298776Y-73846499D01*
X114295572Y-73844782D01*
X114245632Y-73817058D01*
X114239960Y-73814886D01*
X114234096Y-73812243D01*
X114224100Y-73807848D01*
X114199467Y-73795100D01*
X114198004Y-73794330D01*
X114138305Y-73762419D01*
X114136989Y-73761706D01*
X114100141Y-73741434D01*
X114089927Y-73734990D01*
X114033836Y-73704947D01*
X114032632Y-73704293D01*
X114029568Y-73702608D01*
X114018906Y-73695982D01*
X113996498Y-73684370D01*
X113993789Y-73682923D01*
X113976766Y-73673559D01*
X113967830Y-73669514D01*
X113966996Y-73669082D01*
X113963900Y-73667478D01*
X113962474Y-73666726D01*
X113941672Y-73655584D01*
X113930254Y-73649468D01*
X113927835Y-73648001D01*
X113923413Y-73645765D01*
X113920836Y-73644424D01*
X113906244Y-73636609D01*
X113898844Y-73633355D01*
X113868030Y-73617788D01*
X113867000Y-73617262D01*
X113844039Y-73605363D01*
X113811322Y-73588408D01*
X113811320Y-73588407D01*
X113804106Y-73584669D01*
X113804252Y-73584386D01*
X113799242Y-73581844D01*
X113798990Y-73582352D01*
X113734634Y-73550397D01*
X113733870Y-73550015D01*
X113673691Y-73519615D01*
X113666701Y-73516668D01*
X113604141Y-73485606D01*
X113584196Y-73473222D01*
X113579023Y-73469285D01*
X113538891Y-73452849D01*
X113530745Y-73449164D01*
X113491512Y-73429685D01*
X113473441Y-73417410D01*
X113473141Y-73417848D01*
X113467773Y-73414164D01*
X113464622Y-73411420D01*
X113463735Y-73410818D01*
X113460386Y-73407806D01*
X113460423Y-73407764D01*
X113457079Y-73404853D01*
X113456707Y-73405295D01*
X113444279Y-73394820D01*
X113444379Y-73394701D01*
X113442329Y-73393022D01*
X113441823Y-73393657D01*
X113435473Y-73388585D01*
X113430412Y-73385530D01*
X113418999Y-73377741D01*
X113416051Y-73375479D01*
X113416048Y-73375476D01*
X113416043Y-73375473D01*
X113409088Y-73371456D01*
X113399029Y-73364815D01*
X113395869Y-73363037D01*
X113383994Y-73355437D01*
X113368832Y-73344469D01*
X113362374Y-73340981D01*
X113356159Y-73337184D01*
X113354029Y-73336100D01*
X113354027Y-73336099D01*
X113354024Y-73336098D01*
X113346781Y-73332413D01*
X113347041Y-73331900D01*
X113338417Y-73327683D01*
X113327420Y-73322525D01*
X113327771Y-73321774D01*
X113315837Y-73316370D01*
X113310936Y-73313412D01*
X113307525Y-73311921D01*
X113295206Y-73305695D01*
X113288309Y-73301713D01*
X113288307Y-73301712D01*
X113287205Y-73301076D01*
X113276373Y-73295808D01*
X113263691Y-73288673D01*
X113259033Y-73286427D01*
X113248445Y-73280412D01*
X113235965Y-73273322D01*
X113233857Y-73272096D01*
X113185910Y-73243589D01*
X113183348Y-73242024D01*
X113139758Y-73214658D01*
X113136782Y-73212729D01*
X113097839Y-73186682D01*
X113094395Y-73184293D01*
X113060073Y-73159614D01*
X113056189Y-73156704D01*
X113026575Y-73133600D01*
X113022293Y-73130103D01*
X112997264Y-73108715D01*
X112992642Y-73104561D01*
X112972018Y-73085067D01*
X112967160Y-73080213D01*
X112950509Y-73062622D01*
X112945513Y-73057010D01*
X112932381Y-73041324D01*
X112927369Y-73034922D01*
X112927119Y-73034580D01*
X112917111Y-73020893D01*
X112912261Y-73013751D01*
X112901128Y-72996059D01*
X112901073Y-72995970D01*
X112897650Y-72990189D01*
X112896920Y-72988876D01*
X112894755Y-72984806D01*
X112891590Y-72978579D01*
X112889577Y-72974428D01*
X112886646Y-72968088D01*
X112884769Y-72963819D01*
X112883262Y-72960208D01*
X112881992Y-72957164D01*
X112880291Y-72952863D01*
X112877632Y-72945752D01*
X112876091Y-72941377D01*
X112873563Y-72933753D01*
X112872189Y-72929336D01*
X112869743Y-72920920D01*
X112868563Y-72916565D01*
X112866851Y-72909744D01*
X112865638Y-72904408D01*
X112865101Y-72901778D01*
X112863996Y-72895539D01*
X112863836Y-72894479D01*
X112863073Y-72888415D01*
X112862841Y-72886102D01*
X112862394Y-72880229D01*
X112862221Y-72876916D01*
X112862055Y-72871240D01*
X112862028Y-72867001D01*
X112862114Y-72861529D01*
X112862307Y-72856470D01*
X112862626Y-72851163D01*
X112863085Y-72845553D01*
X112863615Y-72840418D01*
X112864358Y-72834450D01*
X112865092Y-72829418D01*
X112866107Y-72823331D01*
X112867046Y-72818332D01*
X112868308Y-72812299D01*
X112869435Y-72807415D01*
X112870896Y-72801625D01*
X112872210Y-72796826D01*
X112873765Y-72791569D01*
X112875283Y-72786795D01*
X112876841Y-72782226D01*
X112878572Y-72777471D01*
X112879968Y-72773874D01*
X112881956Y-72769055D01*
X112882972Y-72766733D01*
X112885239Y-72761852D01*
X112886587Y-72759106D01*
X112888767Y-72754872D01*
X112891679Y-72749478D01*
X112893615Y-72746028D01*
X112897513Y-72739333D01*
X112899551Y-72735957D01*
X112903570Y-72729533D01*
X112905634Y-72726343D01*
X112909887Y-72719994D01*
X112911980Y-72716970D01*
X112916462Y-72710701D01*
X112918574Y-72707836D01*
X112923401Y-72701490D01*
X112925492Y-72698821D01*
X112930706Y-72692358D01*
X112932774Y-72689866D01*
X112938430Y-72683239D01*
X112940485Y-72680895D01*
X112946638Y-72674060D01*
X112948626Y-72671906D01*
X112955266Y-72664890D01*
X112957312Y-72662780D01*
X112964562Y-72655476D01*
X112966486Y-72653579D01*
X112974448Y-72645908D01*
X112976171Y-72644281D01*
X112984908Y-72636205D01*
X112986548Y-72634717D01*
X112994171Y-72627936D01*
X112996484Y-72625931D01*
X113016932Y-72608655D01*
X113020751Y-72605558D01*
X113072729Y-72565152D01*
X113077482Y-72561639D01*
X113089027Y-72553522D01*
X113130419Y-72524423D01*
X113134870Y-72521438D01*
X113191543Y-72485188D01*
X113195622Y-72482690D01*
X113255829Y-72447450D01*
X113259581Y-72445342D01*
X113322871Y-72411244D01*
X113326256Y-72409488D01*
X113392414Y-72376485D01*
X113395302Y-72375094D01*
X113463953Y-72343187D01*
X113466505Y-72342038D01*
X113534772Y-72312279D01*
X113537899Y-72310968D01*
X113687195Y-72250937D01*
X113690093Y-72249816D01*
X113840534Y-72193934D01*
X113841493Y-72193582D01*
X114069298Y-72111430D01*
X114084825Y-72107698D01*
X114084779Y-72107522D01*
X114092637Y-72105459D01*
X114092639Y-72105459D01*
X114092640Y-72105458D01*
X114092642Y-72105458D01*
X114141673Y-72085444D01*
X114146469Y-72083601D01*
X114172093Y-72074359D01*
X114196270Y-72065641D01*
X114196275Y-72065636D01*
X114203492Y-72061908D01*
X114203576Y-72062071D01*
X114217597Y-72054451D01*
X114425908Y-71969420D01*
X114438717Y-71964992D01*
X114443689Y-71963571D01*
X114443692Y-71963571D01*
X114443694Y-71963569D01*
X114448913Y-71962079D01*
X114456515Y-71959692D01*
X114456522Y-71959691D01*
X114456528Y-71959688D01*
X114461545Y-71958113D01*
X114461580Y-71958100D01*
X114468956Y-71955576D01*
X114468967Y-71955574D01*
X114468976Y-71955569D01*
X114473861Y-71953898D01*
X114474637Y-71953565D01*
X114485872Y-71949428D01*
X114486558Y-71949057D01*
X114486563Y-71949056D01*
X114512045Y-71935284D01*
X114526134Y-71928775D01*
X114709410Y-71857686D01*
X114711390Y-71856939D01*
X114925674Y-71778363D01*
X114927798Y-71777608D01*
X115142441Y-71703628D01*
X115144730Y-71702865D01*
X115360266Y-71633474D01*
X115362738Y-71632708D01*
X115579399Y-71568008D01*
X115581956Y-71567274D01*
X115800541Y-71507192D01*
X115803168Y-71506503D01*
X116023762Y-71451188D01*
X116026489Y-71450537D01*
X116250495Y-71399812D01*
X116252932Y-71399287D01*
X116357170Y-71377974D01*
X116359940Y-71377441D01*
X116463462Y-71358792D01*
X116466291Y-71358317D01*
X116569498Y-71342293D01*
X116572426Y-71341876D01*
X116675274Y-71328527D01*
X116678404Y-71328162D01*
X116780796Y-71317543D01*
X116784009Y-71317252D01*
X116886204Y-71309379D01*
X116889452Y-71309173D01*
X116991231Y-71304111D01*
X116994606Y-71303990D01*
X117096757Y-71301763D01*
X117099966Y-71301736D01*
X117183437Y-71302108D01*
G37*
%TD.AperFunction*%
%TA.AperFunction,Conductor*%
G36*
X172539024Y-82330471D02*
G01*
X172590133Y-82257482D01*
X172617341Y-82199135D01*
X172663513Y-82146696D01*
X172730707Y-82127543D01*
X172797588Y-82147758D01*
X172842105Y-82199132D01*
X172869432Y-82257734D01*
X172869433Y-82257735D01*
X172999954Y-82444141D01*
X173160858Y-82605045D01*
X173160861Y-82605047D01*
X173347266Y-82735568D01*
X173389039Y-82755047D01*
X173405275Y-82762618D01*
X173457714Y-82808791D01*
X173476866Y-82875984D01*
X173456650Y-82942865D01*
X173405275Y-82987381D01*
X173405118Y-82987455D01*
X173347267Y-83014431D01*
X173347265Y-83014432D01*
X173160862Y-83144951D01*
X173011814Y-83293999D01*
X172950491Y-83327483D01*
X172880799Y-83322499D01*
X172824866Y-83280627D01*
X172807917Y-83244369D01*
X172806802Y-83244785D01*
X172753797Y-83102671D01*
X172753793Y-83102664D01*
X172667547Y-82987455D01*
X172667544Y-82987452D01*
X172552335Y-82901206D01*
X172552328Y-82901202D01*
X172417482Y-82850908D01*
X172417483Y-82850908D01*
X172357883Y-82844501D01*
X172357881Y-82844500D01*
X172357873Y-82844500D01*
X172357865Y-82844500D01*
X172306755Y-82844500D01*
X172239716Y-82824815D01*
X172193961Y-82772011D01*
X172183227Y-82709694D01*
X172185472Y-82684025D01*
X171589408Y-82087961D01*
X171652992Y-82070924D01*
X171767006Y-82005098D01*
X171860098Y-81912006D01*
X171925924Y-81797992D01*
X171942961Y-81734408D01*
X172539024Y-82330471D01*
G37*
%TD.AperFunction*%
%TA.AperFunction,Conductor*%
G36*
X173320207Y-80226250D02*
G01*
X173387240Y-80245957D01*
X173432978Y-80298776D01*
X173442898Y-80367938D01*
X173413852Y-80431484D01*
X173372573Y-80462630D01*
X173350734Y-80472815D01*
X173347264Y-80474433D01*
X173160858Y-80604954D01*
X172999954Y-80765858D01*
X172869432Y-80952265D01*
X172869428Y-80952272D01*
X172842105Y-81010866D01*
X172795932Y-81063305D01*
X172728738Y-81082456D01*
X172661858Y-81062239D01*
X172617342Y-81010864D01*
X172590136Y-80952521D01*
X172590132Y-80952513D01*
X172539025Y-80879526D01*
X171942961Y-81475590D01*
X171925924Y-81412008D01*
X171860098Y-81297994D01*
X171767006Y-81204902D01*
X171652992Y-81139076D01*
X171589407Y-81122038D01*
X172185472Y-80525974D01*
X172112479Y-80474864D01*
X172085402Y-80462237D01*
X172032964Y-80416064D01*
X172013813Y-80348870D01*
X172034030Y-80281989D01*
X172087196Y-80236656D01*
X172137845Y-80225856D01*
X173320207Y-80226250D01*
G37*
%TD.AperFunction*%
%TD*%
M02*
