%TF.GenerationSoftware,KiCad,Pcbnew,8.0.7*%
%TF.CreationDate,2025-10-19T18:35:44+02:00*%
%TF.ProjectId,ctc_2025,6374635f-3230-4323-952e-6b696361645f,rev?*%
%TF.SameCoordinates,Original*%
%TF.FileFunction,Other,Comment*%
%FSLAX46Y46*%
G04 Gerber Fmt 4.6, Leading zero omitted, Abs format (unit mm)*
G04 Created by KiCad (PCBNEW 8.0.7) date 2025-10-19 18:35:44*
%MOMM*%
%LPD*%
G01*
G04 APERTURE LIST*
%ADD10C,0.250000*%
%ADD11C,0.300000*%
%ADD12C,0.150000*%
G04 APERTURE END LIST*
D10*
%TO.C,SW5*%
X177447500Y-111700000D02*
G75*
G02*
X177207500Y-111700000I-120000J0D01*
G01*
X177207500Y-111700000D02*
G75*
G02*
X177447500Y-111700000I120000J0D01*
G01*
X177447500Y-113400000D02*
G75*
G02*
X177207500Y-113400000I-120000J0D01*
G01*
X177207500Y-113400000D02*
G75*
G02*
X177447500Y-113400000I120000J0D01*
G01*
D11*
%TO.C,LED1*%
X155215000Y-119362500D02*
G75*
G02*
X154915000Y-119362500I-150000J0D01*
G01*
X154915000Y-119362500D02*
G75*
G02*
X155215000Y-119362500I150000J0D01*
G01*
D10*
%TO.C,SW3*%
X177447500Y-88800000D02*
G75*
G02*
X177207500Y-88800000I-120000J0D01*
G01*
X177207500Y-88800000D02*
G75*
G02*
X177447500Y-88800000I120000J0D01*
G01*
X177447500Y-90500000D02*
G75*
G02*
X177207500Y-90500000I-120000J0D01*
G01*
X177207500Y-90500000D02*
G75*
G02*
X177447500Y-90500000I120000J0D01*
G01*
D11*
%TO.C,U2*%
X164340000Y-94950000D02*
G75*
G02*
X164040000Y-94950000I-150000J0D01*
G01*
X164040000Y-94950000D02*
G75*
G02*
X164340000Y-94950000I150000J0D01*
G01*
D10*
%TO.C,U1*%
X142670000Y-114200208D02*
G75*
G02*
X142410000Y-114200208I-130000J0D01*
G01*
X142410000Y-114200208D02*
G75*
G02*
X142670000Y-114200208I130000J0D01*
G01*
D11*
%TO.C,LED2*%
X175675000Y-119362500D02*
G75*
G02*
X175375000Y-119362500I-150000J0D01*
G01*
X175375000Y-119362500D02*
G75*
G02*
X175675000Y-119362500I150000J0D01*
G01*
D10*
%TO.C,SW4*%
X177447500Y-100250000D02*
G75*
G02*
X177207500Y-100250000I-120000J0D01*
G01*
X177207500Y-100250000D02*
G75*
G02*
X177447500Y-100250000I120000J0D01*
G01*
X177447500Y-101950000D02*
G75*
G02*
X177207500Y-101950000I-120000J0D01*
G01*
X177207500Y-101950000D02*
G75*
G02*
X177447500Y-101950000I120000J0D01*
G01*
D11*
%TO.C,FPC1*%
X151800000Y-107850000D02*
G75*
G02*
X151500000Y-107850000I-150000J0D01*
G01*
X151500000Y-107850000D02*
G75*
G02*
X151800000Y-107850000I150000J0D01*
G01*
D12*
%TO.C,U4*%
X158097500Y-90240000D02*
G75*
G02*
X157957500Y-90240000I-70000J0D01*
G01*
X157957500Y-90240000D02*
G75*
G02*
X158097500Y-90240000I70000J0D01*
G01*
D10*
%TO.C,J1*%
X124465000Y-115250000D02*
G75*
G02*
X124225000Y-115250000I-120000J0D01*
G01*
X124225000Y-115250000D02*
G75*
G02*
X124465000Y-115250000I120000J0D01*
G01*
X130245000Y-115250000D02*
G75*
G02*
X130005000Y-115250000I-120000J0D01*
G01*
X130005000Y-115250000D02*
G75*
G02*
X130245000Y-115250000I120000J0D01*
G01*
%TD*%
M02*
