%TF.GenerationSoftware,KiCad,Pcbnew,8.0.7*%
%TF.CreationDate,2025-10-19T18:35:44+02:00*%
%TF.ProjectId,ctc_2025,6374635f-3230-4323-952e-6b696361645f,rev?*%
%TF.SameCoordinates,Original*%
%TF.FileFunction,Soldermask,Bot*%
%TF.FilePolarity,Negative*%
%FSLAX46Y46*%
G04 Gerber Fmt 4.6, Leading zero omitted, Abs format (unit mm)*
G04 Created by KiCad (PCBNEW 8.0.7) date 2025-10-19 18:35:44*
%MOMM*%
%LPD*%
G01*
G04 APERTURE LIST*
G04 Aperture macros list*
%AMRoundRect*
0 Rectangle with rounded corners*
0 $1 Rounding radius*
0 $2 $3 $4 $5 $6 $7 $8 $9 X,Y pos of 4 corners*
0 Add a 4 corners polygon primitive as box body*
4,1,4,$2,$3,$4,$5,$6,$7,$8,$9,$2,$3,0*
0 Add four circle primitives for the rounded corners*
1,1,$1+$1,$2,$3*
1,1,$1+$1,$4,$5*
1,1,$1+$1,$6,$7*
1,1,$1+$1,$8,$9*
0 Add four rect primitives between the rounded corners*
20,1,$1+$1,$2,$3,$4,$5,0*
20,1,$1+$1,$4,$5,$6,$7,0*
20,1,$1+$1,$6,$7,$8,$9,0*
20,1,$1+$1,$8,$9,$2,$3,0*%
%AMFreePoly0*
4,1,6,0.725000,-0.725000,-0.125000,-0.725000,-0.725000,-0.125000,-0.725000,0.725000,0.725000,0.725000,0.725000,-0.725000,0.725000,-0.725000,$1*%
G04 Aperture macros list end*
%ADD10R,1.700000X1.600000*%
%ADD11C,1.600000*%
%ADD12RoundRect,0.140000X0.170000X-0.140000X0.170000X0.140000X-0.170000X0.140000X-0.170000X-0.140000X0*%
%ADD13C,1.450000*%
%ADD14C,1.150000*%
%ADD15RoundRect,0.102000X0.800000X2.000000X-0.800000X2.000000X-0.800000X-2.000000X0.800000X-2.000000X0*%
%ADD16RoundRect,0.250000X0.475000X-0.250000X0.475000X0.250000X-0.475000X0.250000X-0.475000X-0.250000X0*%
%ADD17RoundRect,0.140000X-0.140000X-0.170000X0.140000X-0.170000X0.140000X0.170000X-0.140000X0.170000X0*%
%ADD18RoundRect,0.135000X0.185000X-0.135000X0.185000X0.135000X-0.185000X0.135000X-0.185000X-0.135000X0*%
%ADD19C,0.700000*%
%ADD20R,0.800000X0.900000*%
%ADD21R,1.200000X0.600000*%
%ADD22R,0.420000X1.300000*%
%ADD23RoundRect,0.140000X0.140000X0.170000X-0.140000X0.170000X-0.140000X-0.170000X0.140000X-0.170000X0*%
%ADD24RoundRect,0.135000X-0.185000X0.135000X-0.185000X-0.135000X0.185000X-0.135000X0.185000X0.135000X0*%
%ADD25R,0.400000X0.600000*%
%ADD26RoundRect,0.250000X-0.250000X-0.475000X0.250000X-0.475000X0.250000X0.475000X-0.250000X0.475000X0*%
%ADD27O,0.630000X1.860000*%
%ADD28RoundRect,0.135000X-0.135000X-0.185000X0.135000X-0.185000X0.135000X0.185000X-0.135000X0.185000X0*%
%ADD29R,0.800000X0.400000*%
%ADD30R,0.400000X0.800000*%
%ADD31R,1.450000X1.450000*%
%ADD32FreePoly0,180.000000*%
%ADD33R,0.700000X0.700000*%
%ADD34R,1.500000X3.320000*%
%ADD35RoundRect,0.225000X0.225000X0.375000X-0.225000X0.375000X-0.225000X-0.375000X0.225000X-0.375000X0*%
%ADD36R,1.100000X0.620000*%
%ADD37RoundRect,0.225000X-0.225000X-0.375000X0.225000X-0.375000X0.225000X0.375000X-0.225000X0.375000X0*%
%ADD38RoundRect,0.250000X-0.475000X0.250000X-0.475000X-0.250000X0.475000X-0.250000X0.475000X0.250000X0*%
%ADD39RoundRect,0.150000X-0.587500X-0.150000X0.587500X-0.150000X0.587500X0.150000X-0.587500X0.150000X0*%
%ADD40RoundRect,0.140000X-0.170000X0.140000X-0.170000X-0.140000X0.170000X-0.140000X0.170000X0.140000X0*%
%ADD41R,1.500000X0.300000*%
%ADD42R,2.000000X1.800000*%
%ADD43R,1.200000X0.650000*%
%ADD44R,0.660000X0.280000*%
%ADD45R,0.280000X0.660000*%
%ADD46R,2.550000X2.550000*%
%ADD47RoundRect,0.150000X0.512500X0.150000X-0.512500X0.150000X-0.512500X-0.150000X0.512500X-0.150000X0*%
%ADD48RoundRect,0.225000X0.250000X-0.225000X0.250000X0.225000X-0.250000X0.225000X-0.250000X-0.225000X0*%
%ADD49RoundRect,0.135000X0.135000X0.185000X-0.135000X0.185000X-0.135000X-0.185000X0.135000X-0.185000X0*%
%ADD50C,0.650000*%
%ADD51R,0.500000X1.150000*%
%ADD52R,0.260000X1.150000*%
%ADD53R,2.020000X1.500000*%
G04 APERTURE END LIST*
D10*
%TO.C,H1*%
X171460000Y-84145000D03*
D11*
X171460000Y-81605000D03*
X174000000Y-84145000D03*
X174000000Y-81605000D03*
X176540000Y-84145000D03*
X176540000Y-81605000D03*
%TD*%
D12*
%TO.C,C3*%
X146800000Y-114130000D03*
X146800000Y-113170000D03*
%TD*%
D13*
%TO.C,J2*%
X170775000Y-119400000D03*
D14*
X157275000Y-119400000D03*
D15*
X168525000Y-115050000D03*
X165525000Y-115050000D03*
X162525000Y-115050000D03*
X159525000Y-115050000D03*
%TD*%
D16*
%TO.C,C22*%
X165120000Y-104610000D03*
X165120000Y-102710000D03*
%TD*%
D17*
%TO.C,C6*%
X165300000Y-89840000D03*
X166260000Y-89840000D03*
%TD*%
D18*
%TO.C,R11*%
X174270000Y-91215000D03*
X174270000Y-90195000D03*
%TD*%
D19*
%TO.C,SW5*%
X177327500Y-111700000D03*
X177327500Y-113400000D03*
D20*
X175927500Y-114250000D03*
X175927500Y-110850000D03*
D21*
X177927500Y-110250000D03*
X177927500Y-114850000D03*
%TD*%
D12*
%TO.C,C12*%
X174270000Y-111815000D03*
X174270000Y-110855000D03*
%TD*%
D22*
%TO.C,LED1*%
X155065000Y-119742500D03*
X154225000Y-119742500D03*
X153365000Y-119742500D03*
X152525000Y-119742500D03*
%TD*%
D23*
%TO.C,C20*%
X145420000Y-103995000D03*
X144460000Y-103995000D03*
%TD*%
D24*
%TO.C,R17*%
X147280000Y-117360000D03*
X147280000Y-118380000D03*
%TD*%
D19*
%TO.C,SW3*%
X177327500Y-88800000D03*
X177327500Y-90500000D03*
D20*
X175927500Y-91350000D03*
X175927500Y-87950000D03*
D21*
X177927500Y-87350000D03*
X177927500Y-91950000D03*
%TD*%
D12*
%TO.C,C4*%
X129640000Y-112780000D03*
X129640000Y-111820000D03*
%TD*%
D24*
%TO.C,R5*%
X153140000Y-83960000D03*
X153140000Y-84980000D03*
%TD*%
D12*
%TO.C,C10*%
X174270000Y-100365000D03*
X174270000Y-99405000D03*
%TD*%
%TO.C,C7*%
X151960000Y-82960000D03*
X151960000Y-82000000D03*
%TD*%
D25*
%TO.C,D1*%
X130820000Y-112780000D03*
X130820000Y-111280000D03*
%TD*%
D18*
%TO.C,R3*%
X128600000Y-112810000D03*
X128600000Y-111790000D03*
%TD*%
D24*
%TO.C,R2*%
X155370000Y-116910000D03*
X155370000Y-117930000D03*
%TD*%
D26*
%TO.C,C16*%
X153990000Y-98820000D03*
X155890000Y-98820000D03*
%TD*%
D27*
%TO.C,U2*%
X164190000Y-94230000D03*
X162910000Y-94230000D03*
X161650000Y-94230000D03*
X160380000Y-94230000D03*
X160380000Y-88870000D03*
X161650000Y-88870000D03*
X162910000Y-88870000D03*
X164190000Y-88870000D03*
%TD*%
D28*
%TO.C,R16*%
X153660000Y-96910000D03*
X154680000Y-96910000D03*
%TD*%
D23*
%TO.C,C21*%
X145420000Y-102900000D03*
X144460000Y-102900000D03*
%TD*%
D12*
%TO.C,C9*%
X174270000Y-88910000D03*
X174270000Y-87950000D03*
%TD*%
D29*
%TO.C,U3*%
X150350000Y-81350000D03*
X150350000Y-82150000D03*
X150350000Y-82950000D03*
X150350000Y-83750000D03*
X150350000Y-84550000D03*
X150350000Y-85350000D03*
X150350000Y-86150000D03*
X150350000Y-86950000D03*
X150350000Y-87750000D03*
X150350000Y-88550000D03*
X150350000Y-89350000D03*
D30*
X149250000Y-90250000D03*
X148450000Y-90250000D03*
X147650000Y-90250000D03*
X146850000Y-90250000D03*
X146050000Y-90250000D03*
X145250000Y-90250000D03*
X144450000Y-90250000D03*
X143650000Y-90250000D03*
X142850000Y-90250000D03*
X142050000Y-90250000D03*
X141250000Y-90250000D03*
X140450000Y-90250000D03*
X139650000Y-90250000D03*
D29*
X138550000Y-89350000D03*
X138550000Y-88550000D03*
X138550000Y-87750000D03*
X138550000Y-86950000D03*
X138550000Y-86150000D03*
X138550000Y-85350000D03*
X138550000Y-84550000D03*
X138550000Y-83750000D03*
X138550000Y-82950000D03*
X138550000Y-82150000D03*
X138550000Y-81350000D03*
D30*
X139650000Y-80450000D03*
X140450000Y-80450000D03*
X141250000Y-80450000D03*
X142050000Y-80450000D03*
X142850000Y-80450000D03*
X143650000Y-80450000D03*
X144450000Y-80450000D03*
X145250000Y-80450000D03*
X146050000Y-80450000D03*
X146850000Y-80450000D03*
X147650000Y-80450000D03*
X148450000Y-80450000D03*
X149250000Y-80450000D03*
D31*
X146425000Y-87325000D03*
X146425000Y-85350000D03*
D32*
X146425000Y-83375000D03*
D31*
X144450000Y-87325000D03*
X144450000Y-85350000D03*
X144450000Y-83375000D03*
X142475000Y-87325000D03*
X142475000Y-85350000D03*
X142475000Y-83375000D03*
D33*
X138500000Y-80400000D03*
X138500000Y-90300000D03*
X150400000Y-90300000D03*
X150400000Y-80400000D03*
%TD*%
D28*
%TO.C,R8*%
X135800000Y-85530000D03*
X136820000Y-85530000D03*
%TD*%
D34*
%TO.C,L1*%
X160307500Y-103675000D03*
X162967500Y-103675000D03*
%TD*%
D28*
%TO.C,R1*%
X153320000Y-116890000D03*
X154340000Y-116890000D03*
%TD*%
D35*
%TO.C,D3*%
X162280000Y-108975000D03*
X158980000Y-108975000D03*
%TD*%
D36*
%TO.C,U1*%
X142640000Y-114130208D03*
X142640000Y-113180208D03*
X142640000Y-112230208D03*
X145240000Y-112230208D03*
X145240000Y-114130208D03*
%TD*%
D18*
%TO.C,R12*%
X174270000Y-102795000D03*
X174270000Y-101775000D03*
%TD*%
D37*
%TO.C,D4*%
X153942500Y-106400000D03*
X157242500Y-106400000D03*
%TD*%
D35*
%TO.C,D2*%
X157200000Y-108980000D03*
X153900000Y-108980000D03*
%TD*%
D17*
%TO.C,C11*%
X155450000Y-87930000D03*
X156410000Y-87930000D03*
%TD*%
D38*
%TO.C,C17*%
X152030000Y-111160000D03*
X152030000Y-113060000D03*
%TD*%
D18*
%TO.C,R4*%
X125500000Y-112660000D03*
X125500000Y-111640000D03*
%TD*%
D22*
%TO.C,LED2*%
X175525000Y-119742500D03*
X174685000Y-119742500D03*
X173825000Y-119742500D03*
X172985000Y-119742500D03*
%TD*%
D18*
%TO.C,R9*%
X151960000Y-84980000D03*
X151960000Y-83960000D03*
%TD*%
D38*
%TO.C,C24*%
X149920000Y-111150000D03*
X149920000Y-113050000D03*
%TD*%
D28*
%TO.C,R7*%
X135780000Y-84420000D03*
X136800000Y-84420000D03*
%TD*%
D39*
%TO.C,Q1*%
X149022500Y-118892500D03*
X149022500Y-116992500D03*
X150897500Y-117942500D03*
%TD*%
D19*
%TO.C,SW4*%
X177327500Y-100250000D03*
X177327500Y-101950000D03*
D20*
X175927500Y-102800000D03*
X175927500Y-99400000D03*
D21*
X177927500Y-98800000D03*
X177927500Y-103400000D03*
%TD*%
D26*
%TO.C,C18*%
X153992500Y-104030000D03*
X155892500Y-104030000D03*
%TD*%
D40*
%TO.C,C13*%
X152550000Y-108750000D03*
X152550000Y-109710000D03*
%TD*%
D26*
%TO.C,C15*%
X153990000Y-100900000D03*
X155890000Y-100900000D03*
%TD*%
D28*
%TO.C,R14*%
X153665000Y-102460000D03*
X154685000Y-102460000D03*
%TD*%
D41*
%TO.C,FPC1*%
X151430000Y-95900000D03*
X151430000Y-96400000D03*
X151430000Y-96900000D03*
X151430000Y-97400000D03*
X151430000Y-97900000D03*
X151430000Y-98400000D03*
X151430000Y-98900000D03*
X151430000Y-99400000D03*
X151430000Y-99900000D03*
X151430000Y-100400000D03*
X151430000Y-100900000D03*
X151430000Y-101400000D03*
X151430000Y-101900000D03*
X151430000Y-102400000D03*
X151430000Y-102900000D03*
X151430000Y-103400000D03*
X151430000Y-103900000D03*
X151430000Y-104400000D03*
X151430000Y-104900000D03*
X151430000Y-105400000D03*
X151430000Y-105900000D03*
X151430000Y-106400000D03*
X151430000Y-106900000D03*
X151420000Y-107400000D03*
D42*
X148270000Y-109050000D03*
X148270000Y-94250000D03*
%TD*%
D43*
%TO.C,SW2*%
X160690000Y-82780000D03*
X156390000Y-82780000D03*
X160690000Y-84940000D03*
X156390000Y-84940000D03*
%TD*%
D28*
%TO.C,R15*%
X153660000Y-95510000D03*
X154680000Y-95510000D03*
%TD*%
D44*
%TO.C,U4*%
X157977500Y-90240000D03*
X157977500Y-90740000D03*
X157977500Y-91240000D03*
X157977500Y-91740000D03*
X157977500Y-92240000D03*
X157977500Y-92740000D03*
D45*
X157317500Y-93400000D03*
X156817500Y-93400000D03*
X156317500Y-93400000D03*
X155817500Y-93400000D03*
X155317500Y-93400000D03*
X154817500Y-93400000D03*
D44*
X154157500Y-92740000D03*
X154157500Y-92240000D03*
X154157500Y-91740000D03*
X154157500Y-91240000D03*
X154157500Y-90740000D03*
X154157500Y-90240000D03*
D45*
X154817500Y-89580000D03*
X155317500Y-89580000D03*
X155817500Y-89580000D03*
X156317500Y-89580000D03*
X156817500Y-89580000D03*
X157317500Y-89580000D03*
D46*
X156067500Y-91490000D03*
%TD*%
D38*
%TO.C,C14*%
X154140000Y-111160000D03*
X154140000Y-113060000D03*
%TD*%
D47*
%TO.C,Q2*%
X161387500Y-98875000D03*
X161387500Y-100775000D03*
X159112500Y-99825000D03*
%TD*%
D48*
%TO.C,C8*%
X153400000Y-82695000D03*
X153400000Y-81145000D03*
%TD*%
D26*
%TO.C,C23*%
X160950000Y-106740000D03*
X162850000Y-106740000D03*
%TD*%
D18*
%TO.C,R13*%
X174270000Y-114170000D03*
X174270000Y-113150000D03*
%TD*%
D17*
%TO.C,C5*%
X173720000Y-117950000D03*
X174680000Y-117950000D03*
%TD*%
D49*
%TO.C,R6*%
X164060000Y-87050000D03*
X163040000Y-87050000D03*
%TD*%
D43*
%TO.C,SW1*%
X167140000Y-82780000D03*
X162840000Y-82780000D03*
X167140000Y-84940000D03*
X162840000Y-84940000D03*
%TD*%
D50*
%TO.C,J1*%
X130125000Y-115250000D03*
X124345000Y-115250000D03*
D51*
X130435000Y-114170000D03*
X129635000Y-114170000D03*
D52*
X128485000Y-114170000D03*
X127485000Y-114170000D03*
X126985000Y-114170000D03*
X125985000Y-114170000D03*
D51*
X124835000Y-114170000D03*
X124035000Y-114170000D03*
X124035000Y-114170000D03*
X124835000Y-114170000D03*
D52*
X125485000Y-114170000D03*
X126485000Y-114170000D03*
X127985000Y-114170000D03*
X128985000Y-114170000D03*
D51*
X129635000Y-114170000D03*
X130435000Y-114170000D03*
D53*
X132565000Y-118750000D03*
X132565000Y-114750000D03*
X121905000Y-118750000D03*
X121905000Y-114750000D03*
%TD*%
D17*
%TO.C,C2*%
X153345000Y-117950000D03*
X154305000Y-117950000D03*
%TD*%
D24*
%TO.C,R10*%
X143400000Y-93490000D03*
X143400000Y-94510000D03*
%TD*%
D23*
%TO.C,C19*%
X145410000Y-105090000D03*
X144450000Y-105090000D03*
%TD*%
D12*
%TO.C,C1*%
X141170000Y-114140000D03*
X141170000Y-113180000D03*
%TD*%
M02*
