%TF.GenerationSoftware,KiCad,Pcbnew,8.0.7*%
%TF.CreationDate,2025-10-19T18:35:44+02:00*%
%TF.ProjectId,ctc_2025,6374635f-3230-4323-952e-6b696361645f,rev?*%
%TF.SameCoordinates,Original*%
%TF.FileFunction,Profile,NP*%
%FSLAX46Y46*%
G04 Gerber Fmt 4.6, Leading zero omitted, Abs format (unit mm)*
G04 Created by KiCad (PCBNEW 8.0.7) date 2025-10-19 18:35:44*
%MOMM*%
%LPD*%
G01*
G04 APERTURE LIST*
%TA.AperFunction,Profile*%
%ADD10C,0.047250*%
%TD*%
%TA.AperFunction,Profile*%
%ADD11C,0.050000*%
%TD*%
G04 APERTURE END LIST*
D10*
X117193248Y-70801648D02*
X117292504Y-70804516D01*
X117391751Y-70809843D01*
X117490953Y-70817667D01*
X117590072Y-70828024D01*
X117689072Y-70840951D01*
X117787917Y-70856483D01*
X117886569Y-70874657D01*
X117984993Y-70895510D01*
X118083151Y-70919077D01*
X118181007Y-70945396D01*
X118278525Y-70974502D01*
X118375667Y-71006432D01*
X118472397Y-71041223D01*
X118568679Y-71078910D01*
X118643253Y-71110531D01*
X118957481Y-71218749D01*
X118961457Y-71220149D01*
X118965432Y-71221602D01*
X118969401Y-71223104D01*
X118973359Y-71224648D01*
X118981228Y-71227845D01*
X118989003Y-71231151D01*
X119053822Y-71259906D01*
X119117204Y-71289309D01*
X119240075Y-71350061D01*
X119358458Y-71413408D01*
X119473192Y-71479352D01*
X119585119Y-71547893D01*
X119695079Y-71619031D01*
X119803913Y-71692767D01*
X119912461Y-71769103D01*
X119910910Y-71767552D01*
X120011887Y-71837612D01*
X120114035Y-71905572D01*
X120217386Y-71971471D01*
X120321968Y-72035348D01*
X120427814Y-72097240D01*
X120534953Y-72157187D01*
X120643417Y-72215227D01*
X120753236Y-72271397D01*
X120828396Y-72310254D01*
X120900860Y-72350114D01*
X120970928Y-72390821D01*
X121038900Y-72432220D01*
X121105076Y-72474155D01*
X121169758Y-72516468D01*
X121295840Y-72601610D01*
X121669339Y-72841588D01*
X122043597Y-73080650D01*
X122044356Y-73081148D01*
X122045152Y-73081680D01*
X122046699Y-73082717D01*
X122173722Y-73165853D01*
X122300000Y-73250000D01*
X122425589Y-73335125D01*
X122550545Y-73421198D01*
X122551061Y-73421198D01*
X122551578Y-73421714D01*
X122647308Y-73486952D01*
X122742847Y-73550239D01*
X122838223Y-73611275D01*
X122885859Y-73640856D01*
X122933465Y-73669761D01*
X123046611Y-73738719D01*
X123159195Y-73809859D01*
X123271059Y-73883645D01*
X123382044Y-73960540D01*
X123491993Y-74041008D01*
X123600746Y-74125511D01*
X123708145Y-74214515D01*
X123761287Y-74260849D01*
X123814032Y-74308482D01*
X123903986Y-74369024D01*
X123998391Y-74434038D01*
X124195062Y-74570301D01*
X124294584Y-74637958D01*
X124393067Y-74702907D01*
X124489139Y-74763350D01*
X124581427Y-74817494D01*
X124582869Y-74818281D01*
X124584276Y-74819034D01*
X124585680Y-74819793D01*
X124586391Y-74820186D01*
X124587112Y-74820596D01*
X124723179Y-74901187D01*
X124856810Y-74983514D01*
X124988297Y-75067738D01*
X125117930Y-75154017D01*
X125246000Y-75242512D01*
X125372797Y-75333380D01*
X125498614Y-75426783D01*
X125623740Y-75522879D01*
X125782685Y-75629659D01*
X125942068Y-75735269D01*
X125947566Y-75738909D01*
X125953035Y-75742600D01*
X125955750Y-75744474D01*
X125958446Y-75746372D01*
X125961122Y-75748298D01*
X125963772Y-75750256D01*
X126136372Y-75879446D01*
X126217589Y-75936141D01*
X126300027Y-75991824D01*
X126383680Y-76046707D01*
X126468546Y-76101006D01*
X126641898Y-76208705D01*
X126820050Y-76316630D01*
X126820290Y-76316777D01*
X126820525Y-76316929D01*
X126820755Y-76317086D01*
X126820981Y-76317247D01*
X126821424Y-76317578D01*
X126821862Y-76317915D01*
X126822299Y-76318254D01*
X126822741Y-76318586D01*
X126822967Y-76318749D01*
X126823196Y-76318908D01*
X126823429Y-76319062D01*
X126823668Y-76319212D01*
X126874354Y-76350760D01*
X126925650Y-76381594D01*
X126977086Y-76412298D01*
X127028197Y-76443457D01*
X127078513Y-76475653D01*
X127103228Y-76492323D01*
X127127569Y-76509472D01*
X127151478Y-76527172D01*
X127174896Y-76545497D01*
X127197765Y-76564519D01*
X127220026Y-76584312D01*
X128762571Y-77778989D01*
X131289542Y-79711770D01*
X177387735Y-79727104D01*
X177456596Y-79728966D01*
X177524557Y-79734265D01*
X177591534Y-79742918D01*
X177657441Y-79754838D01*
X177722195Y-79769942D01*
X177785712Y-79788142D01*
X177847908Y-79809356D01*
X177908697Y-79833496D01*
X177967997Y-79860480D01*
X178025723Y-79890220D01*
X178081791Y-79922632D01*
X178136117Y-79957632D01*
X178188616Y-79995133D01*
X178239205Y-80035051D01*
X178287799Y-80077301D01*
X178334314Y-80121798D01*
X178378665Y-80168456D01*
X178420770Y-80217191D01*
X178460543Y-80267916D01*
X178497900Y-80320548D01*
X178532758Y-80375002D01*
X178565032Y-80431191D01*
X178594637Y-80489031D01*
X178621491Y-80548437D01*
X178645508Y-80609324D01*
X178666604Y-80671606D01*
X178684695Y-80735199D01*
X178699698Y-80800017D01*
X178711528Y-80865976D01*
X178720100Y-80932989D01*
X178725331Y-81000973D01*
X178727136Y-81069842D01*
X178746759Y-120185907D01*
X178744891Y-120254764D01*
X178739575Y-120322717D01*
X178730899Y-120389682D01*
X178718947Y-120455575D01*
X178703804Y-120520311D01*
X178685558Y-120583807D01*
X178664293Y-120645979D01*
X178640095Y-120706742D01*
X178613050Y-120766012D01*
X178583244Y-120823706D01*
X178550762Y-120879740D01*
X178515690Y-120934028D01*
X178478115Y-120986488D01*
X178438120Y-121037035D01*
X178395793Y-121085584D01*
X178351219Y-121132053D01*
X178304484Y-121176357D01*
X178255673Y-121218412D01*
X178204873Y-121258133D01*
X178152168Y-121295437D01*
X178097645Y-121330240D01*
X178041389Y-121362457D01*
X177983487Y-121392005D01*
X177924023Y-121418800D01*
X177863084Y-121442756D01*
X177800755Y-121463791D01*
X177737122Y-121481821D01*
X177672271Y-121496760D01*
X177606287Y-121508526D01*
X177539257Y-121517034D01*
X177471265Y-121522199D01*
X177402398Y-121523939D01*
X115027479Y-121524767D01*
X114765481Y-121524767D01*
X114126007Y-121524699D01*
X113865171Y-121523561D01*
X113636974Y-121519581D01*
X113436442Y-121511179D01*
X113344997Y-121504826D01*
X113258605Y-121496775D01*
X113176642Y-121486828D01*
X113098489Y-121474788D01*
X113023522Y-121460458D01*
X112951122Y-121443640D01*
X112915217Y-121433620D01*
X112878960Y-121421722D01*
X112842548Y-121407995D01*
X112806180Y-121392486D01*
X112770052Y-121375245D01*
X112734365Y-121356319D01*
X112699314Y-121335756D01*
X112665099Y-121313605D01*
X112631918Y-121289914D01*
X112599967Y-121264731D01*
X112569446Y-121238104D01*
X112540553Y-121210082D01*
X112513484Y-121180713D01*
X112488439Y-121150045D01*
X112476737Y-121134239D01*
X112465614Y-121118126D01*
X112455097Y-121101713D01*
X112445210Y-121085005D01*
X112430244Y-121057601D01*
X112416777Y-121030867D01*
X112404714Y-121004771D01*
X112393957Y-120979285D01*
X112384410Y-120954376D01*
X112375975Y-120930014D01*
X112368555Y-120906170D01*
X112362055Y-120882813D01*
X112356377Y-120859913D01*
X112351425Y-120837438D01*
X112347101Y-120815359D01*
X112343308Y-120793645D01*
X112336932Y-120751191D01*
X112331521Y-120709833D01*
X112290180Y-120627150D01*
X112284252Y-120614784D01*
X112278721Y-120602227D01*
X112273589Y-120589496D01*
X112268859Y-120576608D01*
X112264533Y-120563577D01*
X112260614Y-120550420D01*
X112257105Y-120537154D01*
X112254007Y-120523794D01*
X112246315Y-120486190D01*
X112239505Y-120448498D01*
X112233612Y-120410753D01*
X112228672Y-120372989D01*
X112224723Y-120335238D01*
X112221801Y-120297535D01*
X112219943Y-120259914D01*
X112219184Y-120222408D01*
X112219563Y-120185050D01*
X112221114Y-120147876D01*
X112223875Y-120110917D01*
X112227883Y-120074209D01*
X112233173Y-120037785D01*
X112239783Y-120001678D01*
X112247749Y-119965922D01*
X112257107Y-119930551D01*
X112267030Y-119897836D01*
X112277759Y-119866055D01*
X112289248Y-119835148D01*
X112301450Y-119805054D01*
X112314318Y-119775715D01*
X112327807Y-119747070D01*
X112341869Y-119719059D01*
X112356458Y-119691623D01*
X112371527Y-119664701D01*
X112387030Y-119638234D01*
X112419151Y-119586422D01*
X112452449Y-119535710D01*
X112486551Y-119485617D01*
X112594554Y-119305265D01*
X112601006Y-119297323D01*
X112610390Y-119286458D01*
X112636108Y-119257854D01*
X112702403Y-119186426D01*
X112790925Y-119092874D01*
X112791954Y-119091323D01*
X112792467Y-119090550D01*
X112792991Y-119089769D01*
X112914431Y-118985899D01*
X112942261Y-118960652D01*
X112969703Y-118934741D01*
X113023691Y-118880897D01*
X113076930Y-118824308D01*
X113129953Y-118764912D01*
X113183296Y-118702651D01*
X113237491Y-118637463D01*
X113350580Y-118498072D01*
X113355866Y-118491639D01*
X113361267Y-118485311D01*
X113366781Y-118479090D01*
X113372406Y-118472976D01*
X113378143Y-118466973D01*
X113383990Y-118461081D01*
X113389945Y-118455303D01*
X113396008Y-118449639D01*
X113402177Y-118444092D01*
X113408451Y-118438664D01*
X113414830Y-118433356D01*
X113421312Y-118428169D01*
X113427896Y-118423106D01*
X113434580Y-118418168D01*
X113441365Y-118413357D01*
X113448248Y-118408674D01*
X113470395Y-118394001D01*
X113496148Y-118377531D01*
X113525349Y-118360007D01*
X113557837Y-118342173D01*
X113575265Y-118333371D01*
X113593454Y-118324770D01*
X113612386Y-118316462D01*
X113632041Y-118308542D01*
X113652397Y-118301101D01*
X113673436Y-118294232D01*
X113695138Y-118288029D01*
X113717483Y-118282583D01*
X113721090Y-118281824D01*
X113724562Y-118281176D01*
X113727916Y-118280625D01*
X113731166Y-118280159D01*
X113737415Y-118279426D01*
X113743431Y-118278874D01*
X113755254Y-118277893D01*
X113761304Y-118277255D01*
X113767609Y-118276380D01*
X113773115Y-118270401D01*
X113778732Y-118264511D01*
X113784458Y-118258717D01*
X113790290Y-118253026D01*
X113796226Y-118247445D01*
X113802263Y-118241979D01*
X113808400Y-118236635D01*
X113814634Y-118231420D01*
X113819177Y-118225360D01*
X113823821Y-118219383D01*
X113828566Y-118213492D01*
X113833409Y-118207687D01*
X113838351Y-118201969D01*
X113843390Y-118196340D01*
X113848525Y-118190800D01*
X113853754Y-118185350D01*
X113859077Y-118179991D01*
X113864493Y-118174725D01*
X113870000Y-118169553D01*
X113875597Y-118164474D01*
X113881283Y-118159491D01*
X113887058Y-118154604D01*
X113892920Y-118149815D01*
X113898867Y-118145124D01*
X114033225Y-118064508D01*
X114175335Y-117922399D01*
X114178823Y-117918953D01*
X114182347Y-117915555D01*
X114185909Y-117912204D01*
X114189507Y-117908895D01*
X114193143Y-117905628D01*
X114196817Y-117902399D01*
X114200527Y-117899205D01*
X114204275Y-117896044D01*
X114329848Y-117791143D01*
X114379187Y-117744296D01*
X114427278Y-117695324D01*
X114474626Y-117644075D01*
X114521737Y-117590393D01*
X114569118Y-117534127D01*
X114617274Y-117475121D01*
X114717938Y-117348276D01*
X114722021Y-117343150D01*
X114726167Y-117338079D01*
X114730379Y-117333067D01*
X114734662Y-117328117D01*
X114739018Y-117323232D01*
X114743451Y-117318416D01*
X114747964Y-117313670D01*
X114752561Y-117309000D01*
X114993373Y-117068705D01*
X115106545Y-116936415D01*
X115107188Y-116935681D01*
X115107831Y-116934964D01*
X115109115Y-116933560D01*
X115110406Y-116932162D01*
X115111713Y-116930731D01*
X115155885Y-116881435D01*
X115194017Y-116839697D01*
X115228282Y-116803365D01*
X115260853Y-116770283D01*
X115293901Y-116738298D01*
X115329599Y-116705257D01*
X115370121Y-116669005D01*
X115417637Y-116627390D01*
X115493446Y-116559125D01*
X115565009Y-116491102D01*
X115599243Y-116457019D01*
X115632470Y-116422801D01*
X115664706Y-116388384D01*
X115695970Y-116353702D01*
X115726279Y-116318692D01*
X115755652Y-116283287D01*
X115784106Y-116247424D01*
X115811659Y-116211036D01*
X115838328Y-116174059D01*
X115864132Y-116136429D01*
X115889088Y-116098080D01*
X115913214Y-116058947D01*
X115917406Y-116052098D01*
X115921723Y-116045322D01*
X115926162Y-116038622D01*
X115930723Y-116032001D01*
X115935404Y-116025461D01*
X115940204Y-116019005D01*
X115945120Y-116012637D01*
X115950150Y-116006359D01*
X115955295Y-116000175D01*
X115960551Y-115994086D01*
X115965917Y-115988095D01*
X115971393Y-115982207D01*
X115976975Y-115976423D01*
X115982662Y-115970746D01*
X115988453Y-115965180D01*
X115994346Y-115959726D01*
X116163464Y-115807021D01*
X116333344Y-115654833D01*
X116462535Y-115499285D01*
X116456581Y-115494898D01*
X116450705Y-115490418D01*
X116444907Y-115485846D01*
X116439190Y-115481181D01*
X116433554Y-115476425D01*
X116428000Y-115471577D01*
X116422531Y-115466639D01*
X116417146Y-115461609D01*
X116411847Y-115456490D01*
X116406635Y-115451280D01*
X116401513Y-115445981D01*
X116396480Y-115440593D01*
X116391537Y-115435116D01*
X116386688Y-115429551D01*
X116381931Y-115423898D01*
X116377269Y-115418157D01*
X116328847Y-115328457D01*
X116285189Y-115237323D01*
X116246214Y-115144890D01*
X116211842Y-115051289D01*
X116181991Y-114956653D01*
X116156581Y-114861116D01*
X116135531Y-114764810D01*
X116118760Y-114667867D01*
X116106188Y-114570420D01*
X116097734Y-114472602D01*
X116093317Y-114374546D01*
X116092856Y-114276385D01*
X116103482Y-114080275D01*
X116128964Y-113885336D01*
X116168657Y-113692628D01*
X116221915Y-113503213D01*
X116288093Y-113318154D01*
X116366544Y-113138510D01*
X116456622Y-112965346D01*
X116557682Y-112799720D01*
X116669078Y-112642697D01*
X116790164Y-112495336D01*
X116992736Y-112249357D01*
X116997845Y-112243108D01*
X117000415Y-112240021D01*
X117001728Y-112238487D01*
X117003070Y-112236959D01*
X117070667Y-112162590D01*
X117138653Y-112090828D01*
X117207121Y-112021531D01*
X117276164Y-111954555D01*
X117345875Y-111889759D01*
X117416347Y-111826997D01*
X117487672Y-111766129D01*
X117559945Y-111707011D01*
X117633257Y-111649499D01*
X117707702Y-111593452D01*
X117783372Y-111538726D01*
X117860361Y-111485179D01*
X118018666Y-111381047D01*
X118183360Y-111279913D01*
X118173541Y-111285593D01*
X118202124Y-111267185D01*
X118230283Y-111248261D01*
X118258084Y-111228803D01*
X118285597Y-111208792D01*
X118340028Y-111167035D01*
X118394119Y-111122841D01*
X118448414Y-111076060D01*
X118503457Y-111026540D01*
X118559790Y-110974133D01*
X118617959Y-110918688D01*
X118619919Y-110916821D01*
X118621892Y-110914979D01*
X118625877Y-110911354D01*
X118629908Y-110907779D01*
X118633978Y-110904219D01*
X118875134Y-110697686D01*
X119118985Y-110495686D01*
X119365924Y-110297706D01*
X119616347Y-110103235D01*
X119722800Y-110011766D01*
X119719223Y-109975135D01*
X119716908Y-109938496D01*
X119715850Y-109901912D01*
X119716047Y-109865445D01*
X119717493Y-109829159D01*
X119720185Y-109793117D01*
X119724119Y-109757380D01*
X119729292Y-109722012D01*
X119735699Y-109687075D01*
X119743336Y-109652633D01*
X119752200Y-109618747D01*
X119762287Y-109585480D01*
X119773593Y-109552896D01*
X119786114Y-109521057D01*
X119799846Y-109490025D01*
X119814785Y-109459864D01*
X119833634Y-109425525D01*
X119853475Y-109392549D01*
X119874234Y-109360893D01*
X119895839Y-109330516D01*
X119918218Y-109301373D01*
X119941296Y-109273422D01*
X119965003Y-109246620D01*
X119989264Y-109220925D01*
X120014008Y-109196293D01*
X120039161Y-109172683D01*
X120064651Y-109150051D01*
X120090405Y-109128355D01*
X120116350Y-109107551D01*
X120142414Y-109087598D01*
X120168524Y-109068451D01*
X120194607Y-109050070D01*
X120246117Y-109015574D01*
X120297748Y-108983087D01*
X120349313Y-108952497D01*
X120400621Y-108923687D01*
X120451483Y-108896546D01*
X120501710Y-108870957D01*
X120599501Y-108823985D01*
X120692479Y-108781856D01*
X120779127Y-108743660D01*
X120857933Y-108708483D01*
X120927379Y-108675413D01*
X121009643Y-108626978D01*
X121090299Y-108576379D01*
X121169879Y-108523543D01*
X121248915Y-108468396D01*
X121327937Y-108410866D01*
X121407476Y-108350879D01*
X121488065Y-108288362D01*
X121570234Y-108223242D01*
X121575370Y-108219070D01*
X121577933Y-108217012D01*
X121579239Y-108215991D01*
X121580569Y-108214975D01*
X121867374Y-107999483D01*
X121939220Y-107945018D01*
X122011552Y-107889929D01*
X122011739Y-107889794D01*
X122011932Y-107889662D01*
X122012326Y-107889403D01*
X122012721Y-107889144D01*
X122012914Y-107889013D01*
X122013103Y-107888880D01*
X122215905Y-107734785D01*
X122372499Y-107616856D01*
X122437857Y-107568905D01*
X122496930Y-107526936D01*
X122551475Y-107489929D01*
X122603248Y-107456865D01*
X122607488Y-107454321D01*
X122611833Y-107451848D01*
X122620801Y-107447088D01*
X122630082Y-107442537D01*
X122639605Y-107438146D01*
X122678696Y-107421205D01*
X122680145Y-107394703D01*
X122681166Y-107365919D01*
X122682360Y-107300247D01*
X122684380Y-107127684D01*
X122684387Y-107127163D01*
X122684385Y-107126644D01*
X122684366Y-107125609D01*
X122684357Y-107125092D01*
X122684354Y-107124577D01*
X122684360Y-107124062D01*
X122684380Y-107123548D01*
X122690499Y-106963218D01*
X122700078Y-106805209D01*
X122712857Y-106649081D01*
X122728575Y-106494393D01*
X122746973Y-106340706D01*
X122767789Y-106187579D01*
X122790764Y-106034571D01*
X122815638Y-105881243D01*
X122824079Y-105802260D01*
X122830816Y-105734712D01*
X122835994Y-105677963D01*
X122839757Y-105631378D01*
X122842250Y-105594322D01*
X122843615Y-105566160D01*
X122843999Y-105546257D01*
X122843867Y-105539205D01*
X122843543Y-105533979D01*
X122836376Y-105511072D01*
X122828136Y-105485986D01*
X122823528Y-105473030D01*
X122818547Y-105460012D01*
X122813161Y-105447094D01*
X122807334Y-105434436D01*
X122801031Y-105422201D01*
X122794219Y-105410549D01*
X122790611Y-105404991D01*
X122786862Y-105399640D01*
X122782969Y-105394516D01*
X122778927Y-105389637D01*
X122774731Y-105385026D01*
X122770378Y-105380701D01*
X122765863Y-105376682D01*
X122761182Y-105372991D01*
X122756330Y-105369647D01*
X122751303Y-105366670D01*
X122746097Y-105364080D01*
X122740708Y-105361898D01*
X122638161Y-105298367D01*
X122593353Y-105270214D01*
X122552039Y-105243640D01*
X122513606Y-105218025D01*
X122477440Y-105192747D01*
X122442930Y-105167187D01*
X122409461Y-105140722D01*
X122397497Y-105130504D01*
X122385024Y-105119006D01*
X122372131Y-105106298D01*
X122358911Y-105092449D01*
X122345452Y-105077529D01*
X122331847Y-105061607D01*
X122318186Y-105044752D01*
X122304558Y-105027033D01*
X122296806Y-105023413D01*
X122286285Y-105017972D01*
X122275929Y-105012257D01*
X122265744Y-105006271D01*
X122255734Y-105000018D01*
X122245905Y-104993502D01*
X122236260Y-104986727D01*
X122226805Y-104979696D01*
X122217546Y-104972415D01*
X122208486Y-104964886D01*
X122199631Y-104957114D01*
X122190986Y-104949103D01*
X122182555Y-104940856D01*
X122174344Y-104932378D01*
X122166358Y-104923673D01*
X122158601Y-104914744D01*
X122151078Y-104905596D01*
X122109137Y-104851535D01*
X122069695Y-104797506D01*
X122032581Y-104743545D01*
X121997626Y-104689689D01*
X121964658Y-104635978D01*
X121933508Y-104582447D01*
X121904005Y-104529134D01*
X121875977Y-104476077D01*
X121823669Y-104370882D01*
X121775219Y-104267160D01*
X121684440Y-104065336D01*
X121543881Y-103756826D01*
X121542830Y-103754516D01*
X121541786Y-103752186D01*
X121540755Y-103749851D01*
X121539745Y-103747526D01*
X121492216Y-103626714D01*
X121446939Y-103492058D01*
X121403680Y-103343810D01*
X121362209Y-103182224D01*
X121322291Y-103007553D01*
X121283694Y-102820048D01*
X121246186Y-102619964D01*
X121209534Y-102407553D01*
X121174288Y-102184416D01*
X121141472Y-101952933D01*
X121111566Y-101714522D01*
X121085049Y-101470599D01*
X121062401Y-101222582D01*
X121044102Y-100971888D01*
X121030630Y-100719933D01*
X121022465Y-100468136D01*
X121019856Y-100218079D01*
X121023337Y-99971083D01*
X121033816Y-99728176D01*
X121052201Y-99490383D01*
X121064642Y-99373725D01*
X121079401Y-99258731D01*
X121096590Y-99145528D01*
X121116323Y-99034246D01*
X121138715Y-98925012D01*
X121163877Y-98817956D01*
X121191924Y-98713204D01*
X121222970Y-98610885D01*
X121239668Y-98560610D01*
X121257222Y-98510871D01*
X121275693Y-98461707D01*
X121295143Y-98413158D01*
X121315635Y-98365265D01*
X121337232Y-98318067D01*
X121359994Y-98271605D01*
X121383985Y-98225917D01*
X121409266Y-98181044D01*
X121435900Y-98137026D01*
X121463949Y-98093903D01*
X121493476Y-98051714D01*
X121524542Y-98010499D01*
X121557209Y-97970299D01*
X121591540Y-97931153D01*
X121627597Y-97893101D01*
X121654050Y-97867228D01*
X121681574Y-97842208D01*
X121710124Y-97818066D01*
X121739654Y-97794829D01*
X121770121Y-97772522D01*
X121801478Y-97751171D01*
X121833682Y-97730803D01*
X121866687Y-97711442D01*
X121900448Y-97693116D01*
X121934920Y-97675849D01*
X121970059Y-97659668D01*
X122005820Y-97644600D01*
X122042157Y-97630668D01*
X122079026Y-97617901D01*
X122116382Y-97606323D01*
X122154180Y-97595961D01*
X122159068Y-97588301D01*
X122164109Y-97580756D01*
X122169302Y-97573327D01*
X122174644Y-97566016D01*
X122180134Y-97558824D01*
X122185770Y-97551752D01*
X122191550Y-97544802D01*
X122197473Y-97537975D01*
X122203536Y-97531273D01*
X122209739Y-97524696D01*
X122216080Y-97518246D01*
X122222555Y-97511925D01*
X122229165Y-97505734D01*
X122235907Y-97499675D01*
X122242780Y-97493748D01*
X122249781Y-97487955D01*
X122321388Y-97439739D01*
X122351755Y-97419315D01*
X122380030Y-97400694D01*
X122407366Y-97383390D01*
X122434914Y-97366911D01*
X122463823Y-97350771D01*
X122495245Y-97334478D01*
X122499672Y-97332380D01*
X122504296Y-97330399D01*
X122509098Y-97328525D01*
X122514063Y-97326747D01*
X122524410Y-97323428D01*
X122535198Y-97320353D01*
X122579993Y-97308639D01*
X122712802Y-97203737D01*
X122714816Y-97202179D01*
X122716858Y-97200659D01*
X122718921Y-97199169D01*
X122720999Y-97197699D01*
X122725175Y-97194786D01*
X122729339Y-97191851D01*
X122902549Y-97068300D01*
X122975673Y-97017180D01*
X123041981Y-96972223D01*
X123053813Y-96964340D01*
X123065069Y-96956765D01*
X123076019Y-96949297D01*
X123086938Y-96941736D01*
X122948368Y-96885232D01*
X122810749Y-96826509D01*
X122673635Y-96765325D01*
X122536585Y-96701439D01*
X122283887Y-96593435D01*
X122276433Y-96590156D01*
X122269050Y-96586741D01*
X122261739Y-96583190D01*
X122254501Y-96579505D01*
X122247338Y-96575686D01*
X122240250Y-96571736D01*
X122233240Y-96567654D01*
X122226307Y-96563443D01*
X122219454Y-96559103D01*
X122212682Y-96554636D01*
X122205992Y-96550043D01*
X122199385Y-96545324D01*
X122192863Y-96540482D01*
X122186427Y-96535517D01*
X122180077Y-96530430D01*
X122173816Y-96525223D01*
X122083262Y-96445755D01*
X121998128Y-96365309D01*
X121918232Y-96283691D01*
X121843390Y-96200709D01*
X121773420Y-96116169D01*
X121708140Y-96029878D01*
X121647367Y-95941643D01*
X121590919Y-95851271D01*
X121538612Y-95758567D01*
X121490264Y-95663340D01*
X121445693Y-95565396D01*
X121404716Y-95464542D01*
X121367150Y-95360584D01*
X121332813Y-95253329D01*
X121301522Y-95142584D01*
X121273095Y-95028156D01*
X121271982Y-95023363D01*
X121270916Y-95018619D01*
X121269906Y-95013864D01*
X121268960Y-95009037D01*
X121265874Y-94993049D01*
X121262949Y-94979141D01*
X121260139Y-94966867D01*
X121257399Y-94955784D01*
X121254683Y-94945447D01*
X121251945Y-94935412D01*
X121246222Y-94914469D01*
X121235150Y-94909455D01*
X121224206Y-94904174D01*
X121213404Y-94898616D01*
X121202756Y-94892774D01*
X121192277Y-94886640D01*
X121181981Y-94880206D01*
X121171881Y-94873465D01*
X121161990Y-94866409D01*
X121095496Y-94793321D01*
X121031608Y-94720133D01*
X120969997Y-94646871D01*
X120910331Y-94573564D01*
X120852279Y-94500236D01*
X120795511Y-94426915D01*
X120684500Y-94280399D01*
X120523786Y-94120201D01*
X120516267Y-94112479D01*
X120508969Y-94104570D01*
X120501885Y-94096481D01*
X120495012Y-94088218D01*
X120488344Y-94079787D01*
X120481877Y-94071193D01*
X120475606Y-94062441D01*
X120469526Y-94053539D01*
X120423282Y-93981155D01*
X120377047Y-93901923D01*
X120331804Y-93816034D01*
X120309860Y-93770652D01*
X120288533Y-93723677D01*
X120267945Y-93675133D01*
X120248217Y-93625043D01*
X120229474Y-93573431D01*
X120211838Y-93520322D01*
X120195432Y-93465738D01*
X120180377Y-93409704D01*
X120166798Y-93352243D01*
X120154817Y-93293379D01*
X120144228Y-93232617D01*
X120135680Y-93169403D01*
X120132611Y-93136855D01*
X120130580Y-93103667D01*
X120129762Y-93069832D01*
X120130333Y-93035341D01*
X120132468Y-93000185D01*
X120136343Y-92964355D01*
X120142134Y-92927844D01*
X120150017Y-92890642D01*
X120160167Y-92852741D01*
X120172760Y-92814132D01*
X120187971Y-92774807D01*
X120205977Y-92734756D01*
X120211250Y-92724195D01*
X120216841Y-92713746D01*
X120222739Y-92703409D01*
X120228935Y-92693186D01*
X120235417Y-92683078D01*
X120242175Y-92673085D01*
X120249201Y-92663209D01*
X120256483Y-92653450D01*
X120264012Y-92643810D01*
X120271777Y-92634289D01*
X120279768Y-92624888D01*
X120287975Y-92615609D01*
X120296389Y-92606452D01*
X120304998Y-92597418D01*
X120313794Y-92588509D01*
X120322765Y-92579725D01*
X120303244Y-92514673D01*
X120282774Y-92451594D01*
X120261046Y-92390684D01*
X120249615Y-92361103D01*
X120237754Y-92332138D01*
X120225424Y-92303812D01*
X120212588Y-92276150D01*
X120199207Y-92249177D01*
X120185242Y-92222916D01*
X120170655Y-92197393D01*
X120155408Y-92172631D01*
X120139461Y-92148655D01*
X120122777Y-92125490D01*
X120116868Y-92117427D01*
X120111147Y-92109238D01*
X120105614Y-92100928D01*
X120100273Y-92092499D01*
X120095126Y-92083954D01*
X120090176Y-92075298D01*
X120085424Y-92066535D01*
X120080873Y-92057666D01*
X120076525Y-92048697D01*
X120072383Y-92039630D01*
X120068449Y-92030469D01*
X120064726Y-92021218D01*
X120061215Y-92011880D01*
X120057919Y-92002459D01*
X120054840Y-91992957D01*
X120051981Y-91983379D01*
X119988935Y-91762205D01*
X119934674Y-91642832D01*
X119932905Y-91638878D01*
X119931188Y-91634912D01*
X119929520Y-91630934D01*
X119927896Y-91626941D01*
X119924762Y-91618906D01*
X119921755Y-91610792D01*
X119859298Y-91427462D01*
X119803025Y-91239560D01*
X119753335Y-91047660D01*
X119710626Y-90852336D01*
X119675300Y-90654162D01*
X119647755Y-90453712D01*
X119628390Y-90251559D01*
X119617606Y-90048278D01*
X119615802Y-89844442D01*
X119623377Y-89640625D01*
X119640730Y-89437401D01*
X119668263Y-89235344D01*
X119706373Y-89035028D01*
X119755460Y-88837026D01*
X119815924Y-88641913D01*
X119888165Y-88450262D01*
X119877313Y-88478683D01*
X119985317Y-88154156D01*
X119987294Y-88148366D01*
X119989356Y-88142604D01*
X119991499Y-88136870D01*
X119993724Y-88131166D01*
X119996029Y-88125493D01*
X119998411Y-88119854D01*
X120000870Y-88114249D01*
X120003404Y-88108681D01*
X120146407Y-87802826D01*
X120291243Y-87497866D01*
X120433870Y-87176954D01*
X120437819Y-87168323D01*
X120441953Y-87159803D01*
X120446270Y-87151391D01*
X120450769Y-87143083D01*
X120455448Y-87134874D01*
X120460307Y-87126761D01*
X120465344Y-87118740D01*
X120470558Y-87110807D01*
X120550218Y-86993196D01*
X120630687Y-86876009D01*
X120711965Y-86759304D01*
X120794053Y-86643135D01*
X120795604Y-86641068D01*
X120938231Y-86426611D01*
X120945691Y-86415779D01*
X120953465Y-86405191D01*
X120961549Y-86394851D01*
X120969937Y-86384764D01*
X120978625Y-86374933D01*
X120987608Y-86365365D01*
X120996883Y-86356062D01*
X121006444Y-86347030D01*
X121077939Y-86282338D01*
X121149954Y-86218760D01*
X121222432Y-86156142D01*
X121295315Y-86094332D01*
X121426574Y-85974441D01*
X121429777Y-85971533D01*
X121432975Y-85968692D01*
X121436202Y-85965883D01*
X121439492Y-85963073D01*
X121569047Y-85856726D01*
X121700578Y-85754218D01*
X121833988Y-85655358D01*
X121969177Y-85559956D01*
X122106045Y-85467821D01*
X122244493Y-85378762D01*
X122384421Y-85292590D01*
X122525731Y-85209113D01*
X122516429Y-85214281D01*
X122708149Y-85096975D01*
X122709028Y-85096449D01*
X122709926Y-85095927D01*
X122711756Y-85094892D01*
X122713592Y-85093864D01*
X122715384Y-85092841D01*
X122724625Y-85087733D01*
X122734785Y-85082631D01*
X122745625Y-85077548D01*
X122756908Y-85072497D01*
X122801724Y-85052899D01*
X122811662Y-85048219D01*
X122820618Y-85043654D01*
X122828354Y-85039219D01*
X122834635Y-85034926D01*
X122837154Y-85032838D01*
X122839221Y-85030791D01*
X122840804Y-85028786D01*
X122841875Y-85026825D01*
X122842404Y-85024911D01*
X122842361Y-85023044D01*
X122841716Y-85021227D01*
X122840440Y-85019461D01*
X122840335Y-85019238D01*
X122840155Y-85018968D01*
X122839593Y-85018300D01*
X122838794Y-85017485D01*
X122837800Y-85016552D01*
X122836651Y-85015530D01*
X122835387Y-85014446D01*
X122832682Y-85012210D01*
X122830009Y-85010073D01*
X122827696Y-85008264D01*
X122825454Y-85006542D01*
X122805537Y-85006868D01*
X122785701Y-85006296D01*
X122765976Y-85004836D01*
X122746389Y-85002495D01*
X122726970Y-84999282D01*
X122707745Y-84995206D01*
X122688744Y-84990276D01*
X122669994Y-84984499D01*
X122651524Y-84977886D01*
X122633363Y-84970444D01*
X122615538Y-84962181D01*
X122598077Y-84953108D01*
X122581010Y-84943232D01*
X122564364Y-84932561D01*
X122548167Y-84921105D01*
X122532448Y-84908872D01*
X122320575Y-84726972D01*
X122152626Y-84643255D01*
X122144795Y-84639235D01*
X122137048Y-84635054D01*
X122129388Y-84630716D01*
X122121817Y-84626223D01*
X122114338Y-84621576D01*
X122106954Y-84616780D01*
X122099668Y-84611836D01*
X122092483Y-84606746D01*
X122085400Y-84601514D01*
X122078423Y-84596141D01*
X122071555Y-84590629D01*
X122064798Y-84584983D01*
X122058155Y-84579203D01*
X122051629Y-84573292D01*
X122045222Y-84567253D01*
X122038937Y-84561088D01*
X121955549Y-84473723D01*
X121877840Y-84384227D01*
X121805718Y-84292730D01*
X121739094Y-84199364D01*
X121677879Y-84104258D01*
X121621982Y-84007543D01*
X121571313Y-83909349D01*
X121525782Y-83809808D01*
X121485300Y-83709049D01*
X121449777Y-83607202D01*
X121419122Y-83504399D01*
X121393246Y-83400770D01*
X121372058Y-83296445D01*
X121355470Y-83191555D01*
X121335730Y-82980601D01*
X121333306Y-82768951D01*
X121347479Y-82557650D01*
X121377529Y-82347740D01*
X121422738Y-82140266D01*
X121482385Y-81936272D01*
X121555751Y-81736800D01*
X121642118Y-81542895D01*
X121740765Y-81355601D01*
X121821778Y-81220078D01*
X121908721Y-81087673D01*
X122001386Y-80958710D01*
X122099564Y-80833512D01*
X122203048Y-80712404D01*
X122311630Y-80595709D01*
X122425103Y-80483751D01*
X122543257Y-80376856D01*
X122665886Y-80275345D01*
X122792783Y-80179544D01*
X122923737Y-80089777D01*
X123058543Y-80006367D01*
X123196993Y-79929638D01*
X123338878Y-79859915D01*
X123483990Y-79797521D01*
X123632122Y-79742780D01*
X123527472Y-79687531D01*
X123420620Y-79632508D01*
X123311386Y-79577326D01*
X123199591Y-79521604D01*
X123192099Y-79517802D01*
X123188392Y-79515857D01*
X123184707Y-79513879D01*
X123181042Y-79511865D01*
X123177394Y-79509813D01*
X123173759Y-79507720D01*
X123170136Y-79505584D01*
X122974460Y-79386983D01*
X122781781Y-79266994D01*
X122402742Y-79025510D01*
X122402225Y-79025510D01*
X122329650Y-78982340D01*
X122259573Y-78942659D01*
X122190851Y-78905851D01*
X122122343Y-78871300D01*
X122052904Y-78838392D01*
X121981393Y-78806509D01*
X121906667Y-78775036D01*
X121827583Y-78743357D01*
X121815137Y-78738253D01*
X121802887Y-78732770D01*
X121790835Y-78726914D01*
X121778980Y-78720689D01*
X121767321Y-78714100D01*
X121755861Y-78707152D01*
X121744597Y-78699849D01*
X121733531Y-78692197D01*
X121574885Y-78579026D01*
X121508920Y-78535019D01*
X121442113Y-78493104D01*
X121374121Y-78452855D01*
X121304600Y-78413846D01*
X121233209Y-78375655D01*
X121159603Y-78337855D01*
X121083441Y-78300023D01*
X121004378Y-78261733D01*
X120896638Y-78208667D01*
X120790981Y-78153825D01*
X120687130Y-78097065D01*
X120584811Y-78038247D01*
X120483745Y-77977230D01*
X120383656Y-77913876D01*
X120284269Y-77848043D01*
X120185306Y-77779591D01*
X120083967Y-77727817D01*
X119981920Y-77676610D01*
X119879246Y-77625863D01*
X119776027Y-77575470D01*
X119774893Y-77574906D01*
X119773786Y-77574333D01*
X119771621Y-77573171D01*
X119769463Y-77571995D01*
X119768365Y-77571406D01*
X119767243Y-77570819D01*
X119408902Y-77382503D01*
X119230952Y-77285947D01*
X119053798Y-77187600D01*
X118877424Y-77087321D01*
X118701819Y-76984965D01*
X118526969Y-76880389D01*
X118352859Y-76773451D01*
X118076389Y-76635476D01*
X118067656Y-76630976D01*
X118059034Y-76626279D01*
X118050525Y-76621388D01*
X118042129Y-76616306D01*
X118033850Y-76611036D01*
X118025688Y-76605582D01*
X118017647Y-76599947D01*
X118009727Y-76594135D01*
X117889321Y-76503701D01*
X117815886Y-76462378D01*
X117742102Y-76421315D01*
X117593732Y-76339886D01*
X117593631Y-76339828D01*
X117593532Y-76339766D01*
X117593434Y-76339703D01*
X117593337Y-76339637D01*
X117593145Y-76339501D01*
X117592955Y-76339363D01*
X117592765Y-76339225D01*
X117592574Y-76339092D01*
X117592477Y-76339028D01*
X117592380Y-76338966D01*
X117592281Y-76338907D01*
X117592181Y-76338851D01*
X117357553Y-76207903D01*
X117125288Y-76074727D01*
X116895112Y-75939580D01*
X116666749Y-75802721D01*
X116214364Y-75524896D01*
X115765935Y-75243311D01*
X115557514Y-75113422D01*
X115348591Y-74986771D01*
X115138841Y-74863270D01*
X114927939Y-74742828D01*
X114715559Y-74625357D01*
X114501375Y-74510769D01*
X114285064Y-74398973D01*
X114066298Y-74289880D01*
X114065463Y-74289459D01*
X114064622Y-74289015D01*
X114062931Y-74288085D01*
X114061245Y-74287149D01*
X114060409Y-74286696D01*
X114059580Y-74286263D01*
X113965718Y-74237682D01*
X113899077Y-74202062D01*
X113794421Y-74144485D01*
X113729888Y-74109921D01*
X113639539Y-74063100D01*
X113510116Y-73997720D01*
X113328359Y-73907475D01*
X113319376Y-73903796D01*
X113310734Y-73900111D01*
X113302424Y-73896425D01*
X113294436Y-73892747D01*
X113279390Y-73885439D01*
X113265522Y-73878242D01*
X113252759Y-73871210D01*
X113241026Y-73864400D01*
X113230249Y-73857867D01*
X113220355Y-73851664D01*
X113206191Y-73842544D01*
X113192940Y-73833777D01*
X113180535Y-73825365D01*
X113168911Y-73817306D01*
X113147737Y-73802253D01*
X113128888Y-73788619D01*
X113125139Y-73786046D01*
X113120414Y-73783021D01*
X113108703Y-73775952D01*
X113095088Y-73768090D01*
X113080904Y-73760110D01*
X113045172Y-73740560D01*
X112983372Y-73705451D01*
X112923614Y-73669920D01*
X112866033Y-73633771D01*
X112810767Y-73596807D01*
X112757954Y-73558831D01*
X112707729Y-73519647D01*
X112660231Y-73479059D01*
X112615596Y-73436870D01*
X112573960Y-73392882D01*
X112535463Y-73346901D01*
X112500239Y-73298728D01*
X112468426Y-73248169D01*
X112453842Y-73221932D01*
X112440162Y-73195025D01*
X112427403Y-73167422D01*
X112415583Y-73139100D01*
X112404718Y-73110034D01*
X112394826Y-73080199D01*
X112385924Y-73049570D01*
X112378029Y-73018123D01*
X112371493Y-72986092D01*
X112366622Y-72953792D01*
X112363361Y-72921320D01*
X112361655Y-72888772D01*
X112361450Y-72856247D01*
X112362691Y-72823841D01*
X112365323Y-72791652D01*
X112369293Y-72759776D01*
X112374544Y-72728311D01*
X112381023Y-72697353D01*
X112388676Y-72667001D01*
X112397447Y-72637351D01*
X112407282Y-72608500D01*
X112418126Y-72580545D01*
X112429925Y-72553584D01*
X112442624Y-72527714D01*
X112456031Y-72502880D01*
X112469969Y-72478941D01*
X112484407Y-72455861D01*
X112499314Y-72433605D01*
X112514659Y-72412140D01*
X112530412Y-72391429D01*
X112546543Y-72371438D01*
X112563019Y-72352132D01*
X112579810Y-72333477D01*
X112596886Y-72315437D01*
X112614216Y-72297978D01*
X112631768Y-72281065D01*
X112649513Y-72264662D01*
X112667418Y-72248736D01*
X112703590Y-72218172D01*
X112777370Y-72160818D01*
X112853716Y-72107147D01*
X112932222Y-72056933D01*
X113012481Y-72009955D01*
X113094087Y-71965988D01*
X113176635Y-71924809D01*
X113259717Y-71886195D01*
X113342929Y-71849921D01*
X113508111Y-71783502D01*
X113668933Y-71723763D01*
X113964495Y-71617175D01*
X114305043Y-71478166D01*
X114305299Y-71478055D01*
X114305555Y-71477936D01*
X114306071Y-71477680D01*
X114306589Y-71477408D01*
X114307109Y-71477127D01*
X114307629Y-71476847D01*
X114308147Y-71476576D01*
X114308664Y-71476324D01*
X114308921Y-71476207D01*
X114309177Y-71476099D01*
X114533728Y-71388999D01*
X114758998Y-71306395D01*
X114985353Y-71228378D01*
X115213162Y-71155037D01*
X115442792Y-71086463D01*
X115674609Y-71022746D01*
X115908981Y-70963975D01*
X116146274Y-70910242D01*
X116264066Y-70886157D01*
X116382096Y-70864894D01*
X116500342Y-70846534D01*
X116618781Y-70831163D01*
X116737391Y-70818861D01*
X116856149Y-70809712D01*
X116975033Y-70803799D01*
X117094020Y-70801205D01*
X117193248Y-70801648D01*
D11*
%TO.C,X1*%
X140004500Y-109620000D02*
X140004500Y-93680000D01*
X141104500Y-93680000D02*
X141104500Y-109620000D01*
X140004500Y-93680000D02*
G75*
G02*
X141104500Y-93680000I550000J0D01*
G01*
X141104500Y-109620000D02*
G75*
G02*
X140004500Y-109620000I-550000J0D01*
G01*
%TD*%
M02*
