%TF.GenerationSoftware,KiCad,Pcbnew,8.0.7*%
%TF.CreationDate,2025-10-19T18:35:44+02:00*%
%TF.ProjectId,ctc_2025,6374635f-3230-4323-952e-6b696361645f,rev?*%
%TF.SameCoordinates,Original*%
%TF.FileFunction,Soldermask,Top*%
%TF.FilePolarity,Negative*%
%FSLAX46Y46*%
G04 Gerber Fmt 4.6, Leading zero omitted, Abs format (unit mm)*
G04 Created by KiCad (PCBNEW 8.0.7) date 2025-10-19 18:35:44*
%MOMM*%
%LPD*%
G01*
G04 APERTURE LIST*
%ADD10C,0.000000*%
%ADD11R,1.700000X1.600000*%
%ADD12C,1.600000*%
%ADD13C,1.450000*%
%ADD14C,1.150000*%
%ADD15C,0.700000*%
%ADD16C,0.650000*%
G04 APERTURE END LIST*
D10*
G36*
X126306687Y-83635682D02*
G01*
X126351683Y-83637185D01*
X126377252Y-83641700D01*
X126399544Y-83645194D01*
X126435861Y-83650253D01*
X126450666Y-83652383D01*
X126463756Y-83654624D01*
X126475520Y-83657260D01*
X126486349Y-83660572D01*
X126496633Y-83664845D01*
X126501693Y-83667429D01*
X126506762Y-83670360D01*
X126517128Y-83677401D01*
X126528118Y-83686251D01*
X126540125Y-83697193D01*
X126553538Y-83710509D01*
X126568748Y-83726484D01*
X126586144Y-83745398D01*
X126608003Y-83783787D01*
X126626910Y-83822086D01*
X126643001Y-83860346D01*
X126656414Y-83898615D01*
X126667286Y-83936944D01*
X126675753Y-83975382D01*
X126681952Y-84013979D01*
X126686021Y-84052783D01*
X126688095Y-84091844D01*
X126688313Y-84131213D01*
X126686810Y-84170938D01*
X126683724Y-84211069D01*
X126679192Y-84251656D01*
X126673351Y-84292747D01*
X126666337Y-84334393D01*
X126658287Y-84376643D01*
X126642971Y-84435997D01*
X126631707Y-84485848D01*
X126623872Y-84527180D01*
X126618841Y-84560979D01*
X126615992Y-84588227D01*
X126614698Y-84609912D01*
X126614285Y-84640526D01*
X126613916Y-84651426D01*
X126612608Y-84660700D01*
X126609736Y-84669333D01*
X126604676Y-84678310D01*
X126596803Y-84688616D01*
X126585495Y-84701236D01*
X126550074Y-84737354D01*
X126497690Y-84763552D01*
X126476878Y-84773667D01*
X126458858Y-84781927D01*
X126443033Y-84788434D01*
X126428809Y-84793291D01*
X126415589Y-84796598D01*
X126409169Y-84797703D01*
X126402777Y-84798458D01*
X126396338Y-84798877D01*
X126389778Y-84798972D01*
X126375994Y-84798242D01*
X126360832Y-84796369D01*
X126343694Y-84793456D01*
X126243468Y-84773425D01*
X126240395Y-84771974D01*
X126236727Y-84771217D01*
X126232504Y-84771107D01*
X126227764Y-84771597D01*
X126222549Y-84772641D01*
X126216896Y-84774193D01*
X126204438Y-84778636D01*
X126190706Y-84784555D01*
X126176016Y-84791578D01*
X126145026Y-84807458D01*
X126113993Y-84823311D01*
X126099250Y-84830301D01*
X126085445Y-84836172D01*
X126072892Y-84840554D01*
X126067184Y-84842071D01*
X126061907Y-84843076D01*
X126057102Y-84843524D01*
X126052807Y-84843368D01*
X126049062Y-84842562D01*
X126045907Y-84841059D01*
X126016923Y-84821425D01*
X126004837Y-84813577D01*
X125994001Y-84806973D01*
X125984152Y-84801561D01*
X125979514Y-84799286D01*
X125975023Y-84797290D01*
X125970647Y-84795567D01*
X125966351Y-84794110D01*
X125962104Y-84792913D01*
X125957871Y-84791970D01*
X125953620Y-84791273D01*
X125949318Y-84790817D01*
X125944931Y-84790594D01*
X125940426Y-84790600D01*
X125935771Y-84790827D01*
X125930933Y-84791269D01*
X125920571Y-84792773D01*
X125909078Y-84795059D01*
X125896187Y-84798078D01*
X125865156Y-84806106D01*
X125763291Y-84845568D01*
X125675045Y-84874777D01*
X125586664Y-84901713D01*
X125498060Y-84926639D01*
X125409145Y-84949822D01*
X125319830Y-84971528D01*
X125230029Y-84992021D01*
X125048614Y-85030432D01*
X124939245Y-85052904D01*
X124861278Y-85069625D01*
X124785201Y-85087376D01*
X124636095Y-85124023D01*
X124561753Y-85141943D01*
X124486677Y-85158945D01*
X124410212Y-85174541D01*
X124331701Y-85188243D01*
X124315203Y-85191481D01*
X124299348Y-85195079D01*
X124284051Y-85199092D01*
X124269226Y-85203577D01*
X124254790Y-85208588D01*
X124240655Y-85214183D01*
X124226739Y-85220416D01*
X124212954Y-85227345D01*
X124199217Y-85235024D01*
X124185442Y-85243509D01*
X124171545Y-85252857D01*
X124157440Y-85263124D01*
X124143041Y-85274365D01*
X124128265Y-85286636D01*
X124113025Y-85299993D01*
X124097238Y-85314492D01*
X124086834Y-85322448D01*
X124076786Y-85329618D01*
X124067064Y-85336038D01*
X124057640Y-85341739D01*
X124048484Y-85346757D01*
X124039567Y-85351124D01*
X124030860Y-85354874D01*
X124022334Y-85358042D01*
X124013960Y-85360660D01*
X124005707Y-85362763D01*
X123997549Y-85364384D01*
X123989454Y-85365556D01*
X123981394Y-85366314D01*
X123973340Y-85366692D01*
X123957133Y-85366439D01*
X123940599Y-85365067D01*
X123923505Y-85362846D01*
X123886703Y-85356934D01*
X123866529Y-85353782D01*
X123844862Y-85350858D01*
X123821468Y-85348433D01*
X123796115Y-85346776D01*
X123774932Y-85342408D01*
X123754920Y-85337310D01*
X123735973Y-85331480D01*
X123717985Y-85324916D01*
X123700850Y-85317617D01*
X123684460Y-85309581D01*
X123668709Y-85300806D01*
X123653490Y-85291289D01*
X123638698Y-85281029D01*
X123624225Y-85270024D01*
X123609966Y-85258272D01*
X123595813Y-85245771D01*
X123581660Y-85232520D01*
X123567400Y-85218516D01*
X123538135Y-85188243D01*
X123524655Y-85168502D01*
X123513226Y-85152560D01*
X123495913Y-85129789D01*
X123489728Y-85121815D01*
X123484991Y-85115351D01*
X123481549Y-85109825D01*
X123480268Y-85107236D01*
X123479253Y-85104666D01*
X123478488Y-85102045D01*
X123477952Y-85099300D01*
X123477494Y-85093156D01*
X123477730Y-85085661D01*
X123478508Y-85076242D01*
X123481088Y-85049346D01*
X123482588Y-85030723D01*
X123484028Y-85007888D01*
X123481744Y-85007577D01*
X123479361Y-85006672D01*
X123476886Y-85005213D01*
X123474324Y-85003238D01*
X123471682Y-85000788D01*
X123468967Y-84997901D01*
X123463343Y-84990979D01*
X123457504Y-84982789D01*
X123451500Y-84973648D01*
X123439210Y-84953781D01*
X123426885Y-84933914D01*
X123420839Y-84924773D01*
X123414941Y-84916583D01*
X123409241Y-84909661D01*
X123406481Y-84906775D01*
X123403791Y-84904324D01*
X123401177Y-84902349D01*
X123398644Y-84900890D01*
X123396200Y-84899985D01*
X123393851Y-84899674D01*
X123382689Y-84875736D01*
X123373059Y-84851720D01*
X123364885Y-84827618D01*
X123358094Y-84803423D01*
X123352614Y-84779125D01*
X123348370Y-84754718D01*
X123345289Y-84730194D01*
X123343297Y-84705544D01*
X123342322Y-84680761D01*
X123342290Y-84655837D01*
X123343127Y-84630765D01*
X123344759Y-84605535D01*
X123347114Y-84580141D01*
X123350119Y-84554575D01*
X123357780Y-84502892D01*
X123367148Y-84484566D01*
X123376920Y-84466812D01*
X123387089Y-84449615D01*
X123397649Y-84432964D01*
X123408593Y-84416843D01*
X123419916Y-84401241D01*
X123443670Y-84371537D01*
X123468860Y-84343744D01*
X123495435Y-84317756D01*
X123523344Y-84293465D01*
X123552536Y-84270765D01*
X123582959Y-84249549D01*
X123614564Y-84229709D01*
X123647298Y-84211139D01*
X123681110Y-84193733D01*
X123715951Y-84177382D01*
X123751768Y-84161980D01*
X123788510Y-84147420D01*
X123826127Y-84133595D01*
X123882833Y-84120229D01*
X123939639Y-84108599D01*
X123996568Y-84098478D01*
X124053642Y-84089638D01*
X124110883Y-84081852D01*
X124168313Y-84074891D01*
X124283834Y-84062535D01*
X124370291Y-84051833D01*
X124455656Y-84038476D01*
X124540174Y-84022753D01*
X124624088Y-84004952D01*
X124707641Y-83985360D01*
X124791078Y-83964265D01*
X124958580Y-83918719D01*
X124981943Y-83913092D01*
X125002769Y-83907278D01*
X125021425Y-83901362D01*
X125038278Y-83895429D01*
X125095001Y-83873206D01*
X125108345Y-83868452D01*
X125122087Y-83864187D01*
X125136596Y-83860496D01*
X125152238Y-83857464D01*
X125169380Y-83855174D01*
X125188390Y-83853713D01*
X125209633Y-83853163D01*
X125233478Y-83853611D01*
X125234691Y-83851428D01*
X125236492Y-83849210D01*
X125238841Y-83846966D01*
X125241700Y-83844708D01*
X125248793Y-83840192D01*
X125257459Y-83835750D01*
X125267388Y-83831467D01*
X125278268Y-83827431D01*
X125289788Y-83823729D01*
X125301639Y-83820448D01*
X125313509Y-83817675D01*
X125325087Y-83815496D01*
X125336062Y-83813999D01*
X125346123Y-83813270D01*
X125354961Y-83813396D01*
X125358823Y-83813808D01*
X125362263Y-83814465D01*
X125365241Y-83815380D01*
X125367719Y-83816563D01*
X125369657Y-83818025D01*
X125371018Y-83819777D01*
X125385361Y-83795156D01*
X125391581Y-83785056D01*
X125397461Y-83776213D01*
X125400343Y-83772213D01*
X125403222Y-83768467D01*
X125406128Y-83764954D01*
X125409086Y-83761655D01*
X125412126Y-83758549D01*
X125415274Y-83755616D01*
X125418559Y-83752835D01*
X125422008Y-83750187D01*
X125425648Y-83747651D01*
X125429507Y-83745207D01*
X125433613Y-83742835D01*
X125437994Y-83740514D01*
X125442677Y-83738225D01*
X125447690Y-83735947D01*
X125458816Y-83731343D01*
X125471593Y-83726541D01*
X125486243Y-83721378D01*
X125522045Y-83709327D01*
X125617205Y-83704527D01*
X125712357Y-83700494D01*
X125902777Y-83693960D01*
X125943556Y-83686783D01*
X125978684Y-83679899D01*
X126009008Y-83673351D01*
X126035376Y-83667178D01*
X126079633Y-83656122D01*
X126118234Y-83647055D01*
X126137533Y-83643369D01*
X126157960Y-83640302D01*
X126180363Y-83637896D01*
X126205590Y-83636190D01*
X126234488Y-83635225D01*
X126267904Y-83635042D01*
X126306687Y-83635682D01*
G37*
G36*
X127534482Y-96130420D02*
G01*
X127580785Y-96136182D01*
X127625913Y-96145843D01*
X127669802Y-96159074D01*
X127712388Y-96175545D01*
X127753606Y-96194926D01*
X127793392Y-96216886D01*
X127831682Y-96241096D01*
X127868410Y-96267224D01*
X127936928Y-96323919D01*
X127998430Y-96384328D01*
X128052403Y-96445812D01*
X128098332Y-96505728D01*
X128135701Y-96561436D01*
X128163997Y-96610295D01*
X128182705Y-96649663D01*
X128191309Y-96676899D01*
X128204321Y-96723172D01*
X128222695Y-96779934D01*
X128273315Y-96919533D01*
X128338729Y-97084917D01*
X128414499Y-97265308D01*
X128496188Y-97449926D01*
X128579356Y-97627992D01*
X128659565Y-97788727D01*
X128697173Y-97859227D01*
X128732377Y-97921352D01*
X128805743Y-98032243D01*
X128874964Y-98144194D01*
X128940529Y-98257339D01*
X129002928Y-98371813D01*
X129062648Y-98487750D01*
X129120179Y-98605284D01*
X129176009Y-98724548D01*
X129230626Y-98845676D01*
X129296114Y-98999207D01*
X129326614Y-99076499D01*
X129355462Y-99154177D01*
X129382539Y-99232264D01*
X129407727Y-99310788D01*
X129430908Y-99389772D01*
X129451964Y-99469241D01*
X129470776Y-99549222D01*
X129487227Y-99629739D01*
X129501198Y-99710818D01*
X129512572Y-99792483D01*
X129521230Y-99874760D01*
X129527054Y-99957674D01*
X129529927Y-100041251D01*
X129529729Y-100125515D01*
X129523921Y-100333021D01*
X129519926Y-100456681D01*
X129514028Y-100585260D01*
X129505348Y-100712493D01*
X129493003Y-100832115D01*
X129485182Y-100887114D01*
X129476114Y-100937862D01*
X129465689Y-100983575D01*
X129453798Y-101023470D01*
X129454948Y-101054019D01*
X129448828Y-101082877D01*
X129435864Y-101110118D01*
X129416479Y-101135816D01*
X129391099Y-101160044D01*
X129360149Y-101182876D01*
X129324055Y-101204386D01*
X129283241Y-101224649D01*
X129189153Y-101261725D01*
X129081287Y-101294694D01*
X128963043Y-101324148D01*
X128837821Y-101350676D01*
X128335170Y-101439350D01*
X128226069Y-101460111D01*
X128130392Y-101481491D01*
X128051542Y-101504079D01*
X128019489Y-101516011D01*
X127992918Y-101528467D01*
X127952478Y-101553749D01*
X127916509Y-101579049D01*
X127884626Y-101604324D01*
X127856442Y-101629529D01*
X127831572Y-101654620D01*
X127809630Y-101679554D01*
X127790229Y-101704287D01*
X127772984Y-101728773D01*
X127666294Y-101910517D01*
X127651077Y-101930806D01*
X127634154Y-101950407D01*
X127615141Y-101969277D01*
X127593651Y-101987373D01*
X127569297Y-102004649D01*
X127541695Y-102021062D01*
X127510457Y-102036567D01*
X127475199Y-102051121D01*
X127435533Y-102064679D01*
X127391074Y-102077197D01*
X127341436Y-102088632D01*
X127286232Y-102098939D01*
X127225077Y-102108073D01*
X127157585Y-102115992D01*
X127083370Y-102122650D01*
X127002045Y-102128004D01*
X126909764Y-102141001D01*
X126820817Y-102155649D01*
X126647776Y-102185555D01*
X126561110Y-102198636D01*
X126472632Y-102209021D01*
X126427312Y-102212863D01*
X126381056Y-102215622D01*
X126333703Y-102217164D01*
X126285094Y-102217352D01*
X126116175Y-102216252D01*
X126052560Y-102217352D01*
X126000034Y-102220219D01*
X125956490Y-102225353D01*
X125919822Y-102233254D01*
X125903408Y-102238399D01*
X125887923Y-102244424D01*
X125873104Y-102251390D01*
X125858688Y-102259361D01*
X125467940Y-102574526D01*
X124917855Y-102597916D01*
X124516564Y-102612852D01*
X124323104Y-102616621D01*
X124108509Y-102617643D01*
X123853334Y-102615705D01*
X123538134Y-102610598D01*
X123527746Y-102599678D01*
X123511939Y-102586725D01*
X123491471Y-102572266D01*
X123467097Y-102556831D01*
X123439576Y-102540951D01*
X123409664Y-102525155D01*
X123378117Y-102509972D01*
X123345694Y-102495932D01*
X123313151Y-102483565D01*
X123281244Y-102473400D01*
X123250732Y-102465967D01*
X123236235Y-102463441D01*
X123222370Y-102461796D01*
X123209233Y-102461098D01*
X123196917Y-102461415D01*
X123185517Y-102462812D01*
X123175128Y-102465355D01*
X123165844Y-102469111D01*
X123157760Y-102474145D01*
X123150971Y-102480525D01*
X123145572Y-102488315D01*
X123112817Y-102540471D01*
X123077838Y-102588123D01*
X123040798Y-102631350D01*
X123001862Y-102670235D01*
X122961193Y-102704856D01*
X122918955Y-102735294D01*
X122875311Y-102761631D01*
X122830427Y-102783945D01*
X122784465Y-102802318D01*
X122737589Y-102816830D01*
X122689963Y-102827562D01*
X122641751Y-102834593D01*
X122593117Y-102838005D01*
X122544224Y-102837878D01*
X122495237Y-102834291D01*
X122446319Y-102827326D01*
X122397634Y-102817063D01*
X122349346Y-102803582D01*
X122301619Y-102786964D01*
X122254616Y-102767290D01*
X122208501Y-102744638D01*
X122163438Y-102719091D01*
X122119592Y-102690728D01*
X122077125Y-102659630D01*
X122036202Y-102625878D01*
X121996986Y-102589550D01*
X121959641Y-102550729D01*
X121924331Y-102509495D01*
X121891220Y-102465927D01*
X121860472Y-102420106D01*
X121832250Y-102372114D01*
X121806719Y-102322029D01*
X121792124Y-102290547D01*
X121779122Y-102257815D01*
X121757600Y-102188913D01*
X121741555Y-102115953D01*
X121730389Y-102039562D01*
X121723505Y-101960369D01*
X121720305Y-101879001D01*
X121720191Y-101796087D01*
X121722565Y-101712255D01*
X121732386Y-101544349D01*
X121744987Y-101380308D01*
X121755583Y-101225158D01*
X121758636Y-101152487D01*
X121759394Y-101083923D01*
X121757541Y-100534539D01*
X121760341Y-100114366D01*
X121764716Y-99944454D01*
X121771730Y-99796911D01*
X121781876Y-99668423D01*
X121795645Y-99555680D01*
X121813530Y-99455370D01*
X121836022Y-99364180D01*
X121863614Y-99278800D01*
X121896798Y-99195917D01*
X121936065Y-99112221D01*
X121981908Y-99024398D01*
X122095288Y-98823128D01*
X122139293Y-98786442D01*
X122180681Y-98749275D01*
X122219583Y-98711518D01*
X122256126Y-98673061D01*
X122290439Y-98633797D01*
X122322650Y-98593617D01*
X122352889Y-98552412D01*
X122381283Y-98510073D01*
X122407962Y-98466491D01*
X122433053Y-98421559D01*
X122456686Y-98375166D01*
X122478988Y-98327205D01*
X122500089Y-98277568D01*
X122520117Y-98226144D01*
X122539200Y-98172825D01*
X122557468Y-98117504D01*
X122582324Y-98053117D01*
X122610253Y-97994936D01*
X122641077Y-97942593D01*
X122674623Y-97895719D01*
X122710714Y-97853946D01*
X122749176Y-97816906D01*
X122789833Y-97784230D01*
X122832510Y-97755550D01*
X122877031Y-97730497D01*
X122923223Y-97708704D01*
X122970908Y-97689801D01*
X123019912Y-97673420D01*
X123121176Y-97646751D01*
X123225613Y-97625751D01*
X123438395Y-97588966D01*
X123543936Y-97567288D01*
X123647041Y-97539488D01*
X123697242Y-97522372D01*
X123746308Y-97502621D01*
X123794064Y-97479866D01*
X123840335Y-97453739D01*
X123884945Y-97423872D01*
X123927719Y-97389895D01*
X123968482Y-97351441D01*
X124007058Y-97308142D01*
X124033735Y-97293486D01*
X124060089Y-97280562D01*
X124086202Y-97269289D01*
X124112152Y-97259586D01*
X124138019Y-97251371D01*
X124163884Y-97244563D01*
X124189825Y-97239082D01*
X124215923Y-97234845D01*
X124242258Y-97231771D01*
X124268908Y-97229779D01*
X124295954Y-97228788D01*
X124323476Y-97228717D01*
X124351553Y-97229483D01*
X124380265Y-97231007D01*
X124439912Y-97236000D01*
X124472242Y-97248678D01*
X124504211Y-97261769D01*
X124535879Y-97275266D01*
X124567306Y-97289167D01*
X124598555Y-97303467D01*
X124629685Y-97318162D01*
X124660757Y-97333248D01*
X124691834Y-97348720D01*
X124717137Y-97361494D01*
X124727778Y-97366634D01*
X124737432Y-97371005D01*
X124746364Y-97374653D01*
X124754839Y-97377624D01*
X124763122Y-97379965D01*
X124771478Y-97381721D01*
X124780173Y-97382939D01*
X124789470Y-97383665D01*
X124799636Y-97383946D01*
X124810935Y-97383827D01*
X124823633Y-97383355D01*
X124837994Y-97382577D01*
X124872766Y-97380283D01*
X124896919Y-97369021D01*
X124919884Y-97357247D01*
X124941760Y-97344951D01*
X124962648Y-97332121D01*
X124982648Y-97318744D01*
X125001860Y-97304811D01*
X125020383Y-97290309D01*
X125038318Y-97275226D01*
X125055765Y-97259552D01*
X125072823Y-97243274D01*
X125089594Y-97226382D01*
X125106176Y-97208863D01*
X125122670Y-97190706D01*
X125139176Y-97171900D01*
X125172624Y-97132294D01*
X125211004Y-97088641D01*
X125250498Y-97047201D01*
X125291133Y-97008009D01*
X125332941Y-96971101D01*
X125375950Y-96936515D01*
X125420191Y-96904288D01*
X125465693Y-96874455D01*
X125512486Y-96847053D01*
X125560600Y-96822119D01*
X125610063Y-96799689D01*
X125660907Y-96779800D01*
X125713160Y-96762488D01*
X125766853Y-96747790D01*
X125822015Y-96735743D01*
X125878675Y-96726384D01*
X125936864Y-96719747D01*
X125972462Y-96723633D01*
X126006542Y-96728807D01*
X126039219Y-96735291D01*
X126070605Y-96743103D01*
X126100814Y-96752263D01*
X126129959Y-96762789D01*
X126158152Y-96774701D01*
X126185507Y-96788017D01*
X126212137Y-96802758D01*
X126238156Y-96818942D01*
X126263675Y-96836589D01*
X126288809Y-96855717D01*
X126313671Y-96876346D01*
X126338373Y-96898495D01*
X126363030Y-96922183D01*
X126387753Y-96947430D01*
X126401975Y-96913385D01*
X126417051Y-96880944D01*
X126432952Y-96850027D01*
X126449652Y-96820556D01*
X126467121Y-96792452D01*
X126485334Y-96765638D01*
X126504262Y-96740035D01*
X126523877Y-96715565D01*
X126544154Y-96692149D01*
X126565063Y-96669709D01*
X126586577Y-96648166D01*
X126608669Y-96627443D01*
X126654477Y-96588141D01*
X126702266Y-96551175D01*
X126751816Y-96515919D01*
X126802907Y-96481746D01*
X126908831Y-96414142D01*
X127018277Y-96343348D01*
X127073770Y-96305187D01*
X127129483Y-96264349D01*
X127182869Y-96227025D01*
X127235594Y-96196242D01*
X127287595Y-96171670D01*
X127338808Y-96152979D01*
X127389167Y-96139838D01*
X127438608Y-96131919D01*
X127487068Y-96128889D01*
X127534482Y-96130420D01*
G37*
G36*
X130584496Y-104758163D02*
G01*
X130676691Y-104763445D01*
X130769138Y-104771891D01*
X130862088Y-104784083D01*
X130955794Y-104800604D01*
X131050510Y-104822038D01*
X131146486Y-104848966D01*
X131243978Y-104881971D01*
X131243978Y-104881970D01*
X131243977Y-104881970D01*
X131243977Y-104881969D01*
X131243977Y-104881968D01*
X131326904Y-104912503D01*
X131363862Y-104926721D01*
X131397994Y-104940926D01*
X131429436Y-104955634D01*
X131458320Y-104971359D01*
X131471846Y-104979764D01*
X131484782Y-104988617D01*
X131497147Y-104997981D01*
X131508956Y-105007922D01*
X131520227Y-105018504D01*
X131530977Y-105029790D01*
X131541221Y-105041847D01*
X131550978Y-105054737D01*
X131560263Y-105068525D01*
X131569094Y-105083276D01*
X131577487Y-105099054D01*
X131585459Y-105115924D01*
X131593027Y-105133949D01*
X131600208Y-105153195D01*
X131607019Y-105173725D01*
X131613476Y-105195604D01*
X131625395Y-105243667D01*
X131636102Y-105297899D01*
X131635637Y-105342321D01*
X131641087Y-105387324D01*
X131652129Y-105432808D01*
X131668439Y-105478671D01*
X131689696Y-105524812D01*
X131715576Y-105571130D01*
X131745755Y-105617524D01*
X131779911Y-105663893D01*
X131817720Y-105710136D01*
X131858860Y-105756151D01*
X131903008Y-105801838D01*
X131949840Y-105847095D01*
X132050265Y-105935916D01*
X132157551Y-106021804D01*
X132269114Y-106103952D01*
X132382369Y-106181549D01*
X132494731Y-106253788D01*
X132603616Y-106319859D01*
X132706440Y-106378953D01*
X132800618Y-106430261D01*
X132883566Y-106472975D01*
X132952699Y-106506285D01*
X133520192Y-106788484D01*
X133920169Y-106997619D01*
X134333922Y-107225092D01*
X134713671Y-107450637D01*
X134875862Y-107556353D01*
X135011634Y-107653989D01*
X135115014Y-107741010D01*
X135152690Y-107779749D01*
X135180028Y-107814884D01*
X135196283Y-107846099D01*
X135200706Y-107873077D01*
X135192552Y-107895502D01*
X135171073Y-107913057D01*
X135110557Y-107932777D01*
X135047517Y-107957887D01*
X134914758Y-108022873D01*
X134774581Y-108105208D01*
X134628774Y-108202088D01*
X134479123Y-108310707D01*
X134327414Y-108428259D01*
X134175435Y-108551938D01*
X134024972Y-108678938D01*
X133474012Y-109164040D01*
X133254080Y-109353571D01*
X133164255Y-109425261D01*
X133090238Y-109477827D01*
X133041126Y-109503331D01*
X132994646Y-109526133D01*
X132950394Y-109546220D01*
X132907964Y-109563579D01*
X132866951Y-109578197D01*
X132826951Y-109590060D01*
X132787559Y-109599156D01*
X132748370Y-109605471D01*
X132708979Y-109608992D01*
X132668982Y-109609705D01*
X132627974Y-109607598D01*
X132585550Y-109602658D01*
X132541304Y-109594870D01*
X132494834Y-109584222D01*
X132445732Y-109570701D01*
X132393596Y-109554293D01*
X132326546Y-109526384D01*
X132254749Y-109498475D01*
X132181137Y-109469078D01*
X132144569Y-109453356D01*
X132108648Y-109436704D01*
X132073741Y-109418936D01*
X132040214Y-109399866D01*
X132008436Y-109379309D01*
X131978772Y-109357077D01*
X131951590Y-109332985D01*
X131939044Y-109320183D01*
X131927256Y-109306847D01*
X131916272Y-109292953D01*
X131906137Y-109278478D01*
X131896898Y-109263398D01*
X131888601Y-109247690D01*
X131886022Y-109238134D01*
X131882837Y-109228668D01*
X131879091Y-109219287D01*
X131874831Y-109209984D01*
X131870104Y-109200752D01*
X131864955Y-109191584D01*
X131853578Y-109173418D01*
X131841074Y-109155434D01*
X131827813Y-109137580D01*
X131800506Y-109102054D01*
X131787203Y-109084279D01*
X131774630Y-109066426D01*
X131763157Y-109048445D01*
X131757949Y-109039390D01*
X131753155Y-109030283D01*
X131748823Y-109021117D01*
X131744998Y-109011888D01*
X131741726Y-109002587D01*
X131739055Y-108993209D01*
X131737030Y-108983746D01*
X131735698Y-108974193D01*
X131735106Y-108964543D01*
X131735299Y-108954790D01*
X131735692Y-108944661D01*
X131735546Y-108935147D01*
X131734892Y-108926208D01*
X131733761Y-108917805D01*
X131732186Y-108909900D01*
X131730197Y-108902454D01*
X131727826Y-108895428D01*
X131725104Y-108888783D01*
X131722063Y-108882481D01*
X131718734Y-108876482D01*
X131715148Y-108870748D01*
X131711336Y-108865239D01*
X131703163Y-108854745D01*
X131694465Y-108844688D01*
X131676498Y-108824643D01*
X131667731Y-108814034D01*
X131663511Y-108808447D01*
X131659443Y-108802620D01*
X131655557Y-108796514D01*
X131651885Y-108790090D01*
X131648458Y-108783309D01*
X131645308Y-108776133D01*
X131642466Y-108768523D01*
X131639964Y-108760439D01*
X131637832Y-108751843D01*
X131636102Y-108742697D01*
X131630383Y-108736481D01*
X131625174Y-108730477D01*
X131620436Y-108724675D01*
X131616131Y-108719067D01*
X131608670Y-108708399D01*
X131602490Y-108698402D01*
X131597289Y-108689007D01*
X131592763Y-108680146D01*
X131584530Y-108663746D01*
X131580218Y-108656068D01*
X131575374Y-108648647D01*
X131572657Y-108645011D01*
X131569694Y-108641413D01*
X131566447Y-108637845D01*
X131562877Y-108634297D01*
X131558947Y-108630761D01*
X131554620Y-108627229D01*
X131549857Y-108623691D01*
X131544621Y-108620140D01*
X131538874Y-108616566D01*
X131532577Y-108612961D01*
X131525695Y-108609316D01*
X131518188Y-108605623D01*
X131491967Y-108590550D01*
X131466902Y-108574334D01*
X131442901Y-108557059D01*
X131419869Y-108538806D01*
X131397714Y-108519660D01*
X131376343Y-108499702D01*
X131355662Y-108479016D01*
X131335577Y-108457685D01*
X131315997Y-108435792D01*
X131296827Y-108413420D01*
X131259347Y-108367570D01*
X131185212Y-108273767D01*
X131136105Y-108211875D01*
X131090849Y-108148074D01*
X131048953Y-108082570D01*
X131009922Y-108015567D01*
X130973263Y-107947270D01*
X130938484Y-107877886D01*
X130872590Y-107736670D01*
X130808293Y-107593562D01*
X130741648Y-107450199D01*
X130706212Y-107378936D01*
X130668709Y-107308224D01*
X130628647Y-107238269D01*
X130585530Y-107169275D01*
X130555931Y-107138704D01*
X130527167Y-107110426D01*
X130499257Y-107084436D01*
X130472218Y-107060729D01*
X130446068Y-107039297D01*
X130420823Y-107020136D01*
X130396501Y-107003240D01*
X130373120Y-106988603D01*
X130350696Y-106976218D01*
X130329247Y-106966081D01*
X130308791Y-106958185D01*
X130289344Y-106952525D01*
X130270925Y-106949095D01*
X130253549Y-106947889D01*
X130237236Y-106948900D01*
X130222001Y-106952125D01*
X130207864Y-106957555D01*
X130194839Y-106965187D01*
X130182946Y-106975013D01*
X130172201Y-106987028D01*
X130162622Y-107001227D01*
X130154226Y-107017603D01*
X130147031Y-107036151D01*
X130141053Y-107056865D01*
X130136311Y-107079739D01*
X130132821Y-107104767D01*
X130130600Y-107131943D01*
X130129667Y-107161262D01*
X130130038Y-107192718D01*
X130131731Y-107226305D01*
X130134763Y-107262017D01*
X130139152Y-107299848D01*
X130154464Y-107373162D01*
X130168103Y-107445936D01*
X130180234Y-107518980D01*
X130191022Y-107593107D01*
X130219198Y-107771337D01*
X130249704Y-107948993D01*
X130282989Y-108126176D01*
X130319505Y-108302988D01*
X130336351Y-108384508D01*
X130341729Y-108411964D01*
X130345592Y-108437908D01*
X130348244Y-108462520D01*
X130349984Y-108485978D01*
X130353876Y-108571855D01*
X130355590Y-108592232D01*
X130358204Y-108612531D01*
X130362019Y-108632929D01*
X130367338Y-108653608D01*
X130374462Y-108674745D01*
X130383694Y-108696520D01*
X130389194Y-108707703D01*
X130395334Y-108719112D01*
X130402151Y-108730771D01*
X130409684Y-108742700D01*
X130414648Y-108755426D01*
X130419124Y-108767553D01*
X130426848Y-108790360D01*
X130433332Y-108811813D01*
X130439051Y-108832608D01*
X130450097Y-108874991D01*
X130456376Y-108897966D01*
X130463792Y-108923056D01*
X130470897Y-108947168D01*
X130477211Y-108971589D01*
X130482852Y-108996271D01*
X130487941Y-109021170D01*
X130496940Y-109071427D01*
X130505165Y-109121989D01*
X130513572Y-109172482D01*
X130523120Y-109222537D01*
X130528620Y-109247282D01*
X130534763Y-109271779D01*
X130541670Y-109295979D01*
X130549461Y-109319837D01*
X130623756Y-109539516D01*
X130692372Y-109757407D01*
X130723505Y-109865980D01*
X130751964Y-109974462D01*
X130777330Y-110082972D01*
X130799185Y-110191630D01*
X130817111Y-110300555D01*
X130830690Y-110409864D01*
X130839503Y-110519678D01*
X130843132Y-110630115D01*
X130841160Y-110741293D01*
X130833167Y-110853333D01*
X130818736Y-110966352D01*
X130797448Y-111080469D01*
X130780317Y-111160910D01*
X130653378Y-111247732D01*
X130507638Y-111332891D01*
X130345195Y-111416380D01*
X130168149Y-111498190D01*
X129978602Y-111578316D01*
X129778654Y-111656751D01*
X129355953Y-111808520D01*
X128916849Y-111953440D01*
X128478145Y-112091459D01*
X127669145Y-112346567D01*
X127646356Y-112347397D01*
X127624697Y-112348681D01*
X127604028Y-112350431D01*
X127584210Y-112352663D01*
X127565102Y-112355389D01*
X127546563Y-112358624D01*
X127528454Y-112362381D01*
X127510635Y-112366673D01*
X127492964Y-112371516D01*
X127475303Y-112376921D01*
X127457510Y-112382904D01*
X127439447Y-112389477D01*
X127401944Y-112404451D01*
X127361674Y-112421953D01*
X127288715Y-112426830D01*
X127254404Y-112428162D01*
X127221311Y-112428580D01*
X127189263Y-112427949D01*
X127158090Y-112426137D01*
X127127619Y-112423010D01*
X127097679Y-112418435D01*
X127068098Y-112412280D01*
X127038705Y-112404410D01*
X127009328Y-112394694D01*
X126979796Y-112382996D01*
X126949936Y-112369185D01*
X126919578Y-112353127D01*
X126888549Y-112334689D01*
X126856678Y-112313738D01*
X126814990Y-112273198D01*
X126774787Y-112232625D01*
X126736206Y-112191850D01*
X126699384Y-112150704D01*
X126664455Y-112109019D01*
X126631557Y-112066627D01*
X126600826Y-112023359D01*
X126572398Y-111979046D01*
X126546410Y-111933519D01*
X126522997Y-111886611D01*
X126502296Y-111838153D01*
X126484444Y-111787975D01*
X126476628Y-111762189D01*
X126469576Y-111735911D01*
X126463304Y-111709118D01*
X126457829Y-111681790D01*
X126453168Y-111653906D01*
X126449339Y-111625444D01*
X126446357Y-111596385D01*
X126444242Y-111566706D01*
X126443809Y-111519426D01*
X126443647Y-111472247D01*
X126443755Y-111425135D01*
X126444134Y-111378057D01*
X126444170Y-111277780D01*
X126445586Y-111228148D01*
X126448066Y-111179294D01*
X126451596Y-111131133D01*
X126456162Y-111083581D01*
X126461751Y-111036553D01*
X126468348Y-110989964D01*
X126475939Y-110943731D01*
X126484511Y-110897768D01*
X126504542Y-110806317D01*
X126528328Y-110714932D01*
X126555759Y-110622939D01*
X126586724Y-110529661D01*
X126590044Y-110501558D01*
X126592018Y-110475635D01*
X126592675Y-110451621D01*
X126592048Y-110429246D01*
X126590165Y-110408238D01*
X126587057Y-110388326D01*
X126582756Y-110369239D01*
X126577291Y-110350707D01*
X126570693Y-110332458D01*
X126562993Y-110314221D01*
X126554221Y-110295725D01*
X126544408Y-110276699D01*
X126521781Y-110235973D01*
X126495355Y-110189875D01*
X126484366Y-110164374D01*
X126474931Y-110138856D01*
X126466939Y-110113306D01*
X126460280Y-110087707D01*
X126454843Y-110062043D01*
X126450517Y-110036296D01*
X126447194Y-110010452D01*
X126444761Y-109984492D01*
X126443109Y-109958402D01*
X126442127Y-109932164D01*
X126441734Y-109879181D01*
X126444134Y-109770727D01*
X126443340Y-109683069D01*
X126444206Y-109645488D01*
X126446004Y-109608952D01*
X126448733Y-109573340D01*
X126452391Y-109538532D01*
X126456976Y-109504407D01*
X126462487Y-109470843D01*
X126468921Y-109437720D01*
X126476278Y-109404917D01*
X126484554Y-109372313D01*
X126493749Y-109339786D01*
X126503861Y-109307216D01*
X126514888Y-109274481D01*
X126539680Y-109208036D01*
X126568112Y-109139482D01*
X126495969Y-109139482D01*
X126495969Y-109067335D01*
X126423826Y-109067335D01*
X126340417Y-108865102D01*
X126313576Y-108797848D01*
X126293827Y-108745313D01*
X126279055Y-108701604D01*
X126267147Y-108660829D01*
X126255990Y-108617094D01*
X126243470Y-108564508D01*
X126233684Y-108531555D01*
X126225785Y-108498894D01*
X126219566Y-108466606D01*
X126214822Y-108434773D01*
X126208939Y-108372796D01*
X126206491Y-108313611D01*
X126205326Y-108206212D01*
X126203320Y-108159296D01*
X126198175Y-108117767D01*
X126193910Y-108099226D01*
X126188245Y-108082275D01*
X126180972Y-108066995D01*
X126171887Y-108053467D01*
X126160783Y-108041773D01*
X126147456Y-108031994D01*
X126131701Y-108024210D01*
X126113310Y-108018503D01*
X126092080Y-108014954D01*
X126067805Y-108013644D01*
X126040278Y-108014654D01*
X126009295Y-108018065D01*
X125974650Y-108023959D01*
X125936137Y-108032416D01*
X125893552Y-108043517D01*
X125846688Y-108057344D01*
X125769805Y-108254201D01*
X125692404Y-108443533D01*
X125612522Y-108626102D01*
X125528198Y-108802668D01*
X125483757Y-108888938D01*
X125437469Y-108973993D01*
X125389089Y-109057927D01*
X125338373Y-109140837D01*
X125285074Y-109222816D01*
X125228947Y-109303960D01*
X125169748Y-109384365D01*
X125107230Y-109464125D01*
X124964318Y-109640040D01*
X124818950Y-109812239D01*
X124526260Y-110151595D01*
X124381647Y-110321802D01*
X124239995Y-110494398D01*
X124102657Y-110670908D01*
X124036030Y-110761107D01*
X123970989Y-110852857D01*
X123868005Y-110995266D01*
X123816331Y-111062936D01*
X123764576Y-111127833D01*
X123712769Y-111189644D01*
X123660941Y-111248057D01*
X123609123Y-111302758D01*
X123557344Y-111353435D01*
X123505634Y-111399776D01*
X123454023Y-111441466D01*
X123402542Y-111478194D01*
X123351221Y-111509647D01*
X123300089Y-111535511D01*
X123249177Y-111555475D01*
X123223814Y-111563146D01*
X123198516Y-111569225D01*
X123173288Y-111573672D01*
X123148134Y-111576448D01*
X123094130Y-111577726D01*
X123036893Y-111573705D01*
X122976624Y-111564673D01*
X122913523Y-111550918D01*
X122779627Y-111510398D01*
X122636810Y-111454453D01*
X122486676Y-111385395D01*
X122330828Y-111305531D01*
X122170872Y-111217171D01*
X122008409Y-111122626D01*
X121365581Y-110728779D01*
X121070836Y-110554790D01*
X120935744Y-110481612D01*
X120810978Y-110420725D01*
X120782847Y-110380516D01*
X120758210Y-110337834D01*
X120737006Y-110292926D01*
X120719175Y-110246042D01*
X120704659Y-110197429D01*
X120693396Y-110147336D01*
X120685328Y-110096012D01*
X120680394Y-110043704D01*
X120678535Y-109990663D01*
X120679691Y-109937135D01*
X120683801Y-109883370D01*
X120690807Y-109829616D01*
X120700648Y-109776121D01*
X120713265Y-109723134D01*
X120728598Y-109670903D01*
X120746586Y-109619677D01*
X120767171Y-109569705D01*
X120790292Y-109521234D01*
X120815890Y-109474514D01*
X120843904Y-109429793D01*
X120874276Y-109387318D01*
X120906944Y-109347340D01*
X120941850Y-109310105D01*
X120978934Y-109275864D01*
X121018135Y-109244863D01*
X121059394Y-109217352D01*
X121102651Y-109193579D01*
X121147846Y-109173793D01*
X121194920Y-109158241D01*
X121243813Y-109147174D01*
X121294465Y-109140838D01*
X121346815Y-109139482D01*
X121394571Y-109135737D01*
X121416062Y-109133430D01*
X121436214Y-109130689D01*
X121455220Y-109127408D01*
X121473268Y-109123477D01*
X121490550Y-109118790D01*
X121507255Y-109113239D01*
X121523574Y-109106715D01*
X121539698Y-109099111D01*
X121555817Y-109090319D01*
X121572120Y-109080232D01*
X121588800Y-109068741D01*
X121606045Y-109055739D01*
X121624047Y-109041118D01*
X121642995Y-109024771D01*
X121687881Y-108969683D01*
X121731067Y-108918377D01*
X121772988Y-108870339D01*
X121814084Y-108825057D01*
X121854789Y-108782017D01*
X121895543Y-108740707D01*
X121936782Y-108700613D01*
X121978943Y-108661222D01*
X122022464Y-108622021D01*
X122067781Y-108582498D01*
X122165554Y-108500430D01*
X122275760Y-108410915D01*
X122401896Y-108309847D01*
X122571084Y-108216497D01*
X122727381Y-108124417D01*
X122800892Y-108078191D01*
X122871419Y-108031491D01*
X122939039Y-107984051D01*
X123003832Y-107935606D01*
X123065878Y-107885894D01*
X123125255Y-107834650D01*
X123182044Y-107781608D01*
X123236322Y-107726507D01*
X123288170Y-107669080D01*
X123337666Y-107609064D01*
X123384891Y-107546194D01*
X123429922Y-107480207D01*
X123426546Y-107103580D01*
X123429557Y-106726954D01*
X123433810Y-106538683D01*
X123440082Y-106350463D01*
X123448515Y-106162310D01*
X123459248Y-105974241D01*
X123466895Y-105839697D01*
X123470760Y-105790188D01*
X123475371Y-105742761D01*
X123480841Y-105697191D01*
X123487286Y-105653253D01*
X123494821Y-105610723D01*
X123503560Y-105569376D01*
X123513618Y-105528989D01*
X123525110Y-105489337D01*
X123538150Y-105450195D01*
X123552853Y-105411340D01*
X123569334Y-105372547D01*
X123587707Y-105333591D01*
X123608088Y-105294248D01*
X123630590Y-105254294D01*
X123655329Y-105213505D01*
X123682420Y-105171656D01*
X123708236Y-105163498D01*
X123733947Y-105156228D01*
X123759580Y-105149777D01*
X123785160Y-105144077D01*
X123810713Y-105139061D01*
X123836265Y-105134661D01*
X123887467Y-105127438D01*
X123938974Y-105121867D01*
X123990991Y-105117406D01*
X124097383Y-105109648D01*
X124301539Y-105103247D01*
X124511740Y-105105776D01*
X124725702Y-105117090D01*
X124941136Y-105137042D01*
X125155757Y-105165488D01*
X125367278Y-105202280D01*
X125471162Y-105223760D01*
X125573414Y-105247273D01*
X125673747Y-105272800D01*
X125771877Y-105300321D01*
X125851950Y-105315281D01*
X125930817Y-105326648D01*
X126008631Y-105334780D01*
X126085546Y-105340037D01*
X126161716Y-105342776D01*
X126237292Y-105343356D01*
X126387282Y-105339470D01*
X126686900Y-105321547D01*
X126838983Y-105313243D01*
X126994218Y-105309198D01*
X127174391Y-105294095D01*
X127362543Y-105269959D01*
X127556691Y-105238170D01*
X127754854Y-105200109D01*
X128155293Y-105110697D01*
X128548001Y-105012768D01*
X129246786Y-104835553D01*
X129521144Y-104778361D01*
X129632626Y-104762451D01*
X129724334Y-104756842D01*
X129825642Y-104759873D01*
X129924927Y-104760824D01*
X130118438Y-104758814D01*
X130306888Y-104755473D01*
X130492298Y-104755463D01*
X130584496Y-104758163D01*
G37*
G36*
X131243977Y-104881968D02*
G01*
X131243976Y-104881968D01*
X131243975Y-104881968D01*
X131243974Y-104881967D01*
X131243977Y-104881968D01*
G37*
G36*
X117374180Y-71401636D02*
G01*
X117447884Y-71405229D01*
X117521608Y-71410880D01*
X117593877Y-71418910D01*
X117663215Y-71429638D01*
X117728148Y-71443384D01*
X117758501Y-71451489D01*
X117787199Y-71460469D01*
X117814059Y-71470364D01*
X117838895Y-71481214D01*
X117847964Y-71485693D01*
X117856753Y-71489570D01*
X117865280Y-71492886D01*
X117873563Y-71495680D01*
X117881621Y-71497994D01*
X117889472Y-71499869D01*
X117897135Y-71501346D01*
X117904627Y-71502466D01*
X117919173Y-71503796D01*
X117933258Y-71504186D01*
X117960626Y-71503457D01*
X117974203Y-71502991D01*
X117987903Y-71502893D01*
X118001873Y-71503490D01*
X118016260Y-71505110D01*
X118023655Y-71506405D01*
X118031209Y-71508079D01*
X118038940Y-71510171D01*
X118046867Y-71512723D01*
X118055008Y-71515776D01*
X118063381Y-71519371D01*
X118072004Y-71523548D01*
X118080896Y-71528348D01*
X118148818Y-71565534D01*
X118217114Y-71601876D01*
X118285729Y-71637612D01*
X118354603Y-71672982D01*
X118581337Y-71789961D01*
X118693768Y-71849479D01*
X118805358Y-71910281D01*
X118915943Y-71972817D01*
X119025361Y-72037533D01*
X119133449Y-72104878D01*
X119240042Y-72175302D01*
X119255237Y-72184333D01*
X119269601Y-72192097D01*
X119283113Y-72198690D01*
X119295754Y-72204205D01*
X119307503Y-72208737D01*
X119318338Y-72212381D01*
X119328239Y-72215229D01*
X119337186Y-72217377D01*
X119345158Y-72218920D01*
X119352133Y-72219951D01*
X119363015Y-72220854D01*
X119371918Y-72220672D01*
X119373396Y-72219772D01*
X119375568Y-72219283D01*
X119378387Y-72219180D01*
X119381807Y-72219434D01*
X119390267Y-72220905D01*
X119400578Y-72223473D01*
X119412370Y-72226920D01*
X119425275Y-72231024D01*
X119452943Y-72240322D01*
X119480628Y-72249603D01*
X119493554Y-72253686D01*
X119505376Y-72257103D01*
X119515724Y-72259633D01*
X119524231Y-72261057D01*
X119527677Y-72261285D01*
X119530525Y-72261153D01*
X119532727Y-72260634D01*
X119534238Y-72259701D01*
X119580004Y-72280697D01*
X119692352Y-72333479D01*
X119761798Y-72367006D01*
X119833856Y-72402740D01*
X119903846Y-72438765D01*
X119967092Y-72473170D01*
X120129412Y-72563348D01*
X120229496Y-72623129D01*
X120320111Y-72678453D01*
X120410063Y-72734839D01*
X120508159Y-72797810D01*
X120588601Y-72848104D01*
X120668830Y-72895328D01*
X120749055Y-72940275D01*
X120829485Y-72983735D01*
X120991797Y-73069357D01*
X121074097Y-73113101D01*
X121157439Y-73158522D01*
X121319989Y-73250213D01*
X121482080Y-73342737D01*
X121491177Y-73348155D01*
X121501140Y-73354475D01*
X121523170Y-73369302D01*
X121572190Y-73404080D01*
X121597206Y-73421960D01*
X121621244Y-73438785D01*
X121643316Y-73453519D01*
X121653306Y-73459778D01*
X121662435Y-73465126D01*
X121806451Y-73548616D01*
X121939378Y-73630261D01*
X122002421Y-73671095D01*
X122063578Y-73712313D01*
X122123143Y-73754196D01*
X122181413Y-73797025D01*
X122238682Y-73841083D01*
X122295245Y-73886652D01*
X122351399Y-73934011D01*
X122407438Y-73983444D01*
X122463658Y-74035232D01*
X122520354Y-74089657D01*
X122577821Y-74147000D01*
X122636355Y-74207542D01*
X122684778Y-74256945D01*
X122733889Y-74304748D01*
X122783794Y-74351093D01*
X122834598Y-74396127D01*
X122886409Y-74439992D01*
X122939331Y-74482832D01*
X122993472Y-74524793D01*
X123048937Y-74566018D01*
X123118048Y-74616625D01*
X123209274Y-74681324D01*
X123301305Y-74744755D01*
X123394042Y-74807086D01*
X123487386Y-74868483D01*
X123675502Y-74989140D01*
X123864865Y-75108058D01*
X123984907Y-75183986D01*
X124103715Y-75261230D01*
X124221285Y-75340333D01*
X124279605Y-75380752D01*
X124337614Y-75421841D01*
X124393704Y-75460553D01*
X124450077Y-75497522D01*
X124506886Y-75532895D01*
X124564284Y-75566820D01*
X124622427Y-75599442D01*
X124681468Y-75630909D01*
X124741561Y-75661369D01*
X124802859Y-75690967D01*
X124952808Y-75764661D01*
X125070927Y-75821626D01*
X125189507Y-75877672D01*
X125211846Y-75889667D01*
X125234342Y-75903399D01*
X125256939Y-75918727D01*
X125279580Y-75935512D01*
X125324765Y-75972903D01*
X125369444Y-76014459D01*
X125413162Y-76059072D01*
X125455463Y-76105630D01*
X125495894Y-76153024D01*
X125533999Y-76200143D01*
X125601415Y-76289114D01*
X125654072Y-76363663D01*
X125700563Y-76433960D01*
X125715947Y-76437232D01*
X125731988Y-76441174D01*
X125741166Y-76443678D01*
X125750760Y-76446522D01*
X125760505Y-76449694D01*
X125770135Y-76453180D01*
X125779384Y-76456968D01*
X125787986Y-76461048D01*
X125795677Y-76465405D01*
X125799097Y-76467684D01*
X125802189Y-76470028D01*
X125804920Y-76472436D01*
X125807257Y-76474905D01*
X125809166Y-76477435D01*
X125810615Y-76480023D01*
X125817490Y-76481839D01*
X125823970Y-76483848D01*
X125830081Y-76486036D01*
X125835851Y-76488389D01*
X125841305Y-76490894D01*
X125846471Y-76493537D01*
X125851374Y-76496303D01*
X125856042Y-76499180D01*
X125860500Y-76502153D01*
X125864776Y-76505208D01*
X125872885Y-76511510D01*
X125880581Y-76517976D01*
X125888077Y-76524494D01*
X125895585Y-76530955D01*
X125903318Y-76537247D01*
X125911486Y-76543259D01*
X125915800Y-76546126D01*
X125920303Y-76548882D01*
X125925021Y-76551513D01*
X125929980Y-76554004D01*
X125935208Y-76556343D01*
X125940730Y-76558515D01*
X125946574Y-76560506D01*
X125952766Y-76562303D01*
X125959332Y-76563892D01*
X125966298Y-76565259D01*
X126108462Y-76641707D01*
X126449511Y-76830342D01*
X126654568Y-76947647D01*
X126861285Y-77070100D01*
X127053643Y-77190069D01*
X127139431Y-77246736D01*
X127215621Y-77299920D01*
X127292249Y-77356518D01*
X127364714Y-77412765D01*
X127503047Y-77524179D01*
X127571857Y-77579334D01*
X127642393Y-77634112D01*
X127716127Y-77688507D01*
X127754652Y-77715559D01*
X127794529Y-77742513D01*
X127871884Y-77795411D01*
X127941294Y-77845992D01*
X128003863Y-77894634D01*
X128060692Y-77941713D01*
X128112885Y-77987606D01*
X128161543Y-78032689D01*
X128252668Y-78121932D01*
X128342887Y-78212455D01*
X128390412Y-78259138D01*
X128441019Y-78307270D01*
X128495809Y-78357229D01*
X128555885Y-78409391D01*
X128622350Y-78464132D01*
X128696305Y-78521830D01*
X128853206Y-78638212D01*
X128938163Y-78699538D01*
X129025311Y-78761270D01*
X129113040Y-78822142D01*
X129199742Y-78880892D01*
X129283806Y-78936255D01*
X129363622Y-78986967D01*
X129463839Y-79047580D01*
X129589283Y-79121909D01*
X129714618Y-79196401D01*
X129814510Y-79257501D01*
X129821155Y-79262136D01*
X129831152Y-79269797D01*
X129859115Y-79292361D01*
X129932313Y-79353616D01*
X130030936Y-79437856D01*
X130215708Y-79554911D01*
X130302031Y-79610702D01*
X130384552Y-79666150D01*
X130463451Y-79722370D01*
X130501598Y-79751116D01*
X130538908Y-79780473D01*
X130575402Y-79810579D01*
X130611103Y-79841572D01*
X130646034Y-79873593D01*
X130680217Y-79906780D01*
X130715858Y-79925641D01*
X130751818Y-79943907D01*
X130788048Y-79961645D01*
X130824502Y-79978923D01*
X130862750Y-80007242D01*
X130900670Y-80036010D01*
X130938273Y-80065191D01*
X130975568Y-80094747D01*
X131098671Y-80190653D01*
X131222863Y-80284950D01*
X131347961Y-80378056D01*
X131473783Y-80470392D01*
X131641923Y-80594398D01*
X131809172Y-80719472D01*
X131975554Y-80845696D01*
X132141097Y-80973151D01*
X132222215Y-81035258D01*
X132303838Y-81096455D01*
X132385961Y-81156818D01*
X132468579Y-81216424D01*
X132635282Y-81333674D01*
X132803907Y-81448821D01*
X133035116Y-81605180D01*
X133209620Y-81724947D01*
X133336349Y-81815835D01*
X133384589Y-81852862D01*
X133424233Y-81885561D01*
X133456398Y-81914898D01*
X133482201Y-81941838D01*
X133502757Y-81967344D01*
X133519183Y-81992380D01*
X133532595Y-82017912D01*
X133544109Y-82044903D01*
X133565908Y-82107119D01*
X133638051Y-82143191D01*
X133641222Y-82144953D01*
X133644947Y-82147233D01*
X133649887Y-82150518D01*
X133655884Y-82154860D01*
X133662780Y-82160311D01*
X133670415Y-82166924D01*
X133678631Y-82174753D01*
X133682908Y-82179140D01*
X133687270Y-82183850D01*
X133691699Y-82188891D01*
X133696173Y-82194268D01*
X133700675Y-82199989D01*
X133705182Y-82206060D01*
X133709677Y-82212488D01*
X133714139Y-82219279D01*
X133718547Y-82226439D01*
X133722883Y-82233976D01*
X133727127Y-82241897D01*
X133731258Y-82250207D01*
X133735258Y-82258913D01*
X133739105Y-82268022D01*
X133742781Y-82277541D01*
X133746265Y-82287475D01*
X133745932Y-82289089D01*
X133745840Y-82290995D01*
X133745909Y-82292192D01*
X133746089Y-82293538D01*
X133746408Y-82295024D01*
X133746893Y-82296642D01*
X133747572Y-82298382D01*
X133748471Y-82300235D01*
X133749617Y-82302192D01*
X133751039Y-82304244D01*
X133752761Y-82306381D01*
X133754813Y-82308595D01*
X133757221Y-82310876D01*
X133760011Y-82313215D01*
X133763212Y-82315603D01*
X133766850Y-82318030D01*
X133770952Y-82320488D01*
X133775546Y-82322967D01*
X133780659Y-82325459D01*
X133786317Y-82327954D01*
X133792548Y-82330442D01*
X133799378Y-82332915D01*
X133806836Y-82335364D01*
X133814948Y-82337779D01*
X133823741Y-82340151D01*
X133833242Y-82342472D01*
X133843479Y-82344731D01*
X133854478Y-82346920D01*
X133875732Y-82364828D01*
X133900182Y-82386290D01*
X133931963Y-82415271D01*
X133950162Y-82432388D01*
X133969664Y-82451155D01*
X133990293Y-82471494D01*
X134011873Y-82493328D01*
X134034225Y-82516581D01*
X134057176Y-82541175D01*
X134080546Y-82567034D01*
X134104161Y-82594080D01*
X134292299Y-82744740D01*
X134428203Y-82854878D01*
X134477661Y-82895844D01*
X134503759Y-82918720D01*
X134846433Y-83049333D01*
X134972682Y-83225325D01*
X134983832Y-83238545D01*
X134991991Y-83251031D01*
X134997334Y-83262837D01*
X135000033Y-83274023D01*
X135000260Y-83284646D01*
X134998187Y-83294762D01*
X134993987Y-83304429D01*
X134987832Y-83313705D01*
X134979895Y-83322647D01*
X134970349Y-83331312D01*
X134959365Y-83339757D01*
X134947117Y-83348040D01*
X134919516Y-83364350D01*
X134888925Y-83380700D01*
X134824295Y-83415355D01*
X134793014Y-83434578D01*
X134778237Y-83444864D01*
X134764264Y-83455676D01*
X134751268Y-83467072D01*
X134739422Y-83479109D01*
X134728898Y-83491844D01*
X134719869Y-83505334D01*
X134712507Y-83519638D01*
X134706985Y-83534812D01*
X134703475Y-83550913D01*
X134702150Y-83568000D01*
X134668581Y-83645863D01*
X134630332Y-83729210D01*
X134581072Y-83829741D01*
X134553086Y-83883538D01*
X134523274Y-83938134D01*
X134491948Y-83992367D01*
X134459414Y-84045069D01*
X134425984Y-84095077D01*
X134391965Y-84141225D01*
X134357668Y-84182348D01*
X134340512Y-84200661D01*
X134323402Y-84217281D01*
X134302653Y-84233452D01*
X134284265Y-84248635D01*
X134268070Y-84262867D01*
X134253900Y-84276188D01*
X134241586Y-84288636D01*
X134230963Y-84300251D01*
X134221861Y-84311070D01*
X134214113Y-84321132D01*
X134202008Y-84339142D01*
X134193307Y-84354590D01*
X134180749Y-84379037D01*
X134177641Y-84384031D01*
X134174209Y-84388655D01*
X134170287Y-84392948D01*
X134165706Y-84396949D01*
X134160299Y-84400696D01*
X134153898Y-84404228D01*
X134146335Y-84407584D01*
X134137444Y-84410802D01*
X134127055Y-84413921D01*
X134115001Y-84416979D01*
X134085229Y-84423071D01*
X134046785Y-84429385D01*
X133998328Y-84436232D01*
X133966071Y-84441145D01*
X133934260Y-84446514D01*
X133902778Y-84452332D01*
X133871510Y-84458588D01*
X133840341Y-84465274D01*
X133809154Y-84472379D01*
X133746265Y-84487814D01*
X133659795Y-84491562D01*
X133575487Y-84489030D01*
X133493234Y-84480576D01*
X133412930Y-84466556D01*
X133334469Y-84447328D01*
X133257746Y-84423247D01*
X133182653Y-84394671D01*
X133109085Y-84361958D01*
X133036935Y-84325463D01*
X132966098Y-84285544D01*
X132896467Y-84242557D01*
X132827937Y-84196861D01*
X132760401Y-84148810D01*
X132693753Y-84098764D01*
X132562698Y-83994108D01*
X132467288Y-83912516D01*
X132434371Y-83886615D01*
X132401468Y-83861977D01*
X132368414Y-83838417D01*
X132335048Y-83815750D01*
X132301207Y-83793792D01*
X132266727Y-83772357D01*
X132231447Y-83751262D01*
X132195203Y-83730321D01*
X132070361Y-83656339D01*
X131981348Y-83605065D01*
X131892309Y-83555009D01*
X131802944Y-83506398D01*
X131712955Y-83459458D01*
X131622040Y-83414417D01*
X131529901Y-83371503D01*
X131436238Y-83330941D01*
X131340751Y-83292958D01*
X131203239Y-83237602D01*
X131069827Y-83178355D01*
X130940002Y-83114997D01*
X130813255Y-83047304D01*
X130689074Y-82975057D01*
X130566950Y-82898033D01*
X130446371Y-82816011D01*
X130326827Y-82728770D01*
X130250150Y-82676762D01*
X130172362Y-82626624D01*
X130093646Y-82578032D01*
X130014189Y-82530662D01*
X129853786Y-82438293D01*
X129692626Y-82346920D01*
X129565231Y-82273014D01*
X129438914Y-82197474D01*
X129313348Y-82120682D01*
X129188205Y-82043021D01*
X129083224Y-81979119D01*
X128977614Y-81916286D01*
X128765454Y-81792148D01*
X128640711Y-81718460D01*
X128517141Y-81643875D01*
X128394640Y-81568244D01*
X128273105Y-81491422D01*
X128152430Y-81413261D01*
X128032512Y-81333613D01*
X127913245Y-81252333D01*
X127794526Y-81169271D01*
X127664441Y-81081480D01*
X127532888Y-80997404D01*
X127399898Y-80916579D01*
X127265503Y-80838539D01*
X127129734Y-80762822D01*
X126992620Y-80688961D01*
X126854194Y-80616492D01*
X126714485Y-80544951D01*
X126559997Y-80464853D01*
X126483563Y-80423902D01*
X126407642Y-80382194D01*
X126332213Y-80339612D01*
X126257255Y-80296039D01*
X126182748Y-80251357D01*
X126108671Y-80205450D01*
X126086589Y-80193300D01*
X126064372Y-80181724D01*
X126042023Y-80170678D01*
X126019545Y-80160119D01*
X125974213Y-80140288D01*
X125928397Y-80121883D01*
X125882117Y-80104556D01*
X125835395Y-80087961D01*
X125740709Y-80055575D01*
X125581252Y-79994998D01*
X125421097Y-79929066D01*
X125341360Y-79893795D01*
X125262172Y-79856827D01*
X125183775Y-79818044D01*
X125106408Y-79777327D01*
X125030314Y-79734555D01*
X124955733Y-79689610D01*
X124882907Y-79642373D01*
X124812077Y-79592724D01*
X124743484Y-79540545D01*
X124677369Y-79485715D01*
X124613973Y-79428115D01*
X124553538Y-79367627D01*
X124538923Y-79353924D01*
X124524407Y-79340813D01*
X124509946Y-79328246D01*
X124495501Y-79316178D01*
X124481029Y-79304562D01*
X124466490Y-79293353D01*
X124451842Y-79282503D01*
X124437045Y-79271966D01*
X124422057Y-79261697D01*
X124406836Y-79251648D01*
X124375533Y-79232029D01*
X124342806Y-79212737D01*
X124308326Y-79193404D01*
X124208625Y-79137998D01*
X124101745Y-79079419D01*
X123876589Y-78953856D01*
X123760657Y-78889144D01*
X123627661Y-78813347D01*
X123495254Y-78736590D01*
X123231529Y-78581169D01*
X123131503Y-78521831D01*
X122566448Y-78184387D01*
X122501882Y-78145790D01*
X122419747Y-78096317D01*
X122337875Y-78046455D01*
X122256261Y-77996167D01*
X122174896Y-77945415D01*
X122081749Y-77888479D01*
X121989019Y-77834207D01*
X121896080Y-77782664D01*
X121802309Y-77733917D01*
X121707080Y-77688033D01*
X121609769Y-77645078D01*
X121560138Y-77624719D01*
X121509751Y-77605118D01*
X121458532Y-77586282D01*
X121406402Y-77568220D01*
X121371660Y-77554185D01*
X121344365Y-77542843D01*
X121332772Y-77537787D01*
X121322153Y-77532933D01*
X121312213Y-77528122D01*
X121302656Y-77523198D01*
X121293187Y-77518003D01*
X121283510Y-77512379D01*
X121262347Y-77499218D01*
X121236803Y-77482456D01*
X121204511Y-77460836D01*
X121143373Y-77421878D01*
X121081369Y-77385211D01*
X121018572Y-77350463D01*
X120955058Y-77317259D01*
X120890899Y-77285228D01*
X120826169Y-77253994D01*
X120695296Y-77192431D01*
X120471654Y-77087319D01*
X120360591Y-77035160D01*
X120290346Y-77001221D01*
X120220450Y-76966734D01*
X120150817Y-76931732D01*
X120081364Y-76896251D01*
X120032463Y-76870131D01*
X119986345Y-76843283D01*
X119942544Y-76816054D01*
X119900593Y-76788790D01*
X119820381Y-76735548D01*
X119781187Y-76710264D01*
X119741979Y-76686334D01*
X119702292Y-76664105D01*
X119661660Y-76643924D01*
X119619617Y-76626138D01*
X119597920Y-76618252D01*
X119575696Y-76611095D01*
X119552886Y-76604709D01*
X119529431Y-76599140D01*
X119505275Y-76594429D01*
X119480357Y-76590621D01*
X119454621Y-76587759D01*
X119428008Y-76585886D01*
X119400459Y-76585046D01*
X119371916Y-76585281D01*
X119204577Y-76534129D01*
X119147770Y-76515579D01*
X119123178Y-76506504D01*
X119100022Y-76496970D01*
X119077472Y-76486533D01*
X119054699Y-76474747D01*
X119030873Y-76461168D01*
X119005165Y-76445351D01*
X118976745Y-76426853D01*
X118944784Y-76405228D01*
X118866921Y-76350819D01*
X118416032Y-76134392D01*
X118400212Y-76124046D01*
X118384533Y-76115049D01*
X118368967Y-76107254D01*
X118353484Y-76100509D01*
X118338055Y-76094667D01*
X118322651Y-76089577D01*
X118307242Y-76085090D01*
X118291799Y-76081056D01*
X118229105Y-76066466D01*
X118213055Y-76062457D01*
X118196796Y-76058005D01*
X118180299Y-76052960D01*
X118163534Y-76047172D01*
X118051642Y-75969258D01*
X117884709Y-75852320D01*
X117801643Y-75793298D01*
X117718993Y-75733678D01*
X117645304Y-75681638D01*
X117571050Y-75631127D01*
X117496184Y-75582016D01*
X117420658Y-75534173D01*
X117344426Y-75487468D01*
X117267439Y-75441770D01*
X117189651Y-75396950D01*
X117111015Y-75352875D01*
X117103115Y-75348366D01*
X117095644Y-75343859D01*
X117088574Y-75339353D01*
X117081878Y-75334844D01*
X117075529Y-75330330D01*
X117069501Y-75325808D01*
X117058299Y-75316729D01*
X117048056Y-75307585D01*
X117038556Y-75298355D01*
X117029586Y-75289017D01*
X117020928Y-75279549D01*
X117003692Y-75260138D01*
X116994683Y-75250152D01*
X116985126Y-75239949D01*
X116974807Y-75229508D01*
X116963509Y-75218807D01*
X116951017Y-75207825D01*
X116937117Y-75196541D01*
X116902265Y-75170925D01*
X116865755Y-75143527D01*
X116827919Y-75115355D01*
X116789090Y-75087417D01*
X116769408Y-75073850D01*
X116749602Y-75060719D01*
X116729715Y-75048150D01*
X116709788Y-75036270D01*
X116689862Y-75025204D01*
X116669980Y-75015078D01*
X116650183Y-75006018D01*
X116630512Y-74998150D01*
X116554473Y-74967002D01*
X116477936Y-74933809D01*
X116324112Y-74861704D01*
X116170528Y-74782669D01*
X116018669Y-74697542D01*
X115870021Y-74607155D01*
X115726070Y-74512346D01*
X115588301Y-74413948D01*
X115522199Y-74363665D01*
X115458200Y-74312798D01*
X115410602Y-74276510D01*
X115362872Y-74242366D01*
X115314950Y-74210204D01*
X115266774Y-74179859D01*
X115218283Y-74151168D01*
X115169416Y-74123968D01*
X115120112Y-74098094D01*
X115070309Y-74073385D01*
X114968964Y-74026802D01*
X114864890Y-73982913D01*
X114757599Y-73940408D01*
X114646600Y-73897980D01*
X114546914Y-73858559D01*
X114450980Y-73817598D01*
X114357959Y-73774788D01*
X114267010Y-73729820D01*
X114177294Y-73682386D01*
X114087970Y-73632175D01*
X113998200Y-73578880D01*
X113907142Y-73522190D01*
X113766537Y-73436377D01*
X113641117Y-73357634D01*
X113576730Y-73318245D01*
X113552083Y-73302386D01*
X113528233Y-73286466D01*
X113505144Y-73270414D01*
X113482781Y-73254159D01*
X113461107Y-73237628D01*
X113440086Y-73220752D01*
X113419683Y-73203457D01*
X113399860Y-73185672D01*
X113380582Y-73167327D01*
X113361813Y-73148349D01*
X113343516Y-73128667D01*
X113325657Y-73108209D01*
X113308197Y-73086905D01*
X113291102Y-73064682D01*
X113274336Y-73041469D01*
X113257862Y-73017195D01*
X113252838Y-72961319D01*
X113251256Y-72934669D01*
X113250411Y-72908751D01*
X113250393Y-72883471D01*
X113251290Y-72858734D01*
X113253189Y-72834445D01*
X113256180Y-72810510D01*
X113260350Y-72786835D01*
X113265789Y-72763324D01*
X113272584Y-72739882D01*
X113280825Y-72716416D01*
X113290598Y-72692831D01*
X113301994Y-72669032D01*
X113315099Y-72644924D01*
X113330004Y-72620412D01*
X113332236Y-72620249D01*
X113334468Y-72619772D01*
X113336700Y-72619002D01*
X113338933Y-72617960D01*
X113341166Y-72616668D01*
X113343400Y-72615146D01*
X113345635Y-72613415D01*
X113347870Y-72611496D01*
X113352345Y-72607177D01*
X113356825Y-72602357D01*
X113365804Y-72591880D01*
X113370306Y-72586558D01*
X113374818Y-72581403D01*
X113379340Y-72576583D01*
X113383874Y-72572264D01*
X113386145Y-72570345D01*
X113388420Y-72568614D01*
X113390698Y-72567092D01*
X113392980Y-72565800D01*
X113395266Y-72564758D01*
X113397555Y-72563989D01*
X113399849Y-72563512D01*
X113402146Y-72563348D01*
X113403262Y-72560164D01*
X113404378Y-72557293D01*
X113405494Y-72554714D01*
X113406611Y-72552406D01*
X113407727Y-72550349D01*
X113408844Y-72548520D01*
X113409961Y-72546899D01*
X113411079Y-72545465D01*
X113412198Y-72544196D01*
X113413317Y-72543072D01*
X113414436Y-72542071D01*
X113415556Y-72541172D01*
X113417800Y-72539598D01*
X113420046Y-72538179D01*
X113422297Y-72536748D01*
X113424553Y-72535136D01*
X113425683Y-72534209D01*
X113426814Y-72533173D01*
X113427947Y-72532007D01*
X113429081Y-72530691D01*
X113430217Y-72529203D01*
X113431354Y-72527522D01*
X113432493Y-72525626D01*
X113433634Y-72523496D01*
X113434777Y-72521109D01*
X113435922Y-72518444D01*
X113437068Y-72515482D01*
X113438217Y-72512199D01*
X113464466Y-72499904D01*
X113485430Y-72490263D01*
X113503221Y-72482459D01*
X113519954Y-72475671D01*
X113537743Y-72469082D01*
X113558699Y-72461871D01*
X113618573Y-72442311D01*
X113667340Y-72425688D01*
X113715380Y-72408627D01*
X113762815Y-72390985D01*
X113809763Y-72372617D01*
X113856345Y-72353379D01*
X113902679Y-72333128D01*
X113948885Y-72311719D01*
X113995084Y-72289009D01*
X114019441Y-72278078D01*
X114043384Y-72268206D01*
X114066994Y-72259335D01*
X114090353Y-72251404D01*
X114113540Y-72244353D01*
X114136639Y-72238124D01*
X114159729Y-72232655D01*
X114182892Y-72227889D01*
X114206210Y-72223764D01*
X114229763Y-72220221D01*
X114253633Y-72217201D01*
X114277901Y-72214643D01*
X114327955Y-72210679D01*
X114380576Y-72207849D01*
X114419206Y-72205298D01*
X114455198Y-72201678D01*
X114488843Y-72196932D01*
X114520432Y-72191004D01*
X114550256Y-72183839D01*
X114578606Y-72175378D01*
X114605772Y-72165568D01*
X114632046Y-72154350D01*
X114657717Y-72141669D01*
X114683077Y-72127468D01*
X114708417Y-72111692D01*
X114734028Y-72094284D01*
X114760200Y-72075187D01*
X114787224Y-72054345D01*
X114844991Y-72007203D01*
X114866427Y-71996336D01*
X114887447Y-71986502D01*
X114908133Y-71977643D01*
X114928564Y-71969697D01*
X114948821Y-71962606D01*
X114968985Y-71956308D01*
X114989136Y-71950744D01*
X115009354Y-71945854D01*
X115029719Y-71941578D01*
X115050312Y-71937855D01*
X115071214Y-71934626D01*
X115092504Y-71931831D01*
X115136572Y-71927303D01*
X115183158Y-71923789D01*
X115211325Y-71920801D01*
X115238043Y-71917010D01*
X115263456Y-71912388D01*
X115287710Y-71906906D01*
X115310948Y-71900537D01*
X115333317Y-71893253D01*
X115354962Y-71885025D01*
X115376026Y-71875825D01*
X115396655Y-71865626D01*
X115416994Y-71854398D01*
X115437188Y-71842114D01*
X115457382Y-71828746D01*
X115477721Y-71814265D01*
X115498350Y-71798644D01*
X115519413Y-71781854D01*
X115541056Y-71763867D01*
X115566161Y-71746200D01*
X115591258Y-71730146D01*
X115616397Y-71715625D01*
X115641629Y-71702559D01*
X115667004Y-71690870D01*
X115692573Y-71680479D01*
X115718385Y-71671307D01*
X115744492Y-71663278D01*
X115770943Y-71656311D01*
X115797789Y-71650328D01*
X115825081Y-71645251D01*
X115852867Y-71641002D01*
X115881200Y-71637502D01*
X115910129Y-71634672D01*
X115939705Y-71632435D01*
X115969978Y-71630711D01*
X116035244Y-71624917D01*
X116096484Y-71618040D01*
X116154456Y-71610080D01*
X116209916Y-71601040D01*
X116263621Y-71590921D01*
X116316329Y-71579727D01*
X116421782Y-71554119D01*
X116532333Y-71524233D01*
X116654040Y-71490085D01*
X116792960Y-71451692D01*
X116955152Y-71409072D01*
X117057593Y-71403333D01*
X117167941Y-71400003D01*
X117301972Y-71399781D01*
X117374180Y-71401636D01*
G37*
D11*
%TO.C,H1*%
X171460000Y-84145000D03*
D12*
X171460000Y-81605000D03*
X174000000Y-84145000D03*
X174000000Y-81605000D03*
X176540000Y-84145000D03*
X176540000Y-81605000D03*
%TD*%
D13*
%TO.C,J2*%
X170775000Y-119400000D03*
D14*
X157275000Y-119400000D03*
%TD*%
D15*
%TO.C,SW5*%
X177327500Y-111700000D03*
X177327500Y-113400000D03*
%TD*%
%TO.C,SW3*%
X177327500Y-88800000D03*
X177327500Y-90500000D03*
%TD*%
%TO.C,SW4*%
X177327500Y-100250000D03*
X177327500Y-101950000D03*
%TD*%
D16*
%TO.C,J1*%
X130125000Y-115250000D03*
X124345000Y-115250000D03*
%TD*%
M02*
